<?xml version="1.0" encoding="utf-8"?><!DOCTYPE svg  PUBLIC '-//W3C//DTD SVG 1.1//EN'  'http://www.w3.org/Graphics/SVG/1.1/DTD/svg11.dtd'><svg enable_background="new 0 0 1000 1001" height="1001px" pretty_print="False" style="stroke-linejoin: round; stroke:#000; fill: none;" version="1.1" viewBox="0 0 1000 1001" width="1000px" xmlns="http://www.w3.org/2000/svg" xmlns:xlink="http://www.w3.org/1999/xlink"><defs><style type="text/css"><![CDATA[path { fill-rule: evenodd; }]]></style></defs><metadata><views><view h="1001" padding="0" w="1000"><proj flip="auto" id="robinson" lon0="-72.6629287189"/><bbox h="17.98" w="31.03" x="-1000.73" y="-705.54"/></view></views></metadata><g class="" id="mylayer"><path d="M1000.000000,223.994761L999.161410,224.035671L999.155145,224.036195L999.143395,224.036195L998.240800,224.028328L996.516606,223.997908L991.081166,223.901403L990.436369,223.890389L990.203187,223.886193L989.920742,223.919236L988.472717,223.886718L988.428238,223.885669L987.923488,223.876228L987.029146,223.860494L986.994587,223.858396L986.900050,223.852102L986.298905,223.860494L986.270618,223.860494L986.267136,223.860494L985.828535,223.851053L985.793195,223.850004L985.787973,223.850004L985.313746,223.828500L985.285804,223.827451L984.957287,223.810144L984.799905,223.801752L984.788155,223.801752L984.038176,223.810144L983.978991,223.810144L983.974204,223.810144L983.864275,223.809619L983.263797,223.805423L983.250306,223.805423L982.801189,223.802801L982.350504,223.799654L982.222906,223.798605L981.824610,223.792311L981.704320,223.790213L981.215500,223.781297L981.144911,223.780248L981.074495,223.778675L980.514823,223.768185L980.505249,223.768185L980.461903,223.767661L980.457987,223.767661L978.681611,223.750353L978.299423,223.746681L978.269133,223.746157L977.496836,223.737765L977.149463,223.734094L976.933606,223.731471L976.439403,223.728324L974.559973,223.709443L974.092150,223.709443L973.871076,223.709443L973.430234,223.709443L971.690366,223.709443L971.662949,223.709443L969.416593,223.659093L969.320049,223.649652L968.661648,223.583568L968.002824,223.645456L966.777033,223.621330L966.729168,223.623953L965.770090,223.614512L964.650947,223.603498L964.444927,223.601400L964.360607,223.610316L964.256787,223.617659L964.156846,223.606645L963.947562,223.584092L963.817207,223.596680L963.676151,223.611365L962.142952,223.546854L962.123631,223.547379L961.488216,223.567309L961.384642,223.567309L961.331985,223.567309L961.279328,223.567309L961.223624,223.567309L961.188463,223.568358L961.167402,223.568882L961.110744,223.570456L960.914487,223.575701L960.666589,223.567309L958.862110,223.508567L956.615373,223.435665L956.509094,223.431993L955.710066,223.416259L955.572191,223.412063L951.293122,223.277272L949.632799,223.224824L948.711201,223.195454L947.991454,223.172901L947.921647,223.170803L945.862519,223.113635L944.509208,223.076397L941.029581,222.979894L940.616373,222.954194L940.613762,222.954194L940.007274,222.943180L939.741369,222.937936L937.929925,222.863460L937.862814,222.859789L937.842271,222.858740L937.807106,222.857166L937.760537,222.854544L936.922043,222.812062L936.896278,222.811013L934.504715,222.769579L934.452924,222.766957L933.569470,222.694579L933.512807,222.693530L933.493659,222.693530L933.151079,222.689859L933.090763,222.689335L932.785000,222.686188L932.730949,222.685139L932.623717,222.683041L931.982847,222.669405L931.822346,222.665209L931.768468,222.663635L931.714590,222.662062L931.672289,222.661013L931.630858,222.659964L931.172675,222.645279L930.520567,222.624824L929.797783,222.602272L928.199831,222.566608L927.908248,222.558741L927.891187,222.557692L926.277009,222.445979L926.225565,222.442308L925.831196,222.436014L925.179281,222.425525L925.081450,222.423951L924.983011,222.422902L924.606919,222.416609L924.230219,222.410839L924.007315,222.407168L923.077837,222.392483L923.009074,222.389861L919.547647,222.268708L919.194786,222.256645L919.181034,222.256120L918.636618,222.250876L917.237239,222.237239L916.829122,222.233044L914.563362,222.199478L914.042566,222.216261L913.209124,222.223079L911.222823,222.239337L909.465540,222.215736L909.431596,222.215736L909.338091,222.195806L909.294223,222.194233L908.079862,222.165911L903.997761,222.192659L903.507231,222.194233L901.656628,222.155422L901.629820,222.154898L901.015331,222.141786L900.952142,222.140737L900.889126,222.139164L899.609146,222.111891L898.797947,222.090912L898.797076,222.090912L898.722484,222.088814L896.682477,222.035843L896.113072,222.020633L895.417809,222.001752L894.420118,221.998606L894.378776,221.998606L893.744982,221.996508L893.647241,221.995983L893.548891,221.995983L893.040690,221.994410L890.914668,221.987067L890.900134,221.987592L890.786206,221.988641L888.028785,222.015389L887.897015,222.016438L886.717074,222.014340L886.267883,222.013291L884.760819,221.973956L882.668425,221.918886L882.577905,221.916264L881.983871,221.900530L878.435862,221.654555L877.240577,221.625185L877.138743,221.622562L876.685174,221.595290L876.597874,221.592143L875.265494,221.547039L875.260272,221.547039L875.146774,221.542843L875.036148,221.539172L874.718024,221.528683L872.761792,221.413301L872.702779,221.410154L870.703205,221.291625L869.734557,221.253339L869.692081,221.250192L869.567002,221.240227L869.448712,221.230787L869.432523,221.229738L869.298479,221.219249L869.170789,221.209284L869.082529,221.202466L869.043099,221.199319L867.900854,221.109636L866.570811,221.040407L865.567514,220.988485L862.697308,220.819609L862.676158,220.819084L862.141316,220.800728L861.059620,220.763491L860.967099,220.760345L860.355665,220.739366L860.154100,220.746184L860.130515,220.747757L859.439875,220.721534L859.419073,220.719961L857.312818,220.589895L855.635429,220.509128L855.617238,220.507555L855.355166,220.493395L855.343155,220.492870L855.130262,220.483954L854.871932,220.467696L853.465747,220.390601L852.667782,220.342875L852.531567,220.335008L852.186723,220.314555L852.148689,220.315079L852.128410,220.314555L851.796282,220.305639L851.455624,220.296199L851.354493,220.299345L851.046576,220.309310L850.698449,220.319799L850.350931,220.329764L850.301236,220.331337L849.884699,220.340777L849.757458,220.343924L849.147259,220.337631L848.689284,220.332911L845.784155,220.297247L843.563986,220.264207L842.410253,220.244802L842.203285,220.241655L841.237547,220.224872L841.210305,220.224348L841.055381,220.219103L840.262834,220.191832L840.086938,220.190783L838.758188,220.180818L838.162614,220.177671L838.139289,220.177147L836.831340,220.166133L834.164527,220.144106L833.280261,220.136239L832.700787,220.130470L829.591753,220.096905L828.041242,220.083794L828.014262,220.083794L827.984844,220.083269L827.973965,220.083269L825.504202,220.062815L825.300194,220.061242L822.778823,220.042886L822.122413,220.038166L822.045562,220.037642L815.890953,219.961596L815.844738,219.960547L815.228712,219.954778L815.108954,219.953729L813.509795,219.939044L810.383020,219.909150L810.249075,219.907577L809.730528,219.901808L809.595365,219.901283L807.023082,219.869816L806.335690,219.861425L806.273715,219.840971L806.057328,219.769121L800.576837,219.753387L796.894630,219.742374L796.862079,219.740800L796.475822,219.721920L796.451017,219.721920L793.273692,219.711955L792.881520,219.710907L792.691527,219.710382L789.582698,219.699893L787.796514,219.694124L787.789551,219.694124L784.277672,219.682586L784.151996,219.681013L781.636213,219.661608L780.447426,219.652168L776.705521,219.621750L776.678106,219.621750L774.997757,219.577696L774.904109,219.579269L774.657283,219.583465L774.596621,219.583989L773.367279,219.563011L769.512501,219.496406L767.966619,219.507419L767.268091,219.511615L767.257038,219.512139L767.237455,219.512139L763.161719,219.360048L760.931594,219.324386L760.884074,219.323337L760.297475,219.307603L755.737581,219.223167L755.727572,219.223167L755.669609,219.222118L755.127138,219.203238L755.093282,219.201664L754.812864,219.196944L754.802855,219.196944L751.856540,219.178064L746.896208,219.137157L746.880803,219.137682L745.482559,219.068454L745.346268,219.062161L744.327728,219.053770L744.276988,219.053245L743.852452,219.029121L743.832783,219.028072L741.947318,219.002898L734.122377,218.846613L734.005145,218.844515L733.768680,218.839795L733.542659,218.835075L732.714639,218.820391L732.705066,218.820391L728.664349,218.772666L726.665054,218.749590L726.056789,218.742772L725.492475,218.735955L725.468106,218.735955L725.353746,218.734381L725.079415,218.742772L724.441647,218.734381L722.904608,218.667777L722.815139,218.667252L722.776410,218.667252L722.549691,218.667252L721.541524,218.642079L719.445813,218.600123L716.686151,218.535616L716.578233,218.532994L716.465531,218.525127L716.455697,218.524603L716.323408,218.524603L715.679654,218.491039L715.003666,218.504674L714.831602,218.507821L710.705220,218.526701L706.220501,218.577572L704.121647,218.558168L700.935597,218.528799L700.921672,218.528799L700.629160,218.525127L700.586689,218.524603L697.658510,218.503625L693.497030,218.450132L692.814112,218.424434L690.765277,218.346292L690.082100,218.320070L690.000032,218.316923L689.826571,218.324265L689.052391,218.355732L688.794331,218.366221L688.719742,218.369368L688.397288,218.369368L687.209301,218.369368L686.812870,218.369368L686.505647,218.369368L685.583543,218.369368L685.282847,218.369368L685.275710,218.369892L684.967500,218.400310L684.041735,218.491039L683.733263,218.520932L681.770057,218.712355L681.450441,218.744346L680.257543,218.859724L679.552595,218.928951L679.552420,218.929476L679.467990,218.937342L679.383126,218.945209L674.092463,219.461267L673.993583,219.470707L671.183964,219.800588L670.949727,219.828384L670.487029,219.853558L670.326441,219.864047L670.313037,219.865096L670.134414,219.891843L667.243077,220.273647L664.929140,220.548463L664.418325,220.860517L664.364674,220.893558L663.921009,221.164705L663.469853,221.440048L663.349572,221.515047L661.539223,222.517307L660.826298,222.912236L660.455551,223.117306L660.411222,223.141957L660.019261,223.404196L659.819947,223.404196L659.805586,223.404196L659.527068,223.404196L659.348643,223.404196L659.322967,223.404196L659.289023,223.404196L659.008330,223.404196L658.165815,223.404196L657.884687,223.404196L657.659262,223.404196L657.073070,223.404196L656.982552,223.404196L656.858960,223.404196L656.756692,223.404196L656.745377,223.404196L656.707081,223.404196L656.591758,223.404196L656.581313,223.404196L656.553376,223.403147L655.875483,223.372727L653.842158,223.280419L653.164006,223.249475L653.153302,223.248950L653.119446,223.247377L653.108306,223.246852L652.882008,223.249475L652.203378,223.255244L651.976819,223.257342L651.965504,223.257342L651.811624,223.256817L651.315869,223.253146L651.150589,223.251573L651.139274,223.251573L651.018468,223.251048L650.622195,223.247901L650.497212,223.246852L650.489813,223.246852L650.265259,223.246852L649.590726,223.246852L649.365737,223.246852L649.385448,223.144579L649.414364,222.989859L649.443801,222.836187L649.463427,222.732866L649.468508,222.707167L649.475781,222.668356L649.483314,222.630069L649.487959,222.604370L649.579521,222.124478L649.716307,221.404385L649.853365,220.684822L649.944076,220.204943L649.890643,220.200747L649.809972,220.193405L649.729562,220.186587L649.675433,220.181867L649.469273,220.164560L648.850274,220.111590L648.717041,220.100052L648.642281,220.098478L648.579096,220.097430L648.389716,220.093758L648.326270,220.092185L647.948815,220.084843L646.815321,220.062291L646.437606,220.054424L646.367893,220.053375L646.158410,220.048655L646.123511,220.047606L646.088262,220.047606L646.073902,220.047606L645.985127,220.047606L645.675723,220.047606L645.572588,220.047606L645.557358,220.047606L643.961293,219.953204L639.128303,219.667377L637.577506,219.575598L637.517286,219.570878L637.276320,219.550949L636.552119,219.491161L636.310894,219.470707L635.541165,219.418262L635.533942,219.417738L634.966908,219.369488L634.900250,219.363195L634.770765,219.349559L633.211163,219.160233L628.927026,218.631590L628.906663,218.630017L626.487594,218.418665L626.452440,218.414470L622.374280,217.950863L622.366362,217.949814L621.313572,217.827619L620.147056,217.692838L620.103985,217.687594L618.229380,217.506138L616.906294,217.377651L616.857391,217.372931L616.813185,217.369784L616.170022,217.321536L612.543388,217.058269L612.502228,217.055123L612.402403,217.055647L611.167866,217.058269L611.131313,217.058269L611.009702,217.026279L610.969512,217.016315L610.931238,217.005826L610.840726,217.005826L610.796340,217.005826L609.868592,217.005826L609.213686,217.005826L607.084913,217.005826L606.156730,217.005826L605.767267,217.005826L605.587984,217.005826L605.117583,217.005826L604.795134,217.005826L604.655589,217.163156L604.643315,217.164730L604.123391,217.211405L604.072383,217.215600L603.962644,217.211929L603.954551,217.211405L602.653878,217.163156L602.554573,217.164730L601.359343,217.182561L601.235929,217.184658L600.328432,217.198294L592.787325,217.309999L591.215412,217.332549L591.011579,217.335696L590.012606,217.350905L588.483512,217.372931L588.369947,217.367687L587.370492,217.320487L587.298420,217.325207L587.194317,217.332025L586.881052,217.351429L586.776689,217.357722L586.712626,217.361918L586.526182,217.372931L586.456722,217.377651L586.379875,217.629905L586.341964,217.782517L586.330383,217.827619L586.263228,217.938800L586.141655,218.103475L586.103641,218.136515L585.887459,218.304337L585.758394,218.430203L585.711884,218.489990L585.582748,218.735955L585.513265,218.794168L585.453286,218.843466L585.445230,218.867591L585.478260,218.888569L585.663161,218.952551L585.807794,219.002898L585.947905,219.051147L586.222398,219.184358L586.232136,219.189078L586.349483,219.262501L586.575048,219.404102L586.582350,219.408298L586.732044,219.539935L586.877128,219.714053L586.940399,219.802161L586.995163,219.879256L587.076136,220.038166L587.095816,220.076976L587.150777,220.143057L587.206808,220.284136L587.212368,220.376965L587.218424,220.395321L587.233822,220.443047L587.177291,220.730975L587.163234,220.753527L587.088588,220.871530L587.035767,220.955444L586.936589,221.111734L586.864791,221.197746L586.801107,221.273793L586.764030,221.318372L586.721545,221.368721L586.571852,221.543368L586.468881,221.636723L586.378816,221.717491L586.323277,221.767840L586.139657,221.888992L585.967978,222.001752L585.848831,222.088814L585.761336,222.190562L585.702244,222.277624L585.674270,222.340560L585.513493,222.531468L585.436638,222.622202L585.332490,222.784264L585.302997,222.823076L585.287035,222.840908L585.260958,222.868180L585.163026,222.921677L585.119017,222.950523L585.062113,222.986712L584.967387,223.047551L584.895390,223.101572L584.789664,223.179719L584.587050,223.356468L584.520556,223.446154L584.468217,223.552099L584.396919,223.695282L584.366376,223.737241L584.328239,223.790213L584.322917,223.797031L584.201753,223.937068L584.159360,223.985845L583.912847,224.270640L583.904649,224.279556L583.845053,224.357704L583.810553,224.420643L583.801539,224.537603L583.825590,224.705439L583.814661,224.777294L583.772038,224.855443L583.672106,224.954047L583.585894,225.023279L583.487372,225.158074L583.469310,225.182200L583.350234,225.278182L583.199103,225.341121L583.134220,225.362101L583.041294,225.391472L582.941611,225.404585L582.878493,225.412452L582.674278,225.424515L582.586664,225.406683L582.511635,225.361576L582.455175,225.301260L582.453158,225.217341L582.495681,225.100380L582.521232,224.983418L582.502665,224.770476L582.454525,224.683935L582.413767,224.650892L582.328951,224.581660L582.079320,224.449489L582.035381,224.441622L581.934628,224.422741L581.880825,224.430083L581.799249,224.441098L581.781142,224.443196L581.656556,224.506134L581.584209,224.561205L581.576365,224.566450L581.486875,224.665053L581.211111,224.860163L581.191052,224.881143L580.905384,225.066812L580.607821,225.237272L580.538660,225.264545L580.487668,225.258251L580.489105,225.144437L580.512187,225.045308L580.518673,224.886388L580.503598,224.850722L580.452576,224.814533L580.334606,224.787259L580.233004,224.712257L580.185846,224.613654L580.116803,224.580611L580.065840,224.604213L580.006787,224.670298L579.961184,224.757363L579.936215,224.841282L579.954191,224.907367L580.017828,224.946179L580.067855,224.956669L580.108747,224.964537L580.161800,224.985516L580.188881,225.024328L580.197939,225.066288L580.184291,225.147584L580.062713,225.411403L579.997708,225.495322L579.891690,225.543051L579.724020,225.605990L579.653508,225.656866L579.565468,225.770682L579.512474,225.809494L579.460715,225.885022L579.438019,225.919114L579.439960,225.951108L579.407215,226.051812L579.508230,226.071218L579.737598,225.923834L579.850249,225.866664L579.956227,225.839915L580.105893,225.860895L580.278761,225.902330L580.556810,225.968941L580.612365,226.001984L580.628220,226.224372L580.545667,226.752019L580.544779,226.853772L580.636288,227.069868L580.771510,227.183686L580.971076,227.285964L581.059237,227.291734L581.123761,227.277048L581.158426,227.264459L581.195793,227.250298L581.398023,227.184210L581.474611,227.235087L581.487003,227.358346L581.481484,227.424434L581.439439,227.520419L581.339540,227.648923L581.339961,227.656791L581.339681,227.666756L580.868089,228.140914L580.820679,228.173434L580.731633,228.269419L580.628033,228.470308L580.545477,228.587275L580.267837,228.812817L580.201674,228.866317L580.010639,228.949716L579.955514,228.964927L579.787914,229.036786L579.604787,229.174734L579.543236,229.228760L579.501280,229.277540L579.336681,229.469515L579.314177,229.495216L579.203110,229.687191L579.171045,229.753281L579.149997,229.936340L579.154627,230.022887L579.181037,230.098943L579.200172,230.155067L579.230741,230.193882L579.256646,230.261022L579.312699,230.407365L579.340754,230.683267L579.340925,230.781879L579.315319,230.839053L579.299794,230.905143L579.316968,230.988019L579.318865,230.997986L579.354441,231.060929L579.460962,231.121251L579.513180,231.174753L579.512023,231.238222L579.446517,231.364110L579.366501,231.474787L579.280941,231.570777L579.178879,231.645786L578.949291,231.774297L578.771680,231.846159L578.548342,231.885499L578.336167,231.912251L577.815770,231.937953L577.793223,231.939002L577.556024,231.989882L577.417544,232.034468L577.323424,232.097413L577.218315,232.172422L577.103233,232.226450L577.084603,232.227499L576.966115,232.582614L576.775002,233.005397L576.062045,234.582725L575.970208,234.786253L574.376883,234.996077L574.369048,234.996077L574.368613,234.996077L574.253276,234.996077L574.001704,234.998700L572.347879,235.205902L570.552104,235.444578L569.988426,235.519066L567.719163,235.820166L565.521372,236.111826L565.165084,236.159561L563.649297,236.359947L563.369720,236.395618L563.327316,236.401388L563.199587,236.417649L563.156923,236.422895L556.970672,237.199264L556.941331,237.202411L554.966409,237.406471L554.625616,237.449487L553.602457,237.576959L553.261579,237.618926L553.638276,236.682033L554.768461,233.871428L555.145221,232.934583L556.014705,230.772437L561.468814,217.216124L560.506887,217.205111L560.191146,217.201965L560.133011,217.201440L560.074615,217.200391L560.016045,217.199867L559.957039,217.199343L556.945590,217.164730L556.836366,217.164730L556.802859,217.164730L556.653517,217.163681L556.277108,217.163681L556.120452,217.163681L555.698788,217.163681L555.650661,217.163156L555.495057,217.160010L554.839655,217.148472L552.872144,217.113860L552.216483,217.101798L552.138071,217.100749L551.903185,217.096553L551.824948,217.094980L551.128558,217.082393L549.038954,217.044634L548.342129,217.032048L548.125780,217.028377L547.475602,217.016839L547.258992,217.012644L546.917325,217.006350L546.785409,216.997435L544.403605,216.838007L541.015736,216.610928L540.936987,216.605684L540.657842,216.586804L540.507280,216.586804L540.345403,216.586804L540.254548,216.585231L539.981546,216.580511L539.890255,216.578938L539.134045,216.579987L537.301782,216.584706L535.180207,216.598342L535.129379,216.599391L535.027876,216.608830L531.594133,216.560583L531.565154,216.560058L528.555455,216.533312L528.398457,216.531739L527.843477,216.527019L525.706413,216.507615L524.994176,216.500797L523.002363,216.482967L517.025622,216.429475L515.033376,216.411644L513.659031,216.399058L513.627700,216.399058L513.060714,216.393814L512.473275,216.388569L512.289473,216.386472L510.241370,216.363921L510.078715,216.362348L506.833360,216.332455L506.712740,216.331407L505.575660,216.135270L505.290089,216.084925L504.947360,216.057130L503.023723,216.091743L495.334128,216.227045L495.286437,216.226521L491.668963,216.192957L490.509756,216.182469L490.426994,216.181420L490.340574,216.180895L489.814059,216.175651L487.597739,216.152576L487.577287,216.152576L482.342693,216.098560L482.237738,216.097511L480.905963,216.083876L480.669376,216.069192L477.023289,215.979515L476.939656,215.978466L476.757856,215.976893L476.211761,215.971649L476.029702,215.969551L475.927793,215.968502L475.817182,215.967453L475.219774,215.951720L472.793248,215.887216L471.984117,215.865714L470.605811,215.844213L470.042237,215.835298L467.723454,215.798588L466.476091,215.762927L465.103508,215.723071L464.857935,215.715729L464.801458,215.714155L464.781007,215.714155L463.071999,215.665384L461.592641,215.623430L461.118244,215.597733L461.056286,215.595635L460.761108,215.588293L459.875923,215.565219L459.620603,215.558401L459.580486,215.557352L459.129450,215.546339L458.253840,215.523265L457.969223,215.481835L457.859010,215.466627L457.748713,215.450370L457.717660,215.445650L456.935349,215.422051L456.865994,215.419953L456.657928,215.413660L456.588314,215.411038L455.739870,215.384817L455.101843,215.364364L453.185579,215.330277L452.333183,215.314544L451.528997,215.300385L451.403786,215.293567L448.646717,215.143058L447.776771,215.095336L447.727257,215.093763L445.692461,215.013526L443.219627,214.915984L440.467623,214.815296L439.583443,214.782782L439.225544,214.769147L437.546290,214.708314L437.229896,214.696777L436.754436,214.679471L436.279411,214.662165L435.962583,214.650628L434.585106,214.600809L430.452251,214.451350L430.020214,214.435617L429.167758,214.416214L429.068887,214.417787L428.952529,214.418311L428.442808,214.394188L427.099683,214.330209L426.565555,214.316575L425.936142,214.300318L425.744275,214.292452L425.456345,214.280390L425.168674,214.268853L424.976548,214.260462L424.882049,214.256791L424.598906,214.244730L424.504148,214.240534L424.143726,214.227948L423.641209,214.209594L423.062905,214.187569L422.702576,214.173409L422.665330,214.172885L422.553592,214.171312L422.516522,214.170263L422.292186,214.164494L422.203634,214.153482L420.908228,214.106809L416.944490,213.963119L416.072293,213.941618L414.454952,213.901239L413.450226,213.876591L412.427577,213.850895L410.445294,213.776428L409.444974,213.738671L409.076205,213.725036L407.969817,213.683083L407.852175,213.678363L407.600966,213.668400L407.400140,213.660009L406.796098,213.634313L406.595013,213.625398L405.633497,213.591311L404.191487,213.539395L402.749303,213.488002L401.787530,213.453391L400.955407,213.424024L398.459570,213.334350L397.707680,213.307081L397.627367,213.303935L397.510067,213.300788L397.334905,213.295020L397.158696,213.289776L397.041314,213.285580L396.999458,213.284532L396.936198,213.282434L396.873197,213.280861L396.831082,213.279288L396.810372,213.278763L396.778959,213.277714L396.747547,213.276665L396.726578,213.275617L396.663576,213.274043L396.569339,213.270897L396.475101,213.267751L396.412276,213.265653L395.586497,213.239432L393.386568,213.169162L393.107679,213.161296L392.280150,213.137697L390.691878,213.082110L389.919717,213.054317L386.243376,212.945240L385.919069,212.935276L384.327994,212.885458L383.825482,212.869726L383.096039,212.845603L382.315299,212.830395L382.011951,212.824102L381.810588,212.819907L381.703486,212.813614L381.382706,212.793162L381.275780,212.786345L381.149378,212.775333L381.115884,212.772711L380.636725,212.730234L380.476570,212.716075L380.442806,212.715550L380.341690,212.713453L380.308102,212.712404L380.281994,212.712404L380.203764,212.710831L380.177397,212.710306L378.526719,212.679891L378.387593,212.673074L376.493188,212.575535L373.342346,212.466983L373.056181,212.452300L371.285952,212.359480L371.190329,212.355285L370.902154,212.342700L370.806095,212.338504L370.701746,212.339553L370.387651,212.343224L370.283043,212.343748L369.743478,212.324346L368.124705,212.265088L367.584883,212.245161L366.975710,212.223136L365.147936,212.156537L364.538506,212.133988L364.336030,212.126646L363.728599,212.104621L363.594603,212.099377L363.525688,212.097280L362.361374,212.056901L358.867050,211.934716L357.702482,211.893813L357.691604,211.893813L357.658628,211.892240L357.647491,211.891715L357.636178,211.891715L357.601462,211.890142L357.589890,211.889618L357.413863,211.883849L357.237836,211.878081L357.170838,211.875459L357.103840,211.872837L357.003948,211.869690L356.868647,211.864446L356.753198,211.857105L356.720222,211.855532L356.706216,211.854483L356.607125,211.847666L356.594682,211.847141L354.478873,211.816726L354.290970,211.800994L353.968501,211.753274L353.911712,211.744884L353.557605,211.707127L353.429657,211.692968L353.269906,211.686675L349.873596,211.565540L349.342308,211.546137L347.892272,211.493697L347.239855,211.472197L346.587004,211.450697L346.578301,211.450697L346.551676,211.449648L346.542715,211.449124L346.536188,211.449124L346.516784,211.448599L346.509999,211.448075L345.972620,211.428672L344.359617,211.370464L343.821805,211.351062L343.388493,211.335330L343.185149,211.327988L341.273879,211.258768L340.636789,211.235695L340.165458,211.217865L339.784609,211.205280L339.742237,211.203182L339.479364,211.196890L336.190224,211.110365L335.802521,211.093584L334.638283,211.042718L334.424076,211.032755L334.248121,211.030657L334.233327,211.030657L334.210877,211.030133L334.189120,211.030133L334.174068,211.029608L334.155792,211.029608L334.128556,211.029084L334.101320,211.028559L334.083397,211.027511L334.038756,211.026986L333.904750,211.024364L333.859850,211.023315L333.837223,211.023315L333.802767,211.022267L333.769003,211.021742L333.746118,211.021218L333.400748,211.014401L332.364816,210.993425L332.019623,210.986084L330.327999,210.921059L327.412087,210.807790L325.244050,210.751680L323.544675,210.707107L322.725440,210.686131L320.268091,210.622156L319.566070,210.603278L319.446384,210.608522L319.408692,210.610619L319.396073,210.610619L319.362297,210.612717L319.297041,210.610095L319.260151,210.608522L318.521171,210.584400L316.303281,210.510985L315.564044,210.486339L313.734657,210.426034L312.200150,210.375168L308.252085,210.227291L306.425102,210.158596L305.732755,210.138145L303.655811,210.075219L302.963383,210.053719L302.146879,210.028548L299.697545,209.952512L298.941429,209.928915L298.880784,209.926818L297.403702,209.881196L297.354629,209.879623L297.328698,209.879099L297.259514,209.879099L296.315399,209.860745L296.303216,209.860745L295.599260,209.847635L294.481900,209.825611L293.475123,209.840818L292.762515,209.850782L292.743193,209.851306L292.581396,209.854977L292.095567,209.865989L291.933511,209.869135L291.131145,209.885916L288.723528,209.935208L287.921079,209.950939L286.757259,209.975061L283.264846,210.046378L282.100766,210.069975L281.587265,210.080463L280.046148,210.112450L279.532388,210.122414L279.454229,210.124511L279.218445,210.130804L279.139592,210.132377L277.430105,210.175901L274.973844,210.237779L272.617796,210.259279L272.312458,210.269242L270.598991,210.323254L269.954034,212.030681L269.885137,212.214221L269.823399,212.377835L269.365121,213.590262L267.496217,218.541910L266.720677,220.596189L266.433398,221.357707L265.571801,223.641785L265.284306,224.402810L265.274009,224.424314L265.231107,224.538652L265.076993,224.946704L265.025536,225.082547L265.018123,225.101953L265.008560,225.132898L264.917114,225.375738L264.586296,226.253743L264.476058,226.545890L264.426101,226.678589L264.276151,227.075638L264.225937,227.207813L263.093166,230.240565L261.499956,234.522925L261.286941,235.095744L260.835521,236.309063L258.695328,241.621572L258.114187,243.064257L256.857219,246.184751L255.826288,248.745565L255.367952,249.883558L253.915134,253.491782L253.885227,253.576782L253.866479,253.620857L253.849390,253.663882L253.567604,254.353858L253.068160,255.576942L252.659071,256.580716L252.378463,257.268621L252.355929,257.322667L252.282231,257.504221L252.060186,258.047835L252.031487,258.117623L251.988843,258.228865L251.983995,258.241984L251.963309,258.291833L251.956449,258.307050L251.798941,258.674360L251.326959,259.774729L251.190403,260.092721L251.169377,260.140998L251.165953,260.166710L251.154058,260.198194L251.138727,260.238599L251.103124,260.334103L251.089111,260.371884L251.067086,260.429606L251.036331,260.511991L251.019588,260.556594L250.971914,260.684107L250.944242,260.758621L250.913664,260.840481L250.874261,260.929163L250.860895,260.958549L250.756583,261.193636L250.716922,261.281794L250.585092,261.576704L250.190398,262.460392L250.058315,262.754782L250.049610,262.774198L250.036151,262.805159L248.869768,265.613734L248.861758,265.633676L248.539431,266.409832L245.300737,274.211748L244.114081,277.071162L244.108014,277.085333L243.981843,277.379259L243.974563,277.391856L243.965053,277.417574L243.614691,278.360770L243.264522,279.303453L241.901609,282.971431L241.887777,283.011324L241.884687,283.021822L241.879120,283.042294L240.977818,285.385535L240.969110,285.407582L238.098767,292.692924L238.070361,292.765897L237.963602,293.015265L237.643426,293.761799L237.536412,294.010646L237.532723,294.019046L237.220624,294.751941L236.283689,296.950148L235.971369,297.682550L235.915757,297.813280L235.748924,298.205473L235.693054,298.335680L235.526382,298.732601L235.025168,299.921804L234.857813,300.318209L234.797017,300.463121L234.764062,300.544502L234.706965,300.678389L234.245993,301.756839L234.092022,302.115976L233.817364,302.759697L232.991868,304.690372L232.716980,305.333592L232.663146,305.459087L232.506642,305.827169L232.265651,306.395313L230.912395,309.580049L230.517608,310.508455L230.486586,310.641311L230.470150,310.711152L225.177248,323.429750L223.062260,328.515134L223.058576,328.523538L222.999421,328.669035L222.990554,328.691622L222.979845,328.718410L222.950670,328.773037L222.947253,328.779340L222.632172,329.796258L222.610694,329.870846L222.607515,329.885554L221.049550,333.713320L218.106003,340.947653L218.092756,340.980751L217.736482,341.848126L217.220165,343.104291L216.627572,344.549620L216.258287,345.449617L216.113855,345.802158L215.680404,346.857693L215.535721,347.209717L214.928396,348.630441L214.216704,350.370136L212.235893,355.209578L210.333335,359.860724L209.039453,363.024389L208.826177,363.586192L208.186473,365.270055L208.004426,365.748839L207.971393,365.830827L207.946509,365.892317L207.872560,366.074688L207.847416,366.135653L207.653182,366.652285L207.306449,367.573613L207.071035,368.200628L206.876561,368.716751L206.611541,369.422090L205.815665,371.538156L205.550422,372.243001L205.497322,372.383866L205.475337,372.438004L205.459219,372.478477L205.170888,373.183332L205.074635,373.418286L205.036884,373.511847L204.521087,374.792808L203.531798,377.249151L202.861008,378.915503L202.307341,380.289619L201.036638,383.405410L200.641300,384.374296L199.870980,386.264272L199.683225,386.724288L197.973341,390.837776L197.179766,392.747402L195.886164,395.860132L195.778977,396.128297L195.608622,396.552105L194.775705,398.626493L194.497503,399.317971L194.403733,399.541979L194.121732,400.213485L194.027269,400.436972L193.367418,402.164943L191.387689,407.348095L190.727372,409.075735L190.720025,409.095194L190.697986,409.153572L190.690378,409.172505L190.515482,409.619544L189.990730,410.959627L189.840071,411.343040L189.826346,411.375122L189.812099,411.406153L189.784216,411.467689L189.730886,411.596546L189.679131,411.720669L186.507294,419.767676L186.248937,420.424149L185.473042,422.393612L185.214020,423.049587L185.071931,423.406248L184.645503,424.476767L184.503163,424.832909L184.495035,424.856056L184.469517,424.924970L184.460691,424.947591L184.271233,425.457348L183.840339,426.616284L181.979089,431.621589L181.358695,433.289942L181.352755,433.305200L181.168185,433.801874L180.598084,435.336118L180.407770,435.847541L180.312483,436.104307L179.588433,437.767523L179.545037,437.868023L179.502076,437.971153L177.667159,442.387519L174.348641,450.363911L172.456126,454.905417L169.833097,461.182738L169.794806,461.289068L169.163874,463.066697L166.118914,470.536286L166.071223,470.655268L165.226468,472.853323L162.633901,479.027278L162.617427,479.062557L162.168110,480.068271L162.023166,480.394210L161.711448,481.163519L161.699161,481.194059L161.686874,481.224600L160.224649,484.835911L160.124104,485.084467L159.823434,485.828561L159.722632,486.076595L159.718712,486.087127L159.706079,486.118724L159.701461,486.128729L159.509967,486.602156L159.112530,487.582198L159.030989,487.783896L158.934640,488.022459L158.743338,488.495374L158.614586,488.813462L158.228342,489.767737L158.099598,490.085832L157.693518,491.089633L156.145769,494.914881L156.145595,494.915408L154.538313,498.888926L154.436863,499.125956L154.279630,499.525221L154.261434,499.571047L154.171153,499.800705L154.160531,499.827569L154.129363,499.906053L153.935394,500.395397L153.821088,500.684581L153.424740,501.698053L152.563600,503.896781L152.453325,504.181768L152.372902,504.388267L150.661319,508.769162L150.336788,509.633159L150.206598,510.020909L150.183722,510.086237L150.154312,510.162101L150.121077,510.249556L149.917738,510.774289L149.882928,510.858584L149.858038,510.918118L149.761872,511.147295L149.610952,511.496069L149.453675,511.854854L149.402407,511.969181L149.326159,512.139356L148.895742,513.225216L148.809515,513.437543L148.675020,513.784223L148.514432,514.199400L148.342146,514.612998L148.219117,514.911739L148.086104,515.249999L148.052611,515.334300L147.986569,515.490786L147.852658,515.807973L147.802238,515.960771L147.750429,516.117785L147.730783,516.177324L147.582857,516.519806L147.541002,516.616229L147.432091,516.950283L147.426354,516.967671L147.280993,517.330180L147.173652,517.599956L147.083700,517.819677L147.069859,517.847077L147.026863,517.937705L146.978857,518.064691L146.973982,518.074175L146.869682,518.390323L146.845920,518.439853L146.788174,518.591078L146.714372,518.748627L146.560430,519.143817L146.222903,519.955283L146.043452,520.449019L145.667520,521.423330L145.550302,521.728431L145.493790,521.881246L145.469879,521.944480L145.445010,522.009294L145.372837,522.196362L145.331793,522.302279L145.287638,522.428221L145.243107,522.536773L145.222329,522.593158L145.209808,522.625829L145.127477,522.847677L144.785304,523.774077L144.743229,523.888429L144.692458,524.023859L144.422173,524.795874L144.355254,524.985586L144.296416,525.152111L144.210474,525.400846L143.595874,526.969694L143.474415,527.275880L143.344648,527.574163L143.068282,528.178112L142.774962,528.870605L142.604274,529.281152L142.104807,530.514391L141.939897,530.926004L141.554601,531.872567L141.112955,532.937207L141.026543,533.146448L140.765828,533.774703L140.679156,533.983420L140.559361,534.270144L140.536150,534.326013L140.234498,535.048101L139.918189,535.772306L139.806729,536.028469L139.307178,537.179106L139.314437,537.184904L138.434110,539.189485L136.871858,542.789273L136.521248,543.596872L136.284762,544.141429L136.263471,544.191510L135.677888,545.540538L135.653990,545.595892L135.613578,545.688148L135.573429,545.780931L134.420292,548.443251L134.396906,548.491754L134.369159,548.542893L134.120512,549.054285L134.101045,549.097517L133.899148,549.539849L133.774084,549.853543L131.681182,555.095936L131.415582,555.761355L131.108147,556.607114L131.036101,556.794301L130.997565,556.895540L130.957981,556.997307L130.958057,557.028944L130.876783,557.264116L130.814779,557.412812L130.797285,557.438122L130.793990,557.448141L130.766225,557.524598L130.721434,557.639548L130.686624,557.728134L130.680985,557.743953L130.196102,559.017916L128.740604,562.840516L128.255590,564.114074L128.228779,564.183685L128.145594,564.375644L127.879198,564.989497L127.806437,565.157728L127.693299,565.418249L127.683315,565.441981L127.652492,565.513176L127.642245,565.536381L127.290689,566.346960L126.235569,568.777717L125.883800,569.587818L125.742820,569.913234L125.319538,570.887909L125.178303,571.212805L125.101772,571.400570L124.871918,571.963343L124.795126,572.150584L124.002450,574.090541L123.346565,575.663446L123.343440,575.670304L122.851581,576.850277L122.683734,577.264356L121.214031,580.893615L120.823943,581.855833L120.760437,582.004071L119.329269,585.325556L119.064433,585.939652L118.861613,586.433995L118.650918,586.951029L118.639559,586.978991L117.886170,588.785484L117.847418,588.880981L117.088561,590.732389L116.837934,591.343383L115.787552,594.273409L115.215392,595.769352L113.495214,600.854829L113.160807,601.762003L112.483217,603.600677L112.408083,603.803336L110.880120,607.023297L111.381228,608.317461L111.549551,608.778765L112.587896,611.691306L113.234765,613.503415L113.262147,613.579955L113.776211,614.959799L114.126174,615.899952L114.167596,616.012392L114.173603,616.028756L116.063331,621.102515L116.584134,622.500514L116.591821,622.521104L116.718082,622.898064L116.810357,623.170490L116.827897,623.206391L116.831641,623.224342L116.939100,623.490434L117.184588,624.100235L117.203425,624.153560L117.260685,624.304560L118.607615,628.083919L118.610191,628.093423L118.616755,628.116128L118.618526,628.121408L119.663851,630.951627L119.666243,630.959020L119.673328,630.980141L119.675456,630.987006L119.806752,631.370365L120.200235,632.520460L120.331288,632.903303L120.353777,632.968255L120.699121,633.971583L121.109772,635.164512L121.446690,636.143063L121.584604,636.543889L121.802596,637.176028L121.969320,637.661360L121.973510,637.679316L121.997069,637.746386L122.170326,638.243870L122.184943,638.286120L122.236137,638.431880L122.252354,638.479939L122.290175,638.587676L122.339875,638.731325L122.819135,640.104462L123.369362,641.683617L124.508629,644.950354L125.156717,646.805386L125.284112,647.169323L125.649450,648.260620L126.181127,649.850070L126.453561,650.663566L125.314259,651.204496L125.260534,651.229852L125.205496,651.255209L125.084441,651.312788L124.323244,651.644534L123.981773,651.837878L123.478248,652.124724L121.782677,652.879620L120.640656,653.387292L120.506842,653.446460L120.335264,653.523588L120.307871,653.535211L120.108899,653.623962L119.878785,653.726448L119.820952,653.752334L119.649280,653.828407L115.529953,655.661053L112.839667,656.919485L112.339926,657.145076L111.608846,657.474219L111.594857,657.474219L111.545832,657.495881L111.529644,657.510674L110.985512,657.741023L110.440345,657.991977L110.375596,658.016280L110.273279,658.080736L108.914949,658.751718L108.841430,658.788173L108.768082,658.824100L106.729921,659.830590L106.635537,659.873386L106.412844,659.975886L106.032527,660.150241L105.933653,660.204133L105.912551,660.215228L105.637626,660.362638L105.502614,660.428154L105.330868,660.508464L105.292227,660.526428L105.282623,660.529070L105.039833,660.616776L104.889521,660.699728L104.731009,660.786379L104.494856,660.889937L104.124961,661.051086L103.992359,661.109206L102.532119,661.809817L99.021036,663.492698L98.962775,663.521231L96.892171,664.487659L96.873665,664.493472L92.268422,666.621372L90.997458,667.207922L89.804745,667.777040L89.743687,667.806104L89.682192,667.835168L89.318640,668.009022L89.281480,668.026461L89.234292,668.049184L89.138777,668.094101L89.086966,668.118937L89.035155,668.143774L88.975753,668.171781L88.916616,668.200316L88.675523,668.314987L88.637754,668.332954L88.596408,668.352506L87.790093,668.736683L87.698856,668.780543L87.425054,668.911069L87.333553,668.954401L86.836104,669.191674L85.342439,669.903498L84.844722,670.140246L84.699580,670.210003L84.263967,670.417159L84.118731,670.485859L84.023917,670.531307L83.976887,670.550860L83.550292,670.726310L83.408062,670.784441L82.814202,671.063999L81.032428,671.900571L80.975290,671.926995L80.438470,672.179079L79.735825,672.509380L77.628396,673.498711L76.925480,673.828493L76.882649,673.848576L76.753016,673.908296L76.709920,673.927850L75.987619,674.263448L74.098719,675.140242L73.923551,675.221633L73.839981,675.260743L73.819831,675.270256L73.567107,675.387058L73.375975,675.475848L73.272864,675.523943L73.238405,675.539798L73.166348,675.573095L73.131717,675.589479L73.097258,675.605335L72.512956,675.876993L71.934495,676.145482L71.465597,676.362177L70.758811,676.690392L70.174239,676.961528L69.649149,677.185626L68.073687,677.855812L67.548500,678.078857L67.535703,678.089956L67.496343,678.122198L67.488700,678.132240L67.483281,678.132769L67.402391,678.199894L67.382333,678.210465L67.061125,678.376428L66.954025,678.431397L66.926813,678.445139L66.830006,678.495351L66.733810,678.545035L66.074819,678.884893L66.020222,678.912906L65.854775,678.998004L65.306390,679.250653L63.659478,680.008609L63.110823,680.260735L62.893597,680.361163L62.775034,680.415077L62.241561,680.660862L62.024070,680.760763L62.004965,680.769748L61.947823,680.796177L61.928453,680.804634L61.564139,680.972721L61.343335,681.074736L59.588132,681.881879L59.002916,682.150930L58.948040,682.175773L58.914719,682.192160L58.771830,682.260348L58.744961,682.273034L58.727340,682.281491L58.644032,682.321136L58.560551,682.361308L58.418523,682.426854L57.992689,682.621376L57.850396,682.686393L56.982100,683.090240L54.583779,684.204539L54.377544,684.300746L53.509412,684.704078L53.413011,684.749011L53.328244,684.727337L53.323011,684.729980L52.715445,685.008562L52.512600,685.101071L52.241535,685.225825L51.428154,685.597976L51.156996,685.721675L51.021072,685.784582L50.907222,685.837444L50.800367,685.890307L50.429044,686.058412L49.324050,686.607662L48.698026,686.920088L48.607746,686.965022L48.544122,686.989868L48.528501,686.996212L48.492541,687.009957L48.222599,687.132602L48.126421,687.170135L48.095230,687.175950L48.085875,687.176479L48.075887,687.189695L48.020901,687.210841L47.942107,687.244674L47.694726,687.350403L47.625021,687.383179L47.449920,687.413312L46.761468,687.729443L46.549067,687.884866L46.534864,687.894910L46.526226,687.898611L45.552044,688.329464L43.283719,689.384143L43.014488,689.509966L39.421942,691.162613L39.374653,691.184289L37.970191,691.871588L37.449724,692.153911L37.405511,692.178231L37.385888,692.188805L37.306626,692.217355L37.139978,692.276569L37.089787,692.295074L37.083069,692.298246L37.063526,692.307234L37.056543,692.309877L34.776982,693.351955L34.611366,693.457698L34.566780,693.477789L34.483981,693.515856L34.234962,693.627943L34.151898,693.665482L32.508593,694.409389L32.157564,694.582282L32.061608,694.629867L32.022176,694.648901L32.009615,694.655246L31.343051,694.981999L31.035109,695.132687L30.919265,695.190319L30.061735,695.593213L30.000665,695.622294L29.934097,695.653489L26.586753,697.227034L26.401198,697.317451L25.232903,697.886395L21.576775,699.644028L19.814470,700.490084L16.926911,701.930000L16.429408,702.178011L16.379600,702.203394L14.377416,703.047380L14.022569,703.197035L12.939418,703.797249L12.882468,703.828450L12.718042,703.913063L12.641453,703.952196L12.564865,703.991329L12.513837,704.017771L12.474998,704.033635L11.511151,704.421797L11.438735,704.456172L11.366147,704.491075L11.337181,704.504824L11.321651,704.512228L11.259094,704.541843L8.044249,706.082892L8.020251,706.093469L7.669268,706.247365L7.440066,706.356309L7.363899,706.392800L7.313201,706.415541L7.254378,706.440397L0.000000,709.903470L0.000000,709.903470L0.188039,710.575699L0.192858,710.593153L0.254595,710.814763L0.315881,711.033730L0.323396,711.064407L0.479483,711.711265L0.515283,711.859361L0.549291,711.999524L0.583220,712.141274L0.799229,713.038329L0.827209,713.147289L0.844460,713.213934L1.024669,713.563559L1.188966,713.866640L1.293525,714.060232L1.309791,714.090910L1.430352,714.314653L1.486223,714.419913L1.609540,714.635193L1.937284,715.209104L1.950180,715.231321L2.093565,715.483103L2.139327,715.562976L2.296163,716.028989L2.317249,716.091936L2.344416,716.194026L2.354650,716.240575L2.465173,716.729341L2.745473,717.552955L2.817777,717.777243L2.823662,717.796816L2.889381,718.001003L3.179491,718.927794L3.590147,720.183645L3.607073,720.236546L3.657929,720.393662L3.674589,720.446034L3.923214,721.219456L4.812513,723.987374L4.942885,724.392630L4.971144,724.482040L4.977737,724.502145L5.080137,724.821168L7.045820,730.431141L7.082944,730.536437L7.100842,730.587762L7.443337,731.543374L7.572300,731.786249L7.627255,731.959278L7.738169,732.240253L7.815276,732.458261L7.840917,732.530225L7.916698,732.745589L7.925516,732.770988L7.946337,732.813321L7.968753,732.858828L8.010225,732.944021L8.025908,732.990058L8.029816,732.999582L8.049092,733.046677L8.096381,733.209657L8.115163,733.275801L8.196133,733.537206L8.246610,733.691721L8.298776,733.850469L8.362939,734.053139L8.555781,734.660096L8.620121,734.862241L8.977515,735.868213L9.166494,736.355067L9.202189,736.466198L9.213968,736.502712L9.225746,736.539226L9.240560,736.585266L9.255373,736.631306L9.484075,737.338316L10.085622,739.203794L10.089421,739.209615L10.192787,739.530327L10.342593,739.915606L10.902459,740.987314L10.906293,740.998428L10.965322,741.142912L11.023365,741.283692L11.102969,741.538790L11.129971,741.628234L11.166456,741.804475L11.172418,741.819823L11.288443,742.117794L11.329643,742.224175L11.357231,742.268633L11.361237,742.279218L11.408056,742.428999L11.428335,742.479808L11.432873,742.491451L11.524980,742.729620L11.638887,743.023363L11.671941,743.141389L11.682768,743.164677L11.694392,743.162560L11.714604,743.229777L11.729085,743.276883L11.745625,743.317636L11.772135,743.384325L11.792373,743.442015L11.816782,743.602914L11.838676,743.659547L11.851305,743.690774L11.857859,743.702947L11.865743,743.717767L11.877540,743.742114L11.881092,743.750053L11.926699,743.846911L11.956212,743.917834L11.972925,743.958059L11.989012,743.996167L12.003151,744.044331L12.018663,744.088262L12.045586,744.164478L12.117115,744.331202L12.301845,744.854665L12.444195,745.238931L12.470570,745.284450L12.495670,745.362256L12.525368,745.447473L12.534712,745.471291L12.552021,745.535336L12.581051,745.625316L12.617100,745.717943L12.647389,745.772990L12.655199,745.816393L12.700156,745.932839L12.719899,745.967773L12.742082,746.027584L12.757314,746.068340L12.841205,746.290119L12.855373,746.328758L12.920387,746.500783L13.005604,746.869711L12.988511,747.050736L12.973562,747.277813L13.124733,747.628222L13.232905,748.104612L13.779094,749.646565L13.794348,749.689971L13.834662,749.803251L14.046736,750.408826L14.126228,750.634860L14.130237,750.645447L14.141921,750.678267L14.258747,751.015997L14.352560,751.392373L14.381530,751.444780L14.434209,751.573945L14.497687,751.721109L14.516422,751.774046L14.518587,751.783574L14.681525,752.299182L14.705251,752.339414L14.941438,752.724801L14.973473,752.777209L15.340629,753.374353L15.628529,753.846039L15.724343,754.048796L15.746547,754.096442L15.783164,754.280672L15.802604,754.346317L15.934510,754.668721L15.999924,754.827542L16.098736,755.198126L16.206801,755.500948L16.287929,756.072186L16.300310,756.154245L16.311645,756.236835L16.437678,756.478780L16.501456,756.602136L16.523643,756.659313L16.536492,756.707491L16.475100,756.916085L16.438365,756.982263L15.612633,758.466804L14.977367,759.373752L14.678237,759.800495L14.316601,760.274365L14.247140,760.365963L14.176975,760.457031L14.144033,760.502036L14.110654,760.547041L14.062716,760.612695L14.014512,760.677820L13.682633,761.063806L12.756203,762.390690L12.421549,762.828580L12.392206,762.862468L12.327603,762.935009L12.329483,762.965720L12.331229,763.002255L12.318064,763.145749L12.305510,763.288714L12.286060,763.508458L12.251735,763.889172L12.250193,763.906117L12.197705,764.489109L12.179785,764.689266L12.034530,765.038219L11.816909,765.560860L11.795463,765.609576L11.780392,765.643995L11.672897,765.887049L11.565747,766.129046L11.550333,766.188883L11.539883,766.294261L11.554950,766.381634L11.612156,766.718950L11.627320,766.758666L11.629641,766.765020L11.878779,767.429070L12.018923,768.002575L11.653282,768.360556L11.121633,768.880057L11.037591,768.950490L10.972690,769.005035L10.953111,769.020922L10.694177,769.307419L10.569229,769.446167L10.530244,769.489592L10.435244,769.593918L10.504211,769.774503L10.922412,770.870209L10.975514,771.010551L11.088571,771.306593L11.122298,771.394506L11.144393,771.423633L11.229062,771.535378L11.232164,771.540674L11.242326,771.553914L11.245942,771.557621L13.250256,774.206743L13.806269,774.940284L14.361869,775.673836L24.586245,789.169621L24.589522,789.174389L25.753786,788.900481L26.743978,788.666840L29.248327,788.059696L29.510014,787.996121L29.961653,787.886454L30.413120,787.777318L31.661919,787.480108L35.126321,786.655243L35.408383,786.589551L36.656404,786.296057L38.283386,785.914625L43.163313,784.769287L44.789995,784.387338L45.549032,784.209343L47.826300,783.674833L48.585062,783.496311L48.716212,783.465587L49.110101,783.373413L49.240984,783.342158L49.921811,783.182708L51.964186,782.703302L52.644741,782.543325L53.543031,782.332495L56.237277,781.700539L57.135290,781.489183L58.691221,781.124212L63.357827,780.028788L64.913462,779.663299L65.925759,779.428646L68.962975,778.723635L69.975165,778.487928L71.963025,778.026581L77.926705,776.642038L78.255036,776.565767L79.915669,776.171705L83.667400,775.287726L94.921189,772.635364L98.672479,771.750925L100.011283,771.435814L104.026690,770.489436L105.365375,770.173276L106.089056,770.002751L108.259917,769.491710L108.983325,769.320658L109.246014,769.259228L110.033108,769.073879L110.295700,769.011390L114.305653,768.066651L126.334237,765.231495L130.343722,764.286305L130.888290,764.170342L132.522329,763.821396L133.066626,763.704904L133.197156,763.677370L133.587773,763.593708L133.718035,763.565644L134.116433,763.480924L135.310650,763.225704L135.708949,763.139925L136.058104,763.038261L137.105031,762.732212L137.453917,762.630020L144.815634,760.960029L166.899181,755.950949L174.259967,754.280672L174.275600,754.276966L174.762648,754.166851L176.223691,753.835451L176.710470,753.724808L178.222513,753.381765L182.758431,752.353178L184.270179,752.009615L184.826302,751.894212L185.382861,751.778810L186.692882,751.507245L190.883320,750.638036L193.960886,750.000168L196.383690,749.497290L196.572913,749.449120L197.141530,749.303022L197.330656,749.253793L197.924070,749.101344L199.704306,748.643999L200.297448,748.491022L200.596948,748.414269L201.496055,748.183482L201.795287,748.106200L202.411138,747.938404L204.257714,747.433961L204.873464,747.265109L205.127028,747.210060L205.887283,747.044914L206.140580,746.989336L206.868672,746.788198L209.053545,746.184258L209.781363,745.982593L210.004592,745.921194L210.227991,745.859266L213.436421,744.972168L219.141965,743.394381L224.400889,741.941023L228.055501,740.930156L228.558086,740.794669L230.066347,740.386625L230.568661,740.250611L230.638503,740.232088L230.847495,740.175460L230.917070,740.156407L231.173465,740.087078L231.942650,739.879089L232.199044,739.809760L233.697514,739.404900L238.193562,738.188224L239.692172,737.782849L240.818726,737.478555L244.198873,736.564098L245.325143,736.259283L248.127016,735.502018L256.531846,733.228177L259.333517,732.469902L265.684414,730.752320L284.735764,725.598894L291.085854,723.881035L293.713957,723.170525L301.598467,721.038002L304.226210,720.327006L306.619861,719.680031L313.800165,717.738099L316.193472,717.090629L318.097703,716.676973L323.809698,715.433910L325.713618,715.019740L332.207177,713.607990L351.686895,709.370876L358.179676,707.958766L360.410001,707.474321L367.101566,706.018901L369.331734,705.533418L369.703986,705.453033L370.821420,705.209766L371.193573,705.128324L372.970552,704.742272L378.301942,703.582546L380.078615,703.195978L380.172550,703.175883L380.454694,703.114540L380.548362,703.093916L380.795590,703.040505L381.536739,702.879216L381.783699,702.825277L382.801229,702.604232L385.852659,701.940576L386.869909,701.719007L387.179722,701.651849L388.107409,701.450376L388.416954,701.382690L390.123743,701.012003L395.243864,699.897843L396.950350,699.526639L399.274512,699.021658L402.641782,698.289312L406.246800,697.505688L408.333285,697.051488L408.451823,697.025580L408.570799,696.999671L409.331030,696.837344L411.610570,696.349840L412.370527,696.186987L416.656596,695.270686L429.513840,692.519772L433.799590,691.602483L435.075687,691.327564L438.903314,690.500702L440.179293,690.224732L444.042304,689.391016L455.629827,686.888369L459.492389,686.054183L459.842288,685.979117L460.891010,685.752864L461.240640,685.677270L465.329896,684.796058L477.597603,682.150401L481.686559,681.268196L492.922234,678.845780L498.658518,677.608455L515.630207,673.948462L526.626587,671.577673L526.745519,671.551778L537.860624,669.154683L542.693407,668.124221L557.191136,665.030854L562.023537,663.999423L562.676710,663.860456L564.635247,663.442502L565.287709,663.303008L569.772396,662.346642L583.225457,659.475542L587.709632,658.518722L588.037589,658.448982L589.021628,658.239235L589.349316,658.168967L590.837278,657.851971L595.299883,656.899409L596.787550,656.581892L597.333693,656.465664L598.970537,656.116452L599.516408,655.999696L605.621558,654.697439L623.936664,650.789818L630.041092,649.487170L630.053741,649.484529L637.740102,647.844910L660.796522,642.925850L668.481893,641.285919L668.577761,641.266377L668.865196,641.208281L668.960797,641.188211L671.593260,640.650031L679.489383,639.034996L682.121496,638.496311L685.300851,637.845671L685.911788,637.720509L689.701261,636.945775L693.858598,636.095007L694.837524,635.894859L698.016152,635.244781L698.058195,635.236332L698.184326,635.210984L698.226101,635.202006L698.328855,635.181411L698.637456,635.118569L698.740111,635.096918L701.763008,634.478535L710.830928,632.623960L713.853448,632.005079L714.884210,631.794387L717.975507,631.161260L719.005989,630.950043L722.054052,630.256730L731.197963,628.175793L734.245808,627.481463L734.589874,627.403318L735.620758,627.168885L735.964555,627.090213L738.108442,626.602343L740.702048,626.012048L744.539848,625.139289L745.439300,624.934433L746.061489,624.792935L746.683677,624.651438L746.773574,624.631375L747.044208,624.569602L747.133837,624.549011L747.142211,624.547427L747.168276,624.541091L747.176382,624.538979L748.686380,623.836251L750.078164,623.187385L752.979917,621.835826L753.215522,621.726541L753.852654,621.429309L754.725389,621.022796L755.958525,620.448932L759.657535,618.725794L760.890383,618.151427L761.190248,618.012060L762.089139,617.593432L762.388735,617.453538L762.604851,617.353238L763.252662,617.051280L763.468510,616.950452L766.276119,615.642873L774.697909,611.720338L777.505141,610.412365L778.176403,610.099892L779.311600,609.571015L780.185523,609.318718L780.853484,609.125538L784.380151,608.106867L784.824723,607.978083L788.796343,606.830654L788.811241,606.826431L794.914062,605.405111L798.414732,604.589704L799.703157,604.289933L800.991746,603.989636L802.130058,603.724700L806.868133,602.621169L808.991383,602.126672L813.275498,601.129249L816.990376,600.263775L818.938884,599.809936L821.878485,599.124961L824.258363,599.977750L825.854656,600.549275L826.799166,600.887548L829.631880,601.902382L830.575992,602.240664L830.600948,602.213222L830.675013,602.129311L830.699702,602.101340L831.721563,600.947709L834.409001,597.913350L834.722875,597.434201L835.570535,596.138728L836.620809,594.898164L839.772404,591.174541L840.241830,590.620532L840.629968,590.162028L840.822910,589.933569L841.540501,588.736417L841.601420,588.630896L841.749319,588.762270L841.784517,588.786012L841.889235,588.857239L841.923995,588.880981L842.566641,589.316787L844.493939,590.623698L845.136361,591.058990L845.638017,591.434664L846.491174,592.072576L847.143370,592.560645L847.645396,592.935275L847.820847,593.066659L848.160939,593.225482L849.781521,593.982667L850.321489,594.234889L850.484826,594.311400L850.851188,594.482363L851.008821,594.451231L851.217186,594.409018L851.764012,594.300319L853.404386,593.973170L853.951110,593.863417L854.035421,593.847059L854.287554,593.796404L854.371767,593.778991L855.089028,593.635997L855.760803,593.189074L856.560538,592.657732L856.910473,592.424513L858.162061,591.591371L860.126826,589.677674L860.838069,588.984920L862.217752,588.454148L862.381758,588.390836L864.163658,587.354635L864.301453,587.274969L864.833597,586.965274L865.503097,586.575915L866.317591,586.102147L866.840470,585.670061L866.892000,585.627855L866.943262,585.585121L867.526591,585.103449L868.606818,584.210809L869.584522,583.403648L870.270379,582.836532L870.372566,582.752125L870.679126,582.498904L870.781313,582.414497L870.815610,582.386537L870.918403,582.301603L870.952432,582.273116L871.008641,582.227220L871.020153,582.217197L871.063317,582.029393L871.078847,581.961868L871.468240,580.271665L871.481433,580.214165L871.496540,579.999465L871.530440,579.529976L871.585697,578.758230L871.654396,577.793431L871.657417,577.748594L871.672622,577.541816L870.787371,576.763769L870.057405,576.121296L869.929821,575.533160L869.975131,574.686573L869.989219,574.580025L870.087838,573.834197L870.134385,573.480802L870.300331,572.873708L870.795460,571.461225L870.827823,571.372617L870.834790,571.353629L870.856294,571.296139L870.862993,571.276624L870.867928,571.263966L870.876587,571.239704L870.882199,571.224936L870.886867,571.211750L870.914633,571.134745L870.922036,571.115758L870.959237,571.013437L870.991262,570.925884L871.028054,570.826200L871.063393,570.729681L871.078003,570.689597L871.122171,570.568290L871.136514,570.527678L871.162856,570.456476L871.188762,570.385274L871.303443,570.071459L871.311256,570.049835L871.375117,569.982853L871.706075,569.634758L871.740699,569.612607L871.980617,569.457020L872.423163,569.172218L872.819107,568.916952L873.171550,568.687003L873.192716,568.672763L873.450770,568.505576L873.831339,568.258752L874.053725,568.114245L874.195460,567.992416L874.220574,567.971320L874.479973,567.748231L874.537486,567.667012L874.571838,567.618492L874.659658,567.494555L874.867617,567.068423L874.887808,567.027286L874.894732,567.012520L874.932266,566.899659L874.968420,566.788380L875.038287,566.574789L875.062085,566.502010L875.068213,566.401280L875.074216,566.296859L875.074670,566.290003L875.127656,565.315412L875.136037,565.161420L875.139730,565.095498L875.141536,565.058583L875.133185,564.959437L875.126743,564.876113L875.190482,564.711575L875.237114,564.590809L875.436808,564.268063L875.669775,563.953229L876.063120,563.639452L876.126879,563.587771L876.160095,563.564568L876.284688,563.448550L876.471917,563.273469L876.568577,563.150597L876.613581,563.049873L876.602570,562.954950L876.590658,562.857391L876.545994,562.811512L876.492855,562.756668L876.389927,562.650144L876.349167,562.575789L876.310715,562.505124L876.307070,562.498796L876.296133,562.479812L876.292657,562.472956L876.249758,562.394382L876.213981,562.328992L876.168629,562.120692L876.163316,562.096435L876.148689,562.023662L876.136888,561.962491L876.101931,561.788470L876.098089,561.780032L876.073535,561.727299L876.056930,561.691967L876.007189,561.584391L875.990317,561.548532L875.973713,561.513201L875.959979,561.381895L875.955424,561.337599L875.952679,561.308068L875.943741,561.218949L875.942760,561.208403L875.948830,561.186782L875.958625,561.153560L875.987208,561.052313L875.996736,561.018564L876.005685,560.987979L876.029964,560.901497L876.032967,560.896224L876.047593,560.865639L876.062825,560.834527L876.107915,560.741717L876.122879,560.710078L876.143415,560.667892L876.163950,560.625706L876.265602,560.382609L876.518195,559.907494L876.690331,559.638035L876.699422,559.630126L876.701160,559.620634L876.731081,559.573703L876.740457,559.559465L876.767544,559.517280L876.776653,559.502515L876.957561,559.219349L877.049421,559.035318L877.065137,558.974150L877.152053,558.628764L877.060300,558.268616L876.916640,557.974909L876.728817,557.666441L876.664436,557.560982L876.445752,557.362192L876.433588,557.351119L876.397096,557.317899L876.384932,557.306826L876.275458,557.207168L876.139312,557.156548L875.882360,557.060581L875.341938,556.837011L875.326176,556.815392L875.151086,556.573368L874.958139,555.985976L874.886941,555.712846L874.774336,555.219317L874.681849,555.017900L874.675194,555.007355L874.666074,554.977300L874.663936,554.973082L874.641682,554.930901L874.577944,554.792229L874.563500,554.780102L874.457804,554.690467L874.374986,554.301346L874.373063,554.292382L874.438441,554.086223L874.484605,553.880064L874.611774,553.502022L874.821126,553.176706L874.865810,553.102891L875.487880,552.262460L875.596216,552.036801L875.656697,551.643481L875.761793,551.097794L875.915566,550.448249L875.958597,550.250540L875.916103,550.147732L875.914833,550.134024L875.782563,549.924718L875.751729,549.844053L875.598309,549.677452L875.454784,549.504525L875.485200,549.132840L875.455965,549.045850L875.644597,548.751140L875.758111,548.597722L876.050908,548.086334L876.379529,547.728366L876.463630,547.594458L876.511039,547.262325L876.512030,547.256525L876.515343,547.238074L876.516068,547.231747L876.584156,546.915432L876.610119,546.792597L876.627153,546.712465L876.800189,546.447290L877.049147,546.212165L877.184349,546.142050L877.257418,546.103566L877.465858,545.994439L877.556049,545.947520L877.826185,545.806763L877.883006,545.776714L877.913849,545.751409L878.324407,545.412961L878.474289,545.352863L878.544574,545.324396L879.157667,545.275369L879.554137,545.409798L879.772603,545.406635L880.029010,545.407690L880.073008,545.441956L880.224611,545.558462L880.310065,545.634903L880.418704,545.742447L880.460986,545.744029L880.656752,545.750355L881.020176,545.558462L881.821267,545.203146L882.038786,545.111945L882.446714,544.907930L883.133859,544.590574L883.832612,544.299578L884.158055,544.216286L884.646365,544.177803L884.735454,544.161461L884.991903,544.113489L885.240949,543.969047L885.438907,543.824605L885.559741,543.705467L885.657731,543.509364L885.743141,543.285850L885.884539,543.018583L886.001336,542.879415L886.071547,542.807723L886.153552,542.745519L886.322088,542.646415L886.351959,542.620058L886.672448,542.440828L887.175725,542.236295L887.583627,541.949529L887.622642,541.920536L887.738884,541.831977L887.777631,541.802457L887.994525,541.638516L888.287364,541.561554L888.443363,541.520438L889.053116,541.390762L889.582794,541.351227L889.775673,541.420809L889.889509,541.461925L890.217091,541.536252L890.234242,541.539942L890.253772,541.545740L890.362266,541.576314L890.388007,541.583167L890.399020,541.584221L890.763572,541.616904L890.852839,541.619012L891.242386,541.626919L891.537480,541.727603L891.796793,541.866241L892.055107,542.036508L892.140621,542.092385L892.384935,542.295335L892.584523,542.460859L892.629610,542.490379L892.814424,542.609515L893.017287,542.690168L893.113676,542.795071L893.279419,542.981683L893.382570,543.037034L893.437701,543.066554L893.730282,543.008040L893.766106,543.001187L893.865718,542.980628L893.872678,542.977993L893.908763,542.962178L894.229723,542.823537L894.621349,542.731286L894.931440,542.668555L895.099121,542.732340L895.189016,542.922642L895.286183,543.177256L895.405942,543.367032L895.388382,543.446105L895.486410,543.601617L895.498616,543.608470L895.592575,543.661186L895.896186,543.667511L896.136826,543.602144L896.320762,543.551537L896.483185,543.506728L896.612698,543.436617L897.076287,543.185691L897.233081,543.066027L897.405799,543.038088L897.423058,542.981683L897.437246,542.941619L897.443881,542.923696L897.458168,542.884687L897.518605,542.717053L897.532116,542.679098L897.549453,542.630601L897.788087,541.971142L898.555696,539.845747L898.811440,539.137301L898.859902,539.002887L898.884387,538.934889L898.957772,538.732478L898.962276,538.719828L899.005726,538.599647L899.054358,538.464707L899.092893,538.359813L899.207188,538.045131L899.241120,537.951833L899.245019,537.939710L899.256304,537.905975L899.398865,537.507487L899.862171,536.210840L900.016638,535.778104L900.178835,535.322707L900.617752,534.089887L900.664312,533.956012L900.821019,533.500104L900.881679,533.325120L901.062958,532.799645L901.122917,532.624137L901.269874,532.197227L901.323052,532.042802L901.533159,531.453568L901.586389,531.304416L901.746156,530.855381L901.799121,530.705703L901.807117,530.683568L901.831613,530.615581L901.839512,530.592391L901.863330,530.526512L901.933306,530.329403L901.956858,530.262997L901.958990,530.257727L901.965024,530.240335L901.966889,530.234538L901.990877,530.168132L902.061800,529.969443L902.085522,529.902511L902.090029,529.889862L902.104058,529.850336L902.108298,529.837160L902.124630,529.791836L902.173019,529.656391L902.189084,529.610540L902.200231,529.579973L902.232967,529.487744L902.240018,529.467190L902.243847,529.456649L902.266043,529.394461L902.332801,529.207369L902.354730,529.144654L902.514952,528.695637L902.995279,527.347025L903.155251,526.897495L903.513330,525.893577L903.630270,525.564211L903.937064,524.702072L905.144304,521.570874L905.657200,520.239826L905.811781,519.823551L906.275182,518.573163L906.429511,518.156374L906.694726,517.438723L907.490432,515.285827L907.755687,514.568213L907.967113,513.996026L908.601163,512.278973L908.812348,511.706282L908.943544,511.350658L909.426705,510.042509L911.093271,505.530870L911.224293,505.170544L911.267822,505.050436L911.443301,504.565793L911.871824,503.385808L912.022882,502.970186L912.174962,502.551406L912.475808,501.722810L912.626612,501.306673L912.750335,500.966392L913.121251,499.945032L913.244717,499.604232L913.494980,498.913683L913.588962,498.653478L913.833997,497.972422L914.239182,496.841034L914.426443,496.317484L914.435134,496.293256L914.507230,496.153679L914.518902,496.131031L914.907100,495.068676L915.101972,494.535136L915.123361,494.475620L916.080981,491.810106L916.104753,491.743220L916.474738,490.724134L916.713367,490.067399L916.935371,489.455436L917.193276,488.744473L917.419876,488.096713L917.649715,487.438956L917.816871,486.961836L917.833049,486.914440L918.334682,485.529974L918.507263,485.052344L919.198909,483.117640L919.734918,481.616368L920.949082,478.240623L921.279428,477.312868L921.967345,475.377372L921.989947,475.314191L922.057755,475.124646L922.080092,475.060938L922.196171,474.735556L922.543887,473.758366L922.659708,473.432465L922.747724,473.184486L923.012555,472.439503L923.100310,472.191002L923.123257,472.126771L923.161374,472.018315L923.191566,471.933025L923.214247,471.868268L923.258854,471.742439L923.393189,471.363374L923.437531,471.237020L923.482140,471.111193L923.540389,470.945880L923.615437,470.732659L923.659781,470.606306L923.732011,470.400457L923.948610,469.781860L924.020577,469.575487L924.205680,469.020601L924.760663,467.354394L924.945088,466.799002L924.959497,466.746359L925.018813,466.592640L925.054270,466.509990L925.147789,466.290995L925.341375,465.788256L925.395256,465.641909L925.476616,465.418706L925.495624,465.351850L925.568832,465.156548L925.787930,464.569592L925.860439,464.373766L925.866091,464.349551L925.871573,464.325863L925.883484,464.276907L925.889306,464.252165L926.028516,463.875782L926.446069,462.745594L926.585024,462.368694L926.595019,462.341847L926.622577,462.263415L926.733128,461.946000L926.769713,461.839669L926.806320,461.735970L926.858010,461.587002L926.914831,461.424875L926.946308,461.334337L926.951172,461.320651L926.956303,461.307491L926.970290,461.266959L926.974718,461.253273L926.977880,461.244851L926.986832,461.218532L926.989728,461.209583L926.996732,461.190634L927.139458,460.792688L927.161227,460.732155L927.282017,460.395272L927.564759,459.607818L927.676263,459.298313L927.847950,458.820373L927.882103,458.725628L927.916426,458.630357L928.054913,458.245588L928.343842,457.441845L928.676182,456.520213L928.860885,456.007558L928.883341,455.944924L928.893339,455.918080L928.922706,455.835446L928.932438,455.808076L928.966351,455.715441L929.066517,455.437011L929.100165,455.343850L929.129287,455.263321L929.206146,455.050157L929.267118,454.880680L929.379331,454.569095L929.432276,454.421724L929.523663,454.169089L929.629385,453.874877L929.770559,453.483297L930.113726,452.531201L930.120904,452.511728L930.194877,452.307521L930.335797,451.915426L930.426078,451.664907L930.575621,451.247554L930.696132,450.911779L930.786152,450.660738L930.869943,450.427592L931.029912,449.980776L931.121054,449.727634L931.204583,449.493966L931.307064,449.228721L931.326140,449.179251L931.622633,448.433523L931.727737,448.168283L931.973018,447.466247L932.708995,445.358609L932.954049,444.656079L933.199382,443.966188L933.663057,442.659047L933.741779,442.478028L933.752125,442.450139L933.952981,441.897614L934.065198,441.587676L934.125116,441.422973L934.203320,441.207229L934.279139,440.998852L934.498638,440.394247L934.506768,440.373199L934.582761,440.164298L934.928774,439.221889L935.592288,437.414461L935.960449,436.393170L936.292027,435.471340L936.300330,435.449767L936.416336,435.116186L936.763231,434.114928L936.878980,433.780828L937.001746,433.427789L937.483071,432.040383L937.742034,431.294343L937.768350,431.218582L937.782627,431.178597L937.796638,431.138086L937.808943,431.102836L937.821419,431.067060L938.007683,430.530425L938.235647,429.873315L938.566413,428.919493L938.629387,428.737464L938.752434,428.382351L938.775929,428.313959L938.820643,428.188223L939.008890,427.656347L939.026583,427.605843L939.094966,427.411192L939.124890,427.327018L939.214400,427.073973L939.244060,426.989274L939.275957,426.900366L939.370248,426.632592L939.401445,426.543159L939.474800,426.335886L939.694606,425.713543L939.767699,425.505746L939.780691,425.468395L939.819229,425.356343L939.822131,425.347400L939.832392,425.318466L939.882215,425.174324L939.911613,425.089102L940.031689,424.741901L940.081515,424.597760L940.174926,424.327366L940.455778,423.515666L940.548930,423.244751L940.603976,423.085885L940.979978,421.998557L942.272945,418.258551L942.703849,417.011934L942.715194,416.987738L942.895184,416.367595L943.407149,414.600301L943.455533,414.432516L943.641575,413.787153L943.767487,413.351129L944.145322,412.041498L944.270985,411.604961L944.273282,411.596546L944.276092,411.586553L944.375596,411.239955L944.688746,410.144424L944.789610,409.790997L944.793104,409.778901L945.235238,408.290534L946.561725,403.823546L947.003776,402.334798L947.073988,402.098684L947.118176,401.949338L947.284632,401.390347L947.354584,401.153711L947.520708,400.595779L948.018150,398.920961L948.176434,398.387238L948.183598,398.362524L948.194011,398.327819L948.284043,398.025465L948.585032,397.012724L948.685221,396.675147L948.717737,396.565776L948.813825,396.240822L948.819716,396.221366L948.834825,396.170888L949.249146,394.781701L949.623937,393.518209L949.786975,392.968758L950.275689,391.320435L950.438316,390.771004L950.663041,390.016003L950.693899,389.973417L950.709704,389.935562L950.724389,389.899810L950.712988,389.847759L950.752440,389.715793L950.875990,389.299918L951.247004,388.051258L951.370303,387.634869L951.379355,387.604375L951.605233,386.844682L952.310269,384.473656L952.545421,383.682984L952.580191,383.566802L952.683631,383.218258L952.709425,383.130991L952.718137,383.101552L952.843626,382.679938L953.219242,381.415113L953.344481,380.992985L953.706288,379.873807L953.801619,379.578376L953.829549,379.468510L954.513239,377.316961L954.964421,375.807293L955.013312,375.643818L955.166743,375.131319L955.658499,373.469272L955.796992,372.992006L955.854408,372.794373L955.925215,372.546281L955.978677,372.387545L955.988874,372.357585L956.315704,371.335797L956.528057,370.561057L957.014534,368.909115L957.051722,368.782975L957.065566,368.735146L957.349314,367.560999L957.865318,365.872346L957.951047,365.590645L960.564200,357.017237L960.567971,357.005677L961.222328,354.748739L961.651660,353.277962L961.656275,353.261147L961.965273,352.173981L962.247007,351.182464L963.441977,347.056823L963.469207,346.965402L963.515685,346.805678L963.543843,346.724765L963.676863,346.350677L963.713686,346.227207L964.108735,344.901106L964.318179,344.190255L964.366475,344.026334L964.390622,343.944374L964.392060,343.935968L964.427693,343.766795L964.461671,343.648059L965.112357,341.355334L965.121767,341.321185L965.702006,339.239205L966.501107,336.511664L966.517439,336.467012L966.726384,335.754151L966.778141,335.579745L967.030538,334.771287L967.286409,333.677600L967.301514,333.648708L967.321109,333.611412L967.345630,333.531041L967.579166,332.760429L967.584395,332.743094L967.710471,332.335992L967.712095,332.329689L968.262701,330.506428L968.360359,330.182333L968.376421,330.117199L968.405743,330.019498L968.435106,329.912343L968.442264,329.897110L968.623972,329.297252L969.044480,327.881672L969.170970,327.444135L969.339094,326.857956L969.579430,326.012312L969.803091,325.229707L970.105346,324.170841L970.125405,324.101511L971.122297,320.679225L971.198501,320.392991L971.210509,320.333644L971.323892,320.004347L971.383372,319.830508L971.404296,319.758556L971.435419,319.594171L971.459447,319.515393L971.471118,319.477054L971.653277,318.853656L971.685358,318.744943L972.591954,315.673210L972.623870,315.565027L972.634764,315.527741L972.645831,315.489929L972.656038,315.454744L972.831065,314.861317L973.447314,312.770711L974.104498,310.462245L974.120370,310.407107L974.128690,310.377701L974.183674,310.184457L974.204428,310.110415L974.278976,309.849433L975.126607,306.834813L975.132189,306.816435L975.135273,306.804358L975.217908,306.516083L975.239791,306.439945L975.331439,306.120167L975.339073,306.092863L975.487193,305.576705L975.499723,305.533123L975.564264,305.309439L976.540841,301.907529L976.934657,300.547128L977.398836,299.006667L978.246122,296.108553L979.100072,293.180111L979.670440,291.325880L979.675764,291.306981L979.946871,290.425557L979.967394,290.373585L979.975340,290.334737L979.981757,290.305864L980.309409,289.160399L980.380778,288.926793L980.396512,288.874823L980.476053,288.614971L980.721365,287.807073L981.118816,286.499443L981.509414,285.212834L982.011526,283.517340L982.334226,282.426051L982.338530,282.412928L982.367682,282.314771L982.959576,280.312810L982.961724,280.304937L982.974711,280.261371L982.986148,280.222529L983.056518,279.966908L983.060216,279.954311L983.127541,279.676121L983.648782,277.945594L984.065803,276.562043L984.683542,274.443730L984.688619,274.426935L984.711158,274.350307L984.858427,273.845932L985.234442,272.555882L985.293438,272.372190L985.394982,272.056243L985.425732,271.961249L985.437702,271.923461L985.462767,271.845786L985.505052,271.713005L985.588299,271.442195L985.602600,271.398635L985.757502,270.926820L985.972835,270.255052L985.992642,270.192074L986.016412,270.117026L986.118124,269.795315L986.123121,269.780096L986.128890,269.761202L986.903290,267.311422L986.993817,267.023836L987.006743,266.984476L987.013120,266.965059L987.021819,266.937245L987.589026,265.179741L987.591267,265.172919L987.821908,264.423015L987.828368,264.402024L987.909839,264.135440L988.204360,263.189810L988.242855,263.166720L988.683390,261.821764L989.069532,260.633207L989.070519,260.589128L989.049100,260.562891L989.042290,260.557119L989.292413,259.779976L989.367666,259.521805L989.470565,259.170233L989.640120,258.591978L989.832983,258.003758L990.142417,257.058208L990.148798,257.038794L990.215962,256.833104L990.223714,256.806868L990.253777,256.706123L990.257480,256.693529L990.320621,256.481544L990.323208,256.473674L990.326049,256.463704L990.376782,256.292123L990.444399,256.063873L990.523301,255.797320L990.641739,255.395918L991.713582,251.956547L991.734528,251.888863L991.739613,251.872073L991.980650,251.099222L992.808390,248.493204L992.816154,248.469595L992.825988,248.439689L993.382945,246.685259L993.825557,245.281326L994.176547,244.178554L994.181897,244.162291L994.186212,244.149175L994.845294,242.076933L995.937874,238.517010L996.616646,236.306441L997.262803,234.232321L997.278600,234.183013L997.290335,234.144721L997.934203,232.126787L998.524449,229.911163L998.762487,228.929260L998.816748,228.706340L998.925958,228.255782L998.926214,228.253684L998.933711,228.224311L999.884227,224.832365L999.886300,224.826071L1000.000000,223.994761Z " data-aland="-2147483648" data-awater="1814978794" data-division="1" data-funcstat="A" data-geoid="09" data-intptlat="+41.5797777" data-intptlon="-072.7466665" data-lsad="00" data-mtfcc="G4000" data-name="Connecticut" data-region="1" data-statefp="09" data-statens="01779780" data-stusps="CT"/></g><g fill="#000" font-family="Arial" font-size="12px" id="mylayer-label" stroke="none"><text text-anchor="middle" y="454.330434066"><tspan dy="0" x="513.730103929"><![CDATA[Connecticut]]></tspan></text></g></svg>