<?xml version="1.0" encoding="utf-8"?><!DOCTYPE svg  PUBLIC '-//W3C//DTD SVG 1.1//EN'  'http://www.w3.org/Graphics/SVG/1.1/DTD/svg11.dtd'><svg enable_background="new 0 0 1000 1001" height="1001px" pretty_print="False" style="stroke-linejoin: round; stroke:#000; fill: none;" version="1.1" viewBox="0 0 1000 1001" width="1000px" xmlns="http://www.w3.org/2000/svg" xmlns:xlink="http://www.w3.org/1999/xlink"><defs><style type="text/css"><![CDATA[path { fill-rule: evenodd; }]]></style></defs><metadata><views><view h="1001" padding="0" w="1000"><proj flip="auto" id="robinson" lon0="-75.4938484959"/><bbox h="23.4" w="10.94" x="-1041.13" y="-669.15"/></view></views></metadata><g class="" id="mylayer"><path d="M641.848342,0.000000L641.739024,0.000713L641.506607,0.001426L641.343033,0.002140L641.165456,0.002853L640.919400,0.004279L640.741379,0.006419L640.591001,0.007845L640.358724,0.009985L640.139643,0.012837L640.098583,0.013550L640.016685,0.014264L639.920563,0.015690L639.851860,0.017116L639.756322,0.018543L639.701260,0.019256L639.646782,0.019969L639.577857,0.022109L639.523018,0.022109L639.467734,0.023535L639.413255,0.024248L639.372195,0.024961L639.289491,0.026388L639.180312,0.028527L639.110444,0.029954L639.028685,0.032093L638.918339,0.034233L638.864222,0.035659L638.823162,0.036372L638.740819,0.038512L638.658699,0.039938L638.562133,0.042791L638.425312,0.045643L638.328746,0.048496L638.260044,0.049923L638.218762,0.051349L638.164061,0.052775L638.081719,0.054915L638.026435,0.056341L637.957511,0.058481L637.888587,0.060620L637.820468,0.062047L637.737320,0.064899L637.668980,0.067039L637.585471,0.069178L637.503490,0.072031L637.420925,0.074884L637.352001,0.077023L637.297884,0.078450L637.269659,0.079163L637.173454,0.082729L637.076666,0.086295L637.006575,0.088434L636.924011,0.091287L636.855087,0.093426L636.717016,0.098419L636.660927,0.100558L636.620812,0.101985L636.538247,0.104837L636.399955,0.110543L636.275886,0.115535L636.152040,0.119814L636.055030,0.124093L636.000107,0.126233L635.923738,0.129799L635.861815,0.131938L635.792669,0.134791L635.709882,0.138357L635.627096,0.141923L635.544309,0.145489L635.447883,0.149768L635.295950,0.156186L635.268086,0.157613L635.212942,0.160465L635.060787,0.167597L634.881352,0.176155L634.742838,0.182574L634.631965,0.188280L634.507452,0.194698L634.355659,0.202543L634.244787,0.208249L634.161778,0.212528L634.037265,0.218946L633.912753,0.225365L633.801658,0.231784L633.676923,0.238915L633.552411,0.245334L633.413814,0.253892L633.317165,0.258885L633.177984,0.267443L633.081113,0.273148L632.956379,0.280280L632.901012,0.283846L632.831422,0.288125L632.789695,0.290978L632.720689,0.295257L632.664739,0.298823L632.609594,0.301676L632.539782,0.306668L632.484415,0.310234L632.442911,0.312373L632.387544,0.315939L632.359458,0.318079L632.332178,0.319505L632.276228,0.323071L632.192775,0.328777L632.123768,0.333056L632.068401,0.336622L632.012229,0.340901L631.956863,0.344467L631.915137,0.347319L631.873410,0.350172L631.789958,0.355877L631.720145,0.360870L631.637498,0.365862L631.567686,0.370854L631.481899,0.376560L631.426311,0.380839L631.356720,0.385118L631.301132,0.389397L631.245765,0.392963L631.175953,0.397955L631.106724,0.402948L631.036911,0.407940L630.981545,0.411506L630.925956,0.415785L630.856144,0.420777L630.786915,0.425770L630.731326,0.430049L630.675376,0.433615L630.606147,0.438607L630.522472,0.445026L630.453243,0.450018L630.411295,0.453584L630.383209,0.455723L630.327620,0.460002L630.285894,0.462855L630.272031,0.464282L630.243945,0.466421L630.215859,0.468561L630.174716,0.471413L630.104682,0.477119L630.007367,0.484251L629.951778,0.488530L629.881744,0.494235L629.798652,0.500654L629.728618,0.506360L629.617440,0.514918L629.533543,0.522050L629.436006,0.529895L629.324607,0.539166L629.255156,0.544872L629.185121,0.550577L629.129310,0.555569L629.045997,0.562701L628.962100,0.569833L628.864563,0.577678L628.780666,0.584810L628.697130,0.592655L628.613233,0.599787L628.557423,0.604779L628.501834,0.609059L628.417715,0.616904L628.334401,0.624035L628.278591,0.629028L628.208334,0.635446L628.124798,0.643292L628.054542,0.649710L627.984869,0.656129L627.915195,0.662548L627.831298,0.669680L627.761403,0.676811L627.691730,0.683230L627.622057,0.689649L627.537938,0.697494L627.426094,0.708192L627.300388,0.720316L627.216269,0.728161L627.174682,0.732440L627.090562,0.740285L626.978497,0.751696L626.838928,0.765247L626.698554,0.779511L626.558985,0.793061L626.433057,0.805899L626.362940,0.813744L626.264736,0.823729L626.138808,0.836566L626.041188,0.846551L625.915037,0.860101L625.800415,0.872226L625.702795,0.882210L625.590507,0.894335L625.492665,0.905032L625.380377,0.917157L625.281951,0.927855L625.198193,0.936413L625.071821,0.950677L624.973978,0.961375L624.847606,0.975638L624.763626,0.984910L624.665200,0.995608L624.595083,1.003453L624.524965,1.011298L624.455209,1.019857L624.356783,1.030554L624.244856,1.043392L624.132346,1.056229L623.935995,1.079765L623.725420,1.104013L623.612688,1.117564L623.402474,1.142526L623.233848,1.163209L623.149646,1.173193L623.008966,1.190310L622.896595,1.204574L622.784446,1.218125L622.657629,1.233815L622.615597,1.239521L622.587067,1.243087L622.545258,1.248079L622.488780,1.255211L622.418802,1.264483L622.362547,1.270901L622.334600,1.274467L622.305847,1.278747L622.249953,1.285879L622.137582,1.300143L622.010543,1.316546L621.855557,1.336516L621.729101,1.352919L621.673207,1.360051L621.645260,1.363617L621.574698,1.372889L621.532666,1.378594L621.476189,1.385726L621.434158,1.391432L621.392126,1.397138L621.335427,1.404983L621.293617,1.409975L621.251002,1.415681L621.236918,1.417820L621.222833,1.419960L621.194886,1.423526L621.166939,1.427092L621.124324,1.432798L621.068208,1.440643L621.039678,1.444209L621.011731,1.447775L620.969477,1.454194L620.941530,1.457760L620.913000,1.461326L620.870968,1.467031L620.842799,1.471311L620.800768,1.477016L620.744290,1.484148L620.730206,1.486288L620.716121,1.488427L620.674090,1.494133L620.561274,1.509823L620.504574,1.517669L620.434596,1.526940L620.349727,1.539065L620.279527,1.549049L620.178462,1.562600L620.136430,1.568306L620.066230,1.578291L619.995445,1.588276L619.939329,1.596121L619.868545,1.606106L619.826514,1.611811L619.741645,1.623936L619.699391,1.630355L619.685529,1.631781L619.643275,1.638200L619.586575,1.646045L619.530459,1.653890L619.474121,1.662449L619.403337,1.672434L619.347221,1.680279L619.333136,1.682418L619.304967,1.686698L619.262713,1.693117L619.220098,1.698822L619.149897,1.708807L619.091004,1.718079L619.036638,1.725924L619.022775,1.727350L618.952352,1.738048L618.825230,1.756592L618.698691,1.775135L618.585430,1.792252L618.472754,1.809369L618.388246,1.822207L618.275208,1.838610L618.176616,1.853588L618.035187,1.874984L617.964542,1.886395L617.823696,1.907791L617.696351,1.927048L617.569368,1.947018L617.442384,1.966988L617.329485,1.984818L617.202502,2.004788L617.060850,2.026897L616.933645,2.047580L616.806661,2.067550L616.693540,2.086094L616.566556,2.106064L616.396875,2.133879L616.227193,2.161694L616.057511,2.189509L615.930083,2.210906L615.817545,2.229449L615.661948,2.255125L615.548605,2.274382L615.421177,2.295778L615.280026,2.320027L615.131068,2.344990L614.981888,2.370665L614.832708,2.396341L614.683306,2.422730L614.588575,2.438421L614.544710,2.446266L614.453841,2.462670L614.362027,2.478361L614.288604,2.491199L614.216126,2.504750L614.150731,2.516161L614.085920,2.527573L614.020525,2.538984L613.940462,2.552535L613.875067,2.563947L613.826091,2.573219L613.732888,2.589623L613.686467,2.598181L613.649464,2.604600L613.597570,2.613872L613.546260,2.623144L613.494367,2.632416L613.453419,2.640261L613.380579,2.653099L613.258762,2.675209L613.054689,2.712296L612.941484,2.732980L612.828057,2.754376L612.700546,2.777913L612.530336,2.809294L612.388518,2.835683L612.247283,2.862073L612.133856,2.883469L612.006123,2.907719L611.836274,2.939814L611.708541,2.964064L611.594892,2.986173L611.482048,3.007570L611.354092,3.032533L611.254750,3.051790L611.141685,3.073900L611.070956,3.087451L610.957307,3.109561L610.872271,3.125966L610.801321,3.140230L610.730370,3.154495L610.645334,3.170899L610.560077,3.188016L610.503655,3.198715L610.432704,3.212979L610.361753,3.227244L610.248466,3.250067L610.163208,3.267184L610.077950,3.284302L610.006999,3.298566L609.921742,3.315684L609.837068,3.332801L609.766117,3.347066L609.680859,3.364184L609.581656,3.384867L609.525012,3.396279L609.467784,3.407691L609.396611,3.422668L609.382888,3.425521L609.340551,3.434080L609.311937,3.439786L609.255293,3.451198L609.156090,3.471881L608.999437,3.504690L608.885926,3.528227L608.796724,3.546771L608.614596,3.584572L608.501086,3.608109L608.427941,3.623800L608.345016,3.640917L608.231284,3.665167L608.117551,3.689417L608.074992,3.698689L607.975788,3.719373L607.848332,3.746476L607.734378,3.771439L607.649481,3.789270L607.507496,3.819939L607.393541,3.844903L607.279809,3.869153L607.194690,3.887697L607.109571,3.906241L606.981893,3.934057L606.868521,3.959021L606.783180,3.978278L606.640973,4.009661L606.498765,4.041043L606.371448,4.069573L606.214712,4.104521L606.058558,4.139470L605.944965,4.165147L605.817648,4.193677L605.704054,4.219353L605.604184,4.242177L605.518842,4.261435L605.405249,4.287111L605.292016,4.313501L605.163893,4.342744L605.007879,4.379120L604.851503,4.414782L604.751994,4.438319L604.652707,4.461143L604.567144,4.481114L604.495887,4.498232L604.453689,4.508217L604.425436,4.514637L604.368126,4.528188L604.339873,4.534608L604.297091,4.544593L604.239780,4.558145L604.197582,4.568130L604.140855,4.581682L604.069820,4.598087L603.984035,4.618771L603.927891,4.632322L603.856856,4.648727L603.785600,4.665845L603.743401,4.675831L603.700397,4.686529L603.686674,4.689382L603.629363,4.702934L603.544161,4.723618L603.501740,4.734317L603.445013,4.747869L603.359449,4.767840L603.274247,4.788524L603.231826,4.799223L603.160570,4.816341L603.086757,4.834172L603.030030,4.847724L602.987026,4.858423L602.958773,4.864842L602.944244,4.868408L602.859625,4.889093L602.802675,4.903358L602.717473,4.924042L602.632270,4.944726L602.532539,4.968977L602.475589,4.983242L602.418861,4.996794L602.390387,5.003926L602.361912,5.011059L602.319491,5.021758L602.248234,5.038876L602.191285,5.053141L602.134335,5.067406L602.077607,5.080958L602.021241,5.095223L601.964291,5.109488L601.907341,5.123753L601.836085,5.140871L601.765189,5.158703L601.665819,5.183667L601.509499,5.222896L601.452549,5.237161L601.381653,5.254993L601.339233,5.265691L601.324481,5.269971L601.239057,5.291369L601.083320,5.330598L601.012202,5.349143L600.926777,5.370540L600.813239,5.399784L600.670642,5.436160L600.500737,5.479669L600.343972,5.520325L600.258909,5.542436L600.102144,5.583092L599.960492,5.620182L599.874844,5.642293L599.789781,5.664404L599.690549,5.690795L599.590956,5.716473L599.505671,5.739297L599.391910,5.769254L599.250035,5.807057L599.150220,5.833448L599.037043,5.863405L598.909114,5.897642L598.809077,5.924746L598.695899,5.954704L598.567748,5.989654L598.468516,6.016045L598.439819,6.023891L598.411705,6.031737L598.369062,6.043149L598.297722,6.062407L598.269608,6.070253L598.226965,6.081666L598.155625,6.100924L598.098814,6.116616L598.042226,6.131595L597.985415,6.147287L597.942549,6.159412L597.899906,6.170825L597.843095,6.186517L597.786284,6.202209L597.729696,6.217187L597.630019,6.245005L597.558457,6.264977L597.502452,6.279955L597.445641,6.295647L597.360576,6.317759L597.296542,6.334164L597.211700,6.355562L597.147444,6.372681L597.083410,6.389086L596.998123,6.411911L596.938979,6.427603L596.919921,6.432596L596.856248,6.449715L596.820467,6.459701L596.742626,6.481099L596.678731,6.498931L596.607752,6.518902L596.564887,6.531028L596.550941,6.534595L596.508075,6.546720L596.472878,6.556706L596.443958,6.565265L596.394592,6.579531L596.358811,6.589517L596.323391,6.600216L596.292138,6.608775L595.582098,6.814913L594.886364,7.018199L594.758490,7.056003L594.602281,7.102367L594.489159,7.135891L594.389399,7.165849L594.275693,7.199374L594.148181,7.237891L593.991971,7.284255L593.807787,7.339891L593.637187,7.391248L593.509674,7.429766L593.381578,7.468284L593.254066,7.506801L593.169057,7.532480L593.027738,7.575991L592.942146,7.601669L592.814411,7.640900L592.672509,7.684411L592.573110,7.715083L592.488101,7.740762L592.374535,7.775713L592.275136,7.806385L592.218825,7.824217L592.133594,7.850609L592.005859,7.889841L591.892292,7.924792L591.793255,7.956177L591.700357,7.984709L591.634406,8.005395L591.521200,8.041060L591.464305,8.058892L591.379436,8.085998L591.279815,8.117383L591.166609,8.153048L591.039013,8.193706L590.911417,8.234365L590.798211,8.270030L590.741678,8.288576L590.642640,8.319961L590.529213,8.356340L590.472096,8.374885L590.415785,8.392718L590.330693,8.420537L590.217265,8.456916L590.118005,8.489014L590.018745,8.521113L589.877120,8.567478L589.749885,8.608850L589.650625,8.640949L589.551726,8.673761L589.424491,8.715133L589.297034,8.757218L589.098653,8.822843L588.971196,8.864928L588.815763,8.916287L588.673916,8.963366L588.518261,9.015438L588.391165,9.058236L588.348217,9.072503L588.305851,9.086769L588.235511,9.110309L588.150197,9.138841L588.079634,9.163094L588.022878,9.182353L587.938148,9.210886L587.881392,9.230146L587.811051,9.253685L587.739905,9.277938L587.655174,9.306471L587.584612,9.330724L587.514049,9.354977L587.457293,9.374236L587.372341,9.403482L587.302000,9.427022L587.231437,9.451275L587.146484,9.480521L587.075922,9.504774L586.976578,9.539013L586.933991,9.553993L586.849621,9.583239L586.807256,9.597506L586.792865,9.602499L586.722302,9.626752L586.665908,9.646725L586.580955,9.675971L586.524560,9.695945L586.425217,9.730184L586.298260,9.774410L586.227475,9.799377L586.128715,9.833616L586.014759,9.873563L585.943974,9.898529L585.831407,9.937762L585.718034,9.977709L585.633442,10.007668L585.534460,10.042622L585.421671,10.082568L585.350885,10.107535L585.252487,10.142488L585.153282,10.178154L585.068690,10.208114L584.970069,10.243781L584.842889,10.288721L584.716071,10.334374L584.645647,10.360055L584.561055,10.390015L584.462434,10.425681L584.405817,10.446368L584.292805,10.487028L584.208575,10.517702L584.151958,10.538389L584.053337,10.574055L583.884069,10.636116L583.616181,10.733843L583.475111,10.785917L583.292036,10.852971L583.010480,10.957119L582.883800,11.004200L582.728701,11.061981L582.475119,11.156856L582.391028,11.188957L582.250319,11.241744L582.011127,11.331626L581.729265,11.438629L581.546691,11.507824L581.363894,11.577733L581.125425,11.669042L580.984272,11.723257L580.815866,11.788172L580.702326,11.832400L580.675074,11.843101L580.153409,12.045694L580.139380,12.051401L580.097514,12.067809L580.027229,12.094916L579.956722,12.122737L579.844349,12.166966L579.774648,12.194074L579.676082,12.233308L579.648246,12.244009L579.578322,12.271830L579.494008,12.304645L579.424084,12.332466L579.297682,12.382402L579.213729,12.415930L579.143222,12.443751L579.073298,12.471572L578.961286,12.516514L578.890779,12.544336L578.792797,12.583571L578.708844,12.617099L578.624668,12.651341L578.554744,12.679162L578.442733,12.724105L578.358558,12.758346L578.288634,12.786168L578.078418,12.871059L577.784609,12.990193L577.756329,13.002320L577.574755,13.075798L577.364678,13.162116L577.267056,13.202065L577.140571,13.254142L576.973387,13.322626L576.903019,13.351875L576.763671,13.409658L576.525897,13.508105L576.399995,13.560182L576.190640,13.647928L576.023012,13.717840L575.855745,13.788465L575.716175,13.846963L575.562353,13.911881L575.479122,13.946837L575.366805,13.994634L575.213567,14.059553L575.116085,14.100929L575.097889,14.108776L575.004574,14.148013L574.935150,14.177975L574.781690,14.243608L574.668567,14.292118L574.459934,14.381293L574.334533,14.435511L574.139346,14.518978L574.013944,14.573196L573.833148,14.651670L573.707746,14.705889L573.540979,14.778655L573.429607,14.827167L573.235142,14.912062L573.137799,14.954866L573.054124,14.991249L572.873466,15.071151L572.804404,15.101827L572.707061,15.144632L572.567769,15.205985L572.526403,15.224533L572.443089,15.261630L572.345746,15.304435L572.248764,15.347953L572.165450,15.385050L572.040770,15.440696L571.943205,15.484214L571.901840,15.502763L571.818526,15.539860L571.721544,15.583379L571.596642,15.639738L571.485992,15.689677L571.374758,15.739616L571.222743,15.808104L571.097619,15.865178L570.973301,15.921538L570.904016,15.952928L570.806812,15.997160L570.627238,16.079203L570.433413,16.167668L570.267285,16.244004L570.170664,16.288236L570.060153,16.339603L569.866690,16.428781L569.562492,16.570039L569.438313,16.627827L569.203623,16.736982L568.952848,16.854698L568.856005,16.899644L568.690600,16.977408L568.511526,17.061594L568.290643,17.165755L568.180493,17.217836L568.029117,17.289893L567.877741,17.361951L567.602325,17.493224L567.478868,17.552440L567.368496,17.605234L567.176255,17.697982L566.942204,17.810707L566.791189,17.883478L566.639952,17.956963L566.434404,18.056846L566.269277,18.137466L566.159850,18.190975L566.049839,18.244484L565.912631,18.312262L565.830762,18.352215L565.735003,18.399304L565.709417,18.412146L565.541290,18.494907L565.515121,18.507749L565.459421,18.534860L565.419361,18.554837L565.350938,18.589083L565.242678,18.642592L565.022573,18.751752L564.954150,18.785998L564.817304,18.854490L564.680679,18.922269L564.379790,19.073524L564.270501,19.128460L564.079483,19.224778L563.915440,19.307541L563.683335,19.425263L563.546266,19.494470L563.382584,19.577946L563.259767,19.640732L563.001048,19.772725L562.891899,19.829089L562.769082,19.891875L562.605761,19.976066L562.361072,20.102352L562.252506,20.158717L562.116383,20.228638L561.926226,20.327812L561.654479,20.469796L561.532607,20.533296L561.355535,20.626050L561.003142,20.811557L560.854434,20.890041L560.623914,21.012048L560.393976,21.134056L560.272243,21.198984L560.109784,21.286031L559.879625,21.408753L559.853012,21.423023L559.758475,21.473682L559.609907,21.553594L559.312548,21.714132L559.177869,21.786910L558.988936,21.889655L558.854258,21.962433L558.463446,22.175772L558.274875,22.279231L558.069413,22.391967L557.652489,22.621719L557.464862,22.725893L557.209674,22.867170L556.927790,23.024859L556.766777,23.114763L556.525840,23.249619L556.305961,23.373060L556.231372,23.415872L556.164172,23.453689L556.123808,23.476522L556.070720,23.506490L556.017049,23.536458L555.936904,23.582125L555.870288,23.619942L555.789559,23.665608L555.696107,23.718409L555.642797,23.749092L555.576181,23.786909L555.468978,23.848273L555.415890,23.878242L555.335745,23.923908L555.215597,23.993121L555.135452,24.038788L555.068613,24.077319L555.001997,24.115137L554.922213,24.161517L554.842068,24.207183L554.748978,24.260699L554.682139,24.299230L554.549046,24.376293L554.376172,24.476190L554.029979,24.677410L553.936888,24.730926L553.777682,24.824401L553.458909,25.010639L553.339706,25.080567L553.166749,25.182605L552.862227,25.362422L552.741413,25.433778L552.596097,25.520119L552.278408,25.708500L552.185819,25.764158L551.987333,25.882610L551.670367,26.072419L551.538941,26.151625L551.393765,26.239395L551.169750,26.374260L551.077522,26.430632L550.932346,26.518402L550.748112,26.630434L550.550932,26.750315L550.485178,26.790989L550.367060,26.863061L550.209300,26.959395L550.065069,27.047879L549.986369,27.096403L549.959673,27.112815L549.855083,27.177038L549.763217,27.234125L549.658044,27.298348L549.501007,27.396110L549.422308,27.444634L549.317496,27.509570L549.068592,27.664420L548.964364,27.729357L548.846385,27.802857L548.716044,27.884207L548.637707,27.933446L548.546424,27.990533L548.441974,28.056185L548.350469,28.113986L548.285298,28.154661L548.206961,28.203900L548.141568,28.245289L548.076398,28.285964L548.023951,28.319504L547.971726,28.352329L547.917084,28.387296L547.880804,28.410131L547.841747,28.434394L547.790105,28.467220L547.685433,28.533585L547.581344,28.599951L547.462116,28.675593L547.345665,28.749808L547.241577,28.816174L547.137266,28.883254L547.072457,28.924643L546.890976,29.040962L546.696328,29.165845L546.437232,29.332831L546.191082,29.491968L546.036075,29.592589L545.815816,29.736027L545.570610,29.895880L545.428549,29.988651L545.286487,30.081423L545.118453,30.192036L544.964391,30.293371L544.732493,30.446089L544.629489,30.514598L544.487789,30.608085L544.385008,30.675880L544.269420,30.752953L544.076580,30.881409L543.845627,31.034842L543.653149,31.164011L543.524978,31.249649L543.282165,31.413074L542.961655,31.629311L542.834429,31.715663L542.668286,31.827707L542.425612,31.992561L542.284192,32.088905L542.207884,32.141003L542.144161,32.184536L542.041880,32.254475L541.889265,32.358669L541.685872,32.498548L541.354809,32.726208L541.164583,32.857523L540.847633,33.077334L540.493072,33.324266L540.265596,33.483416L539.962315,33.696807L539.684423,33.892357L539.495866,34.025817L539.218919,34.222081L538.892140,34.454745L538.603333,34.661003L538.289861,34.886532L538.039611,35.066386L538.014583,35.084942L537.964389,35.120627L537.839333,35.211268L537.739667,35.284066L537.565001,35.410392L537.427724,35.510311L537.315253,35.592388L537.264031,35.629501L536.990061,35.829341L536.890757,35.902854L536.754063,36.002774L536.691425,36.048452L536.604343,36.112687L536.468011,36.213321L536.368707,36.286835L536.219570,36.396748L536.095461,36.488105L535.971713,36.580175L535.847965,36.672246L535.761467,36.736482L535.736440,36.755038L535.711412,36.773595L535.649136,36.819988L535.586276,36.866380L535.536583,36.904208L535.474528,36.949887L535.375364,37.024829L535.263838,37.107622L535.176312,37.173285L535.077148,37.248228L535.002067,37.303899L534.953179,37.341013L534.853432,37.415956L534.729824,37.509456L534.692575,37.537292L534.618660,37.592964L534.532524,37.657914L534.421721,37.742136L534.361196,37.788529L534.237588,37.882030L534.139230,37.956259L534.065677,38.012645L533.918793,38.124704L533.860684,38.168956L533.771326,38.236763L533.454060,38.480152L533.197682,38.677863L532.990634,38.837031L532.661649,39.091844L532.333831,39.346658L532.198282,39.452296L531.993126,39.612894L531.775304,39.784199L531.533039,39.974064L531.364105,40.108254L531.110564,40.308112L530.737338,40.605760L530.472883,40.816327L530.413082,40.864151L530.304311,40.951234L530.136323,41.086140L530.004277,41.191782L529.824429,41.336682L529.692522,41.443752L529.572698,41.540115L529.369130,41.705003L529.309691,41.753542L529.237807,41.812073L529.058322,41.957690L528.724378,42.230364L528.295777,42.582274L528.070381,42.768580L528.038023,42.795705L527.666808,43.101934L527.499241,43.241130L527.132917,43.546648L526.908830,43.734386L526.802313,43.823615L526.531954,44.051328L526.308229,44.239782L525.850811,44.628112L525.418058,44.997171L525.102876,45.267722L524.800138,45.528280L524.532758,45.759570L524.464740,45.818821L524.339979,45.927328L524.214414,46.036550L524.055826,46.175040L523.953979,46.264274L523.851550,46.353507L523.715876,46.472724L523.557650,46.611929L523.387786,46.760416L523.206786,46.920324L523.049145,47.059531L522.834679,47.250138L522.666123,47.400054L522.539450,47.512848L522.516898,47.532837L522.439356,47.602084L522.387808,47.647773L522.348926,47.682754L522.284271,47.740579L522.233307,47.786268L522.181538,47.832671L522.124715,47.884071L522.021983,47.976163L521.896477,48.088959L521.759695,48.211749L521.622692,48.335254L521.577145,48.376660L521.554371,48.397363L521.508241,48.438770L521.439115,48.501593L521.289587,48.637235L521.128339,48.784299L521.051965,48.853548L521.003780,48.897811L520.891301,49.000614L520.734304,49.143396L520.577668,49.286892L520.431724,49.420395L520.376069,49.471797L520.342603,49.502495L520.161945,49.668838L519.970374,49.845891L519.768110,50.032939L519.544019,50.241405L519.297517,50.471291L519.152077,50.606938L518.917435,50.826830L518.806044,50.931779L518.761443,50.973901L518.671879,51.057432L518.594175,51.130968L518.494060,51.225923L518.449459,51.268045L518.415772,51.299459L518.360480,51.351577L518.248645,51.457955L518.160028,51.542200L518.037724,51.657860L517.860851,51.827066L517.661788,52.016978L517.562036,52.112648L517.440677,52.229023L517.297492,52.366817L517.220372,52.440355L517.176134,52.483192L517.133728,52.523888L517.080187,52.576007L516.951137,52.700237L516.834168,52.813758L516.716394,52.927992L516.567128,53.072214L516.449716,53.187163L516.311504,53.322104L516.205228,53.425631L516.130665,53.498456L516.003367,53.622688L515.907561,53.716933L515.802231,53.821175L515.695733,53.925416L515.589819,54.029657L515.494819,54.123190L515.441640,54.176024L515.399597,54.217436L515.315288,54.300972L515.241894,54.373799L515.156780,54.458050L515.104407,54.510171L515.060531,54.553725L515.027569,54.586568L514.916742,54.697237L514.695531,54.917148L514.530861,55.082796L514.343559,55.270578L514.255364,55.359114L514.112743,55.502629L513.959571,55.657569L513.880096,55.736824L513.781934,55.836785L513.683189,55.936747L513.606492,56.014574L513.530379,56.092402L513.421083,56.203788L513.290322,56.337309L513.225344,56.403713L513.127545,56.504390L513.019054,56.615063L512.942942,56.692892L512.877159,56.760010L512.747344,56.894247L512.595703,57.049905L512.574017,57.072754L512.542223,57.105599L512.446840,57.204135L512.214536,57.444764L512.087944,57.576147L511.919590,57.751800L511.783030,57.894608L511.667352,58.015281L511.648304,58.035274L511.629839,58.055267L511.563170,58.125244L511.446465,58.247345L511.353056,58.345170L511.258621,58.444423L511.133559,58.576522L511.029156,58.687200L510.924975,58.797164L510.830902,58.897132L510.716170,59.018521L510.622903,59.117776L510.519084,59.228455L510.415266,59.339134L510.290567,59.471950L510.197078,59.571919L510.072742,59.705450L510.062996,59.716161L510.052445,59.727586L510.042116,59.738297L510.031565,59.749722L510.021236,59.760433L510.011268,59.771858L510.000939,59.782569L509.990388,59.793994L509.979837,59.805419L509.969508,59.816130L509.959540,59.827555L509.949211,59.838266L509.938660,59.849692L509.928331,59.860403L509.742521,60.060343L509.432879,60.395958L509.125433,60.730147L508.869493,61.009355L508.553389,61.356402L508.298980,61.636327L507.994737,61.973381L507.610980,62.401130L507.318598,62.728192L507.072890,63.004554L506.967805,63.123097L506.847840,63.259494L506.727513,63.395177L506.628288,63.508008L506.507740,63.644406L506.398548,63.768664L506.348713,63.825794L506.120142,64.086452L505.582801,64.706322L504.670768,65.736124L504.360180,66.133196L503.537885,67.110894L502.522912,68.337150L501.661815,69.394882L500.876028,70.375502L499.950684,71.548271L499.356163,72.313229L499.310339,72.372512L499.264516,72.431795L499.228296,72.478936L499.137454,72.596788L499.028211,72.738211L498.964570,72.821065L498.883111,72.927490L498.747614,73.104627L498.674954,73.199624L498.548840,73.365334L498.485783,73.448189L498.422726,73.531044L498.350650,73.626042L498.288177,73.708898L498.233919,73.780325L498.171446,73.863181L498.099954,73.958180L498.045917,74.028893L498.009839,74.077464L497.920308,74.196748L497.857836,74.279605L497.813181,74.338890L497.742051,74.434604L497.671144,74.529604L497.626489,74.588889L497.590633,74.636747L497.519725,74.731747L497.440382,74.838890L497.378273,74.922462L497.316164,75.006034L497.228023,75.124606L497.157478,75.220322L497.078136,75.327466L496.998572,75.435325L496.954502,75.494612L496.884541,75.590328L496.787744,75.721759L496.735239,75.793189L496.667332,75.886049L496.560047,76.032481L496.533351,76.069625L496.499106,76.116055L496.341732,76.331776L496.089898,76.678933L495.804325,77.074665L495.511264,77.483259L495.236605,77.868283L494.971330,78.241880L494.614659,78.748349L494.477503,78.944080L494.208025,79.331259L493.973235,79.670578L493.739030,80.009900L493.464988,80.409945L493.241335,80.737842L492.993909,81.102889L492.822034,81.357924L492.649939,81.613674L492.486641,81.857995L492.348286,82.065169L492.209932,82.272343L492.039953,82.528812L491.782008,82.920306L491.429054,83.458257L491.253705,83.728306L491.245854,83.740451L490.973023,83.741165L488.258018,83.741165L484.874622,83.741165L482.600345,83.741165L482.052898,85.507239L481.385944,87.659191L481.204767,88.240063L481.171757,88.352237L479.320546,94.325694L478.065687,98.385341L477.809161,99.215748L477.755033,99.388692L477.649937,99.728149L476.617426,103.074964L476.416353,103.724629L476.235559,104.310692L476.114933,104.702357L475.756124,105.858074L475.604184,106.349101L474.065776,111.306815L473.695458,112.504146L473.619187,112.750764L473.541450,113.000242L473.485961,113.179667L473.424284,113.379109L473.408588,113.429863L473.131507,114.333436L472.854065,115.215580L472.426372,116.598875L471.362791,120.037619L471.137703,120.764004L471.131674,120.779733L471.127113,120.792602L471.122552,120.805471L471.117406,120.818340L471.112845,120.831209L471.108284,120.844078L471.103723,120.856947L471.098799,120.869102L471.094016,120.882686L471.089455,120.895555L471.084310,120.908424L471.079749,120.921293L471.075188,120.934162L471.070043,120.947031L471.065481,120.959901L471.061362,120.971340L471.056359,120.985639L471.051214,120.998508L471.046653,121.011377L471.042092,121.024246L471.036946,121.037116L471.032385,121.049985L471.027824,121.062854L471.023263,121.075723L471.018339,121.087877L471.013557,121.101462L471.008996,121.114331L471.004434,121.127200L470.999510,121.139354L470.994728,121.152938L470.990167,121.165808L470.985606,121.178677L470.980461,121.191546L470.975900,121.204415L470.971339,121.217284L470.966777,121.230154L470.961632,121.243023L470.957071,121.255892L470.952510,121.268761L470.947949,121.281631L470.942804,121.294500L470.938243,121.307369L470.933682,121.320238L470.929121,121.333108L470.924197,121.345262L470.919414,121.358846L470.914853,121.371715L470.910292,121.384585L470.905147,121.397454L470.900586,121.410323L470.896025,121.423192L470.891464,121.436062L470.886903,121.448931L470.881758,121.461800L470.877418,121.473955L470.872636,121.487539L470.868075,121.500408L470.863514,121.513277L470.858369,121.526147L470.853808,121.539016L470.849247,121.551885L470.844685,121.564755L470.840124,121.577624L470.834979,121.590493L470.830418,121.603363L470.825857,121.616232L470.821296,121.629101L470.816735,121.641971L470.811811,121.654125L470.807029,121.667709L470.802689,121.679864L470.798128,121.692733L470.793567,121.705602L470.788201,121.719187L470.783640,121.732056L470.779079,121.744925L470.774739,121.757080L470.769957,121.770664L470.765617,121.782819L470.760251,121.796403L470.755690,121.809272L470.751129,121.822142L470.746568,121.835011L470.742007,121.847880L470.737446,121.860750L470.732302,121.873619L470.727961,121.885774L470.723180,121.899358L470.718619,121.912227L470.714279,121.924382L470.709497,121.937966L470.704936,121.950836L470.699791,121.963705L470.695230,121.976574L470.690669,121.989444L470.686329,122.001598L470.681768,122.014468L470.676986,122.028052L470.672425,122.040922L470.667864,122.053791L470.662719,122.066661L470.658158,122.079530L470.653597,122.092399L470.649257,122.104554L470.644697,122.117423L470.640136,122.130293L470.635354,122.143877L470.630793,122.156747L470.625648,122.169616L470.621087,122.182486L470.616526,122.195355L470.612186,122.207510L470.607404,122.221094L470.603285,122.232534L470.598283,122.246833L470.593722,122.259703L470.589161,122.272572L470.584600,122.285442L470.579455,122.298311L470.574894,122.311181L470.570333,122.324050L470.565772,122.336920L470.561433,122.349074L470.556651,122.362659L470.552090,122.375528L470.547529,122.388398L470.542968,122.401267L470.538407,122.414137L470.533846,122.427006L470.529286,122.439876L470.524141,122.452745L470.519580,122.465615L470.515019,122.478484L470.510458,122.491354L470.505898,122.504224L470.501337,122.517093L470.496776,122.529963L470.492215,122.542832L470.487654,122.555702L470.483093,122.568571L470.478533,122.581441L470.473972,122.594310L470.469411,122.607180L470.464850,122.620050L470.460289,122.632919L470.455729,122.645789L470.451168,122.658658L470.446607,122.671528L470.442046,122.684398L470.436901,122.697267L470.432562,122.709422L470.428806,122.721576L470.423219,122.735876L470.418658,122.748746L470.414098,122.761615L470.409537,122.774485L470.405197,122.786640L470.400415,122.800224L470.395854,122.813094L470.391294,122.825963L470.386954,122.838118L470.382172,122.851703L470.377611,122.864572L470.373051,122.877442L470.368490,122.890312L470.363929,122.903181L470.359589,122.915336L470.354808,122.928921L470.350247,122.941790L470.345686,122.954660L470.341126,122.967530L470.336565,122.980399L470.332004,122.993269L470.327443,123.006139L470.322883,123.019008L470.318322,123.031878L470.313761,123.044748L470.309201,123.057617L470.304640,123.070487L470.300079,123.083357L470.295519,123.096227L470.290958,123.109096L470.286397,123.121966L470.281836,123.134836L470.277276,123.147705L470.272715,123.160575L470.268959,123.172730L470.264399,123.185600L470.260059,123.197754L470.255056,123.212054L470.250496,123.224924L470.245935,123.237794L470.241374,123.250663L470.236814,123.263533L470.232253,123.276403L470.227692,123.289273L470.223353,123.301427L470.218571,123.315012L470.214010,123.327882L470.209450,123.340752L470.204889,123.353621L470.200329,123.366491L470.195989,123.378646L470.191207,123.392231L470.187672,123.403671L470.182670,123.417970L470.178109,123.430840L470.173549,123.443710L470.168988,123.456580L470.164428,123.469449L470.159867,123.482319L470.155306,123.495189L470.150746,123.508059L470.146185,123.520929L470.141625,123.533799L470.137064,123.546668L470.132503,123.559538L470.128527,123.572408L470.124187,123.584563L470.119406,123.598148L470.115066,123.610303L470.110284,123.623887L470.105724,123.636757L470.101163,123.649627L470.096603,123.662497L470.092042,123.675367L470.087482,123.688237L470.083505,123.701106L470.079386,123.712546L470.074384,123.726846L470.069823,123.739716L470.065484,123.751871L470.060702,123.765456L470.056142,123.778326L470.051802,123.790481L470.047605,123.804065L470.043486,123.815505L470.033923,123.842675L470.029363,123.855545L470.024802,123.868415L470.020242,123.881285L470.015681,123.894155L470.011704,123.907025L470.007144,123.919895L470.002583,123.932765L469.998023,123.945634L469.993462,123.958504L469.988902,123.971374L469.984925,123.984244L469.980365,123.997114L469.975804,124.009984L469.971244,124.022854L469.966684,124.035724L469.962123,124.048594L469.957563,124.061464L469.953586,124.074334L469.949026,124.087204L469.944465,124.100074L469.939905,124.112944L469.935344,124.125814L469.931368,124.138684L469.926807,124.151554L469.922247,124.164424L469.917686,124.177294L469.913126,124.190164L469.908566,124.203034L469.904368,124.216619L469.899808,124.229489L469.895247,124.242359L469.890687,124.255229L469.886126,124.268099L469.882150,124.280969L469.877590,124.293839L469.873029,124.306709L469.868469,124.319579L469.864129,124.331734L469.859932,124.345319L469.855371,124.358189L469.850811,124.371059L469.846472,124.383214L469.841690,124.396799L469.837714,124.409669L469.833153,124.422539L469.825279,124.446134L469.816522,124.472589L469.812403,124.484029L469.809973,124.491894L469.801436,124.517634L469.797097,124.529789L469.794888,124.536939L469.788560,124.555530L469.786351,124.562680L469.778256,124.586990L469.771266,124.607725L469.764717,124.627030L469.756401,124.652055L469.749632,124.672075L469.741095,124.697816L469.734547,124.717121L469.726010,124.742861L469.719682,124.761451L469.715122,124.774321L469.711146,124.787192L469.702388,124.813647L469.695840,124.832952L469.684952,124.864412L469.680754,124.877998L469.676194,124.890868L469.671997,124.904453L469.667437,124.917323L469.662876,124.930193L468.548293,128.347341L468.529033,128.426713L468.523433,128.446735L468.519457,128.459606L468.515482,128.472477L468.511506,128.485348L468.507531,128.498219L468.503555,128.511090L468.499580,128.523961L468.495605,128.536832L468.491629,128.549703L468.488238,128.562574L468.484262,128.575445L468.480287,128.588317L468.476311,128.601188L468.472336,128.614059L468.468360,128.626930L468.464385,128.639801L468.460409,128.652672L468.457018,128.665543L468.453043,128.678414L468.449067,128.691286L468.445092,128.704157L468.441116,128.717028L468.437141,128.729899L468.433165,128.742770L468.429774,128.755641L468.425799,128.768512L468.421823,128.781384L468.417848,128.794255L468.413872,128.807126L468.409897,128.819997L468.405922,128.832868L468.402530,128.845739L468.398555,128.858611L468.394579,128.871482L468.390604,128.884353L468.386629,128.897224L468.382653,128.910095L468.379262,128.922967L468.375287,128.935838L468.371311,128.948709L468.367336,128.961580L468.363360,128.974451L468.359969,128.987323L468.355994,129.000194L468.352018,129.013065L468.348264,129.025221L468.344068,129.038807L468.340676,129.051679L468.336701,129.064550L468.332726,129.077421L468.328529,129.091007L468.324554,129.103879L468.321163,129.116750L468.317187,129.129621L468.313212,129.142492L468.309237,129.155364L468.305262,129.168235L468.301870,129.181106L468.297895,129.193978L468.293920,129.206849L468.289944,129.219720L468.285969,129.232591L468.282578,129.245463L468.278602,129.258334L468.274627,129.271205L468.270652,129.284076L468.267260,129.296948L468.263285,129.309819L468.259310,129.322690L468.255335,129.335562L468.252164,129.347718L468.247968,129.361304L468.243993,129.374176L468.240018,129.387047L468.236626,129.399918L468.232651,129.412790L468.228897,129.424946L468.224701,129.438532L468.221309,129.451404L468.217334,129.464275L468.213359,129.477146L468.068505,129.966975L468.049797,130.031332L468.004432,130.185790L467.948311,130.378863L467.869871,130.649882L467.806969,130.868700L467.725946,131.151878L467.652653,131.410029L467.601678,131.590235L467.407266,132.286037L467.338900,132.532036L467.278720,132.745857L467.015606,133.713425L466.953999,133.945129L466.879779,134.229039L466.802976,134.525109L466.730148,134.808307L466.681272,135.000683L466.619784,135.245266L466.565661,135.464104L466.517735,135.657197L466.364048,136.289404L466.267525,136.683465L465.747144,138.836907L465.404750,140.253036L464.688618,143.212016L464.641007,143.408000L464.499501,143.991665L464.397498,144.415112L464.366179,144.543148L464.254602,145.005226L464.223727,145.131833L464.044218,145.872885L464.004792,146.036690L463.899588,146.463015L463.841387,146.699070L463.628048,147.595371L463.283358,149.006737L461.685089,155.616284L461.488944,156.429033L459.984829,162.645991L459.058946,166.487159L459.048427,166.530810L459.013045,166.676076L458.766986,167.697243L457.269332,173.899104L456.296767,177.933648L456.010231,179.119665L454.875821,183.821055L454.107549,187.008049L453.981825,187.529211L453.156311,190.949110L451.454610,198.010118L450.182396,203.289673L450.109422,203.594017L448.652776,209.639018L447.735402,213.448563L446.985119,216.571464L446.817656,217.260533L446.677224,217.850045L446.578046,218.255472L446.456892,218.761186L446.276637,219.511171L444.255476,227.923617L443.939671,229.236862L443.278895,231.989550L443.104323,232.716077L442.966050,233.287848L442.669913,234.525990L442.198778,236.488589L441.881074,237.812793L441.737884,238.410415L439.730822,246.784280L438.663560,251.242992L438.383200,252.414172L438.365523,252.475814L438.010111,253.959540L437.432459,256.386629L436.971881,258.316337L436.489401,260.325686L435.855049,262.970284L435.134734,265.967747L434.903518,266.922008L434.747321,267.580896L433.992493,270.738506L431.504931,281.129655L431.314592,281.924257L430.955520,283.427434L429.016158,291.564383L427.790728,296.704657L427.345926,298.564054L426.534021,301.976698L426.297154,302.963872L425.596132,305.892495L424.274759,311.407938L424.088306,312.187908L422.412250,319.228220L422.153413,320.308278L421.252753,324.094025L421.213468,324.259815L420.828627,325.876106L419.716795,330.547251L419.089633,333.181581L417.942403,337.999061L417.872792,338.303443L417.066697,341.692670L416.618237,343.578693L414.893560,350.834042L414.126606,354.061014L414.104949,354.153646L411.791713,363.896002L411.782587,363.931912L409.281770,374.469690L409.203106,374.808747L407.717380,381.085967L406.714684,385.328397L406.010906,388.293613L405.954128,388.533596L404.252179,395.711266L402.548099,402.896288L401.834859,405.904802L401.781833,406.126890L399.422719,416.110893L399.357847,416.384057L399.309768,416.586056L397.320088,425.011666L396.858383,426.967987L394.796622,435.727289L394.410173,437.373307L394.162661,438.420339L393.713716,440.332514L392.697473,444.646099L391.722716,448.770833L390.068938,455.768781L389.477474,458.274257L389.417645,458.529630L388.959982,460.471939L387.018220,468.715215L386.847270,469.441897L386.738264,469.905970L386.364979,471.493201L386.194094,472.225673L385.663256,474.479984L384.823265,478.066331L384.578302,479.094638L383.690874,482.867644L382.126155,489.517564L380.432438,496.747647L379.925096,498.914317L379.678874,499.960248L378.305362,505.820813L377.818605,507.894928L377.349888,509.893515L377.222417,510.436370L376.455859,513.703678L376.075027,515.329477L375.992443,515.681570L375.914942,516.012785L375.757145,516.684581L375.157163,519.244381L375.134569,519.339431L375.080669,519.568414L374.908392,520.312256L374.724768,521.105793L374.476855,522.137694L374.452513,522.246430L374.427310,522.358046L374.407892,522.444459L373.892865,524.645147L373.336215,527.024512L373.202308,527.601363L373.046348,528.261759L372.556507,530.359662L372.457076,530.780259L372.360388,531.193657L369.915304,541.636089L369.789675,542.187861L369.675798,542.661122L369.200374,544.689625L368.322236,548.441375L367.830768,550.550030L367.752625,550.884309L367.706295,551.084589L365.170241,561.936667L364.987537,562.719914L364.570510,564.504774L364.550791,564.590524L363.115930,570.735958L362.885014,571.724701L362.537990,573.215051L362.270621,574.361663L362.187082,574.720569L361.938471,575.788651L361.862849,576.115133L361.776842,576.486301L361.605969,577.222877L360.830429,580.559197L360.779644,580.776867L360.489741,582.019476L360.405395,582.381308L360.228045,583.143899L360.123960,583.593674L359.738146,585.239269L357.683161,594.064780L356.093563,600.894315L355.018711,605.523200L354.652366,607.086423L352.821059,614.965107L352.329735,617.066535L351.764825,619.504823L350.370172,625.501759L350.024974,626.988274L348.651985,632.905810L348.561394,633.296051L348.461322,633.728132L347.940612,635.975142L347.831565,636.445472L345.517862,646.424175L344.585408,650.438577L343.097086,656.876976L342.176149,660.853746L340.670111,667.363127L339.972888,670.369052L339.306323,673.242304L339.214957,673.636385L339.136570,673.972726L338.302091,677.575143L338.272091,677.704346L338.246041,677.816225L338.077362,678.545251L337.160740,682.516049L336.977824,683.309369L336.811620,684.028347L336.520426,685.287296L335.818809,688.330092L335.360369,690.310327L333.869496,696.795030L333.756449,697.283103L333.401240,698.829654L332.624728,702.192907L332.414877,703.100536L331.832447,705.626362L331.633198,706.486376L331.330704,707.797720L330.984312,709.299729L330.873721,709.779946L330.816749,710.024749L330.383329,711.925433L330.177095,712.795634L329.784640,714.494182L329.754728,714.623452L329.535026,715.575294L329.046771,717.690624L328.757901,718.942951L328.139660,721.623179L327.909389,722.621339L327.797638,723.105979L327.682755,723.607234L327.531176,724.260894L327.368386,724.966564L326.434414,729.006423L326.272801,729.706361L326.149790,730.239445L326.054479,730.652624L325.785412,731.817051L324.721094,736.443159L323.738161,740.712676L323.099863,743.493415L322.712727,745.181850L322.704232,745.218697L321.494367,750.495944L321.345771,751.144788L320.810184,753.470705L320.441183,755.082777L320.210786,756.087901L318.920567,761.712803L317.783282,766.653736L316.699464,771.390462L316.522713,772.160191L315.675352,775.853553L315.123819,778.256144L314.500018,780.975415L314.158871,782.465924L312.610335,789.224911L312.467857,789.848792L311.713295,793.142510L311.037247,796.095122L310.487284,798.494024L310.245736,799.552515L309.171860,804.245047L308.947854,805.224080L308.845533,805.661540L306.913776,814.116216L306.773419,814.728009L306.768243,814.749704L306.756782,814.798879L306.030418,817.974353L305.508532,820.253168L304.513481,824.601256L304.387278,825.153102L304.197079,825.981963L303.858987,827.461061L303.263518,830.071430L302.832774,831.954220L302.811787,832.046082L302.389616,833.897816L302.336417,834.130009L302.117898,835.088447L302.064705,835.320644L299.721818,845.565480L299.140840,848.097598L297.328588,856.048981L296.984615,857.557591L296.371875,860.247114L295.176601,865.494008L295.163240,865.551899L295.155716,865.583739L294.812167,867.093978L294.653156,867.792302L294.358453,869.086931L294.345472,869.145548L294.051012,870.439475L293.641835,872.237837L293.602829,872.407905L293.192404,874.212825L293.157036,874.368423L292.935838,875.338930L292.864475,875.652303L292.544221,877.063581L292.243738,878.382967L292.076418,879.120472L292.028138,879.332534L291.844744,880.137358L291.742576,880.586818L291.697510,880.785855L291.565194,881.367046L290.987684,883.906098L290.944361,884.097182L290.702389,885.161902L290.424847,886.385153L290.417124,886.417725L290.304919,886.909926L290.238981,887.200905L290.227795,887.249402L290.067728,887.954415L289.800422,889.130659L289.309181,891.292096L288.993040,892.684827L288.525393,894.743565L288.490714,894.897032L288.454139,895.057013L288.172722,896.298512L287.779948,898.025782L286.920683,901.809111L285.399764,908.505294L283.638016,916.270046L283.005962,919.060004L282.884151,919.596573L282.669971,920.540103L281.698634,924.824863L280.647351,929.463254L280.641755,929.488601L280.386725,930.614021L279.909836,932.716438L277.421752,943.710265L276.534032,947.616646L275.886861,950.489505L275.691514,951.347905L275.466320,952.341776L275.327861,952.955345L274.777029,955.389381L273.513050,960.991551L272.351400,966.128948L271.993496,967.714205L271.677619,969.111836L271.432776,970.197207L271.139437,971.494888L269.092726,980.561085L268.766861,982.006751L267.893906,985.875019L267.484078,987.688918L266.397120,992.514811L267.618720,992.569891L269.944200,992.672804L275.071219,992.903996L277.770895,993.025027L279.977828,993.123592L282.817764,993.251147L283.084968,993.263468L284.371525,993.321447L284.428834,993.324346L291.606739,993.647583L292.844007,993.703388L293.782562,993.746148L294.110224,993.760643L302.922296,994.160705L305.921490,994.296233L307.681648,994.375956L311.402262,994.545548L315.085922,994.712967L317.651035,994.830377L319.619722,994.920247L321.745006,994.990549L321.898223,994.994897L322.052992,994.999970L322.129098,995.002869L322.502618,995.015190L323.665050,995.053603L323.856613,995.059401L324.728679,995.088391L325.610729,995.117381L327.196986,995.168839L327.965341,995.194930L328.111301,995.200004L330.269863,995.271030L330.842962,995.289874L330.873086,995.291324L331.227055,995.344956L331.392487,995.355827L331.590054,995.365249L331.749225,995.365249L332.410586,995.375396L333.248390,995.415258L333.375884,995.413083L333.479804,995.415258L334.194574,995.427579L334.804946,995.421056L335.418156,995.441349L335.705965,995.451496L336.024317,995.461642L336.330334,995.471789L337.080316,995.496431L337.418807,995.508027L337.908545,995.524697L338.075063,995.529770L338.852820,995.555861L339.597966,995.609494L340.264794,995.631237L341.008705,995.666750L341.058680,995.674723L341.435140,995.687044L341.571963,995.699365L341.986532,995.726181L342.112224,995.726181L342.245055,995.731979L342.319648,995.731979L342.599225,995.731979L343.091523,995.747924L343.223726,995.755896L343.435311,995.769667L343.520934,995.766043L343.657577,995.766768L343.796988,995.766043L343.878759,995.769667L343.980878,995.774015L344.291883,995.779089L344.387412,995.779813L344.476271,995.781263L344.506226,995.781263L344.523050,995.781988L344.906757,995.783437L344.990121,995.785611L345.016004,995.783437L345.056700,995.784887L345.150337,995.781988L345.387197,995.773290L345.445892,995.775465L345.553297,995.779813L345.900599,995.791410L346.692286,995.816052L346.975399,995.826198L347.088677,995.830547L347.987222,995.857363L348.075206,995.863886L349.874149,995.923317L351.011548,995.961005L351.092941,995.963904L353.575712,996.047252L353.732625,996.053050L353.993249,996.061747L354.471074,996.076967L354.949069,996.093637L355.313994,996.105233L355.427273,996.109582L355.903715,996.125527L356.515755,996.145820L357.082400,996.164664L357.731026,996.186407L359.025342,996.229893L359.219049,996.236416L361.112486,996.300196L361.460757,996.312517L361.937409,996.327737L362.199000,996.337159L362.304853,996.340783L362.614986,996.350929L362.666255,996.352379L363.008652,996.364700L363.118408,996.369049L364.160741,996.402388L365.677888,996.455296L366.205222,996.471966L366.279568,996.474865L366.388566,996.477764L369.662215,996.588654L372.024053,996.669828L372.146731,996.674177L372.575261,996.687223L373.130921,996.707517L373.415838,996.715489L375.385200,996.760425L376.089916,996.777095L376.297552,996.782168L377.144369,996.801012L377.420685,996.808260L377.914034,996.820581L378.764584,996.838700L378.851473,996.840875L379.040522,996.845223L379.176540,996.848122L379.581617,996.858994L380.544312,996.879288L382.693708,996.929297L382.847138,996.932921L383.105664,996.938719L385.168760,996.986554L386.449816,997.016995L386.503604,997.019894L389.724950,997.090197L391.014231,997.120637L392.004079,997.144555L392.162416,997.147454L392.316604,997.152528L393.929191,997.190216L400.142546,997.335896L405.453329,997.460558L405.545296,997.463457L411.538701,997.604064L412.139333,997.617110L413.998295,997.662046L414.355253,997.670744L414.424731,997.672193L414.498699,997.674368L414.610636,997.677267L414.743718,997.680166L415.388743,997.696111L418.339933,997.766415L418.737040,997.774387L418.816294,997.776562L419.559539,997.796131L420.530887,997.814975L421.738538,997.845416L421.891382,997.849040L423.297482,997.883829L424.064300,997.899050L425.276234,997.930940L426.350046,997.957032L427.365749,997.980950L428.165196,997.988923L429.647804,998.037483L430.033616,998.064300L430.866051,998.155623L431.357371,998.128081L432.194890,998.097640L436.080143,998.181715L437.245226,998.217229L440.136700,998.266515L440.880273,998.278836L440.913715,998.281010L446.378314,998.279561L446.494573,998.281735L448.273583,998.275937L448.343232,998.278836L448.890743,998.284634L449.885840,998.278111L450.256538,998.273763L452.568382,998.183889L454.341554,998.198385L455.911956,998.209257L457.170395,998.224477L462.362876,998.266515L462.485425,998.267240L462.855801,998.270139L463.398614,998.275937L464.923961,998.288258L467.049096,998.306378L471.684805,998.346241L472.212763,998.350590L474.211030,998.368709L474.706893,998.372333L477.436137,998.395527L488.278279,998.491198L502.264421,998.618036L510.236129,998.693414L511.676697,998.706460L515.347303,998.740525L517.388628,998.760095L518.860706,998.773866L519.436036,998.778939L523.395173,998.816628L523.487767,998.817353L531.325958,998.893456L533.207941,998.911576L533.431101,998.913750L534.474863,998.923897L534.977948,998.928971L535.059970,998.929695L535.183695,998.930420L535.294877,998.931870L535.641175,998.934769L536.453285,998.935494L538.516471,998.936218L539.488172,998.935494L540.363129,998.936218L543.609257,998.936943L543.636863,998.936943L544.243018,998.936943L547.191147,998.938393L548.123495,998.937668L548.159703,998.938393L548.841420,998.939118L549.563284,998.939118L550.258131,998.939118L550.757766,998.939842L551.487646,998.940567L552.283726,998.939842L557.167964,998.942742L558.466408,998.943466L559.402451,998.944191L560.171512,998.943466L562.878029,998.945641L562.985895,998.946365L563.477307,998.947090L565.721400,998.947815L565.989236,998.947815L567.966460,998.949265L570.003595,998.950714L570.458591,998.951439L578.036803,998.957237L579.079159,998.957962L579.275717,998.958687L580.638563,998.960137L581.471231,998.960861L582.395527,998.961586L584.171079,998.963760L585.673129,998.965210L587.737283,998.966660L588.438762,998.968109L588.552710,998.968109L590.003073,998.969559L591.412772,998.967384L593.258500,998.964485L594.238044,998.963036L595.949058,998.960861L596.050084,998.960861L596.248612,998.960861L596.665845,998.960137L600.382557,998.954338L600.544081,998.954338L600.706192,998.954338L600.889448,998.954338L601.374815,998.953613L605.111876,998.948540L608.583243,998.944191L608.637280,998.944191L613.134384,998.939118L615.017079,998.938393L619.320562,998.932594L620.124070,998.932594L621.517910,998.930420L621.573709,998.930420L622.189938,998.889107L622.510915,998.884034L623.473087,998.867363L623.793684,998.861565L624.831649,998.867363L627.945751,998.884034L628.983924,998.889107L629.037753,998.889832L629.055961,998.889832L629.128207,998.889832L629.199657,998.890557L629.253107,998.890557L629.393865,998.891281L629.644252,998.892731L630.280767,998.915924L630.655396,998.922447L630.985700,998.921723L632.520678,998.920998L633.086512,998.920273L633.424244,998.920273L633.571084,998.920273L633.967172,998.919548L634.415707,998.920273L635.153258,998.918823L635.485876,998.920273L635.681294,998.918823L637.908805,998.915924L638.112411,998.916649L638.350879,998.916649L638.698008,998.916649L639.235062,998.915924L639.445924,998.915924L639.481753,998.915924L639.703188,998.915924L639.926799,998.914475L640.277833,998.915200L640.508665,998.915200L640.973854,998.915200L641.201162,998.915200L641.216433,998.915200L641.302775,998.915200L642.161702,998.914475L642.271538,998.914475L642.468891,998.914475L643.044124,998.913750L643.357743,998.903603L644.022978,998.906502L648.892908,998.922447L657.510778,998.950714L666.356511,998.981155L671.949451,998.999275L672.063191,999.000000L672.177726,999.000000L672.921467,998.966660L675.152516,998.865189L675.895875,998.831124L676.740918,998.792710L679.273900,998.676744L680.118560,998.637605L683.219221,988.006336L685.406398,982.535022L686.669514,978.601686L688.238643,973.562813L688.375245,973.125168L689.677190,969.058944L690.778477,965.693514L691.405391,963.507685L691.425943,963.507685L693.336846,956.394890L694.831459,950.385918L696.669807,943.180784L698.323426,935.218694L699.648261,927.526758L700.091965,925.404195L701.338541,919.444509L704.275706,907.554662L706.583711,894.178203L709.347170,882.121226L709.413835,880.718544L709.487438,879.174030L709.707568,874.539944L709.780985,872.994825L709.658316,872.464353L709.289217,870.870788L709.166197,870.339607L709.045480,869.948822L708.677929,869.069563L708.396159,868.238798L708.821779,866.974577L709.434205,865.248697L709.521433,864.786298L710.140170,861.769553L711.223118,858.121971L711.275544,857.964957L712.197774,855.180729L712.948558,851.214386L714.350393,846.327277L715.167667,843.238897L716.127740,840.517404L717.550689,836.240034L718.008710,833.515169L718.732243,830.913363L719.135029,828.967672L719.500774,824.440694L720.288084,819.274665L720.346141,818.894260L720.418970,817.044333L721.085543,810.157761L721.805712,806.583468L722.241663,804.420028L723.066912,798.626335L723.693227,794.229121L724.965104,786.253050L725.668266,783.726592L726.193929,782.664709L726.233885,782.583750L727.853408,778.221449L728.926368,774.668910L729.041676,774.286562L730.322219,769.963052L731.146739,766.681922L731.164041,766.610374L731.188328,766.512810L731.208171,764.147456L731.220251,762.733917L731.777298,757.718818L731.840142,756.590829L731.862828,756.184729L733.602880,754.726543L733.566070,754.456297L733.456071,753.644122L733.418892,753.373158L732.015102,745.287333L730.442507,736.218493L727.813574,721.033102L727.473246,719.067174L726.943996,716.008610L726.415553,712.950177L726.381559,712.751582L726.278408,712.155801L726.244041,711.956486L726.241651,711.940599L726.232930,711.892214L726.230164,711.875605L725.572916,708.069957L723.602474,696.652796L722.946218,692.847246L722.903577,692.734620L722.774106,692.396022L722.731091,692.282676L722.263670,689.493103L720.860963,681.124331L720.393903,678.334482L718.281134,666.094399L711.963210,629.386530L709.864313,617.154517L709.850692,617.103314L709.810470,616.947544L709.796476,616.895620L709.617596,615.767017L709.081348,612.380600L708.902215,611.251351L708.612244,609.421231L708.139660,606.436758L707.745787,603.929010L706.605228,600.233897L705.918197,593.896808L701.797469,569.737141L700.426813,561.685914L699.580014,560.069737L697.040121,555.219286L696.193250,553.602551L695.295920,551.931103L692.604044,546.916300L691.706667,545.244306L690.076364,539.921736L685.188330,523.955984L683.560602,518.634484L683.288050,517.611281L682.470556,514.541773L682.198326,513.517917L681.468876,510.866193L679.281667,502.909539L678.552568,500.257547L677.941908,497.912313L676.109659,490.874984L675.499190,488.529386L675.445327,488.370329L675.283371,487.892441L675.229140,487.732666L675.232729,487.722590L675.241953,487.691643L675.245171,487.680847L672.293995,478.813273L672.067281,478.131094L669.338240,469.934031L668.234537,466.620836L667.128126,463.296311L664.820903,456.369424L662.533076,449.500152L662.510207,449.431823L660.934036,444.700758L659.355563,439.962156L658.380654,437.081350L655.457108,428.438327L654.482720,425.557359L654.183241,424.684540L653.283971,422.065441L652.984204,421.191955L652.064188,419.836819L649.304487,415.771596L648.384918,414.415865L647.529215,413.167269L644.961878,409.419483L644.106003,408.170274L643.809365,407.739741L642.917733,406.448163L642.620534,406.017643L640.118262,402.409019L632.612175,391.584482L630.110390,387.976751L629.100650,386.513172L628.498564,385.640934L626.116900,382.075959L625.125558,380.593132L624.131466,379.100286L623.113382,377.570841L621.494319,375.118353L621.159138,374.609766L620.832352,374.114114L620.169398,373.111328L616.731619,367.834062L612.872941,361.908041L611.812352,360.264866L611.153715,359.243651L610.492554,358.223172L609.692098,356.982248L608.890672,355.742788L606.454340,351.972868L604.025207,348.211814L603.530091,347.446422L603.035579,346.681040L602.816336,346.411795L602.598482,346.141833L599.914982,342.834184L597.233823,339.526011L595.703721,337.641559L594.173439,335.754298L593.683940,335.151307L593.194454,334.548322L592.857643,334.132697L592.519670,333.717075L592.321558,333.285664L592.123235,332.854974L591.998329,332.583642L591.908294,332.388398L591.901594,332.371888L591.533148,331.343997L590.104815,327.359662L588.677504,323.375611L586.155239,319.579865L581.376464,312.189343L580.992605,311.594499L580.608975,310.998943L576.179502,304.129706L575.617911,303.258018L571.751301,297.262039L571.000868,296.098502L568.861800,292.780187L567.722003,290.986257L566.125301,288.474423L564.714666,286.253175L563.761972,284.752789L561.708620,281.520500L561.514517,281.214996L561.320635,280.908775L559.239185,277.630103L557.217352,274.529458L557.510205,273.668995L558.036962,271.135730L561.419533,254.883484L561.486435,254.710019L566.835353,245.739356L573.837091,245.446237L574.296489,245.426887L576.584384,245.193252L576.636538,245.188952L579.098488,244.934536L579.184314,244.925219L579.456037,244.896552L583.408474,244.363357L585.595554,244.067378L585.664268,243.951280L585.679362,243.919031L585.725954,243.817983L585.783184,243.683970L585.852767,243.471126L585.957892,243.479009L586.131703,243.424544L586.300540,243.361479L586.338792,243.329947L586.466857,243.168702L586.480142,243.155803L586.378369,242.876313L586.265761,242.653440L586.000415,242.437017L585.908296,242.342421L585.677047,242.102351L585.390202,241.852965L585.390561,241.754071L585.528274,241.407943L585.724069,240.697063L585.804827,240.183258L585.834013,239.756165L585.775364,239.281781L585.844317,238.883359L586.061087,238.439079L586.231838,237.890899L586.594730,236.644081L587.016003,235.271181L587.129618,234.983135L587.535763,234.106107L588.340638,232.943209L588.943547,232.235307L588.991945,232.185869L589.556734,231.604796L589.614038,231.545327L589.735285,231.291692L589.979320,230.662625L590.088858,230.234892L589.970557,230.027117L589.720246,229.777071L589.725098,229.701843L589.726254,229.678916L589.997649,228.954580L590.013695,228.911593L590.382929,228.098428L590.694737,227.232261L591.087006,226.575301L591.534496,225.909753L591.643175,225.747128L591.670232,225.660443L591.766344,225.175438L591.921872,224.754197L592.159393,224.420359L592.532795,223.647380L592.719234,222.891606L592.808728,222.233268L593.028329,221.801304L593.305597,221.084955L593.505906,220.207441L593.527482,219.884376L593.437012,219.742544L593.348513,219.599995L593.370685,219.294126L593.550015,218.930953L593.790300,218.238281L593.790837,218.089289L593.790594,218.015510L593.831143,217.823541L593.862942,217.677416L593.862126,217.638020L593.860206,217.567823L593.847046,217.524845L593.836153,217.489747L593.834399,217.484016L593.828988,217.465393L593.826868,217.458946L593.773460,217.396628L593.559709,217.237611L593.099626,216.886630L592.800860,216.713288L592.374589,216.590087L592.337557,216.579343L592.303227,216.569315L592.277955,216.562152L592.193299,216.537083L591.887011,216.350133L591.731820,216.106599L591.557756,215.435452L591.409606,214.643266L591.227597,213.919851L591.310788,213.573189L591.956377,212.612001L592.852204,211.726749L593.670508,211.049212L594.407030,210.451898L594.541828,210.307226L594.760101,210.153244L595.212348,209.835970L595.856868,209.356124L596.915081,208.593393L597.696379,207.996823L598.693097,207.158199L599.216974,206.646867L600.474622,205.614192L601.376126,204.827166L602.331962,203.925575L603.269547,203.022567L604.083211,202.127452L604.445351,201.573920L605.488415,200.158252L606.186505,199.283951L606.567142,198.725437L607.192802,197.908442L607.214712,197.882665L607.361349,197.882665L607.445185,197.839704L608.066836,197.037759L608.174778,196.898852L608.184565,196.885964L608.192306,196.875940L608.543012,196.419124L608.556450,196.401940L608.578068,196.373300L609.028029,195.786893L609.403644,195.319348L609.856161,194.800971L610.011146,194.567561L610.427958,192.984547L610.819412,191.375808L611.395176,189.008968L611.958048,186.657985L611.859941,186.543445L611.725983,186.423895L611.643656,186.286448L611.579322,186.050212L611.388569,185.889142L611.367649,185.766730L611.392191,185.511168L611.391886,185.094540L611.350984,184.901976L611.267941,184.740194L611.176401,184.661451L611.025335,184.626375L610.957644,184.629954L610.757185,184.689369L610.670881,184.673621L610.592496,184.563380L610.560464,184.492512L610.555651,184.264158L610.487603,184.040100L610.072736,183.556196L609.974270,183.458128L609.806437,183.355764L609.337126,183.209735L609.250192,183.127415L609.186183,183.052254L609.153623,183.036506L608.977666,182.989261L608.751884,183.009304L608.592435,182.946312L608.452391,182.930564L608.287703,183.008588L608.208106,183.024337L607.964287,183.047959L607.873896,183.032211L607.783661,182.989261L607.711988,182.910521L607.675618,182.745166L607.450696,182.627056L607.261248,182.717249L607.242555,182.717249L607.133832,182.713670L606.881226,182.619182L606.601979,182.501072L606.571832,182.477450L605.434649,182.455976L604.856317,182.513241L604.517521,182.490335L604.337773,182.100932L604.276785,181.813893L604.203703,181.471022L604.005274,181.081627L603.603514,180.806762L603.471614,180.566256L603.441407,180.369414L603.415715,180.199773L603.453721,179.831861L603.342927,179.594939L603.351466,179.460373L603.349070,179.433889L603.346235,179.408837L603.351717,179.396669L603.361514,179.372333L603.369117,179.355154L603.428701,179.208421L603.384571,179.121813L603.273475,179.051667L602.955772,178.925692L602.918189,178.886325L602.501585,178.968638L602.174706,178.798286L602.059399,178.551347L602.074068,178.030991L601.945074,177.983035L601.595754,177.611560L601.246218,177.240804L601.231770,177.225057L600.818084,176.935898L600.772760,176.535085L600.960442,175.995425L600.951212,175.924568L600.928904,175.747784L600.885640,175.692673L600.847410,175.644004L600.839385,175.633984L600.673618,175.551676L600.604731,175.488693L600.504099,175.515890L600.334393,175.429288L600.081725,175.371315L599.918080,175.283997L599.750198,175.200974L599.549142,175.159463L599.545670,175.107931L599.455117,175.130834L599.424303,175.132266L598.770950,175.158031L598.606540,175.126540L598.387257,175.043517L598.220367,174.898228L598.042167,174.410830L598.023710,174.387212L597.967755,174.316358L597.887737,174.198267L597.875791,174.155325L597.474647,173.730200L597.184641,173.508335L597.162900,173.484001L597.095857,173.401697L597.032245,173.321540L596.792883,173.144049L596.748323,173.070333L596.645651,172.988029L596.385154,172.555758L596.307016,172.473455L596.239376,172.111323L596.188738,171.966042L596.109638,171.805016L596.030947,171.682637L595.995790,171.635403L595.611298,171.348422L595.465092,171.297610L595.307581,171.230337L595.202739,170.936202L595.058374,170.770886L595.042375,170.687870L595.002555,170.629186L594.637358,170.425941L594.562480,170.384434L594.314930,170.247029L593.361672,169.799752L593.340364,169.785439L593.314630,169.736060L593.404361,169.647321L593.409622,169.641596L593.431341,169.599373L593.525407,169.386114L593.534280,169.248712L593.518767,169.112742L593.500067,168.945284L593.427653,168.313388L593.073894,167.732308L592.933909,167.503313L593.042191,166.988793L593.025642,166.960884L592.893784,166.878590L592.850636,166.876444L592.820339,166.874297L592.788064,166.878590L592.508768,166.334737L592.539822,165.657076L592.608959,164.547219L592.651167,164.381207L592.780946,163.871012L593.050684,163.595523L593.473525,163.011634L593.624195,162.427752L593.466778,161.696477L593.624154,160.849299L593.914813,159.199346L593.895521,159.077713L593.841340,158.740718L593.895586,156.645816L593.917755,156.535636L593.921059,156.519181L594.240620,154.882245L594.331228,154.619682L594.334450,154.611097L594.493844,154.335657L594.679683,153.795515L595.275434,152.278853L595.600273,151.451862L595.629125,151.378893L595.658196,151.305208L596.042804,150.329436L595.979154,149.330076L595.979958,149.329361L596.168036,149.135500L596.189226,149.119762L596.397882,149.048942L596.428568,149.028912L596.608214,148.864382L596.667531,148.832907L596.851423,148.774248L596.888282,148.722743L596.950765,148.612580L596.976974,148.553922L597.155518,148.337889L597.340911,148.247756L597.417565,148.188383L597.396721,148.161200L597.324956,148.164777L597.319781,148.101827L597.408372,148.013125L597.463706,147.956614L597.509007,147.925139L597.679616,147.807109L598.039637,147.595371L598.324205,147.304232L598.399706,147.233415L598.793933,146.990205L598.859939,146.923680L598.918170,146.829258L599.013944,146.719099L599.231834,146.563160L599.265592,146.538839L600.062259,145.968736L600.109493,145.910081L600.311137,145.618952L600.360610,145.579610L600.435710,145.536692L600.661816,145.462301L600.878479,145.352145L600.969415,145.312803L601.159283,145.261302L601.279017,145.249857L601.469984,145.194779L601.780920,145.061019L602.419091,144.833556L603.126839,144.543148L603.516030,144.519544L603.636499,144.503807L603.647087,144.501662L603.781072,144.478057L603.852410,144.464467L604.014525,144.421550L604.141169,144.374341L604.257383,144.319264L604.336806,144.264187L604.506596,144.103248L604.578010,144.032436L604.638662,143.930151L604.559908,143.646901L604.600454,143.568221L605.170664,143.011026L605.206940,142.959527L605.222740,142.881563L605.279434,142.792155L605.327861,142.716337L605.426664,142.636228L605.591382,142.503190L605.604609,142.492461L605.630259,142.471719L605.655106,142.451691L605.719634,142.399478L605.735857,142.386603L605.743237,142.381596L605.752444,142.374444L605.766036,142.364430L605.814849,142.327237L605.920735,142.244982L607.460993,140.960401L607.615005,140.810916L607.981894,140.438281L607.996001,140.424691L608.056162,140.363897L608.080577,140.339579L608.087448,140.332427L608.152729,140.264480L608.216326,140.200110L608.236281,140.180799L608.243153,140.173646L608.313037,140.102124L608.647034,139.762393L608.943729,139.475591L608.976184,139.444121L609.168060,139.258881L609.255777,139.173055L609.325074,139.052185L609.422400,138.881965L609.453719,138.827609L609.505002,138.748222L609.533901,138.701733L609.688831,138.575857L609.894417,138.608041L610.193409,138.608041L610.293097,138.574427L610.384897,138.543673L610.471221,138.513635L610.547473,138.482166L610.872497,138.450697L611.102502,138.403494L612.135044,138.033021L612.528324,137.893558L612.536432,137.889982L612.546511,137.885691L612.655550,137.846355L612.872375,137.775551L613.527707,137.689728L613.594583,137.681146L613.678183,137.667557L613.700890,137.663982L613.786825,137.650393L613.896371,137.613203L613.945592,137.597469L613.991894,137.581735L614.157237,137.524520L614.393185,137.402938L614.611529,137.289223L614.695837,137.239160L614.718484,137.226287L614.809147,137.172648L614.897475,137.119009L615.159749,136.963100L615.486542,136.711357L615.713257,136.460331L616.286778,136.051968L616.575226,135.816679L616.730752,135.580675L616.793676,135.376140L616.847585,135.348964L616.958813,135.258854L618.670406,133.837143L618.688829,133.817119L618.736669,133.648348L618.769226,133.597573L618.923243,133.448111L618.942539,133.430947L619.059920,133.326538L619.115150,133.295073L619.495579,133.204967L619.580006,133.173501L619.867528,132.926068L620.164579,132.651461L620.487165,132.238839L620.582950,132.128712L620.615728,132.077224L620.919355,131.507998L621.027668,131.319211L621.034016,131.272015L620.968051,131.161890L620.914077,131.086804L620.903660,131.073217L620.902442,131.058200L620.936929,131.035317L621.005846,130.930913L621.281204,130.669904L621.281568,130.670619L621.284996,130.672765L621.356361,130.734978L621.621717,130.667759L622.173414,130.172918L622.277131,130.080673L622.286999,130.071377L622.436180,129.937656L622.467202,129.984852L623.970530,128.378804L624.810915,127.511445L625.051348,127.417059L625.452379,127.032366L625.499731,126.998044L625.556291,126.956572L625.564695,126.950137L625.838458,126.734195L626.024259,126.616215L626.124698,126.566877L626.158009,126.549717L626.186792,126.533986L626.829155,126.133569L626.918299,126.073507L627.196468,125.886886L627.320682,125.803943L627.406790,125.725291L627.843685,125.372071L628.094246,125.151847L628.269986,125.026720L628.461245,124.782902L628.641088,124.602720L629.135293,124.198029L629.786310,123.549528L630.075084,123.262103L630.081736,123.255668L630.141282,123.174160L630.203316,123.088362L630.356503,122.875297L630.517835,122.635779L630.793871,122.372668L630.873146,122.278292L630.912254,122.109559L630.935542,122.062371L631.021498,121.944401L631.058732,121.850025L631.173663,121.732771L631.258594,121.485394L631.341785,121.363136L631.503314,121.096457L631.579020,120.998508L631.650447,120.927728L631.846847,120.801896L631.853548,120.766864L631.739430,120.746845L631.720850,120.727541L631.724028,120.703948L631.740789,120.676065L631.757895,120.660336L632.020429,120.617439L632.132556,120.562388L632.176627,120.527356L632.391837,120.327171L632.557570,120.166309L632.663640,120.024750L633.027235,119.479254L633.060950,119.396322L633.099230,119.332693L633.136707,119.269779L634.121556,117.586864L634.429571,116.990637L634.447732,116.956322L634.453811,116.944168L634.457401,116.936305L634.482301,116.887692L634.584657,116.703249L634.605087,116.665360L634.609040,116.658211L634.624492,116.628900L634.826705,116.188529L635.742283,114.311990L635.760148,114.280536L635.800133,114.245508L635.934235,114.147573L635.936315,114.127557L635.782220,114.061076L635.699015,113.982442L635.691626,113.911671L635.735430,113.742966L635.706847,113.687923L636.145068,112.832255L636.993691,111.186727L637.363078,110.433318L637.463234,110.110229L637.467784,110.097362L637.618247,109.609157L637.665392,109.456192L637.712174,109.302513L637.676811,109.246760L637.694499,109.041616L637.699797,108.980860L637.731753,108.795732L637.794366,108.607745L637.908524,108.371869L638.186396,107.637087L638.200331,107.601349L638.212659,107.567041L638.455331,106.923759L638.618790,106.448451L639.042557,105.170502L639.046965,105.156207L639.050270,105.145486L639.093665,105.086164L639.126559,104.913200L639.123050,104.843157L639.134166,104.685919L639.185374,104.588002L639.183409,104.512956L639.134442,104.402890L639.025070,104.246367L638.999299,104.178470L638.981513,104.132013L639.010042,104.026236L639.066240,103.951906L639.139168,103.904735L639.392827,103.767511L639.468319,103.751787L639.500696,103.728202L639.552266,103.668882L639.627823,103.548811L639.672650,103.503785L639.726753,103.455185L639.766820,103.418020L639.948897,103.312245L640.268035,102.951322L640.453960,102.711899L640.558342,102.628995L641.079295,102.111562L641.512055,101.719202L641.499835,101.664172L641.542470,101.620576L641.713812,101.483359L641.870883,101.471924L643.036869,100.962364L643.119294,100.910908L643.584117,100.789414L643.912286,100.722951L644.098587,100.656487L644.751056,100.452809L645.217223,100.315594L645.273221,100.268427L645.308508,100.072611L645.527366,100.036878L645.809307,100.091907L646.015668,100.100482L646.273064,100.096909L646.304679,100.089048L647.816291,99.357962L648.061233,99.235758L648.692147,98.831272L648.832433,98.713357L649.271174,98.042320L649.999916,96.821040L650.171550,96.546632L650.835407,95.753428L651.226101,95.211771L651.290522,95.082431L651.288077,95.031696L651.285256,94.985962L651.280888,94.913075L651.300627,94.862340L651.348499,94.760155L651.632769,94.336413L651.752383,94.230656L652.018548,94.081311L652.112854,94.002709L652.405476,93.633279L652.740358,93.327448L652.798004,93.261708L652.823752,93.233126L653.208777,92.789389L653.323834,92.632188L653.489397,92.337796L653.518123,92.216324L653.499738,92.181311L653.439992,92.106285L653.287344,91.969093L653.355472,91.882634L653.433433,91.804035L653.590241,91.874774L653.700872,91.839762L653.825133,91.745444L653.886411,91.654698L654.401988,91.179536L654.363378,91.117372L654.838323,90.571478L655.235466,90.132052L656.020073,89.471848L656.140663,89.323232L656.235476,89.150323L656.470162,89.048150L656.564083,89.012426L657.402208,88.502279L657.863783,88.325087L658.058630,88.285790L658.385045,88.277931L658.443734,88.301509L658.947335,88.580158L659.050481,88.595877L659.146907,88.646606L659.183880,88.689475L659.251965,88.818798L659.306806,88.964555L659.305834,89.007424L659.296897,89.023143L659.221410,89.038862L659.109451,88.917398L659.087333,88.920971L659.042695,88.944549L658.575818,89.471848L658.489204,89.569020L658.484304,89.639756L658.808437,89.839818L658.857539,89.843390L659.156092,89.831243L659.482691,89.807665L659.514511,89.772654L659.523448,89.756935L659.522552,89.733356L659.313915,89.278218L659.302043,89.235349L659.308266,89.160326L659.349920,89.133175L659.373920,89.136748L659.413657,89.183905L659.437788,89.226775L659.516129,89.470419L659.620607,89.642614L659.699706,89.709777L659.784978,89.756935L659.829748,89.772654L660.709531,89.787659L660.941402,89.736214L661.140503,89.686913L661.287403,89.649759L661.477267,89.586883L661.615604,89.528294L661.784319,89.426120L661.899641,89.347525L662.166955,89.139606L662.549730,88.790218L662.556165,88.784502L662.911959,88.460124L663.506282,87.879250L663.601042,87.761361L663.661722,87.644187L663.807435,86.996163L663.951654,86.528905L663.960254,86.501041L663.983409,86.426023L664.016928,86.317425L664.057181,86.200255L664.082892,86.124523L664.140774,85.955912L664.183453,85.830883L664.470160,85.089291L664.496822,84.853527L664.506462,84.818520L664.525675,84.744933L664.570577,84.574899L664.614138,84.163388L664.651282,84.035507L664.690853,83.899767L664.749626,83.696157L664.796060,83.558989L664.808399,83.492548L664.816874,83.425394L664.776740,83.394674L664.734491,83.363240L664.718977,83.351095L664.700636,83.331091L664.703828,83.307515L664.770265,83.198210L664.780202,83.192495L664.841367,83.153203L664.950908,83.083905L665.059595,82.973886L665.092380,82.901731L665.216852,82.625257L665.289141,82.323065L665.297617,82.255912L665.260606,82.107318L665.201396,82.028734L665.155931,82.000159L665.010653,81.907288L664.979344,81.847993L664.987947,81.820132L664.990153,81.812988L664.996991,81.790842L664.999417,81.782984L665.015520,81.730833L665.284595,81.341493L666.050615,80.231353L666.179528,80.025616L666.460360,79.575568L666.608464,79.339831L666.673584,79.234821L667.085714,78.652627L667.100726,78.630482L667.169077,78.516901L667.187725,78.469755L667.200641,78.409036L667.212960,78.354032L667.227940,78.284741L667.261227,78.188305L667.280188,78.132587L667.330671,77.986148L667.354044,77.916143L667.420093,77.551120L667.446204,77.406111L667.554560,76.809653L667.691984,76.323205L667.745167,76.001766L667.743387,75.954622L667.728509,75.893192L667.719333,75.856762L667.716870,75.849619L667.700625,75.809618L667.602104,75.699616L667.498659,75.633900L667.501463,75.621043L667.607179,75.507469L667.787575,75.554613L667.829787,75.538898L667.935660,75.479611L667.998516,75.436753L668.085247,75.358181L668.226512,75.208893L668.285716,75.138178L668.366546,74.997462L668.353528,74.863890L668.364006,74.816747L668.378571,74.769604L668.445827,74.659604L668.529576,74.577461L668.679839,74.506747L668.773085,74.420318L668.829528,74.345319L668.936121,74.202463L669.011379,74.102464L669.236647,73.800325L669.311542,73.699612L669.347704,73.652470L669.454078,73.510331L669.489294,73.462475L669.650867,73.247480L670.133695,72.601074L670.186922,72.528934L670.296216,72.386797L670.333768,72.338942L670.444672,72.195378L670.481860,72.146809L670.533984,72.078241L670.617550,72.011816L670.947063,71.748259L671.043886,71.633266L671.105144,71.559699L671.180601,71.496846L671.190617,71.488989L671.256422,71.434707L671.453694,71.270432L671.519136,71.215436L671.559641,71.182581L671.679263,71.082589L671.719405,71.049020L671.801662,70.981167L672.015606,70.802610L672.044943,70.771898L672.052261,70.763327L672.098088,70.675477L672.155505,70.563343L672.226181,70.487635L672.293276,70.414070L672.361309,70.288367L672.479962,69.970539L672.529307,69.876976L672.628806,69.715563L672.651865,69.686281L672.667164,69.666997L672.718186,69.602004L672.807350,69.515584L672.839811,69.489872L672.956943,69.394168L673.372574,69.095629L673.411265,69.059205L673.491139,68.982071L673.568925,68.866370L673.587819,68.839231L673.644802,68.754955L673.663334,68.727101L673.814947,68.502843L673.847611,68.455706L674.805949,67.035905L674.947258,66.875216L675.084742,66.643825L675.170437,66.408149L675.411686,65.978938L675.427080,65.951800L675.442473,65.924662L675.447016,65.917520L675.459697,65.895381L675.463876,65.887525L675.648979,65.556871L676.684300,63.992186L676.801768,63.882210L676.906616,63.771520L676.983574,63.667972L677.070344,63.551570L677.115833,63.457305L677.149192,63.370183L677.158892,63.344474L677.182109,63.284488L677.087763,63.315909L680.028250,58.874996L680.639803,56.198076L682.183092,54.460192L682.269192,54.530877L682.289101,54.508029L682.571440,54.201014L684.370228,52.593857L689.221930,50.307801L689.342101,50.151450L690.829370,48.216033L692.196729,46.436317L691.733397,46.204309L691.522570,45.988007L691.800604,45.834526L695.674897,42.854952L700.815909,39.322390L701.940733,38.969077L702.191914,38.889135L708.428580,36.467407L722.607968,30.782212L722.657923,30.762231L722.108264,30.270535L718.249351,26.820960L717.580508,26.220842L717.507273,26.155907L716.956598,25.667826L716.747523,25.480160L716.583891,25.336020L715.966782,24.783729L715.562170,24.421246L715.275146,24.165084L714.616323,23.403028L714.544605,23.344519L714.400949,23.228214L714.221434,23.082654L714.113054,22.995604L713.932736,22.850759L713.679094,22.648833L713.506404,22.513264L713.342006,22.384831L713.195940,22.270669L713.104063,22.200031L712.948541,22.078735L712.874995,22.022367L712.838333,21.993827L712.801450,21.966000L712.764788,21.937460L712.709574,21.895363L712.672912,21.866822L712.645124,21.845417L712.608241,21.817590L712.581036,21.796185L712.553248,21.774780L712.506908,21.739818L712.479704,21.718413L712.442821,21.690586L712.396481,21.655625L712.359819,21.627085L712.331810,21.606393L712.295148,21.577853L712.276013,21.564296L712.239351,21.535756L712.156129,21.472968L712.109789,21.438007L712.026788,21.374505L711.942983,21.311717L711.868634,21.256064L711.831752,21.228238L711.710481,21.137624L711.627259,21.074836L711.571242,21.033453L711.543455,21.012048L711.496311,20.977801L711.468524,20.956396L711.412506,20.915013L711.375624,20.887187L711.319024,20.845805L711.272464,20.811557L711.225542,20.776596L711.169525,20.735213L711.132059,20.707387L711.085500,20.673140L711.029483,20.631757L710.953748,20.576819L710.916866,20.548993L710.869723,20.514745L710.832258,20.486919L710.776021,20.446251L710.738556,20.418425L710.681956,20.377043L710.644270,20.349930L710.597127,20.315683L710.559441,20.288571L710.540527,20.274301L710.493968,20.240054L710.446825,20.205807L710.380548,20.158003L710.342862,20.130891L710.295720,20.096644L710.248356,20.063110L710.191757,20.021729L710.153488,19.994616L710.097251,19.953948L710.049525,19.919701L709.992705,19.879033L709.955020,19.851921L709.898200,19.811253L709.859931,19.784140L709.831702,19.764163L709.803111,19.743472L709.774882,19.723495L709.708022,19.675692L709.641525,19.628603L709.527664,19.547980L709.470261,19.507313L709.423260,19.474493L709.347085,19.420982L709.280005,19.373893L709.232059,19.340360L709.146428,19.279716L709.088804,19.239761L709.031180,19.199807L708.963879,19.153432L708.906255,19.113478L708.848632,19.073524L708.829498,19.059968L708.781331,19.027148L708.714251,18.980060L708.666084,18.947240L708.627595,18.920842L708.569972,18.880888L708.512349,18.840934L708.464182,18.808115L708.396298,18.761740L708.338454,18.722500L708.290287,18.689681L708.212726,18.636885L708.135164,18.584089L708.096676,18.557691L708.077320,18.544849L708.058187,18.531293L708.028571,18.512030L707.990082,18.485632L707.941916,18.452813L707.912300,18.433549L707.902844,18.426415L707.805706,18.361490L707.688853,18.283010L707.572582,18.204531L707.484540,18.146028L707.319078,18.036156L707.201421,17.958390L707.094024,17.887045L707.045054,17.854940L706.957013,17.796438L706.868750,17.738648L706.780487,17.680859L706.711579,17.635912L706.652932,17.597386L706.554409,17.533177L706.475603,17.482522L706.397018,17.431154L706.366820,17.411892L706.328111,17.386208L706.278337,17.354816L706.229367,17.322712L706.189854,17.297741L706.169916,17.284899L706.140301,17.265636L706.090748,17.233532L706.039586,17.202854L705.991783,17.170749L705.972429,17.157907L705.932554,17.132224L705.893040,17.107253L705.833589,17.069441L705.793714,17.043758L705.763878,17.025208L705.744524,17.012367L705.714909,16.993104L705.674812,16.968134L705.635299,16.943163L705.595424,16.917480L705.565588,16.898931L705.524546,16.873247L705.494931,16.853984L705.454835,16.829014L705.395384,16.791202L705.335934,16.753391L705.275678,16.716292L705.225905,16.684901L705.166455,16.647089L705.115877,16.616412L705.056427,16.578600L705.006653,16.547210L704.946399,16.510111L704.896404,16.479434L704.846048,16.448043L704.796275,16.416652L704.715861,16.367426L704.676349,16.342456L704.616094,16.305358L704.565517,16.274681L704.505262,16.237583L704.455268,16.206906L704.394652,16.169094L704.334760,16.132710L704.244087,16.077063L704.153193,16.022130L704.113097,15.997160L704.042362,15.954355L704.002045,15.930099L703.941569,15.893714L703.901474,15.868745L703.840415,15.832360L703.820257,15.820232L703.779357,15.795976L703.749522,15.777427L703.709205,15.753171L703.648147,15.716787L703.627989,15.704659L703.597570,15.686110L703.546772,15.656147L703.537095,15.649726L703.496195,15.625470L703.445397,15.595507L703.394821,15.564830L703.333763,15.528446L703.262807,15.486355L703.201749,15.449971L703.150951,15.420007L703.089893,15.383623L703.039095,15.353660L702.988298,15.323697L702.927240,15.287313L702.835322,15.233807L702.774264,15.197424L702.702504,15.156046L702.589844,15.090413L702.518306,15.048322L702.446546,15.006944L702.415907,14.989109L702.323989,14.935604L702.262127,14.899934L702.190367,14.858556L702.159728,14.840721L702.067227,14.787216L702.005949,14.751546L701.964829,14.728004L701.906971,14.694474L701.892265,14.687340L701.872107,14.675212L701.830987,14.651670L701.789283,14.628128L701.768904,14.616714L701.748163,14.604586L701.717524,14.586751L701.676404,14.563209L701.635062,14.540380L701.614321,14.528252L701.541757,14.487589L701.459517,14.440504L701.418397,14.416962L701.294232,14.347050L701.169846,14.277850L701.034617,14.202231L700.868529,14.109490L700.733663,14.034584L700.577251,13.948264L700.452061,13.879779L700.337353,13.817000L700.233126,13.759930L700.117835,13.697152L700.024089,13.645788L699.929760,13.594424L699.877134,13.566602L699.803767,13.526653L699.699319,13.470296L699.657477,13.445327L699.583808,13.408232L699.499739,13.363289L699.425789,13.323339L699.373163,13.295518L699.299575,13.256282L699.216452,13.212052L699.162881,13.183517L699.089293,13.144282L698.993939,13.094345L698.909871,13.049403L698.814517,12.999466L698.708682,12.943823L698.624393,12.899594L698.550001,12.861072L698.507857,12.838957L698.422984,12.794728L698.338112,12.750499L698.253239,12.706270L698.199809,12.679162L698.114937,12.634933L698.030065,12.590705L697.944971,12.547189L697.849397,12.497967L697.774201,12.460158L697.689108,12.416643L697.646381,12.394529L697.550807,12.345307L697.486675,12.313205L697.422765,12.280390L697.369336,12.253283L697.336867,12.237589L697.015486,12.075656L696.790041,11.963658L696.628728,11.883762L696.478117,11.808859L696.359531,11.751078L696.229881,11.687589L696.100815,11.624100L696.003633,11.576306L695.881407,11.517098L695.754594,11.455749L695.602737,11.382988L695.472867,11.320213L695.407932,11.288825L695.287959,11.231758L695.190335,11.185390L695.103413,11.144016L695.015908,11.102642L694.928987,11.061268L694.732935,10.969246L694.568990,10.892205L694.514536,10.866525L694.438095,10.830858L694.240656,10.739550L694.054503,10.653236L693.966556,10.613289L693.812870,10.542669L693.681171,10.482035L693.559953,10.427108L693.439318,10.372181L693.185597,10.257334L693.052873,10.198128L692.998198,10.173161L692.865474,10.113955L692.620263,10.005528L692.487539,9.946322L692.309817,9.868569L692.065331,9.761570L691.920297,9.698798L691.775263,9.636025L691.563828,9.544720L691.462767,9.501921L691.384497,9.468394L691.340303,9.449135L691.272735,9.420602L691.217035,9.397062L691.150050,9.368530L691.060495,9.330010L690.982004,9.297198L690.880944,9.254399L690.757676,9.202326L690.712678,9.183780L690.600695,9.136701L690.465337,9.080349L690.431624,9.066796L690.330342,9.024711L690.294155,9.009731L690.165959,9.061803L690.150546,9.068223L689.817782,8.914860L688.759491,8.488301L688.184698,8.255764L685.819696,7.272842L685.785179,7.260003L685.727428,7.239318L685.669316,7.217919L685.599476,7.192954L685.553232,7.176548L685.471886,7.147304L685.391125,7.118059L685.321285,7.093094L685.181606,7.043164L685.088534,7.010353L685.019278,6.985388L684.879378,6.936171L684.798033,6.906927L684.727972,6.882675L684.564840,6.825613L684.447951,6.784956L684.401124,6.768550L684.261003,6.720047L684.144114,6.679390L684.085560,6.659418L683.956945,6.615195L683.886884,6.590943L683.805318,6.562412L683.616399,6.498217L683.546117,6.474679L683.487562,6.454708L683.322599,6.399785L683.252318,6.376247L683.193180,6.356276L683.016490,6.297787L682.910887,6.262123L682.710160,6.196502L682.627568,6.169398L682.580519,6.153706L682.439152,6.107343L682.332744,6.072393L682.131796,6.007486L682.025167,5.973249L681.978118,5.957557L681.907032,5.934732L681.835946,5.911908L681.776366,5.893363L681.681464,5.862692L681.598651,5.836301L681.491801,5.802778L681.420715,5.779953L681.337319,5.753562L681.254284,5.727885L681.159161,5.697928L681.052311,5.664404L680.968915,5.638014L680.838028,5.597358L680.766137,5.575246L680.683103,5.549569L680.575670,5.516046L680.515868,5.498214L680.444561,5.476103L680.408797,5.465404L680.289053,5.428315L680.229252,5.410483L680.157945,5.388372L680.133908,5.381239L680.050290,5.355562L679.990489,5.337731L679.918377,5.316333L679.882613,5.305634L679.787269,5.276390L679.726884,5.258559L679.643045,5.233595L679.619008,5.226462L679.594971,5.219330L679.571517,5.212197L679.535170,5.201498L679.511132,5.194366L679.487095,5.187233L679.451331,5.176534L679.331145,5.140871L679.223269,5.108775L679.187505,5.098076L679.043061,5.055994L678.935185,5.023898L678.837648,4.996081L678.753810,4.971117L678.681477,4.950432L678.536811,4.909064L678.440441,4.881247L678.343488,4.853430L678.281132,4.836312L678.211133,4.815628L678.150527,4.798510L678.113958,4.788524L678.065662,4.774972L677.957344,4.744303L677.872701,4.720052L677.787836,4.696515L677.702972,4.672978L677.606381,4.645874L677.521516,4.622337L677.436652,4.598800L677.339478,4.571696L677.230355,4.541740L677.133542,4.515350L677.048678,4.491813L676.927024,4.459003L676.817318,4.429047L676.707973,4.399804L676.623109,4.376267L676.488923,4.340605L676.391528,4.314215L676.330479,4.298523L676.293910,4.288538L676.257925,4.278553L676.208825,4.265714L676.111208,4.240037L676.001864,4.210794L675.928505,4.191537L675.855147,4.172279L675.781788,4.153022L675.720739,4.137331L675.659691,4.121639L675.610591,4.108801L675.549542,4.093110L675.474072,4.073139L675.316935,4.032484L675.194838,4.001102L675.084468,3.973285L674.972569,3.944756L674.863950,3.916940L674.741048,3.886270L674.618368,3.854888L674.519725,3.830638L674.421887,3.805675L674.372565,3.793550L674.200342,3.750755L674.052961,3.714380L673.904191,3.678719L673.706684,3.630932L673.596093,3.603829L673.509176,3.583145L673.410312,3.559609L673.261904,3.524660L673.126029,3.492565L673.002101,3.463323L672.903237,3.439786L672.742076,3.402698L672.531595,3.353485L672.419977,3.327809L672.258234,3.290721L672.121915,3.260052L671.947640,3.220111L671.810738,3.189443L671.711431,3.167333L671.661888,3.155921L671.587061,3.139517L671.387280,3.095297L671.262910,3.067481L671.087970,3.029680L670.913836,2.991166L670.776129,2.961211L670.638785,2.931968L670.426029,2.886322L670.225806,2.843529L670.000659,2.796456L669.799631,2.754376L669.586433,2.710157L669.511384,2.694466L669.473568,2.686620L669.411051,2.673782L669.310718,2.653099L669.247617,2.640261L669.147062,2.620291L669.046146,2.599608L668.959289,2.582491L668.898884,2.570366L668.799274,2.551109L668.704332,2.531852L668.615947,2.514022L668.527118,2.497618L668.414032,2.474795L668.350932,2.461957L668.312894,2.454825L668.262909,2.444840L668.212118,2.435568L668.123512,2.418451L668.022957,2.398481L667.959635,2.386356L667.844939,2.364960L667.731631,2.342850L667.640691,2.325733L667.542027,2.307189L667.491236,2.297918L667.465952,2.292925L667.427914,2.285793L667.402408,2.281514L667.364954,2.274382L667.339670,2.269389L667.301632,2.262257L667.276348,2.257264L667.238310,2.250132L667.212804,2.245853L667.174767,2.238721L667.136729,2.231589L667.098692,2.224457L667.073185,2.220177L667.060654,2.217325L667.035148,2.213045L667.009864,2.208053L666.971604,2.201634L666.908283,2.189509L666.882776,2.185230L666.857492,2.180237L666.844739,2.178098L666.819455,2.173105L666.768442,2.164547L666.730405,2.157415L666.679614,2.148143L666.641577,2.141011L666.603318,2.134592L666.552527,2.125320L666.501737,2.116048L666.450946,2.106777L666.412687,2.100358L666.374650,2.093226L666.336612,2.086094L666.311106,2.081814L666.247563,2.070403L666.158513,2.054712L666.043957,2.034743L665.929624,2.014059L665.840352,1.999082L665.751303,1.983392L665.648917,1.965561L665.529333,1.944878L665.036632,1.861433L664.972284,1.850735L664.934025,1.844316L664.883013,1.835758L664.793742,1.820780L664.703887,1.805803L664.614616,1.790826L664.511787,1.774422L664.435269,1.761584L664.358530,1.749460L664.255922,1.732343L664.230416,1.728064L664.153677,1.715939L664.114834,1.709520L664.050848,1.699535L663.974108,1.687411L663.909760,1.676713L663.855831,1.668154L663.830103,1.664588L663.779091,1.656030L663.727858,1.648185L663.688794,1.642479L663.625029,1.631781L663.612054,1.630355L663.586548,1.626075L663.534731,1.618230L663.509225,1.613951L663.457992,1.606106L663.406175,1.598260L663.367916,1.591842L663.329435,1.586136L663.303929,1.581857L663.264865,1.576151L663.239137,1.572585L663.200879,1.566166L663.149062,1.558321L663.110581,1.552615L663.059347,1.544770L662.981803,1.533359L662.904480,1.521235L662.865999,1.515529L662.814766,1.507684L662.775702,1.501978L662.724468,1.494133L662.685988,1.488427L662.634171,1.480582L662.595690,1.474877L662.543651,1.467745L662.518146,1.463465L662.466690,1.456333L662.402120,1.446348L662.311601,1.433511L662.234057,1.422100L662.157096,1.410688L662.118032,1.404983L662.091277,1.402843L662.001785,1.388579L661.872785,1.370036L661.769513,1.355059L661.691747,1.344361L661.639708,1.337229L661.588253,1.330097L661.562747,1.325818L661.523462,1.320825L661.432943,1.307988L661.329449,1.293724L661.251683,1.283026L661.161164,1.270188L661.057448,1.256638L660.901916,1.235242L660.824150,1.224544L660.733409,1.212419L660.663145,1.203861L660.564680,1.190310L660.473940,1.178186L660.382616,1.166062L660.265926,1.151084L660.175185,1.138960L660.084223,1.127549L659.941222,1.109006L659.849676,1.097595L659.771688,1.087610L659.654776,1.073346L659.576205,1.063361L659.485243,1.051950L659.432983,1.045531L659.329046,1.032694L659.237500,1.021283L659.159291,1.012011L659.107614,1.005593L659.042379,0.997747L658.937637,0.985623L658.846091,0.974212L658.780856,0.966367L658.647470,0.950677L658.529753,0.937126L658.373334,0.918583L658.295125,0.909312L658.216332,0.900040L658.163850,0.894335L658.059692,0.882210L657.967924,0.871512L657.876519,0.861528L657.758802,0.847977L657.653838,0.836566L657.548875,0.825155L657.470443,0.816597L657.418184,0.810178L657.350977,0.803046L657.247541,0.792348L657.182085,0.785216L657.090096,0.775232L657.037614,0.769526L656.959183,0.760968L656.879947,0.753123L656.801516,0.744564L656.722280,0.736719L656.656823,0.729587L656.591145,0.723169L656.538663,0.717463L656.472985,0.711044L656.393971,0.702486L656.301760,0.693215L656.223107,0.685370L656.157429,0.678951L656.091167,0.672532L656.038464,0.667540L656.012515,0.664687L655.959811,0.659695L655.893549,0.653276L655.827871,0.646857L655.762193,0.640439L655.722464,0.636873L655.643228,0.629028L655.551379,0.620470L655.497508,0.615477L655.406243,0.606919L655.339981,0.600500L655.247549,0.591942L655.155700,0.583384L655.089216,0.577678L655.010342,0.570546L654.930884,0.563415L654.851426,0.556283L654.785526,0.550577L654.666339,0.539879L654.600439,0.534174L654.534539,0.528468L654.455081,0.521336L654.375402,0.514918L654.322476,0.510639L654.282747,0.507073L654.216847,0.501367L654.163922,0.497088L654.097439,0.491383L654.031539,0.485677L653.951859,0.479258L653.898934,0.474979L653.872180,0.472840L653.846009,0.470700L653.819254,0.468561L653.779303,0.465708L653.716635,0.421490L653.520282,0.430049L653.036063,0.445026L652.981480,0.402948L652.795506,0.389397L652.596558,0.374420L652.396804,0.360157L652.289927,0.353025L652.090756,0.338761L651.930732,0.328063L651.783903,0.318079L651.570732,0.303815L651.450658,0.295970L651.317387,0.287412L651.143945,0.276714L651.023649,0.269582L650.890379,0.261024L650.783057,0.255319L650.675958,0.248900L650.515490,0.239629L650.368801,0.231070L650.181357,0.220373L650.033863,0.212528L649.913345,0.206109L649.833000,0.201830L649.712483,0.195411L649.618941,0.190419L649.498202,0.184714L649.390881,0.179008L649.175795,0.169024L649.069057,0.163318L648.961514,0.158326L648.840553,0.153334L648.719813,0.147628L648.612270,0.142636L648.517923,0.138357L648.410742,0.134078L648.276001,0.128372L648.182016,0.124806L648.141843,0.122667L648.100865,0.121241L648.033273,0.119101L647.869806,0.111969L647.695254,0.104837L647.627661,0.102698L647.492698,0.097706L647.331343,0.091287L647.169765,0.085582L647.064474,0.082729L647.021384,0.080589L646.859001,0.075597L646.643611,0.068465L646.427416,0.062047L646.278813,0.057768L646.089815,0.052062L645.954409,0.048496L645.819002,0.044930L645.710572,0.042791L645.535132,0.038512L645.304491,0.033519L645.142248,0.029954L645.061015,0.028527L644.966003,0.026388L644.884771,0.024961L644.762922,0.022822L644.640490,0.020682L644.532059,0.018543L644.301558,0.014977L644.165485,0.013550L644.070835,0.012124L643.921344,0.010698L643.730654,0.008558L643.527128,0.006419L643.254762,0.004279L643.023595,0.002853L642.737588,0.001426L642.556733,0.001426L642.475278,0.000713L642.407020,0.000713L642.257086,0.000713L642.148211,0.000000L641.998277,0.000000L641.848342,0.000000Z " data-aland="-2147483648" data-awater="1398754502" data-division="5" data-funcstat="A" data-geoid="10" data-intptlat="+38.9985380" data-intptlon="-075.4416616" data-lsad="00" data-mtfcc="G4000" data-name="Delaware" data-region="3" data-statefp="10" data-statens="01779781" data-stusps="DE"/></g><g fill="#000" font-family="Arial" font-size="12px" id="mylayer-label" stroke="none"><text text-anchor="middle" y="601.952906833"><tspan dy="0" x="521.624659175"><![CDATA[Delaware]]></tspan></text></g></svg>