<?xml version="1.0" encoding="utf-8"?><!DOCTYPE svg  PUBLIC '-//W3C//DTD SVG 1.1//EN'  'http://www.w3.org/Graphics/SVG/1.1/DTD/svg11.dtd'><svg enable_background="new 0 0 1000 1001" height="1001px" pretty_print="False" style="stroke-linejoin: round; stroke:#000; fill: none;" version="1.1" viewBox="0 0 1000 1001" width="1000px" xmlns="http://www.w3.org/2000/svg" xmlns:xlink="http://www.w3.org/1999/xlink"><defs><style type="text/css"><![CDATA[path { fill-rule: evenodd; }]]></style></defs><metadata><views><view h="1001" padding="0" w="1000"><proj flip="auto" id="robinson" lon0="-155.428370097"/><bbox h="161.89" w="296.34" x="-2549.7" y="-478.24"/></view></views></metadata><g class="" id="mylayer"><path d="M491.875467,491.791399L491.975338,492.132252L492.130018,492.245115L492.139731,492.211381L492.168905,492.110064L492.178636,492.076273L492.311928,492.590665L492.750056,493.094413L492.784105,493.133524L493.633283,493.490392L494.318537,493.523673L494.833468,493.258555L494.355129,493.976760L493.899077,494.919042L493.805243,495.112897L493.777106,495.819829L493.808617,496.300020L493.779309,496.300020L493.691388,496.300020L493.662081,496.300020L493.691107,496.859222L493.855516,497.091448L494.150156,497.507508L494.789922,498.104400L495.649009,498.369225L495.704323,498.386261L496.476811,498.343360L496.490612,498.295024L496.532054,498.149905L496.545875,498.101513L496.998217,498.016559L497.536176,497.793729L497.828080,497.576672L497.793352,497.802162L497.721072,498.271423L497.656272,498.853879L497.914962,499.317532L498.291157,499.605334L497.872045,499.948941L497.079112,500.684544L496.498756,501.711845L496.454696,501.810551L496.175101,502.436402L496.188134,502.992354L496.271826,503.374778L496.232610,503.374778L496.114962,503.374778L496.075697,503.374778L496.137308,503.952572L496.422685,504.553625L496.539933,504.800441L497.187358,505.382191L498.230738,505.520341L499.312209,505.329387L499.661867,505.116982L500.481071,504.619276L500.889503,504.264418L500.882545,504.288981L500.861690,504.362612L500.854749,504.387119L501.056342,504.289490L501.104873,504.264531L501.322037,504.152753L501.610833,503.848774L501.708887,503.645989L501.840013,503.374778L501.777092,503.374778L501.588182,503.374778L501.525212,503.374778L501.834421,502.833713L501.912727,502.696635L502.124975,501.827643L502.134129,501.162680L502.134500,501.133759L501.876741,500.786476L501.887528,500.748556L501.919893,500.634794L501.930698,500.596817L501.844700,500.397027L501.762005,500.204877L501.713861,499.995748L501.962973,499.834613L502.189401,499.688081L502.176359,499.733869L502.137253,499.871176L502.124230,499.916907L502.801988,499.343511L502.863562,499.291384L503.499293,498.363848L503.809118,497.492623L503.884453,496.987702L503.923943,496.723270L503.728972,496.300020L503.716147,496.300020L503.677624,496.300020L503.664750,496.300020L503.631436,496.061056L503.642162,496.028342L503.690236,495.881126L503.741819,495.637521L503.743510,495.356559L503.654339,495.210758L503.527637,495.003489L503.505601,495.080408L503.439521,495.311110L503.417510,495.387972L503.270803,495.158233L503.043829,494.686132L502.855814,494.354625L502.835869,494.349700L502.601763,494.291911L502.731938,493.485637L502.886831,492.397938L502.600180,491.465941L502.394938,491.351889L502.507490,491.197876L502.811416,490.660329L502.855489,490.582331L503.047354,489.801336L503.078109,489.224898L503.101217,489.224898L503.170444,489.224898L503.193504,489.224898L503.193487,488.463479L503.053085,488.151258L502.840382,487.678226L502.015302,486.835459L500.957226,486.281140L500.796923,486.197140L500.036003,485.974177L499.977408,486.176253L499.253809,486.195442L498.538065,486.341536L498.047615,486.441611L498.109122,486.169630L497.130070,486.401366L496.154962,486.793573L495.737703,487.340475L494.609352,487.648057L494.571191,487.670415L493.772969,488.137730L493.171169,488.637250L493.180616,488.604590L493.208958,488.506611L493.218406,488.473951L493.059879,488.588345L492.881858,488.716720L492.702689,489.043996L492.699444,489.049656L492.597257,489.224898L492.663510,489.224898L492.407725,489.755658L492.363152,489.866938L491.971025,490.845813L491.836756,491.659235L491.875467,491.791399Z M566.559164,506.692436L566.537834,507.137897L566.618445,507.465470L566.653264,507.606901L566.794939,507.884669L566.876837,508.124914L566.861250,508.180660L566.814512,508.347841L566.798945,508.403530L567.223148,508.742136L567.886655,509.217870L568.872200,509.486976L569.116112,509.484429L569.659107,509.478656L570.301635,509.255901L570.855969,508.919730L571.466481,508.455880L572.147446,507.533780L572.796994,506.141705L572.865417,505.098702L572.602247,504.389609L572.038051,503.848831L571.459977,503.498951L571.164289,503.463917L570.749084,503.468332L570.506194,503.470879L570.141875,503.474727L569.383750,503.597202L568.524934,503.975041L567.892878,504.499066L567.682196,504.590639L567.571685,504.693927L567.399909,504.849000L567.233192,505.067234L567.164071,505.157618L566.943998,505.542300L566.798595,505.824204L566.686253,506.207356L566.559164,506.692436Z M430.278531,426.974576L430.625221,427.811177L431.219833,428.107826L432.299486,428.321448L432.290142,428.350897L432.262131,428.439189L432.252806,428.468582L433.074400,428.403000L433.129861,428.383802L433.991137,428.084606L434.505758,427.716825L434.798232,427.546640L435.194064,427.022546L435.415744,426.582722L435.468793,426.498959L435.717049,426.106932L435.881659,425.529440L435.864685,425.529440L435.813763,425.529440L435.796789,425.529440L435.892874,424.992195L435.906969,424.638334L435.924590,424.196345L435.634706,423.648218L435.268063,423.194671L434.780206,422.865327L434.611589,422.751486L434.131554,422.570757L434.095546,422.683295L434.013452,422.683465L433.778280,422.695756L433.678550,422.701646L433.616108,422.707876L433.434144,422.743557L433.288738,422.779125L432.949935,422.885660L432.684233,422.992024L432.507626,423.086381L432.182504,423.263315L431.782062,423.522711L431.486706,423.758319L431.192943,424.064382L431.011877,424.323154L430.804190,424.664216L430.643789,424.934653L430.511495,425.193308L430.414256,425.381452L430.355510,425.529440L430.128830,426.215785L430.278531,426.974576Z M312.029006,397.079522L311.998561,397.211570L311.977302,397.336140L311.959371,397.455328L311.946041,397.587262L311.937645,397.704581L311.937045,397.805415L311.940261,397.908061L311.945343,398.027249L311.959176,398.144568L311.983179,398.280183L312.016337,398.408548L312.046158,398.509325L312.097380,398.641372L312.147373,398.755007L312.212291,398.870513L312.263838,398.952992L312.336528,399.052069L312.413245,399.143669L312.514044,399.240820L312.606861,399.319674L312.705879,399.391220L312.803415,399.451720L312.904574,399.510407L313.016174,399.559860L313.111380,399.596511L313.225808,399.633219L313.341153,399.660693L313.470520,399.688224L313.587035,399.701083L313.710086,399.712129L313.798588,399.715811L313.896340,399.713942L314.005050,399.710260L314.093622,399.704765L314.218555,399.688224L314.317543,399.671683L314.450671,399.646078L314.595231,399.613052L314.754442,399.567224L314.887707,399.521396L315.045192,399.460896L315.209334,399.389407L315.336306,399.327038L315.471393,399.253679L315.612661,399.173069L315.763831,399.073992L315.894268,398.986018L316.022427,398.887054L316.142124,398.793471L316.261860,398.690825L316.384007,398.579002L316.500694,398.463497L316.624558,398.333319L316.753859,398.184845L316.863344,398.051098L316.955746,397.926415L317.046856,397.794482L317.150602,397.629522L317.235447,397.481046L317.319438,397.319712L317.384653,397.176787L317.452786,397.009958L317.488835,396.918300L317.534326,396.779058L317.580789,396.621405L317.616585,396.458257L317.649379,396.284175L317.668068,396.099103L317.675951,395.906667L317.673340,395.767367L317.662908,395.622629L317.637451,395.452229L317.604388,395.300070L317.547706,395.127857L317.491861,394.990426L317.432947,394.873162L317.342032,394.732049L317.251391,394.605664L317.166528,394.510324L317.070750,394.418835L316.941805,394.317999L316.830810,394.242939L316.692556,394.169634L316.569610,394.114684L316.421800,394.065173L316.272371,394.024895L316.114073,393.995607L315.947575,393.977196L315.810218,393.973571L315.682613,393.971701L315.536547,393.982748L315.423872,393.993738L315.256698,394.021213L315.053582,394.065173L314.820842,394.132926L314.652881,394.193427L314.474631,394.266675L314.294877,394.350969L314.106631,394.451748L313.891358,394.581872L313.695388,394.718566L313.629363,394.766831L313.509523,394.860303L313.376191,394.973998L313.265827,395.074663L313.149507,395.188358L313.033559,395.305565L312.928539,395.421072L312.820770,395.551195L312.726458,395.670271L312.636805,395.792973L312.555001,395.912162L312.476000,396.038602L312.399047,396.163173L312.336199,396.287857L312.263508,396.430782L312.205496,396.560904L312.145621,396.707511L312.095918,396.850492L312.058192,396.962316L312.029006,397.079522Z M158.443791,366.648568L158.397153,367.598590L158.391784,367.708498L158.653464,368.751658L158.751525,368.882301L158.805630,368.882301L158.967798,368.882301L159.021854,368.882301L159.257395,369.127893L159.387086,369.263125L160.266175,369.420055L160.335937,369.432462L160.645135,369.436824L160.655926,369.406628L160.688300,369.316039L160.699112,369.285786L160.918787,369.222108L161.141427,369.157466L161.545864,369.017022L161.580033,368.998950L161.799921,368.882301L161.831414,368.882301L161.925793,368.882301L161.957237,368.882301L162.680009,368.506178L163.821493,368.278658L163.837974,368.275316L164.833483,367.770363L165.787900,366.842890L166.751715,365.479920L166.865276,365.100115L166.946236,364.243402L167.064941,363.251003L167.060772,363.187154L167.026419,362.665093L166.816718,362.240476L166.728625,362.076011L166.351976,361.800618L166.487609,361.800618L165.968103,361.338780L165.648275,361.194994L165.077595,361.212386L164.457268,361.334701L164.019527,361.142986L163.631208,361.127576L163.602873,361.205985L163.573338,361.194824L163.484706,361.161285L163.455144,361.150068L163.289662,361.117775L163.098966,361.143439L163.092664,361.144232L162.655353,361.290965L161.962033,361.570039L161.922136,361.591454L161.531905,361.800618L161.547817,361.800618L161.595550,361.800618L161.611461,361.800618L161.363463,361.936473L160.808756,362.277754L160.597127,362.481196L160.377178,362.778626L160.287979,362.919410L159.889530,363.548320L159.524736,364.236263L158.785097,365.504961L158.635936,365.908900L158.443791,366.648568Z M262.638678,382.074897L262.622860,383.045516L262.614072,383.045516L262.587708,383.045516L262.578871,383.045516L262.603352,383.581500L262.675738,383.693104L263.051868,384.272709L263.470922,384.847100L263.771591,385.041868L264.061036,385.229272L264.294274,385.296347L264.290051,385.308584L264.277404,385.345238L264.273201,385.357418L264.828665,385.507997L265.142773,385.454405L265.812016,385.340196L266.858485,384.923070L267.704567,384.298712L268.000892,383.990810L268.188280,383.796041L268.758766,383.045516L268.723760,383.045516L268.618593,383.045516L268.583538,383.045516L269.547045,381.476990L269.669947,381.277007L269.849528,380.558033L269.831365,379.594998L269.519355,378.866390L268.620809,378.331419L268.128621,378.290742L267.634650,378.249895L266.714360,378.316916L266.732027,378.266211L266.785057,378.114042L266.802749,378.063281L265.838974,378.304792L265.610033,378.434243L265.550521,378.467952L264.698954,378.949499L263.734733,379.883076L263.182693,380.589078L262.792745,381.269473L262.700756,381.750167L262.638678,382.074897Z M100.366138,269.298265L100.424564,269.764820L100.503226,270.179016L100.606096,270.441846L100.644753,270.515436L101.133930,271.445456L101.300340,271.684232L101.268812,271.761107L101.174292,271.991620L101.142799,272.068439L101.998525,272.768928L102.242768,272.968762L103.577700,273.261495L105.776800,272.690580L105.972291,272.639801L107.201551,272.020265L107.193457,272.040021L107.169177,272.099291L107.161084,272.119048L107.788848,271.772486L109.073097,270.984322L110.275519,271.294820L110.992076,271.265779L112.192953,271.141241L113.776253,270.712772L113.753924,270.767229L113.951470,270.743171L114.672746,270.395711L115.316862,269.764820L115.439917,269.619679L119.795409,264.486946L119.964871,264.287481L121.114967,262.689353L121.123659,262.689353L121.149688,262.689353L121.158332,262.689353L121.679127,261.610451L121.941440,260.927532L122.121756,260.458334L122.503077,258.919857L122.351726,257.960108L121.820113,256.591769L121.701027,256.482940L120.751862,255.614802L120.702527,255.614802L120.554521,255.614802L120.505185,255.614802L120.457847,255.600541L120.317090,255.557983L120.315928,255.557530L120.271351,255.538855L120.263042,255.535403L120.238137,255.524990L120.229803,255.521481L120.096071,255.442931L119.908234,255.387131L119.250803,255.191774L118.835777,255.157536L118.474807,255.127712L118.452778,255.128561L117.807967,255.152443L117.495701,255.201508L117.455664,255.207790L117.265882,255.278530L116.822556,255.493128L116.496850,255.614802L114.394277,256.627310L113.359206,257.125789L113.371530,257.096247L113.408529,257.007564L113.420878,256.977965L111.638071,257.846296L111.370516,257.976577L109.659303,258.977586L108.840854,259.225591L107.926394,259.581471L106.804157,260.526251L106.490613,260.905175L106.209195,261.245276L105.729619,261.868713L105.311432,262.689353L105.341372,262.689353L105.431144,262.689353L105.461035,262.689353L105.239884,263.430593L105.431049,264.218880L105.583547,264.394798L106.163421,265.063497L106.817875,265.379284L107.402515,265.608187L107.569158,265.720997L107.230320,266.158485L106.851587,266.116542L106.643403,265.880392L105.598357,265.407529L105.189569,265.222551L104.797681,265.155986L104.465575,265.090270L103.967681,265.206419L103.990192,265.151967L104.057803,264.988442L104.080343,264.933934L103.717285,265.088855L103.438925,265.220230L102.550094,265.713072L102.417194,265.828996L102.270600,265.956806L101.651511,266.530259L101.151722,267.043887L101.064221,267.166775L100.677013,268.156857L100.366138,269.298265Z M0.000000,232.690579L0.167647,233.109216L0.568630,234.109581L0.547095,234.397279L0.527950,234.397279L0.470517,234.397279L0.451373,234.397279L0.330309,235.060699L0.303374,235.208398L0.607941,236.269624L0.970008,236.430451L1.441360,236.639815L1.452054,236.615150L1.484187,236.541044L1.494906,236.516323L2.681275,236.679696L3.008419,236.724726L4.818739,237.036993L5.433552,237.010178L6.413255,236.644284L6.505614,236.609776L7.290137,236.216958L7.814699,235.844225L7.803562,235.869907L7.770152,235.946954L7.759016,235.972636L8.077892,235.675820L8.660216,235.133728L8.984992,234.736059L9.261646,234.397279L9.222586,234.397279L9.105309,234.397279L9.066201,234.397279L9.499143,233.908940L9.816070,233.338248L9.941069,233.113175L10.588099,231.436958L10.952114,229.989540L10.998070,229.807132L10.739400,229.126826L10.731958,229.143851L10.709635,229.194924L10.702218,229.211892L10.620639,228.735888L10.606631,228.654160L10.223420,227.973760L9.934554,227.644933L9.655291,227.327024L9.730154,227.327024L9.954645,227.327024L10.029459,227.327024L9.704298,226.919418L9.471365,226.749126L9.235921,226.576912L8.792810,226.403229L7.918258,226.354138L7.590745,226.350349L6.790326,226.498582L6.536888,226.545467L5.751396,226.756705L5.740158,226.782325L5.706497,226.859072L5.695285,226.884636L5.546120,226.971959L5.285818,227.124210L5.099012,227.237154L4.950188,227.327024L4.860190,227.327024L4.590193,227.327024L4.500146,227.327024L3.324681,228.246541L2.946976,228.561177L2.127085,229.244245L1.064080,230.489372L0.190834,231.909204L0.000000,232.690579Z M1000.000000,734.684606L999.836577,734.203531L999.681674,733.923418L999.600377,733.776431L999.370772,733.358837L998.996132,732.967778L998.959415,732.858245L998.840438,732.687835L998.628397,732.466450L998.383889,732.293495L998.032102,732.074600L997.922415,731.822664L997.644012,731.468324L997.410282,731.285695L997.095874,731.114098L996.883296,730.993364L996.640796,730.969036L996.475310,730.871441L996.296607,730.763097L996.229806,730.722588L995.901886,730.493849L995.559907,730.289269L995.346325,730.175154L995.207594,730.080275L995.079433,729.961069L995.011760,729.874507L994.993287,729.850858L994.881563,729.675415L994.933737,729.675415L995.004038,729.675415L994.736727,729.139410L994.630617,729.038987L994.623716,729.009851L994.604980,728.668752L994.434981,728.130600L994.339548,727.947180L994.294129,727.859826L994.157753,727.597653L994.148610,727.580057L994.100023,727.521614L993.984003,727.382098L993.809310,727.171974L993.587662,727.024368L993.439359,726.925529L993.589422,726.517787L993.769452,726.018108L993.810568,725.903825L993.880067,725.175695L993.837644,724.557097L993.744660,723.866309L993.669249,723.410989L993.631888,723.185706L993.475657,722.603489L993.465588,722.603489L993.435283,722.603489L993.425165,722.603489L993.403147,722.470254L993.361728,722.219626L993.292096,722.099799L993.229854,721.992759L993.139791,721.837743L993.052479,721.680803L992.961791,721.517810L992.683641,721.131628L992.432467,720.827198L992.432079,720.826745L992.149088,720.634503L992.090394,720.594618L992.019780,720.559598L991.700882,720.401301L991.604024,720.387383L991.449741,720.365149L991.159163,720.331996L991.112691,720.326678L990.794839,720.287811L990.264425,720.327640L990.203863,720.332166L990.153842,720.300314L990.013096,720.223486L990.009361,720.221562L989.863605,720.146883L989.875396,720.101623L989.923183,719.917641L990.029559,719.360605L990.061511,719.193031L990.074474,719.113713L990.075626,719.106754L990.079046,719.085821L990.080162,719.078806L990.133070,718.754802L990.143672,718.616986L990.166474,718.526240L990.330270,718.189847L990.609463,717.542068L990.731991,717.002800L990.827314,716.511790L990.893539,716.035717L990.857038,715.531584L990.936787,715.531584L991.004259,715.531584L990.822498,715.086005L990.689183,714.718556L990.552705,714.247124L990.239797,713.739769L989.969984,713.398119L989.965789,713.392857L989.931898,713.359705L989.816037,713.246105L989.777393,713.208200L989.641411,713.074856L989.632560,713.009173L989.608249,712.829325L989.514816,712.499330L989.386968,712.240845L989.324021,712.113667L989.283077,711.998031L989.197302,711.755669L989.048331,711.555511L988.991721,711.478006L988.413428,710.845909L988.142764,710.458890L987.828069,710.097556L987.761110,709.913919L987.657885,709.729999L987.580532,709.654360L987.412572,709.521696L987.366377,709.479096L987.322906,709.389541L987.247526,709.234077L987.151799,709.054966L987.086135,709.002862L986.903974,708.874781L986.696946,708.741890L986.581377,708.680056L986.498375,708.591632L986.415026,708.595196L986.360283,708.474356L986.352796,708.460348L986.271051,708.460348L986.267163,708.450334L986.211354,708.371359L986.162547,708.238356L986.072411,708.096980L985.995221,708.016194L985.908034,707.954360L985.809409,707.886755L985.788023,707.853094L985.752826,707.787639L985.666133,707.718960L985.623358,707.662783L985.480716,707.584826L985.456006,707.449334L985.373282,707.357177L985.235356,707.240524L985.135281,707.148254L984.994128,707.026849L984.966056,707.019324L984.920442,707.007161L984.819927,706.953587L984.693542,706.880551L984.654626,706.749869L984.623884,706.677229L984.585299,706.619073L984.572423,706.605665L984.501430,706.531724L984.369196,706.390972L984.281132,706.284276L984.137337,706.211184L984.003386,706.133283L983.825418,706.002092L983.591095,705.740104L983.356208,705.536160L983.250366,705.436366L983.217286,705.405138L983.067641,705.264386L982.887328,705.142812L982.784849,705.076905L982.762390,705.062479L982.758849,705.060159L982.720683,704.990179L982.707205,704.965514L982.611157,704.870981L982.514908,704.815144L982.348329,704.723554L982.280509,704.686499L982.208777,704.647238L982.046123,704.575108L981.877937,704.507617L981.758626,704.456023L981.547871,704.382592L981.421450,704.306615L981.205522,704.165354L981.092218,704.089774L980.904866,704.000616L980.887436,703.992300L980.749828,703.925714L980.592717,703.848946L980.456939,703.753056L980.450396,703.748417L980.302867,703.633179L980.255164,703.585941L980.207461,703.538704L980.118841,703.434781L980.026202,703.364575L979.927968,703.299064L979.813419,703.228292L979.661488,703.166176L979.618554,703.136419L979.560067,703.095744L979.447081,703.054050L979.381183,703.025538L979.351663,703.012809L979.335329,703.003361L979.255415,702.957029L979.200548,702.931571L979.154194,702.910074L979.144789,702.905718L979.009163,702.848920L978.918876,702.769153L978.801144,702.693459L978.707466,702.614994L978.669932,702.583540L978.565741,702.488895L978.469506,702.379937L978.315963,702.288800L978.181910,702.207902L978.084465,702.156930L977.994537,702.111050L977.862057,702.059174L977.759430,701.993607L977.622559,701.941617L977.535821,701.900659L977.460651,701.830963L977.408974,701.737675L977.388135,701.715386L977.332153,701.655533L977.251393,701.563208L977.193280,701.509634L976.965174,701.388683L976.954375,701.388683L976.921930,701.388683L976.911082,701.388683L976.809009,701.301959L976.657645,701.181574L976.534238,701.086250L976.520402,701.075558L976.388738,700.945726L976.273140,700.878122L976.036353,700.766789L975.846337,700.698790L975.741504,700.659925L975.657772,700.568618L975.486493,700.476802L975.295469,700.394434L975.277616,700.386910L975.203766,700.355682L974.968738,700.311386L974.865944,700.301203L974.816431,700.245707L974.793095,700.219570L974.686311,700.132903L974.602536,700.041596L974.461808,699.969127L974.350493,699.920702L974.273295,699.893152L974.200861,699.867298L974.052324,699.809143L973.863283,699.755513L973.668767,699.706691L973.473025,699.681743L973.380255,699.628679L973.315043,699.551855L973.198255,699.489060L973.079470,699.397641L972.913442,699.339372L972.785802,699.267017L972.633793,699.242295L972.456413,699.162359L972.451486,699.160097L972.264459,699.135262L972.117950,699.105844L971.985691,699.071675L971.876354,699.051988L971.805852,699.009673L971.784102,699.000112L971.735668,699.000282L971.664111,698.986196L971.598017,698.967357L971.552831,698.953214L971.412992,698.929794L971.327097,698.882500L971.234520,698.825646L971.175034,698.797303L971.092388,698.735697L970.998792,698.702659L970.855517,698.617462L970.630796,698.522988L970.407171,698.423762L970.156021,698.329400L970.090078,698.305018L969.977572,698.263325L969.744083,698.206923L969.610795,698.174055L969.405978,698.146165L969.270500,698.122801L969.155977,698.104133L968.991904,698.071321L968.831200,698.100343L968.648396,698.110469L968.547126,698.110752L968.384219,698.149333L968.262090,698.202001L968.110279,698.269095L968.060727,698.254952L967.962621,698.202963L967.814870,698.060799L967.716765,698.008810L967.618638,697.918805L967.522726,697.857312L967.424614,697.767250L967.316512,697.663046L967.249294,697.629951L967.133631,697.597083L967.036626,697.540342L966.934108,697.488353L966.910802,697.379114L966.865495,697.288883L966.807045,697.217773L966.708809,697.089752L966.600659,696.947475L966.505733,696.843214L966.393258,696.758018L966.330360,696.667900L966.229932,696.583043L966.169235,696.525736L966.086273,696.449422L966.005488,696.382611L965.949822,696.339673L965.896382,696.306240L965.833146,696.277615L965.767628,696.220365L965.709808,696.186988L965.676002,696.163115L965.632401,696.144050L965.608330,696.115425L965.568001,696.101113L965.537455,696.082048L965.500398,696.072488L965.429579,696.058232L965.398977,696.020046L965.362893,695.967548L965.346507,695.957309L965.309454,695.934115L965.282112,695.900738L965.234144,695.881673L965.195972,695.857800L965.096709,695.795798L965.012787,695.781542L964.939771,695.757669L964.871060,695.733853L964.776241,695.710036L964.746743,695.686220L964.692123,695.619410L964.618917,695.538287L964.598028,695.457164L964.548843,695.404666L964.496437,695.347416L964.389431,695.242420L964.314005,695.151793L964.268003,695.046797L964.179524,694.956170L964.124861,694.889360L964.050601,694.813046L963.979683,694.779669L963.974087,694.776274L963.961980,694.768977L963.925514,694.747084L963.913359,694.739786L963.913176,694.739730L963.912885,694.739503L963.912665,694.739390L963.912459,694.739220L963.860735,694.708163L963.839141,694.706466L963.800831,694.703411L963.733172,694.674843L963.645984,694.655835L963.602290,694.638468L963.586013,694.632018L963.551103,694.612954L963.543107,694.588063L963.535720,694.565208L963.521380,694.493589L963.508142,694.436339L963.436700,694.317427L963.425915,694.239133L963.365576,694.106361L963.316881,693.978850L963.263149,693.870404L963.201285,693.775930L963.114581,693.661092L962.996658,693.549477L962.880515,693.447593L962.783749,693.370827L962.685765,693.298699L962.593141,693.255648L962.452346,693.181484L962.399818,693.068286L962.329274,693.007189L962.296329,692.885279L962.222564,692.737403L962.146921,692.613400L961.963983,692.436164L961.827098,692.314085L961.680461,692.196418L961.597741,692.115408L961.477118,692.047014L961.312618,691.981845L961.264103,691.913790L961.186787,691.855070L961.127270,691.801724L961.040133,691.762577L960.947420,691.728239L960.793611,691.674157L960.667089,691.637273L960.554539,691.602143L960.445799,691.597674L960.320493,691.569332L960.188584,691.569784L960.035824,691.565542L959.998761,691.460264L959.918738,691.388645L959.835497,691.293154L959.682998,691.193081L959.519433,691.102681L959.287913,690.964479L959.166319,690.925615L959.054839,690.878662L959.022509,690.866952L958.907619,690.828597L958.747133,690.784132L958.503323,690.739046L958.398166,690.738197L958.300188,690.598242L958.135501,690.534600L957.983739,690.490192L957.803884,690.416820L957.632475,690.362739L957.520382,690.346050L957.429040,690.332360L957.290441,690.288122L957.120651,690.282012L956.867636,690.275281L956.564058,690.277770L956.309392,690.314258L956.092115,690.341411L955.797749,690.396794L955.586704,690.452799L955.357679,690.536693L955.274935,690.550326L955.156725,690.582798L955.010958,690.619851L954.911700,690.628507L954.792364,690.665843L954.681798,690.703236L954.541415,690.754772L954.445220,690.787526L954.320127,690.848906L954.231590,690.886525L954.099820,690.957464L954.026815,690.985637L953.945003,691.013696L953.855340,691.056180L953.741339,691.107999L953.652837,691.145675L953.560914,691.197720L953.429094,691.268659L953.340605,691.306279L953.235217,691.377501L953.143244,691.429546L953.041147,691.505633L952.936741,691.591281L952.787856,691.715001L952.642248,691.843643L952.505652,691.953050L952.396650,692.057933L952.393487,692.061214L952.308696,692.148615L952.199516,692.272731L952.116948,692.377896L952.011380,692.468353L951.911185,692.573348L951.838777,692.654527L951.706214,692.802516L951.659270,692.869496L951.600276,692.931498L951.553511,692.979243L951.459863,693.093912L951.422901,693.156140L951.364828,693.232624L951.278827,693.352215L951.187262,693.476557L951.111434,693.572106L951.055492,693.658263L951.048077,693.672293L951.007211,693.749286L950.979849,693.798219L950.945515,693.859486L950.881559,693.979246L950.838426,694.104042L950.807075,694.185730L950.756458,694.317427L950.746986,694.317427L950.718424,694.317427L950.708904,694.317427L950.657879,694.385935L950.586443,694.485839L950.514777,694.624098L950.422208,694.795678L950.341671,694.953002L950.230282,695.167576L950.155916,695.392050L950.057505,695.625859L950.016354,695.764401L949.964108,695.931626L949.905906,696.180256L949.892124,696.295095L949.869507,696.429056L949.857792,696.502259L949.841162,696.606067L949.857371,696.630223L949.811085,696.716042L949.726088,696.892488L949.667185,697.088337L949.588691,697.274457L949.572319,697.456390L949.537467,697.623785L949.510278,697.796045L949.468380,698.049598L949.433763,698.365550L949.393314,698.743730L949.347169,698.978106L949.352010,699.256099L949.349082,699.548404L949.344060,699.831093L949.346095,700.027566L949.343068,700.339050L949.319840,700.568844L949.316512,700.750949L949.287822,700.985496L949.277947,701.177048L949.276454,701.388853L949.252152,701.457531L949.289596,701.578312L949.284468,701.674711L949.287661,701.829039L949.296517,701.959268L949.309914,702.070262L949.337308,702.215030L949.366350,702.297172L949.419260,702.408393L949.471147,702.505131L949.491538,702.567983L949.490783,702.664381L949.458167,702.765476L949.449750,702.857009L949.447698,703.002626L949.447241,703.035438L949.450395,703.189767L949.452307,703.368195L949.472758,703.561163L949.496590,703.739705L949.539564,703.855734L949.581575,703.957225L949.642957,704.107085L949.726439,704.237767L949.807954,704.339541L949.875170,704.576239L949.940170,704.822555L949.979917,704.920482L950.040270,705.069098L950.160074,705.325371L950.164104,705.333008L950.309271,705.605971L950.438775,705.876840L950.523872,706.075070L950.599206,706.258818L950.688844,706.437814L950.712530,706.569232L950.719280,706.606796L950.804207,706.824318L950.863596,706.945271L950.877863,706.994093L950.907359,707.095019L950.948042,707.220667L950.976035,707.327476L951.001242,707.423593L950.903925,707.519428L950.805450,707.620071L950.684074,707.706118L950.583675,707.777852L950.448009,707.868595L950.362842,707.950060L950.287787,708.007482L950.184762,708.127416L950.170156,708.141786L950.081915,708.228059L949.904063,708.460404L949.887272,708.460404L949.836850,708.460404L949.820010,708.460404L949.744840,708.548750L949.682394,708.622804L949.569996,708.771026L949.538620,708.829579L949.492973,708.914665L949.477638,708.925810L949.171962,709.148029L948.937313,709.307736L948.850152,709.366968L948.521735,709.667542L947.580321,710.636927L947.492424,710.755109L947.078676,711.311283L947.050264,711.349527L946.964943,711.464202L946.936495,711.502389L946.762064,711.736886L946.467210,712.340019L946.420135,712.436194L945.942815,713.254817L945.741017,713.599465L945.253015,713.726191L944.530236,713.955146L944.494062,713.966574L943.817169,714.293968L943.732117,714.310374L943.601017,714.363554L943.508323,714.411812L943.285078,714.527902L943.034444,714.696945L942.872929,714.841322L942.829207,714.880358L942.680017,715.024736L942.579844,715.121590L942.355839,715.367632L942.230172,715.531584L942.107454,715.531584L941.928094,715.732026L941.679569,715.982594L941.330090,716.343821L940.969579,716.695601L940.690038,717.022714L940.410438,717.311753L940.132028,717.405271L939.759388,717.561756L939.372418,717.780360L938.973068,718.013448L938.580417,718.313293L938.297655,718.578516L937.969358,718.925319L937.704377,719.266748L937.445972,719.617568L937.254177,719.929579L937.080098,720.317683L936.958101,720.671842L936.843938,721.087896L936.713154,721.499366L936.582353,721.777377L936.417206,722.050975L936.238749,722.343752L936.129810,722.603432L936.185312,722.603432L935.957669,722.910580L935.784483,723.368218L935.628586,723.894710L935.571374,724.340242L935.650397,724.827698L935.748588,725.245679L935.791598,725.407769L935.956128,725.725725L935.949949,725.819697L935.996240,726.204017L936.042640,726.825447L936.172252,727.223063L936.229877,727.488574L936.302900,727.615587L936.290344,727.783788L936.222428,728.150571L936.161780,728.482617L936.175571,728.892285L936.220053,729.242096L936.331059,729.675358L936.440525,729.903870L936.601561,730.101944L936.915124,730.420922L937.095653,730.566154L937.167522,730.624032L937.256064,730.680552L937.501301,730.837099L937.765295,730.981539L937.767124,730.982557L937.959663,731.034438L937.966138,731.036192L938.006830,731.098483L938.076607,731.205186L938.105358,731.327279L938.125449,731.412709L938.216166,731.798279L938.221058,731.853045L938.277227,732.482631L938.263519,733.147409L938.247896,733.279007L938.189359,733.770717L938.171332,733.922400L938.171241,733.922796L938.135628,734.374281L938.123701,734.524889L938.159578,734.900787L938.152315,734.953970L938.077973,735.497959L937.998392,736.143280L937.996233,736.305543L937.990554,736.726253L937.985616,736.747526L937.975248,736.747526L937.944144,736.747526L937.933776,736.747526L937.985007,737.079069L938.030679,737.374743L938.114352,738.084282L938.154005,738.420806L938.155870,738.436647L938.161504,738.484003L938.163333,738.499788L938.168879,738.660921L938.308139,738.939736L938.467886,739.243219L938.516224,739.293799L938.745583,739.533859L938.937600,739.813523L938.980535,740.377434L938.969471,740.819138L938.903935,741.357139L938.938563,741.954942L938.939607,741.978875L938.956635,742.367963L938.902250,742.770177L938.890773,742.974029L938.879886,743.168036L938.919614,743.474577L939.016383,743.779308L939.029222,743.819761L939.053954,744.026951L939.079732,744.277820L939.157808,744.721622L939.240481,745.107487L939.333942,745.560851L939.316690,745.826318L939.149949,746.247377L939.094701,746.386787L939.032279,746.637940L938.961965,746.961514L938.922090,747.134249L938.808040,747.627956L938.726298,747.905588L938.624561,748.251003L938.477053,748.603773L938.270000,748.985625L937.935623,749.594642L937.692897,750.131069L937.603203,750.329153L937.451097,750.778393L937.438090,750.892117L937.415244,751.073737L937.358679,751.310974L937.297466,751.567675L937.257844,751.771078L937.201654,751.969558L937.010337,752.419761L936.664701,753.165254L936.448630,753.663833L936.228739,754.215712L935.983665,754.854780L935.783415,755.435743L935.594089,756.026437L935.214676,756.970475L935.012141,757.672578L934.947092,757.964588L935.008651,757.964588L934.885821,758.324665L934.799966,758.658093L934.757231,758.938392L934.748338,759.300902L934.822738,759.760165L934.879079,760.030903L934.945000,760.393470L934.945363,760.420742L934.951122,760.881704L934.970617,761.463127L934.971196,761.481063L935.039902,762.003189L935.202467,762.404573L935.352264,762.689966L935.484393,762.994654L935.552513,763.347606L935.611497,763.816605L935.678739,764.116371L935.730229,764.266084L935.836721,764.575809L935.995395,764.822558L936.203533,765.037227L936.337724,765.151917L936.541285,765.303837L936.911993,765.580406L937.568565,766.084940L937.631222,766.133091L937.954271,766.275506L937.949928,766.294574L937.936902,766.351777L937.932573,766.370789L938.398846,766.522483L939.032085,766.777721L939.176311,766.795544L939.753552,766.866667L940.105286,766.930264L940.439647,767.252608L940.913784,767.711653L941.465243,768.272884L941.966227,768.804524L942.303655,768.973816L942.471614,769.058009L942.869643,769.242465L943.136091,769.367058L943.388000,769.414756L943.494196,769.496969L943.807460,769.739592L943.832296,769.904753L943.880991,770.229023L943.978151,771.028353L944.205648,771.684193L944.207970,771.686966L944.561889,772.109859L944.604537,772.145393L944.732397,772.251936L944.775009,772.287413L944.876935,772.372343L944.881034,772.375738L945.251795,772.514590L945.377075,772.561440L945.412206,772.574623L946.177160,772.649651L946.941947,772.610100L947.684120,772.364308L948.097451,772.109859L948.231002,772.109859L948.701618,771.844660L949.066896,771.482026L949.061272,771.506809L949.044412,771.581101L949.038801,771.605828L949.559972,771.247042L950.297597,770.622888L951.054315,769.974688L951.086243,769.941079L951.556803,769.445197L952.090779,769.101125L952.610550,768.742284L953.125099,768.237295L953.525451,767.765009L953.957729,767.195744L954.219814,766.502623L954.382983,766.095578L954.700234,765.656338L955.009079,765.402119L955.397339,765.037170L955.583935,764.821427L955.858582,764.580505L956.012189,764.387450L956.161268,764.155695L956.250010,763.966544L956.288145,763.885124L956.606883,763.329669L956.837984,762.909443L957.113981,762.407119L957.342324,761.822301L957.393360,761.594959L957.423705,761.541774L957.440230,761.512804L957.489853,761.425896L957.506342,761.396871L957.570545,761.421370L957.595773,761.388949L957.638118,761.334462L957.771030,761.112327L957.806424,761.057274L957.851627,760.986774L957.887703,760.958541L958.498009,760.480718L958.864318,760.268880L958.873505,760.261355L959.175008,760.013419L959.471504,759.743417L959.572900,759.642082L959.882553,759.546291L960.357964,759.412252L960.991487,759.215862L961.553020,758.970869L961.930191,758.717106L962.139703,758.576051L962.559521,758.243585L962.879032,757.988239L962.883164,757.964475L963.028733,757.810351L963.191032,757.622052L963.313083,757.509684L963.436848,757.395618L963.732778,757.047990L963.875315,756.869197L963.984012,756.836210L964.089491,756.798358L964.156496,756.774651L964.274073,756.722315L964.464224,756.641462L964.561881,756.618094L964.737256,756.516194L964.767802,756.498427L964.807177,756.476870L964.885453,756.423742L964.959006,756.409710L965.024990,756.390699L965.259948,756.338702L965.279784,756.334289L965.721593,756.211001L966.188891,756.053709L966.333136,755.981626L966.516833,755.909882L966.708639,755.784388L966.885015,755.668569L967.171536,755.495038L967.469919,755.346063L967.766515,755.148147L968.236084,754.717009L968.556206,754.455723L968.914094,754.145836L969.113868,753.854111L969.185984,753.752041L969.827256,753.395929L970.583393,752.943009L970.892158,752.618073L971.056701,752.609868L971.254648,752.553006L971.437432,752.466666L971.792759,752.636348L971.803314,752.590009L971.804564,752.584521L971.979394,752.721953L972.127833,752.795902L972.387400,752.860686L972.692080,752.993987L972.930820,753.029349L973.498274,753.032461L973.921613,753.123554L974.298104,753.173401L974.722468,753.185509L975.012221,753.157898L975.349284,753.076876L975.634317,752.976051L975.652889,752.965301L976.143097,752.681442L976.721739,752.611622L977.195408,752.469721L977.661223,752.281538L977.806120,752.222921L978.037317,752.199837L978.129883,752.154064L978.303813,752.106764L978.512561,751.989644L978.716008,751.902512L979.090532,751.782111L979.943776,751.299715L980.225335,751.148648L980.581489,750.950620L980.542354,750.892117L980.390405,750.892117L980.632318,750.660821L980.771361,750.686847L980.951139,750.669760L981.064391,750.637623L981.228686,750.590946L981.567993,750.415946L981.875705,750.206546L982.105528,750.030076L982.285737,749.916068L982.398628,749.902999L982.739785,749.815301L983.167780,749.675437L983.200540,749.660444L983.507073,749.519901L983.924502,749.334661L983.952825,749.322101L984.341487,749.162378L984.632377,749.044976L984.922547,748.946925L984.892371,749.079489L985.050529,748.937080L985.397299,748.729661L986.027193,748.395958L986.499030,748.185428L987.004266,747.946495L987.675861,747.661677L988.254869,747.337027L988.736030,746.938656L989.044681,746.537852L989.541168,746.168676L990.175822,745.685720L990.914298,745.102961L991.356300,744.646259L991.713106,744.453609L992.146266,744.204721L992.268869,744.127774L992.636641,743.896878L992.759208,743.819875L993.021207,743.670791L993.696068,743.245378L993.999245,743.014312L994.864219,742.354893L995.942315,741.496830L996.977885,740.562444L997.443999,740.120910L997.484234,740.072649L997.785148,739.711287L998.169891,739.173968L998.388221,738.799593L998.623977,738.395346L998.802979,738.088356L999.265875,737.224191L999.295112,737.165124L999.501500,736.747526L999.521499,736.747526L999.581398,736.747526L999.601348,736.747526L999.685855,736.529420L999.752836,736.356520L999.837389,736.091455L999.901529,735.879516L999.903828,735.869219L999.952722,735.647436L999.969467,735.571623L999.997528,735.168623L1000.000000,734.684606Z M851.939503,621.391804L851.955121,621.405381L852.671806,622.208097L852.395876,623.056123L852.216809,623.606483L852.187546,623.696428L852.158284,623.786373L852.554977,623.786203L852.706257,623.786146L852.536542,624.208377L852.446852,624.774349L852.438395,624.827864L852.416480,624.966175L852.418683,624.986879L852.423931,625.036773L852.451253,625.294783L852.481169,625.577005L852.592187,626.027633L852.595639,626.038098L852.672415,626.269917L852.733917,626.455633L852.739787,626.473339L852.784907,626.537884L853.027853,626.885216L853.034641,626.919440L853.073838,627.117940L853.128644,627.395410L853.128970,627.397107L853.326333,627.819053L853.513474,628.001261L853.549877,628.036390L853.668495,628.150715L853.746493,628.187825L853.749523,628.329642L853.756631,628.444364L853.941426,628.572322L853.997265,628.610958L853.996518,628.619557L853.988774,628.711764L853.965514,628.988328L853.957740,629.080478L853.956351,629.391606L853.916881,629.861126L853.923197,629.904514L853.985199,630.330645L854.057340,630.641772L854.076670,630.677297L854.284908,631.060323L854.450127,631.269627L854.668131,631.422362L854.923980,631.580697L855.016077,631.621427L855.154223,631.682521L855.512896,631.840856L855.653673,631.875306L855.721086,631.891768L855.722034,631.894144L855.724780,631.901271L855.725679,631.903647L855.775183,632.031605L855.887269,632.321632L855.885306,632.433864L855.882581,632.586825L855.862237,633.742462L855.814694,636.485068L855.905092,636.762196L855.929294,636.988469L855.991295,637.122989L856.106649,637.373134L856.249122,637.607044L856.275472,637.650262L856.373707,637.748691L856.462890,637.838069L856.552075,637.927447L856.561824,637.927447L856.859039,638.178949L857.421103,638.390571L857.996310,638.479893L858.912930,638.435091L859.258725,638.354933L859.673431,638.258880L859.903932,638.205423L860.515824,638.242136L860.882441,638.192695L861.050516,638.170012L861.291001,638.151627L861.559519,638.131149L861.893236,638.059477L862.142940,637.927334L862.201441,637.870143L862.284677,637.842481L862.365452,637.832695L862.471353,637.819854L862.609458,637.819854L862.652619,637.819854L862.899436,637.791570L863.095399,637.791570L863.335453,637.791570L863.339516,637.791174L863.556422,637.768942L863.585424,637.768942L863.704962,637.768942L863.776880,637.768942L863.913427,637.748408L863.964907,637.740658L864.018120,637.748408L864.064410,637.755196L864.159007,637.768942L864.180629,637.764360L864.218384,637.756441L864.256152,637.748465L864.293144,637.740658L864.330524,637.740658L864.381327,637.740658L864.556009,637.706717L864.722245,637.667119L864.782514,637.650884L864.847936,637.633178L864.934011,637.602858L864.960283,637.593581L865.041739,637.561676L865.046781,637.559640L865.177882,637.503071L865.269790,637.446503L865.353573,637.383146L865.359505,637.378621L865.454105,637.310796L865.552429,637.350337L865.666279,637.406905L865.768648,637.429532L865.911893,637.486101L865.941760,637.490683L866.209714,637.531355L866.448747,637.576610L866.548238,637.672776L866.661331,637.748521L866.666484,637.751972L866.798585,637.814197L866.899605,637.842481L867.071916,637.859452L867.206387,637.870765L867.333714,637.870765L867.443572,637.902048L867.452980,637.904706L867.579512,637.887736L867.667695,637.887736L867.770576,637.887736L867.857915,637.870765L867.946099,637.870765L868.003124,637.870765L868.048979,637.870765L868.179058,637.859452L868.266397,637.842481L868.356440,637.814197L868.450537,637.768942L868.528077,637.751972L868.547503,637.814197L868.618455,637.927334L868.674647,637.927334L868.902247,638.052067L869.054913,638.131602L869.233853,638.350973L869.429556,638.852678L869.467124,638.948957L869.528751,638.977297L869.606721,639.166009L869.631132,639.225066L869.704261,639.402069L869.728590,639.461069L869.736320,639.479793L869.788017,639.557971L869.970517,639.833911L869.977445,639.838549L870.068231,639.899530L870.162700,639.962943L870.312873,640.063747L870.458249,640.133326L870.561337,640.182597L870.853211,640.322208L871.274523,640.523704L871.322486,640.528851L871.645168,640.563358L872.090456,640.610932L872.175789,640.620039L872.295054,640.603352L872.923274,640.515162L873.132699,640.485690L873.158046,640.482126L873.296100,640.435740L873.786942,640.270674L873.950527,640.215633L874.024243,640.190856L874.193788,640.133835L874.243755,640.105099L874.315098,640.063974L874.370015,640.032352L874.534732,639.937430L874.589614,639.905752L874.639136,639.877242L874.787553,639.791711L874.837039,639.763144L874.956204,639.694470L875.104330,639.580372L875.235141,639.479511L875.366061,639.446192L875.553473,639.393753L875.658999,639.351044L875.814193,639.565381L875.856290,639.623477L876.011766,639.724281L876.118404,639.793408L876.240287,639.872377L876.468152,639.947613L876.590794,639.988059L876.719832,640.030655L876.749358,640.040385L877.133508,640.092032L877.272135,640.110642L877.289465,640.112962L878.071327,640.066859L878.230947,640.057412L878.959560,639.796236L879.566907,639.448964L880.258644,638.930006L880.406499,638.765223L880.617613,638.529729L880.786186,638.281790L881.083590,638.128434L881.173418,638.082104L881.448347,637.927673L881.572440,637.835863L882.027508,637.520211L882.142033,637.446955L882.510701,637.158570L882.600837,637.075019L883.041571,636.666143L883.559393,635.886348L883.652851,635.679760L883.871976,635.195365L884.112218,634.316971L884.140559,634.138498L884.182532,633.874097L884.251006,633.442310L884.264455,633.088757L884.274241,632.830069L884.275646,632.793470L884.279804,632.683501L884.281175,632.646844L884.283237,632.593161L884.284051,632.571325L884.257941,632.444159L884.247839,632.395058L884.229836,632.307320L884.175764,632.043994L884.157730,631.956199L884.150094,631.918921L883.918623,631.432940L883.768511,631.091775L883.716824,630.857582L883.729001,630.806726L883.602913,630.699190L883.578767,630.677297L883.478168,630.586052L883.543185,630.314580L883.555479,630.099676L883.500588,629.927877L883.468695,629.828146L883.489283,629.742218L883.507988,629.664154L883.532504,629.398338L883.545229,629.138235L883.551270,629.013727L883.547240,628.940641L883.540848,628.823883L883.536630,628.747911L883.528270,628.476381L883.528614,628.471064L883.536102,628.350177L883.541981,628.255820L883.494447,627.984347L883.493090,627.973259L883.467651,627.769386L883.367400,627.554424L883.340442,627.491237L883.273399,627.333863L883.229748,627.220047L883.164970,627.051019L883.306290,626.901338L883.335726,626.870112L883.340163,626.864682L883.482060,626.689149L883.623438,626.508242L883.795510,626.219910L883.928763,625.971121L884.043744,625.716674L884.080391,625.462171L884.071336,625.173726L884.005166,624.919222L883.944587,624.707315L883.922680,624.630777L883.883241,624.499651L883.868238,624.449813L883.768109,624.234851L883.711556,624.062316L883.708784,624.053887L883.672546,624.008066L883.592346,623.906808L883.554081,623.845600L883.518080,623.788013L882.971715,623.608916L882.762932,623.501548L882.564065,623.164736L882.190494,622.844442L881.776236,622.548020L881.598567,622.499880L881.336729,622.428942L881.313684,622.430696L880.561257,622.487208L879.872095,622.623427L879.544083,622.740468L879.379903,622.675357L878.976232,622.113570L878.865458,621.947766L878.748800,621.773080L878.551185,621.495891L878.525753,621.457368L878.502822,621.422691L878.461494,621.360125L878.417297,621.289357L878.415955,621.287208L878.411892,621.280702L878.410514,621.278496L878.376704,621.224359L878.327506,621.141033L878.293268,621.082993L878.252625,620.845403L878.220138,620.675752L878.212334,620.637454L878.177572,620.466502L878.164876,620.428601L878.126642,620.314896L878.120579,620.296794L878.114371,620.276656L878.068488,620.127087L878.061821,619.951778L878.050930,619.906410L878.013035,619.748129L878.039053,619.538879L878.027839,619.301345L877.996818,619.024212L877.980779,618.786677L877.967370,618.749341L877.881237,618.509544L877.829305,618.422314L877.803950,618.379717L877.780241,618.339836L877.719003,618.260129L877.689364,618.221492L877.659972,618.183252L877.597730,618.102244L877.564815,618.076562L877.527580,618.047485L877.416487,617.960764L877.311912,617.832691L877.250273,617.757114L877.012010,617.547751L876.707157,617.310102L876.614743,617.248046L876.606079,617.242162L876.480510,617.174279L876.409914,617.031724L876.378669,616.968592L876.284794,616.779198L876.253517,616.716009L876.223537,616.173111L876.180213,615.532857L876.155524,615.167926L876.151234,615.104568L876.066174,614.241654L876.031019,614.094798L875.949886,613.756115L875.938286,613.707635L875.912981,613.621988L875.795256,613.223567L875.755994,613.090741L875.696576,612.508241L875.685743,612.464512L875.570421,611.999281L875.445940,611.846599L875.308357,611.727745L875.175659,611.608948L875.075730,611.456209L875.016104,611.258271L874.969968,611.105588L874.902512,611.009872L874.887181,610.988149L874.886238,610.986791L874.679364,610.851023L874.522819,610.709598L874.479000,610.633681L874.362394,610.431669L874.085326,609.951841L874.002849,609.834458L873.857680,609.691278L873.753107,609.646475L873.706495,609.566824L873.295836,609.204944L872.701297,608.976118L871.623543,608.728736L870.965753,608.730546L870.677824,608.808273L870.053287,609.163931L869.162180,609.645966L869.100949,609.678946L868.773528,609.855219L868.558143,609.855275L868.288460,609.917559L868.057949,609.979786L867.789641,610.036413L867.386477,610.285209L867.057682,610.590518L866.723989,610.895883L866.437895,611.206849L866.051234,611.387873L865.884408,611.507292L865.790485,611.574497L865.491988,611.755521L865.491361,611.756087L865.060008,612.123056L864.773942,612.434078L864.528425,612.739442L864.480819,612.806647L864.267821,613.106977L864.194767,613.210047L864.117454,613.319170L864.007235,613.474511L863.900470,613.655760L863.832653,613.770767L863.807550,613.813477L863.790677,613.842045L863.736664,613.943757L863.713447,613.987372L863.672507,614.064477L863.628440,614.147408L863.514922,614.270221L863.455866,614.334032L863.392443,614.424317L863.328729,614.514999L863.223954,614.707732L863.294896,614.341725L863.270919,614.295282L863.240570,614.232942L863.020465,614.354793L862.911383,614.415153L862.897772,614.422620L862.596898,614.636850L862.551686,614.669038L862.495332,614.717688L862.239109,614.938988L861.893048,615.294133L861.612944,615.573587L861.256231,615.701830L860.667146,615.910911L860.195229,616.138717L859.616124,616.106755L859.024737,615.999273L858.254211,616.076717L857.475563,616.206205L856.646251,616.190931L855.603754,616.361827L855.088005,616.374443L854.494113,616.514622L853.841958,616.716971L853.458285,616.717310L853.350562,616.717367L852.906843,616.972100L852.664497,617.062724L852.441713,617.280007L852.298981,617.419168L851.983379,617.690758L851.654740,618.137543L851.451979,618.448675L851.219887,618.901117L851.144537,619.212135L851.065677,619.658806L851.083409,619.969768L851.140991,620.149149L851.155973,620.195875L851.290066,620.551978L851.494013,621.004192L851.939503,621.391804Z M741.707323,615.664155L741.786061,616.272165L741.890466,616.535213L741.828436,616.535213L742.167735,617.093271L742.553420,617.572471L743.087452,617.795185L743.666187,617.927728L744.428996,617.889260L744.995025,617.670563L745.553881,617.375893L746.162676,616.976908L746.369720,616.882946L746.489095,616.769411L746.686275,616.535213L747.112789,616.114901L747.321231,615.669076L747.465922,615.167134L747.566353,614.669943L747.653531,614.261906L747.665159,613.863372L747.614629,613.507208L747.581047,613.169769L747.470964,612.827804L747.274860,612.460779L746.931225,612.109310L746.345206,611.813618L745.930137,611.613757L745.563140,611.562052L745.022092,611.610023L744.369875,611.789463L743.488650,612.278341L743.163593,612.546991L742.621820,613.092495L742.309407,613.546977L741.981180,614.122518L741.794659,614.659195L741.695660,615.162326L741.707323,615.664155Z M798.039037,580.509739L798.060188,580.425612L797.137443,581.177938L797.050200,581.177938L796.831713,581.304382L796.402345,581.485363L795.841797,581.825091L795.301851,582.237856L795.283860,582.248153L794.990448,582.473035L794.223415,582.819381L793.289299,583.260941L792.247552,583.601742L791.039879,584.037813L791.015314,584.135742L790.246229,584.586408L790.108723,584.702554L789.663879,585.078147L789.354096,585.440670L788.955415,585.844775L788.582996,586.263645L788.337794,586.688115L788.306990,586.741407L788.151742,587.140022L788.101199,587.311100L788.090824,587.338877L787.992751,587.600641L787.968768,587.705302L787.731753,587.911511L787.528310,588.185155L787.485035,588.249648L787.448056,588.249648L787.337069,588.249648L787.300040,588.249648L786.294728,589.095132L785.991580,589.357291L785.259075,589.990624L784.493871,591.017588L784.265240,591.940457L784.215399,592.330241L783.868326,593.024950L783.669867,593.767800L783.665128,593.785451L783.559682,594.388567L783.559438,594.838937L783.642498,595.321214L783.691668,595.321214L783.839178,595.321214L783.888349,595.321214L783.974905,595.926816L784.222575,596.574112L784.387320,597.004453L784.693199,597.985633L785.243189,598.727965L785.324016,598.783631L786.009354,599.255494L786.330787,599.341369L786.614922,599.417231L787.090927,599.880777L787.276428,600.009194L787.353748,600.062711L787.585566,600.223260L787.662854,600.276720L787.682239,600.290128L787.878386,600.346755L788.477165,600.519581L788.540476,600.525747L788.775230,600.548602L788.798451,600.550865L788.808044,600.563310L788.878202,600.654107L788.901553,600.684316L789.067605,600.899174L789.318723,601.224175L789.651064,601.438128L789.731951,601.490173L789.805412,601.655757L789.842927,601.740331L789.955498,601.993996L789.993034,602.078513L789.995354,602.083774L790.041603,602.142155L790.190619,602.330028L790.240276,602.392652L790.251678,602.392652L790.285836,602.392652L790.297189,602.392652L790.354377,602.460254L790.484383,602.614014L790.526521,602.662326L790.584616,602.728853L790.643669,602.796456L790.702710,602.864115L790.833324,603.013688L791.304115,603.475194L791.451028,603.621486L791.670085,603.817335L791.884565,603.994288L792.153561,604.145502L792.162898,604.153479L792.185047,604.154949L792.428304,604.172090L792.754012,604.210106L793.106683,604.195567L793.388259,604.165698L793.567825,604.123213L793.618919,604.111107L793.785115,604.078975L793.804954,604.075128L793.989170,604.063192L794.387600,604.155968L794.472073,604.175598L794.581774,604.203261L794.692531,604.231207L795.024805,604.315045L795.135529,604.342934L795.238589,604.368957L795.341559,604.394753L795.462429,604.424962L795.701371,604.524527L795.930555,604.611872L795.950381,604.619396L796.137345,604.661428L796.292396,604.696332L796.360428,604.705044L796.672707,604.744983L797.003323,604.730388L797.065414,604.710984L797.253422,604.652094L797.307429,604.659335L797.434986,604.676532L797.573367,604.695087L797.811098,604.745605L797.816035,604.746623L797.944346,604.742494L797.980547,604.741362L798.089079,604.737855L798.125245,604.736667L798.121774,604.750753L798.111374,604.792955L798.107916,604.806984L798.382769,604.984730L798.994027,605.234885L799.130873,605.290890L799.420722,605.400298L799.766290,605.530693L799.873525,605.556716L800.169612,605.628504L800.370782,605.649096L800.646149,605.629126L801.233183,605.460433L802.477063,604.837363L802.847733,604.658147L802.903171,604.621828L803.183462,604.437804L803.628134,604.137809L803.888479,603.971207L804.129813,603.816826L804.533605,603.556090L804.546070,603.505516L804.644085,603.411835L804.783993,603.298297L804.954968,603.202862L805.253096,603.070259L805.533358,602.919215L805.609037,602.863945L805.657981,602.828192L805.706925,602.792439L805.804974,602.720877L805.838705,602.696212L806.040292,602.523897L806.085625,602.479771L806.174986,602.392652L806.491610,602.098991L806.704938,601.745252L807.046927,601.553363L807.212111,601.460643L807.831590,601.074545L808.570322,600.487731L808.919073,600.046249L809.589990,599.361905L809.669782,599.268505L809.809252,599.105296L810.173057,598.679483L810.481200,598.042204L810.599493,597.797588L810.675874,597.566776L810.769213,597.284483L810.884241,596.352633L810.968771,596.123347L811.041962,595.924667L811.120202,595.639884L811.137748,595.576184L811.190321,595.384970L811.207786,595.321214L811.239463,595.254402L811.239787,595.251913L811.267430,595.039146L811.276602,594.968204L811.294787,594.827962L811.295026,594.596752L811.295335,594.274574L811.374303,594.176534L811.551579,593.957148L811.797799,593.644303L811.838522,593.587844L812.080111,593.252540L812.193005,593.095948L812.265650,592.995080L812.498920,592.605353L812.597942,592.439878L812.708912,592.254490L812.741203,592.200520L813.011933,591.684296L813.111844,591.493703L813.268376,591.195226L813.866982,590.560877L813.911958,590.380071L814.011693,590.216123L814.156653,589.977782L814.357025,589.570514L814.618639,588.992678L814.751376,588.594687L814.842187,588.249648L814.854811,588.134805L814.957518,587.608958L815.053254,586.993045L815.238853,585.884433L815.159092,585.377138L815.048919,585.109036L814.919037,584.472752L814.798125,583.785154L814.350173,582.862999L813.956670,582.104624L813.876813,581.988081L813.775022,581.817793L813.716973,581.733498L813.658960,581.649259L813.651941,581.639019L813.644874,581.628779L813.582812,581.538656L813.396536,581.268118L813.334449,581.177938L812.869107,580.675445L812.377034,580.288306L812.323454,580.246158L811.320466,580.066025L810.527851,579.461582L810.335701,579.294291L809.912259,579.055999L809.306664,578.888198L808.819315,578.980245L808.730517,579.018546L808.285634,579.210108L807.670846,579.591874L807.400203,579.388658L807.382267,579.375193L807.152614,579.342380L806.577379,579.260177L806.390387,579.243827L806.132846,579.221197L805.631801,579.177295L805.274922,579.146009L804.463305,579.270530L804.111911,579.340513L804.063121,579.367103L803.625731,579.605225L803.538778,579.628591L803.396060,579.667005L803.140755,579.735630L802.986711,579.699479L802.859499,579.669607L802.772554,579.649184L802.729427,579.639057L802.539805,579.533206L802.464089,579.490888L802.134278,579.306681L801.722715,579.310245L801.453130,579.312565L800.790607,579.313809L800.352012,579.481384L799.668481,579.593910L799.208941,579.761937L798.776505,579.920006L798.394604,580.225395L798.039037,580.509739Z M694.091295,536.416313L694.315135,537.297172L695.088664,538.224880L696.167284,538.443070L696.205436,538.438430L698.069143,538.210111L699.167438,537.608729L699.164973,537.618009L699.157620,537.645678L699.155170,537.654902L699.392437,537.415322L699.595933,537.176081L699.776560,536.886818L699.842528,536.819256L699.985595,536.672587L700.228437,536.232581L700.442070,535.767676L700.608092,535.302997L700.678096,534.889017L700.739423,534.462530L700.734429,533.926096L700.734410,533.923607L700.594813,533.585958L700.524831,533.348183L700.392488,533.261210L700.335292,533.223977L700.347635,533.177746L700.384727,533.038827L700.397088,532.992539L699.915324,532.497579L698.414026,532.293642L697.829193,532.348474L697.150937,532.411964L696.031495,532.802975L694.990506,533.578885L694.422419,534.787049L694.238755,535.533469L694.091295,536.416313Z M927.164373,666.709147L927.869412,667.023386L929.092146,667.019369L929.580105,666.871838L929.621520,666.859337L929.675647,667.799677L929.723749,668.912722L929.769469,668.716994L929.786478,668.880138L929.834053,669.337383L929.803855,669.352883L929.649910,669.431683L929.639151,669.437227L929.606900,669.453745L929.596106,669.459232L929.600875,669.438811L929.615182,669.377547L929.619965,669.357069L929.505675,669.386598L929.162845,669.475015L929.159201,669.475920L929.048854,669.517328L928.552825,669.703383L928.538923,669.710623L927.908759,670.036573L927.384203,670.479789L927.152817,670.753921L927.063232,670.859931L926.760088,671.220670L926.747804,671.235265L926.631762,671.241827L926.476266,671.250595L926.245194,671.229552L926.118153,671.217899L925.516819,671.162857L924.661424,671.213995L924.386502,671.243807L923.687413,671.644710L922.880464,671.966927L921.726671,672.628556L921.140979,673.103735L920.774069,673.242216L920.198656,673.575690L920.073532,673.648212L919.195069,673.863626L918.697937,674.126672L918.449308,674.258252L917.458173,674.966496L917.433449,674.985843L917.128645,675.223377L916.988235,675.333007L916.824444,675.460854L916.716608,675.545028L916.303260,676.005105L916.119307,676.209885L915.854904,676.633080L915.544584,677.129701L915.551465,677.100002L915.572010,677.010905L915.578842,676.981206L915.503298,677.098531L915.409475,677.291885L915.292032,677.508488L915.291828,677.508941L915.215521,677.668862L915.112636,677.914543L915.018046,678.179343L914.939232,678.468639L914.893583,678.663294L914.860045,678.896473L914.846529,679.034559L914.854210,679.168628L914.857776,679.230741L914.870966,679.436484L914.952748,679.667005L914.947161,679.691386L914.930414,679.764474L914.924840,679.788799L914.959708,679.868788L915.044791,680.063726L915.070295,680.103721L915.115695,680.174942L914.834225,680.175564L914.232293,682.758136L915.052965,682.837616L916.431720,682.769054L918.065576,682.563536L918.840214,682.592330L919.671952,682.531800L920.430077,682.476645L920.700952,682.420471L920.923480,682.484734L921.427856,682.430088L921.614452,682.382117L921.852477,682.474439L922.350044,682.532083L922.430106,682.541361L922.518606,682.532083L922.952029,682.486771L923.474195,682.277463L923.767100,682.360168L924.322436,682.389867L924.969300,682.269091L925.661189,681.932445L926.167376,681.601569L926.955540,680.786458L927.122412,680.638755L927.229403,680.505534L927.342275,680.424187L927.392463,680.383910L927.440103,680.345725L927.485346,680.309408L927.575504,680.219010L927.619474,680.174885L928.087713,679.430036L928.133783,679.342127L928.144093,679.317858L928.490429,678.501958L928.591541,677.849318L928.599086,677.452372L928.439239,676.862977L928.527904,676.639246L928.892573,675.718978L928.899607,675.701216L929.825989,676.912758L930.110568,677.033872L930.747858,677.689849L930.776076,677.705802L931.281056,677.991477L931.479873,678.103937L932.620144,678.277265L933.039865,678.326424L933.643251,678.397022L933.636814,678.424685L933.617517,678.507615L933.611093,678.535221L934.230911,678.426438L934.854854,678.228446L934.920282,678.239646L935.308206,678.305946L935.725886,678.231274L936.040129,678.175101L936.203106,678.119946L937.208590,678.135615L937.861409,678.087758L938.458662,677.908037L938.782076,677.764747L939.275190,677.546220L940.073373,677.112673L940.063386,677.155609L940.033414,677.284474L940.023441,677.327354L940.374616,677.162737L941.176762,676.786552L941.424876,676.652539L941.771526,676.465182L942.244328,676.209716L942.331946,676.165988L942.742623,675.961038L943.044114,675.810507L943.267836,675.903224L943.887208,676.074911L944.573134,676.110607L944.794446,676.060373L945.479163,676.228270L945.485197,676.229741L945.907435,676.223915L946.456967,676.026884L946.644966,675.938071L946.973123,675.806943L947.436995,675.602390L947.702400,675.479352L947.739870,675.460797L947.834149,675.414128L948.099168,675.282831L948.528286,675.043996L948.803261,674.796676L948.955274,674.761999L949.110860,674.713010L949.285864,674.621425L949.324013,674.607962L949.440004,674.629910L949.681187,674.654914L949.996867,674.676976L950.240941,674.673299L950.480903,674.616843L950.817021,674.557955L951.054331,674.477457L951.289075,674.372974L951.523284,674.287668L951.749870,674.163838L951.876809,674.081304L952.097774,673.937562L952.301598,673.817975L952.574520,673.613818L952.919614,673.330011L953.137307,673.103735L953.113080,673.103735L953.040397,673.103735L953.016169,673.103735L953.357583,672.715559L953.280159,673.048524L953.533369,672.862922L953.816185,672.567292L954.146399,672.321557L954.602671,671.985481L955.115322,671.569361L955.280839,671.416059L955.623896,671.098256L955.829684,670.871980L955.979260,670.707535L956.279544,670.336896L956.418714,670.171659L956.700666,669.771095L956.969757,669.280645L957.210502,668.840201L957.438729,668.544799L957.715424,668.149271L958.106691,667.458625L958.351561,666.673283L958.467056,666.032644L958.492284,665.575853L958.719819,665.068433L958.921698,664.237442L959.039339,663.121234L959.056668,662.081620L959.040499,661.134326L958.948102,660.448604L958.795195,659.701054L958.574039,658.961593L956.563675,658.961593L956.261304,660.255706L955.962906,660.207171L955.702872,660.037862L955.104417,659.838402L954.780592,659.818150L954.468043,659.486604L954.072103,659.213662L953.800000,659.091304L953.506679,658.961593L953.242388,658.777350L952.890702,658.636269L952.634601,658.637570L952.632535,658.629424L952.524743,658.201825L952.171899,657.633314L951.560419,657.075721L950.965475,656.698354L950.847621,656.638109L950.440875,656.561006L950.085172,655.994702L949.927966,655.744444L949.527140,655.122081L949.413413,655.020880L949.123560,654.762873L948.810449,654.310158L948.786408,654.247537L948.734526,654.112169L948.268650,653.502647L947.488934,652.847248L946.963940,652.618600L946.872297,652.578662L946.437749,652.472371L945.913842,652.150045L945.911189,652.148405L945.905966,652.145181L945.810172,652.017733L945.642512,651.890567L945.369315,651.763685L945.105031,651.678380L944.830932,651.650945L944.413378,651.742868L943.798935,651.832528L943.617512,651.820762L943.352369,651.720976L943.026840,651.634992L942.594226,651.538148L942.109721,651.581026L941.648753,651.653264L941.223695,651.890567L940.991575,652.032214L940.767603,652.224093L940.747598,652.241233L940.259569,652.241912L939.978191,652.351428L939.696325,652.498901L939.717442,652.409014L939.576462,652.466261L938.859433,652.815174L938.547096,652.967173L938.030249,653.351101L936.914876,653.396412L936.689790,653.444664L936.376193,653.511867L935.694610,653.657870L935.551402,653.466500L935.424488,653.296965L935.401285,653.265966L935.378082,653.234966L935.350969,653.198706L935.233069,653.047160L935.230988,653.033074L935.182255,652.706959L935.143151,652.572214L935.157444,652.186362L935.168420,651.890567L935.189544,651.890567L935.252965,651.890567L935.274040,651.890567L935.251368,651.388808L935.174845,650.804006L934.920640,650.269890L934.638795,649.886075L934.259050,649.568897L934.094569,649.367854L933.756521,649.004856L933.625251,648.904052L933.084034,648.488502L932.520294,647.997321L931.892880,647.232859L931.789092,647.176518L931.598842,647.073281L931.247328,646.882533L930.745533,646.738510L930.482735,646.663048L929.756888,646.653488L929.129048,646.771263L928.757527,646.919868L928.753457,646.937121L928.741260,646.988824L928.737203,647.006021L928.469988,647.112143L928.276470,647.176122L928.231992,647.176461L927.823386,647.179798L927.160308,647.261822L926.810680,647.392382L926.382360,647.552187L925.697703,648.144285L925.351756,648.464744L925.069395,648.865359L924.650488,649.090840L924.079733,649.439470L924.070523,649.445070L923.500245,650.069469L923.083714,650.614107L922.748112,650.910411L922.479546,651.272108L922.270466,651.566488L922.116741,651.890567L922.040164,652.064628L921.765852,652.687952L921.478280,653.242829L921.210232,653.699448L920.937361,654.109567L920.927284,654.152389L920.921121,654.178580L920.904882,654.247593L920.897095,654.280686L920.895950,654.285550L920.887032,654.323451L920.800634,654.529416L920.686619,654.801113L920.609612,655.154947L920.563731,655.365437L920.548783,655.433998L920.493228,655.627914L920.334396,656.182282L920.287695,656.415117L920.234938,656.677707L920.215711,656.773477L920.215721,656.781566L920.214701,657.083527L920.214334,657.184162L920.210878,657.198870L920.200549,657.242823L920.197106,657.257474L920.302994,657.573295L920.317183,657.615551L920.384116,657.897770L920.498931,658.180499L920.475409,658.475785L920.459658,658.585641L920.405736,658.961593L920.387303,658.961593L920.331859,658.961593L920.313377,658.961593L920.313976,659.362210L920.350734,659.514266L920.535713,660.279691L920.749952,660.803684L920.859991,660.970956L921.126583,661.376042L921.129752,661.381133L921.171185,661.447997L921.181287,661.464289L921.232761,661.547501L921.284763,661.631392L921.295353,661.648532L921.336753,661.715339L921.432921,661.870563L921.529057,662.025730L921.567635,662.088068L921.794215,662.479861L921.847552,662.581741L922.054693,662.977097L922.336553,663.290317L922.523810,663.495943L922.606544,663.835297L922.934836,664.425023L923.241607,664.777049L923.521230,665.007622L923.728041,665.178120L924.219251,665.290352L924.440886,665.292614L924.406235,665.440654L924.302319,665.884660L924.267689,666.032644L924.641027,666.032644L925.760992,666.032644L926.134281,666.032644L926.205314,666.106070L926.210565,666.111500L926.276348,666.179496L926.439338,666.348013L926.503232,666.414029L926.519387,666.421270L927.053729,666.659763L927.164373,666.709147Z M902.075036,658.961593L902.031798,658.961593L902.017385,658.961593L902.068500,659.274925L902.297986,659.802594L902.499059,660.517505L902.504474,660.536794L902.831002,661.129178L903.219666,661.659959L903.228989,661.662844L904.460360,662.042022L904.522540,662.637065L904.287173,663.028518L904.077800,663.766736L904.010865,664.291918L903.936528,664.874856L904.065587,665.351955L904.027746,665.858809L904.051437,666.032644L904.043150,666.032644L904.018241,666.032644L904.009906,666.032644L904.060615,666.356555L904.134465,666.703943L904.159103,666.820078L904.260537,667.235801L904.411813,667.551340L904.465747,667.594446L904.567683,667.847760L904.726026,668.187229L904.814048,668.389518L904.859665,668.494283L904.869572,668.517080L905.016957,668.741884L905.175989,669.036720L905.404928,669.224528L905.428187,669.235559L905.778870,669.401702L906.324909,669.608121L906.326443,669.608687L906.656412,669.656261L906.846742,669.683640L907.307255,669.581703L907.865719,669.444072L908.257435,669.301066L908.617842,669.361255L908.697089,669.354127L909.093870,669.318263L909.512976,669.239406L910.007124,669.430439L910.570622,669.492438L911.227152,669.372173L911.972966,668.940271L912.701906,668.389631L912.952238,668.200522L913.681070,668.004059L914.453442,667.741411L914.697616,667.572723L915.718838,666.866974L916.554683,666.032644L917.050276,665.401509L917.480786,664.853190L918.448247,663.438017L918.902168,662.774017L918.915379,662.717675L918.955041,662.548535L918.968267,662.492136L919.005744,662.332331L919.118187,661.852914L919.155673,661.693108L919.111553,660.397071L919.109329,660.332187L918.672313,659.313052L918.550331,658.961593L918.339920,658.477878L918.054510,657.832830L917.632790,657.253854L917.561590,657.156161L917.325000,656.652138L917.127117,656.211698L917.068430,656.081082L916.944203,655.804633L916.869061,655.709824L916.784018,655.602515L916.450177,655.181251L916.028395,654.648944L915.569451,654.247593L915.337814,654.045023L915.178367,653.905582L914.889247,653.775023L914.760798,653.724168L914.567709,653.650177L914.309819,653.585576L914.097550,653.497725L913.827187,653.409932L913.537001,653.252559L913.424460,653.218052L913.161154,653.137160L912.766920,653.082119L912.458479,653.101239L912.191790,653.055306L911.868038,653.004847L911.651852,652.972773L911.456076,652.968474L911.003835,652.932270L910.689778,652.956085L910.570542,652.891371L910.395656,652.854602L910.159016,652.794753L909.866725,652.762848L909.506286,652.735809L909.249279,652.764206L908.996211,652.783383L908.574695,652.837009L908.548317,652.838084L908.117716,652.854998L907.255402,652.835142L906.865028,652.960158L906.501397,653.076519L905.647705,653.564928L905.424911,653.677047L904.297582,654.243973L903.623116,654.798002L902.837704,655.780761L902.441261,656.665997L902.217178,657.383961L902.215822,657.388260L902.016061,658.017299L902.089399,658.961593L902.075036,658.961593Z M758.739505,604.789957L758.590204,605.527921L758.486182,606.400580L758.442403,607.172880L758.543451,607.768567L758.754294,608.292974L758.979425,609.023806L759.249196,609.347105L759.408358,609.463979L759.386087,609.463979L759.319175,609.463979L759.296855,609.463979L759.426004,609.680078L759.714398,609.869361L760.119658,609.998851L760.194435,610.045351L760.592173,610.292506L761.042577,610.454580L761.507401,610.663436L761.990120,610.694889L762.515874,610.605169L763.125663,610.473983L763.529187,610.312589L763.607511,610.281192L764.006481,610.055081L764.644656,609.463979L764.988008,609.059219L765.226517,608.731112L765.250339,608.683366L765.567757,608.046158L765.726276,607.637041L765.964396,607.347061L766.225537,606.690560L766.473486,606.395828L766.696166,606.158231L767.025711,605.806532L767.364735,605.435768L767.563328,605.223458L768.260683,605.090687L768.483083,605.049673L769.053227,604.944451L769.639633,604.663860L770.356203,604.317873L770.916069,604.056177L771.674416,603.563388L771.900826,603.379419L772.235708,603.107200L772.637587,602.711486L772.858241,602.392765L772.850167,602.392765L772.825957,602.392708L772.817848,602.392652L773.156939,601.828242L773.414913,601.178692L773.650700,600.323561L773.654972,599.629318L773.677884,599.212556L774.095676,598.709409L774.544901,598.354253L775.077011,597.777845L775.542069,597.125743L775.541585,597.113128L775.587412,596.943186L775.772893,596.688217L775.880769,596.507866L775.913688,596.440828L775.953597,596.331532L775.966437,596.227609L775.986784,596.148974L776.006070,595.993006L776.022254,595.744938L775.921806,595.599095L775.908465,595.578786L775.880439,595.524307L775.857222,595.413766L775.854089,595.321214L775.844914,595.209314L775.866880,594.931319L775.776453,594.540915L775.697937,594.201992L775.519247,593.623485L775.209596,593.122933L774.810653,592.757759L774.624178,592.518740L774.573722,592.216021L774.180261,591.454781L773.911811,591.209766L773.401095,590.965485L772.909416,590.830050L772.248231,590.654166L771.651675,590.630292L771.321652,590.662651L771.179088,590.698123L771.084605,590.707400L771.020926,590.731218L770.795815,590.838762L770.156375,591.173220L769.436338,591.897744L768.768375,592.983369L768.411022,593.938252L768.160627,594.186152L767.800816,594.867959L767.566787,595.321214L767.510162,595.437695L767.357275,595.803263L766.552911,596.057045L765.966421,596.380353L765.272084,596.853463L764.594618,597.326516L763.881079,597.930475L763.327840,598.496644L763.019842,598.545352L762.949511,598.573751L762.135992,598.947915L761.652085,599.352005L761.176607,599.810855L760.717228,600.487844L760.423094,601.137565L760.224948,601.590530L760.003281,601.889565L759.738466,602.311076L759.687201,602.392652L759.655359,602.473266L759.656364,602.550089L759.650402,602.618314L759.550923,602.789328L759.354149,603.032809L759.248608,603.156869L759.043328,603.592239L758.901275,604.037622L758.869201,604.306107L758.739505,604.789957Z M911.967374,637.115295L911.816281,637.229111L911.745216,637.282625L911.259088,637.748521L911.315329,637.748521L911.307679,637.763399L910.995576,638.090759L910.955895,638.057554L910.823009,637.996403L910.811936,637.991256L910.719325,638.000816L910.362033,638.019992L909.961678,638.039169L909.664587,638.077353L909.512111,637.973097L909.313168,637.921111L909.088928,637.927334L908.962335,637.930841L908.830172,637.869351L908.565291,637.748521L908.510715,637.748521L908.140106,637.620111L907.585713,637.597314L907.225167,637.602575L906.902205,637.489947L906.526868,637.344397L906.506527,637.429928L906.000296,637.456572L905.423944,637.383995L905.075408,637.332178L904.871719,637.301858L904.744442,637.231430L904.352777,636.877652L903.832038,636.534226L903.135969,636.248951L902.443983,636.129932L902.149948,636.136550L901.723880,636.258002L901.570574,636.296978L901.447297,636.264564L901.267531,636.194533L901.006228,636.063294L900.715627,636.031842L900.694420,636.120881L900.201847,636.137738L899.577806,636.245840L899.078566,636.470643L898.445404,636.864075L898.244648,637.035647L898.091843,637.166320L897.888458,637.340098L897.646320,637.578307L897.638913,637.585548L897.559086,637.704794L897.544469,637.726686L897.529816,637.748521L897.268226,638.058402L897.052047,638.431131L896.885205,638.855393L896.821108,639.116795L896.744263,639.430183L896.689760,639.863326L896.666629,640.164609L896.668165,640.343421L896.425065,640.589266L896.070786,640.840316L895.848486,641.045263L895.609112,641.265992L894.958242,641.988990L894.350349,642.765785L894.163410,643.004559L893.676500,643.835093L893.565839,644.023861L893.507301,644.101416L893.398488,644.245665L893.123773,644.609568L893.070893,644.677337L892.959777,644.819549L892.981142,644.819549L893.045236,644.819549L893.066600,644.819549L892.818671,645.291440L892.593807,646.179674L892.613101,646.645625L892.613945,646.666047L892.758985,647.161074L893.062722,647.804085L893.590867,648.575448L894.140162,649.023920L895.076534,649.194812L895.638315,649.281984L895.956848,649.285378L896.166227,649.287584L896.674372,649.360783L897.273525,649.322543L897.388623,649.278307L897.570656,649.281758L897.567417,649.295447L897.557715,649.336459L897.554489,649.350092L897.977715,649.394045L898.439945,649.452537L898.877056,649.375434L899.228968,649.307949L899.932011,649.269935L900.508313,649.251211L901.143285,649.261676L901.656869,649.175127L902.149918,649.132927L902.213700,649.127440L902.735004,649.157251L903.124420,649.157873L903.171454,649.157930L903.506554,649.143901L903.749747,649.057182L903.781952,648.920966L904.184240,648.813034L904.545121,648.695542L904.945072,648.611991L905.367542,648.596321L905.918342,648.580313L906.185447,648.589363L906.305894,648.609728L906.440251,648.632412L906.640354,648.835774L906.925426,649.150576L907.315011,649.474881L907.823479,649.711562L908.254446,649.696063L908.523735,649.695497L908.963514,649.806201L909.163270,649.883416L909.408583,650.130506L909.598213,650.232159L909.605692,650.200481L910.162365,650.464654L910.320856,650.527388L910.595722,650.636112L910.777563,650.656194L910.943141,650.884955L911.185575,651.162535L911.519811,651.285175L911.790706,651.325847L911.856973,651.335803L911.923190,651.345759L912.017190,651.359901L912.410621,651.489273L912.465387,651.507262L912.866117,651.809788L913.016179,651.867205L913.046697,651.878914L913.077228,651.890567L913.089824,651.890567L913.127465,651.890567L913.140012,651.890567L913.330612,652.007211L913.363384,652.027236L913.712288,652.026670L913.888237,652.058914L913.993784,652.143427L914.061861,652.197902L914.202382,652.218889L914.338555,652.239197L914.407084,652.241856L914.569012,652.248135L914.913678,652.266180L915.034520,652.266067L915.101547,652.265954L915.249237,652.247173L915.266037,652.175897L915.316480,651.961900L915.333296,651.890567L917.198003,651.890567L917.569488,651.762780L917.959599,651.485257L918.305784,651.227136L918.837894,650.886370L919.223040,650.647822L919.616295,650.628702L920.057317,650.502385L920.525294,650.210380L921.130794,649.801562L921.429516,649.577665L921.730498,649.470752L922.086301,649.232374L922.044132,649.411185L922.250808,649.254661L922.589074,649.002537L922.909195,648.735309L923.444620,648.458465L924.478341,647.805838L925.028146,647.323312L925.375509,646.924337L925.527503,646.888699L925.972290,646.737436L926.530348,646.476034L927.028457,645.992376L927.515635,645.390718L927.791257,644.819549L927.894698,644.819549L927.980290,644.628122L928.126464,644.294766L928.252354,643.687111L928.250573,643.068368L928.250919,642.619669L928.331760,642.233478L928.320500,641.600423L928.088189,640.964427L927.798068,640.441058L927.383514,639.982176L926.931063,639.768461L926.506142,639.602377L926.205894,639.352854L925.849233,639.102653L925.424383,639.007505L924.945458,638.991892L924.509777,638.981936L924.393546,638.948335L924.292509,638.907888L924.046765,638.809516L923.540415,638.718045L923.200465,638.759962L922.893325,638.797806L922.734586,638.730886L922.392823,638.644506L922.062346,638.658252L921.509637,638.800295L920.742560,639.037260L919.990788,639.264834L919.724417,639.271226L919.613418,639.273828L919.364699,639.292552L919.152624,639.044614L918.785488,638.848152L918.621669,638.773143L918.482697,638.704921L918.274486,638.679296L918.128812,638.673809L917.923931,638.634154L917.535395,638.653274L917.097427,638.747743L916.675771,638.904155L916.663664,638.676467L916.599488,638.442784L916.529930,638.100150L916.419561,637.748521L916.335512,637.594542L916.199684,637.376415L915.808665,637.044302L915.157714,636.655169L914.288674,636.370234L913.924235,636.355866L913.344071,636.417242L912.820961,636.627676L912.323861,636.846370L911.967374,637.115295Z " data-aland="-2147483648" data-awater="-2147483648" data-division="9" data-funcstat="A" data-geoid="15" data-intptlat="+19.8281713" data-intptlon="-155.4950401" data-lsad="00" data-mtfcc="G4000" data-name="Hawaii" data-region="4" data-statefp="15" data-statens="01779782" data-stusps="HI"/></g><g fill="#000" font-family="Arial" font-size="12px" id="mylayer-label" stroke="none"><text text-anchor="middle" y="646.595483373"><tspan dy="0" x="857.936238069"><![CDATA[Hawaii]]></tspan></text></g></svg>