<?xml version="1.0" encoding="utf-8"?><!DOCTYPE svg  PUBLIC '-//W3C//DTD SVG 1.1//EN'  'http://www.w3.org/Graphics/SVG/1.1/DTD/svg11.dtd'><svg enable_background="new 0 0 1000 1001" height="1001px" pretty_print="False" style="stroke-linejoin: round; stroke:#000; fill: none;" version="1.1" viewBox="0 0 1000 1001" width="1000px" xmlns="http://www.w3.org/2000/svg" xmlns:xlink="http://www.w3.org/1999/xlink"><defs><style type="text/css"><![CDATA[path { fill-rule: evenodd; }]]></style></defs><metadata><views><view h="1001" padding="0" w="1000"><proj flip="auto" id="robinson" lon0="-71.4133040076"/><bbox h="27.68" w="47.89" x="-992.46" y="-719.11"/></view></views></metadata><g class="" id="mylayer"><path d="M0.000000,494.315202L0.750854,494.323698L2.066018,494.338650L2.671310,494.328116L2.692855,494.327776L3.803245,494.292774L4.001115,494.286317L5.527921,494.272385L7.119669,494.232286L8.227480,494.204080L8.278579,494.203061L8.431376,494.198983L8.482026,494.197624L8.814962,494.191167L9.813662,494.170438L10.146430,494.163642L10.900797,494.148350L13.164010,494.102134L13.918208,494.086502L14.438224,494.076307L15.998449,494.044364L16.518412,494.033490L16.623430,494.031451L16.938265,494.024315L17.043116,494.021936L17.055637,494.021596L17.517433,494.015140L18.169862,494.005285L18.893952,494.019557L19.350142,494.028053L19.358037,494.028053L19.969859,494.039947L20.014693,494.039947L20.031496,494.040286L20.063298,494.041306L21.020501,494.070870L21.059801,494.072230L21.549792,494.087522L23.137051,494.136796L23.666176,494.153107L24.114895,494.167040L25.460831,494.207818L25.909498,494.221071L27.093451,494.265588L29.651942,494.361418L30.646359,494.394381L31.831870,494.433461L32.310923,494.449432L33.748197,494.497008L34.227083,494.512640L34.250990,494.513659L34.293278,494.515358L34.315166,494.513999L34.323343,494.513999L34.347770,494.512640L34.425330,494.509241L34.880266,494.521475L36.472719,494.562934L37.003613,494.576527L38.104871,494.605412L39.509839,494.641773L41.399458,494.715175L42.495692,494.757314L42.719390,494.762071L43.390713,494.775664L43.614525,494.780082L43.629356,494.780422L43.651235,494.780762L43.673565,494.781441L43.688228,494.781441L43.717324,494.782121L43.804165,494.783820L43.833095,494.784160L43.844709,494.784840L43.862359,494.785179L43.880009,494.785519L43.891852,494.785519L43.901607,494.785859L43.915706,494.785859L43.930254,494.786199L43.939841,494.786199L44.053867,494.787558L44.192681,494.794015L44.947150,494.826978L45.198396,494.837853L47.329880,494.893924L47.500232,494.898002L47.527690,494.899361L47.774495,494.907517L48.079934,494.919071L48.492792,494.934024L49.731366,494.978881L49.863140,494.983638L50.143942,494.993833L50.492464,495.006407L51.537750,495.044128L51.885991,495.056701L51.890388,495.057041L51.902963,495.057381L51.907193,495.057381L51.913000,495.057721L51.930254,495.058400L51.935893,495.058400L52.358965,495.072333L52.781755,495.086266L53.721432,495.120249L54.065726,495.132823L56.266661,495.211323L56.370185,495.215401L56.453100,495.224577L56.682574,495.249044L56.719376,495.254481L56.928348,495.285406L57.050116,495.295601L58.421238,495.315311L58.429301,495.315651L58.493516,495.320069L58.502593,495.320748L58.523962,495.321768L58.598778,495.326525L58.686458,495.329924L58.751191,495.331963L58.794608,495.333662L58.838025,495.335361L58.952097,495.339099L59.066170,495.342837L59.073669,495.343177L59.096166,495.344196L59.103497,495.344196L59.110715,495.344536L59.132084,495.345556L59.139134,495.345556L59.893817,495.372063L62.158267,495.451243L62.912786,495.477410L62.957445,495.478769L63.044280,495.482168L63.437917,495.496441L63.569130,495.501198L63.964063,495.515811L65.148528,495.558969L65.543294,495.573242L65.893119,495.586156L66.942144,495.624557L67.291801,495.637131L67.359591,495.636791L67.563136,495.634412L67.630759,495.633732L67.693008,495.636451L67.879756,495.644607L67.941724,495.647326L69.088897,495.707476L69.274343,495.716991L71.316205,495.787337L72.543849,495.850546L72.634008,495.854963L73.703708,495.874674L73.720795,495.875014L73.771491,495.876033L73.788410,495.876033L73.810176,495.876713L73.875703,495.878072L73.897583,495.878412L74.001370,495.887587L74.311882,495.915114L74.333588,495.916813L74.415501,495.923950L74.484793,495.928368L74.692670,495.941621L74.762077,495.945699L74.892567,495.948418L75.089148,495.952496L75.595096,495.962351L76.067802,495.977983L76.393449,495.988178L77.424523,496.020463L77.634686,496.026919L80.017091,496.097605L80.517480,496.115616L81.546739,496.151639L82.083009,496.166932L82.263739,496.172029L83.689374,496.217567L84.224510,496.234559L84.265222,496.235918L84.326292,496.237957L84.387361,496.239996L84.428188,496.241016L84.441777,496.241695L84.462134,496.242375L84.482490,496.243055L84.495911,496.243395L84.523203,496.244414L84.564030,496.245434L84.605025,496.246793L84.632149,496.247473L84.708217,496.250191L84.822407,496.253590L84.935918,496.257328L85.011933,496.259367L85.063979,496.261406L85.551231,496.279077L87.168626,496.337189L87.707872,496.356220L88.331137,496.378650L89.265725,496.411954L90.200201,496.445597L90.823299,496.467687L90.953609,496.473464L91.345051,496.490116L91.475194,496.495554L91.637986,496.502011L91.714223,496.505069L92.431203,496.532256L92.670179,496.541092L93.318423,496.565560L94.603015,496.613817L95.265730,496.630469L95.916829,496.646442L96.964926,496.672609L97.530142,496.686543L100.098790,496.779659L100.938261,496.809905L100.995646,496.817041L101.141024,496.820779L101.165047,496.821459L101.237457,496.822479L101.261594,496.822819L101.495101,496.831994L101.869863,496.846268L102.195513,496.858162L102.429080,496.866318L102.490486,496.869037L102.673973,496.876853L102.735212,496.879232L102.859717,496.884669L103.046138,496.892146L103.232728,496.899962L103.357065,496.905060L103.764948,496.915595L104.111082,496.924431L104.981477,496.965891L105.311794,496.981524L105.387199,496.981184L105.451271,496.980165L106.003694,496.992739L106.283670,497.002934L108.961913,497.099789L109.854568,497.132074L110.059885,497.139551L110.367718,497.150765L110.675834,497.161980L110.880869,497.169457L111.969088,497.208878L112.201020,497.217714L112.774001,497.238785L114.557401,497.304034L116.159889,497.367245L117.478512,497.419242L117.510599,497.420261L118.074355,497.451187L119.861038,497.548722L119.942179,497.553140L120.463322,497.562316L121.015706,497.572511L122.257516,497.594601L122.670981,497.607855L123.220804,497.624848L123.265916,497.626547L123.400750,497.630625L123.445695,497.631984L123.952662,497.647278L123.972785,497.650336L124.044262,497.660871L124.115684,497.670727L124.300126,497.697575L124.867554,497.712528L125.159841,497.719665L125.185839,497.720344L125.351296,497.724762L125.924928,497.739716L126.116215,497.744473L126.156366,497.745833L126.463792,497.762485L127.422471,497.789673L128.529971,497.821279L128.543225,497.821279L128.579824,497.822298L128.738964,497.827056L129.628448,497.852885L130.436786,497.875994L131.939442,497.899784L132.304660,497.905561L133.197852,497.919495L133.722199,497.933428L135.294678,497.975230L135.681820,497.985425L135.753500,497.986105L135.819541,497.986785L135.937522,497.988144L136.291412,497.991543L136.409225,497.992562L136.463422,497.993242L138.826221,498.051356L138.979538,498.060872L139.842578,498.069708L139.910592,498.070387L143.302802,498.105392L143.316056,498.105392L144.752313,498.120345L145.093515,498.123744L145.149517,498.124083L145.203151,498.124763L145.954360,498.131560L148.298616,498.153310L148.329522,498.153650L153.312663,498.065969L154.559251,498.043539L154.781352,498.061551L154.966412,498.094177L155.703282,498.221280L155.781449,498.221960L157.884558,498.241332L157.989965,498.242351L159.317211,498.256965L159.436322,498.258324L159.817004,498.261723L160.184432,498.265121L160.204736,498.265121L161.095362,498.273277L162.386411,498.284832L166.259559,498.319497L167.550328,498.331052L168.011884,498.335470L169.396780,498.348045L169.756428,498.351103L169.858168,498.352123L171.808564,498.369455L171.827344,498.369795L174.052536,498.401061L174.118314,498.394944L174.151252,498.394264L175.526111,498.385428L176.713485,498.382369L177.203537,498.381690L177.262697,498.382709L177.439612,498.385768L177.498490,498.386788L177.603392,498.386788L177.700962,498.386788L177.881858,498.399022L177.932891,498.402421L180.128354,498.549576L181.671852,498.652892L181.757338,498.658669L181.978751,498.662747L182.119122,498.665466L182.540461,498.672943L182.680664,498.675322L183.132232,498.683478L184.486372,498.707948L184.937659,498.716104L184.988359,498.717124L185.140574,498.719843L185.191388,498.720522L185.616281,498.728339L186.891300,498.750769L187.316025,498.758246L187.416862,498.760285L187.448050,498.760625L187.721304,498.760625L187.822823,498.760625L188.066750,498.760625L188.163529,498.761305L188.185243,498.761305L188.256024,498.761305L190.207554,498.783735L190.245792,498.784075L190.283748,498.784415L190.321590,498.785094L190.359264,498.785434L190.563876,498.787473L191.187240,498.794610L187.652776,507.579601L187.089318,508.980752L186.845164,509.587862L186.112762,511.409238L185.868649,512.016379L186.089550,511.989183L186.752595,511.906576L186.973441,511.878701L188.253264,511.746462L188.272278,511.744422L192.281197,511.241307L192.308845,511.237907L192.391618,511.227369L192.419097,511.223630L192.600274,511.200514L193.582560,511.070657L193.813447,511.039722L195.237697,510.850716L196.708263,510.655592L197.073547,510.607321L198.237276,510.452650L199.309016,510.318376L199.472043,510.316676L199.546786,510.316676L199.547068,510.316676L199.552145,510.316676L200.584679,510.180702L200.644193,510.048808L201.106215,509.026642L201.230064,508.752663L201.306848,508.522535L201.318921,508.521855L201.393498,508.486844L201.461613,508.438235L201.522606,508.397444L201.612346,508.368551L201.766060,508.335579L201.780671,508.334899L202.117908,508.318243L202.255405,508.300907L202.400136,508.275413L202.515234,508.228844L202.664016,508.145563L202.730156,508.096955L202.785602,508.034750L202.837455,507.963027L202.879906,507.881447L202.880656,507.840317L202.846816,507.805646L202.777787,507.766555L202.754732,507.725765L202.753503,507.719307L202.742374,507.665600L202.752435,507.622771L202.769028,507.585720L202.768917,507.521816L202.750736,507.343021L202.714412,507.248185L202.697625,507.204676L202.677815,507.179523L202.665415,507.143152L202.648300,507.093865L202.645299,507.037780L202.658939,506.919151L202.679719,506.876322L202.751695,506.751915L202.766278,506.735260L202.872944,506.610853L202.900133,506.579241L202.940020,506.544231L203.058693,506.454835L203.167304,506.408268L203.203028,506.398411L203.326825,506.344366L203.369701,506.309695L203.549622,506.163536L203.603122,506.087737L203.670258,505.957554L203.727963,505.895351L203.758687,505.874277L204.064296,505.567006L204.064477,505.560548L204.064204,505.555449L204.128943,505.472173L204.156189,505.409972L204.159766,505.367144L204.151735,505.287268L204.102104,505.254298L203.971051,505.297125L203.946836,505.306302L203.924371,505.314460L203.882557,505.323977L203.825426,505.320238L203.696100,505.253958L203.608471,505.180200L203.549170,505.040162L203.549745,504.974222L203.603242,504.632287L203.592968,504.488172L203.556966,504.466759L203.376780,504.423592L203.264756,504.396741L203.167766,504.383145L203.099089,504.400480L203.026087,504.437528L202.877448,504.533038L202.811986,504.520462L202.833206,504.455202L202.831949,504.434469L202.846656,504.412376L202.880198,504.363431L202.914540,504.338279L202.971593,504.264523L203.017288,504.231553L203.125944,504.190766L203.194648,504.159836L203.236773,504.105453L203.315560,503.934489L203.324405,503.881806L203.318535,503.854615L203.300985,503.829463L203.266605,503.815867L203.240105,503.810769L203.207686,503.803971L203.166447,503.778820L203.154798,503.735994L203.170979,503.681612L203.200531,503.625190L203.238799,503.582364L203.271825,503.567070L203.316568,503.588482L203.347128,503.652381L203.412970,503.700985L203.489419,503.718659L203.522483,503.742112L203.532252,503.765224L203.528049,503.868210L203.513091,503.932449L203.512160,504.006205L203.545205,504.010284L203.590023,503.992610L203.782855,503.882146L203.967979,503.761825L203.980978,503.748230L204.159683,503.621791L204.217676,503.557893L204.222759,503.554494L204.269643,503.518806L204.350378,503.478019L204.362113,503.476660L204.414977,503.469522L204.449843,503.464764L204.515135,503.477000L204.543609,503.482098L204.705379,503.567749L204.760343,503.612614L204.786755,503.634027L204.817952,503.690109L204.829985,503.828103L204.813427,503.903899L204.785870,503.979694L204.787177,504.034076L204.823765,504.073164L204.872386,504.102394L204.929164,504.113951L205.061503,504.106133L205.102405,504.101035L205.167004,504.092538L205.227223,504.073504L205.269270,504.059908L205.367208,504.019121L205.444374,503.956921L205.456079,503.941287L205.519924,503.853935L205.575793,503.809070L205.640553,503.745171L205.668174,503.694527L205.675257,503.647963L205.659671,503.539199L205.665512,503.463404L205.687869,503.422618L205.726490,503.371975L205.731803,503.366197L205.891552,503.181639L205.919024,503.150030L205.997542,503.059281L206.000991,503.054863L206.025706,503.020534L206.045499,502.993344L206.091702,502.900556L206.125620,502.831900L206.168711,502.773780L206.300012,502.659240L206.368526,502.608598L206.415183,502.573590L206.476569,502.534164L206.513445,502.510712L206.541965,502.492019L206.605428,502.457351L206.622327,502.439677L206.632671,502.428122L206.651783,502.402971L206.719275,502.297948L206.769080,502.239149L206.873269,502.115434L206.891397,502.074649L206.929691,502.018229L206.986391,501.952293L207.063603,501.895874L207.174857,501.822801L207.293850,501.744290L207.329841,501.711662L207.388207,501.659321L207.454936,501.598824L207.551942,501.485646L207.579474,501.453018L207.603501,501.424129L207.644771,501.374848L207.691299,501.319109L207.755570,501.217827L207.789800,501.163448L207.838173,501.086977L207.847283,501.072363L207.883917,500.885775L207.873938,500.854847L207.870014,500.842952L207.866410,500.782795L207.830100,500.691371L207.794483,500.648548L207.781730,500.623397L207.729257,500.520418L207.693768,500.470458L207.652766,500.413360L207.558746,500.300525L207.461739,500.215220L207.457007,500.212501L207.310832,500.120738L207.234787,500.073157L207.228477,500.070098L207.050595,499.983773L206.959798,499.952506L206.866070,499.919879L206.746247,499.878416L206.724843,499.864821L206.730064,499.849188L206.768932,499.817241L206.813960,499.779516L206.897645,499.620122L206.927785,499.581378L207.011424,499.499812L207.151518,499.391057L207.176152,499.369646L207.254936,499.262931L207.298455,499.190881L207.305960,499.161654L207.330528,499.062756L207.380327,498.899285L207.425340,498.896227L207.546162,498.889090L207.587678,498.886371L207.655309,498.882293L207.858316,498.869718L207.925779,498.865300L207.972484,498.862241L208.620168,498.892828L208.693762,498.896227L209.684671,498.881953L210.332043,498.872097L210.464134,498.870058L211.482792,498.855444L216.369707,498.783055L216.957799,498.774219L217.037776,498.772860L217.812329,498.761305L217.876682,498.760285L218.719566,498.791552L218.724811,498.791891L218.795926,498.794270L218.828981,498.791552L219.165911,498.761305L219.173865,498.760285L219.264295,498.658329L219.473254,498.658329L219.778091,498.658329L219.894274,498.658329L220.146660,498.658329L220.748157,498.658329L222.127680,498.658329L222.552083,498.658329L223.153298,498.658329L223.182062,498.658329L223.240717,498.658329L223.265520,498.665126L223.291565,498.671583L223.370373,498.692314L223.394061,498.692314L224.194087,498.690615L224.258777,498.690275L224.285450,498.692314L226.635643,498.862921L227.052436,498.894188L227.081083,498.896227L227.112774,498.899285L227.970183,498.982550L229.184996,499.100140L229.212908,499.103538L229.968853,499.190881L230.651100,499.270068L230.656231,499.270748L233.299029,499.571182L233.321810,499.573901L234.889456,499.710865L234.902652,499.711884L237.678931,500.054464L238.689611,500.177155L238.773522,500.185991L238.816719,500.190070L239.184178,500.221337L239.188859,500.221677L239.687671,500.255663L239.843994,500.268918L240.313303,500.307663L240.469458,500.320577L240.508482,500.323636L241.513456,500.383112L244.645413,500.568339L245.679721,500.629515L245.689591,500.629515L245.756426,500.629515L245.956932,500.629515L246.014461,500.629515L246.023767,500.629515L246.046609,500.629515L246.069225,500.630195L246.204978,500.633254L246.250154,500.633933L246.494928,500.639031L247.229474,500.653646L247.474079,500.658404L247.515194,500.659423L247.637919,500.661802L247.678865,500.662482L247.727312,500.663502L247.813652,500.670979L248.214787,500.705305L248.348386,500.716521L248.383464,500.719580L248.435572,500.723998L248.487850,500.728756L248.522476,500.731475L248.463692,501.042455L248.374874,501.508758L248.286231,501.975405L248.226896,502.286392L248.223886,502.303046L248.219004,502.327857L248.214291,502.353008L248.210998,502.369662L248.198280,502.436619L248.179204,502.536203L248.160465,502.636468L248.147692,502.702745L248.293493,502.702745L248.730615,502.702745L248.876135,502.702745L248.880929,502.702745L248.961923,502.703424L249.218722,502.705464L249.297009,502.705804L249.304341,502.705804L249.411449,502.706823L249.732717,502.709202L249.832437,502.709542L249.839769,502.709542L249.986588,502.708183L250.426365,502.704444L250.573015,502.702745L250.580234,502.703084L250.602173,502.704104L250.609110,502.704444L251.048578,502.724497L252.366248,502.784316L252.805547,502.804029L252.823652,502.804709L252.830420,502.804709L252.905154,502.804709L252.929971,502.804709L252.937304,502.804709L253.003577,502.804709L253.083669,502.804709L253.142328,502.804709L253.522202,502.804709L253.668286,502.804709L253.850467,502.804709L254.396448,502.804709L254.578347,502.804709L254.600345,502.804709L254.616983,502.804709L254.732610,502.804709L254.913099,502.804709L254.922405,502.804709L255.051568,502.804709L255.305574,502.634768L255.334301,502.618794L255.574558,502.485901L256.036560,502.229973L257.209733,501.580471L257.287680,501.531869L257.580045,501.353436L257.867557,501.177723L257.902325,501.156311L258.233352,500.954089L259.732868,500.775998L261.606561,500.528575L261.722315,500.511242L261.731002,500.510562L261.835069,500.503765L262.134914,500.487451L262.286709,500.469438L264.107445,500.255663L264.171523,500.249546L267.600068,499.915121L267.655063,499.910023L267.709777,499.904925L267.709890,499.904585L268.166722,499.859723L268.939765,499.784954L269.146887,499.764223L270.419118,499.640174L270.619019,499.620802L271.218948,499.562006L271.418680,499.542294L271.423305,499.541954L271.618167,499.541954L272.215725,499.541954L272.414817,499.541954L272.671718,499.541954L273.441578,499.541954L273.650540,499.541954L273.698876,499.539915L273.866109,499.533118L274.367806,499.512727L274.480215,499.507968L274.533399,499.510008L274.976122,499.527001L276.303843,499.577640L276.746399,499.594293L279.443192,499.628958L281.340760,499.642553L281.368283,499.642893L281.557841,499.645272L281.566865,499.645272L283.631543,499.664304L284.991678,499.676879L287.897941,499.643912L290.571989,499.631677L290.683493,499.629638L291.121558,499.620802L291.538735,499.642553L291.624463,499.642553L291.630836,499.642893L291.703871,499.647990L291.773806,499.649690L293.562169,499.691493L294.920266,499.718681L295.573596,499.734995L295.720518,499.734995L295.745616,499.734995L295.803595,499.735334L296.799653,499.778497L297.212951,499.783935L297.390727,499.778497L297.464836,499.779516L297.480629,499.779516L297.846325,499.783935L298.240503,499.788353L299.536120,499.803307L302.154654,499.834234L302.160858,499.834234L302.697445,499.843750L302.843915,499.846809L302.997153,499.849868L303.073124,499.851227L308.143974,499.952506L309.365825,499.968819L309.378571,499.969499L309.653687,499.985132L309.686568,499.985472L310.346620,499.990910L310.434941,499.994988L311.341055,500.039850L311.351038,500.039510L314.565516,500.066020L316.474837,500.078255L316.481323,500.078255L316.663045,500.081313L316.684984,500.082333L317.036525,500.094568L317.074088,500.095248L317.080574,500.095248L320.035554,500.149966L320.415691,500.160162L320.446486,500.160841L321.891690,500.183952L324.532917,500.282513L324.545607,500.282513L324.552770,500.282173L325.005442,500.279454L326.007231,500.272317L328.505269,500.315479L329.301928,500.329074L329.341240,500.328734L329.501192,500.326015L329.561879,500.324996L330.650807,500.353544L330.668573,500.353544L333.093466,500.373256L333.863844,500.379374L335.494164,500.391949L335.575607,500.392969L337.851434,500.400446L337.855946,500.400446L339.013459,500.404184L341.028095,500.410981L341.151218,500.411321L341.405360,500.412001L343.464384,500.418458L343.480458,500.418458L343.730767,500.430694L343.751862,500.431713L346.138067,500.438850L349.689628,500.449046L349.829855,500.495608L349.870017,500.508863L350.315472,500.514300L351.982407,500.534692L352.069997,500.535032L352.406035,500.538771L352.492836,500.539790L354.519102,500.559163L355.555416,500.568679L355.633024,500.569359L356.032231,500.573097L356.062180,500.573777L360.050594,500.623058L360.100396,500.623397L360.525774,500.626456L362.159716,500.638352L362.291920,500.639371L363.892418,500.652626L363.899468,500.652626L363.918532,500.652966L363.936016,500.652966L364.940804,500.661462L366.955573,500.683214L367.331094,500.686952L367.904131,500.692050L369.632324,500.706325L370.479923,500.713462L370.495039,500.713802L370.880993,500.715841L371.742072,500.722299L371.856059,500.722978L372.369659,500.740651L372.470055,500.744050L372.487709,500.744390L373.113543,500.755266L373.247666,500.757305L373.995328,500.769880L375.434079,500.791292L377.316709,500.814403L377.613494,500.817462L378.008926,500.821540L378.091383,500.819501L378.361314,500.813383L378.393518,500.812364L378.618723,500.805906L378.844322,500.799109L379.043864,500.792651L379.109400,500.790612L379.330159,500.796730L379.545390,500.802507L379.558532,500.802847L379.583179,500.802507L379.806651,500.815762L379.894923,500.820860L380.412034,500.851788L381.323294,500.901749L381.490701,500.912285L381.628664,500.918063L381.636447,500.918402L381.806279,500.927579L381.818068,500.928598L382.905078,500.980938L384.270009,501.065226L384.283490,501.066245L384.731050,501.083239L384.746334,501.082219L384.876955,501.077801L385.273187,501.091396L385.333144,501.093435L386.034123,501.117566L386.380721,501.129461L386.394426,501.129801L388.254426,501.239239L388.904599,501.272887L389.766516,501.317749L390.506733,501.375868L390.532285,501.377907L390.589481,501.382325L390.672229,501.388783L390.759094,501.395580L390.769586,501.396260L390.846242,501.402378L390.927297,501.408835L390.954824,501.410874L391.582544,501.435685L392.878341,501.512496L392.916584,501.514535L394.184294,501.589307L394.390450,501.596105L394.462140,501.598484L394.535691,501.601203L394.539075,501.601203L395.402507,501.630432L395.459080,501.632471L395.753010,501.650145L395.819002,501.651844L396.593590,501.670877L398.892831,501.830278L399.277787,501.840474L399.336447,501.842174L400.692396,501.877861L401.669030,501.903351L401.960122,501.904031L402.724767,501.905390L402.810159,501.904711L404.597069,501.887377L404.670899,501.886697L404.680318,501.886357L406.058058,501.891116L406.387391,501.892135L406.451126,501.892135L406.514466,501.892475L406.925188,501.893835L406.951979,501.893835L407.598519,501.895874L408.049075,501.908109L408.418071,501.917966L409.740071,501.952293L409.788409,501.953653L409.788973,501.953653L410.314660,501.967248L411.144135,501.984921L411.184971,501.985941L411.225920,501.986621L411.624132,501.995118L411.641504,501.995458L412.840763,502.020608L413.158645,502.019589L415.803997,502.002255L416.590948,502.020608L416.619376,502.021628L416.679971,502.034543L416.701968,502.034543L417.840752,502.049838L419.127948,502.039302L419.668050,502.034883L420.005544,502.024007L421.473841,502.045759L421.738315,502.048478L422.645164,502.057315L422.997966,502.060714L423.006878,502.061054L423.235545,502.068871L425.478678,502.147382L425.523238,502.149082L426.125574,502.158598L426.270025,502.160977L426.514140,502.164716L426.757862,502.168795L426.821654,502.169474L426.885052,502.170494L427.307517,502.177292L427.563083,502.181370L427.596420,502.183749L428.642467,502.256143L428.653523,502.256823L428.842480,502.261921L429.878012,502.285033L430.346403,502.299647L430.768993,502.312903L431.065912,502.322419L431.092761,502.323099L431.120173,502.323779L431.155088,502.324798L431.190003,502.325818L431.294014,502.328537L431.709321,502.337374L431.778811,502.338733L431.813838,502.339413L432.011984,502.341453L432.051072,502.341792L432.273076,502.344172L432.285485,502.344172L432.322204,502.344851L432.894715,502.391755L432.928277,502.393454L434.478099,502.420304L434.494795,502.420984L435.038170,502.448514L435.068349,502.450214L435.091137,502.451233L435.104449,502.451913L435.147940,502.454292L436.321822,502.502555L436.494139,502.505954L436.887166,502.513091L436.888858,502.513091L437.156631,502.529746L439.411558,502.592283L440.288554,502.616415L441.622945,502.653462L441.668182,502.654821L442.134605,502.669436L442.731835,502.688470L443.807785,502.722458L446.580780,502.809807L446.670128,502.812526L447.187927,502.822723L447.256800,502.825102L448.712769,502.872345L449.882138,502.910412L450.042785,502.915850L450.169966,502.912452L450.206683,502.911432L450.220332,502.911092L450.243117,502.910412L450.279215,502.910412L450.313339,502.910412L450.347463,502.910412L450.414582,502.910412L450.826354,502.897497L450.838875,502.897157L451.832445,502.938962L451.923855,502.929446L452.008330,502.921289L452.143953,502.935903L452.208718,502.943041L452.275997,502.938283L452.330640,502.932505L452.464149,502.933864L453.189395,502.941002L453.810913,502.947120L453.841931,502.945420L454.636289,502.961055L455.063231,502.920949L455.489899,502.963774L455.552463,502.969892L457.008185,503.002521L457.025952,503.002521L458.153451,503.002521L458.439133,503.002521L458.582397,503.002521L458.885563,503.002521L460.103503,503.014756L460.423765,503.016796L460.563649,503.018495L460.788759,503.020874L461.289236,503.026312L461.308865,503.026652L461.556537,503.029031L462.707694,503.040248L462.710232,503.040248L462.738322,503.040587L462.744526,503.040587L463.107214,503.047385L463.152847,503.048405L463.198591,503.049085L463.515364,503.054863L463.593317,503.056222L463.851427,503.060301L463.934116,503.060980L464.226176,503.063020L464.517220,503.064719L464.525963,503.064719L464.915095,503.067438L464.986333,503.067778L464.989435,503.067778L465.027789,503.067778L465.513803,503.062340L465.521417,503.062340L465.623407,503.067778L465.836298,503.078994L465.854405,503.079674L466.161722,503.093609L466.165106,503.093609L466.188008,503.094289L466.472238,503.100407L466.474494,503.100407L466.492825,503.100407L466.882389,503.094969L466.943653,503.099047L466.966048,503.100407L467.545615,503.110603L467.872712,503.116721L467.901535,503.117401L468.839909,503.138474L469.022944,503.117061L469.174054,503.119780L469.591907,503.126918L473.114272,503.189457L474.231614,503.209170L474.816529,503.214268L474.824143,503.214268L474.828203,503.213928L475.371640,503.187417L475.297959,503.726137L475.296615,503.730216L474.680646,505.928322L474.675787,505.947356L474.675621,505.948716L474.604850,506.240694L474.569686,506.385154L474.415429,507.021464L474.032927,508.457270L476.653260,508.228844L477.376080,508.190433L477.455942,508.186014L477.470832,508.185334L477.561129,508.180915L478.585644,508.131627L478.736176,508.124149L479.240791,508.100014L480.152955,508.056165L481.987373,507.967786L482.038529,507.965747L482.083368,507.964047L482.384212,507.951470L482.685056,507.938893L482.757418,507.935834L482.829781,507.932775L483.126846,507.920538L483.424023,507.907961L483.479677,507.900822L483.503923,507.897423L483.535443,507.893344L483.593636,507.886206L483.661038,507.884506L484.250232,507.869890L486.633284,507.810404L486.671583,507.809725L486.676095,507.809725L487.551244,507.804626L487.598451,507.802586L487.652991,507.800547L488.021410,507.788310L488.066537,507.788310L488.100663,507.788310L488.274116,507.788310L490.713205,507.739362L490.729505,507.738682L495.241290,507.597957L495.275358,507.597277L496.421261,507.574163L497.439464,507.553428L497.913595,507.543910L498.462179,507.532693L498.498269,507.529294L498.504586,507.528954L499.233597,507.474228L499.253505,507.472868L499.361982,507.474908L499.477963,507.477287L499.522471,507.478307L499.634317,507.475248L499.774873,507.471509L500.706099,507.452813L500.791327,507.451793L500.821787,507.451793L500.856760,507.451793L500.898049,507.451454L500.958234,507.451114L500.974028,507.451114L501.749065,507.433098L501.773543,507.432418L501.921208,507.429359L502.388259,507.429359L502.742497,507.429359L502.767539,507.428679L506.677797,507.320247L507.289872,507.302911L507.384572,507.300532L507.410742,507.299852L507.446332,507.298832L507.799834,507.298492L507.896796,507.297813L508.522957,507.293394L508.604683,507.291014L509.137910,507.276738L509.430183,507.267900L509.532722,507.264841L509.570961,507.263481L509.722739,507.259062L510.840229,507.227111L511.126467,507.218613L511.763301,507.200597L511.871197,507.197538L512.317673,507.184622L512.430811,507.180203L512.730294,507.168306L513.278104,507.146551L513.320404,507.144852L513.331797,507.144512L515.332644,507.086727L515.376806,507.085367L515.842400,507.071771L515.940313,507.069052L516.721699,507.046277L517.923558,507.011607L517.952660,507.010587L519.445126,506.959260L520.391700,506.929008L520.401118,506.928668L521.319194,506.895017L522.866698,506.840971L523.388514,506.823636L523.410736,506.822956L523.432958,506.822276L523.856578,506.807660L524.153471,506.798483L524.195095,506.797123L524.434007,506.789305L524.555099,506.785566L525.793372,506.746477L525.824730,506.745457L526.704520,506.717584L528.563850,506.668977L528.594926,506.667958L529.040943,506.654701L529.055379,506.653681L529.131974,506.652322L529.141282,506.652322L529.375186,506.648583L529.538071,506.643824L530.368468,506.622070L531.619843,506.589439L532.368343,506.569724L532.445103,506.567005L532.484188,506.565645L532.529871,506.563946L533.367292,506.535393L533.459504,506.531994L534.427383,506.516698L534.535395,506.514999L534.549326,506.514659L534.954359,506.508541L535.017063,506.503102L535.198748,506.487466L535.701794,506.443958L535.737488,506.440899L536.112103,506.446677L536.400751,506.451436L537.270703,506.466392L537.405000,506.449057L537.426493,506.449737L537.479974,506.451776L537.691107,506.437500L538.011464,506.429002L538.398827,506.419145L538.496962,506.415746L538.685864,506.415066L538.825857,506.413027L538.944356,506.410307L539.080841,506.405209L539.272452,506.404869L539.361062,506.403849L539.666970,506.392972L539.877945,506.381755L540.254590,506.371898L540.424760,506.369859L540.649455,506.362381L541.150370,506.354563L541.227247,506.353203L541.322889,506.347085L541.467506,506.344705L541.863794,506.338587L542.209938,506.333149L544.026338,506.274345L544.051098,506.273665L544.075969,506.272645L544.096499,506.271966L544.128703,506.270946L544.147035,506.270946L544.198758,506.270606L545.356638,506.218600L545.715829,506.202625L545.758416,506.202625L546.287222,506.202625L546.505514,506.202625L546.592943,506.202625L546.633779,506.201945L546.844514,506.202625L546.869333,506.202625L546.934089,506.202965L546.997604,506.203644L547.061120,506.204324L547.112620,506.204664L547.981860,506.180531L548.325622,506.172033L548.464198,506.168294L548.476207,506.166935L548.613433,506.149260L548.734143,506.134644L548.953562,506.134644L549.193852,506.134644L549.200057,506.134644L549.268590,506.134644L549.291716,506.134644L549.711366,506.102013L549.723546,506.100993L549.969305,506.100653L549.985945,506.100653L550.967127,506.100653L550.991723,506.101333L551.024156,506.101333L551.056701,506.100993L551.095451,506.100653L551.119817,506.100313L551.409068,506.100653L551.418375,506.100653L551.514135,506.066663L551.598731,506.063264L551.735549,506.057145L552.276220,506.033012L552.286766,506.032672L552.523541,505.998682L553.140268,505.965371L553.155156,505.964691L553.408983,505.964691L553.429007,505.964691L553.521794,505.964691L553.707422,505.934440L553.730365,505.930701L553.955988,505.930701L553.986834,505.928662L554.255995,505.912006L554.492053,505.897391L554.502993,505.896711L555.244348,505.798139L555.269717,505.794740L556.006682,505.728459L556.021512,505.727099L556.030419,505.725740L556.414224,505.658779L556.599942,505.637705L557.366156,505.551030L557.453715,505.541173L557.512068,505.534375L557.570310,505.527917L557.614175,505.523158L557.728226,505.522819L557.762508,505.519759L557.779705,505.518060L557.914861,505.505824L558.161831,505.483730L558.535272,505.450080L558.731608,505.432745L558.847310,505.422208L558.862422,505.420848L559.182953,505.386859L559.475393,505.352529L559.500664,505.352869L559.661701,505.352869L559.709081,505.352869L559.716132,505.352869L559.940625,505.352869L560.011978,505.352869L560.094893,505.352869L560.183732,505.352869L560.345333,505.352869L560.533117,505.355588L560.772603,505.352869L560.858057,505.352869L560.925461,505.352869L561.032913,505.352869L561.083678,505.352869L561.269816,505.352869L561.337502,505.352869L561.612535,505.338933L561.705302,505.333834L561.732540,505.332475L561.759779,505.331115L561.807375,505.328736L561.836306,505.327376L561.846682,505.326696L561.870142,505.325677L561.893432,505.324317L561.997198,505.319219L562.442347,505.318879L562.533159,505.318879L562.961712,505.301204L563.018052,505.298825L563.252716,505.289307L563.362181,505.284889L563.569946,505.262795L563.611725,505.258377L563.682145,505.250899L564.053685,505.250559L564.127858,505.250559L564.355216,505.247840L564.485335,505.245800L567.076215,505.209091L569.245381,505.179520L571.331963,505.148929L572.825197,505.126836L573.563438,505.115959L573.627792,505.114939L574.425189,505.114600L574.531231,505.114600L576.044361,505.048999L576.105101,505.046960L576.658517,505.039822L576.681754,505.039482L576.704992,505.039142L576.712606,505.039142L576.742612,505.038802L576.772618,505.038463L579.321083,505.005493L579.977882,504.996995L580.823854,504.986118L580.879747,504.985099L580.979072,504.984079L581.294755,504.980340L581.351100,504.979660L581.434238,504.978981L581.571696,504.978641L581.970681,504.959946L582.076982,504.954848L582.183566,504.949749L582.285243,504.944991L582.362734,504.942612L582.621425,504.933774L582.635920,504.933434L583.215341,504.914060L583.311949,504.911001L583.366662,504.911001L583.390352,504.911001L583.759522,504.911001L583.775144,504.910661L584.311630,504.901824L584.795718,504.893667L586.954741,504.857977L586.960945,504.857977L587.842939,504.843022L588.789619,504.826027L588.795542,504.826027L589.202985,504.820249L589.221428,504.819909L589.882893,504.808353L590.439385,504.809032L590.508481,504.809032L590.766592,504.809712L591.380284,504.811412L591.411522,504.809032L591.917814,504.809712L592.003208,504.809032L592.055100,504.809032L592.107616,504.809712L592.126341,504.809372L592.311290,504.808693L592.367412,504.808693L592.419869,504.808693L592.528448,504.808693L593.075463,504.809032L592.094270,507.717267L592.090220,507.732224L591.732061,508.826426L591.699017,508.927384L591.156734,510.585225L591.116688,510.707602L591.034927,510.957457L590.966568,511.165500L590.955762,511.195075L590.869850,511.473147L590.862294,511.497963L590.820940,511.629521L590.327420,513.205187L590.103365,513.909919L589.343705,516.298878L589.284110,516.481106L589.099773,517.044794L589.087988,517.080832L588.949434,517.590809L588.509912,518.848775L588.449364,518.949414L588.373999,519.088473L588.323302,519.253032L588.262353,519.454991L588.254915,519.479471L587.945721,520.486562L587.941779,520.499482L587.937171,520.514442L587.896057,520.641945L587.870485,520.718447L587.800698,520.922453L587.271189,522.459666L587.275130,522.480407L587.275960,522.510669L587.273037,522.523930L587.267054,522.545691L587.246812,522.592954L587.209209,522.699381L587.177848,522.812609L587.160463,522.889115L587.134882,523.018324L587.132548,523.025465L587.121103,523.060487L587.065134,523.227440L587.063809,523.233221L587.047986,523.239341L587.037232,523.243762L587.001832,523.261443L586.869289,523.781008L586.868571,523.784068L586.391605,525.200659L585.938034,526.547583L585.931420,526.566966L585.750025,527.122273L585.716701,527.224290L585.687044,527.315085L585.620399,527.519120L585.591493,527.602434L585.585657,527.619437L585.580377,527.634740L585.506614,527.847618L585.335134,528.342409L585.288946,528.476054L585.139664,528.908959L585.135707,528.918481L585.125703,528.947387L584.797352,529.939039L584.759919,530.051944L584.213196,531.703047L584.137958,531.930908L584.043838,532.214884L583.914132,532.607013L583.074590,535.144538L583.065650,535.171067L582.981847,535.427854L582.855041,535.817289L582.828815,535.901979L582.794769,536.011498L582.788503,536.031565L582.776142,536.072040L582.406864,537.268603L582.394333,537.308738L582.376929,537.365540L582.361351,537.415879L582.310938,537.483906L582.277013,537.664856L582.272571,537.687985L582.259983,537.748189L582.231602,537.900910L582.211345,537.962134L582.204243,537.983903L582.199250,537.999209L582.189484,538.029141L582.186266,538.039005L582.096623,538.317237L582.089733,538.336625L582.082955,538.355672L582.067753,538.402271L582.048536,538.457714L582.038873,538.485605L582.031207,538.507374L581.976999,538.663159L581.922510,538.818943L581.628983,539.660802L581.617188,539.710804L581.611476,539.738696L581.605371,539.766929L581.568440,539.932922L581.539815,540.020681L581.513076,540.102657L581.500198,540.170688L581.496363,540.191097L581.474615,540.307089L581.443550,540.402332L581.374764,540.613227L581.291074,540.783305L581.271099,540.823784L581.207384,540.953384L581.185196,541.021416L581.174635,541.059854L581.173142,541.065296L581.171428,541.071419L581.155329,541.128566L581.102003,541.318035L581.013729,541.633705L580.986620,541.670102L580.912917,541.769770L580.658335,542.550454L580.545859,542.895387L580.479972,543.097450L580.437380,543.228077L580.354968,543.480828L580.340439,543.525391L580.325304,543.572676L580.303957,543.639010L580.299793,543.650917L580.164421,544.065256L580.158653,544.082945L579.820891,545.205558L579.792945,545.291286L579.776532,545.341634L579.737326,545.586572L579.722079,545.681826L579.583700,546.060463L579.495213,546.303364L579.460990,546.396238L579.444857,546.532318L579.419465,546.610224L579.400504,546.668398L579.261400,547.008600L579.259284,547.013363L579.173243,547.210682L579.158930,547.243341L579.131251,547.306620L579.098785,547.381125L579.038640,547.518909L579.109911,547.506321L579.133033,547.502919L579.143465,547.501218L579.239782,547.486249L580.013738,547.362073L580.285706,547.318187L580.503710,547.283145L580.561806,547.276341L580.650937,547.258310L580.699307,547.248444L581.070433,547.164414L581.416209,547.088888L582.159942,547.047043L582.213876,547.042621L583.437441,546.841221L583.451199,546.838839L583.644314,546.795293L583.673019,546.791211L583.787608,546.764335L583.871516,546.741541L583.991819,546.707521L584.093388,546.740521L584.131730,546.752768L584.723907,546.701398L584.739025,546.700037L584.973031,546.670439L584.988543,546.668738L585.605956,546.599678L585.794029,546.553410L585.856871,546.538101L585.879750,546.531978L586.173272,546.497277L586.442259,546.437402L586.638154,546.415629L586.782445,546.391135L586.934840,546.381610L586.955169,546.373785L587.082768,546.352012L587.452333,546.291797L587.564542,546.273086L587.678514,546.256757L587.824013,546.226819L588.038614,546.199604L588.315529,546.228861L588.349999,546.226139L588.654662,546.158100L588.703053,546.170687L588.796315,546.183274L588.880433,546.158100L589.063625,546.107750L589.128371,546.090060L589.375375,546.063865L589.449888,546.056041L589.628093,546.030526L589.686742,546.022021L590.245088,545.922003L590.256195,545.919962L591.172347,545.841717L591.400311,545.821986L591.422989,545.819945L591.443580,545.818244L591.575309,545.788987L591.750890,545.749865L591.303751,546.801077L591.154657,547.028332L591.144289,547.049765L591.137327,547.065074L591.131345,547.092971L591.128766,547.105218L591.085643,547.308661L591.049633,547.382826L591.027470,547.450867L590.926764,547.643084L590.908304,547.670301L590.900585,547.681868L590.896274,547.696837L590.889757,547.720312L590.882342,547.735281L590.876206,547.747188L590.871299,547.757054L590.699030,548.199329L590.648224,548.318063L590.646109,548.322826L590.631974,548.355827L590.621457,548.380322L590.615503,548.394271L590.582449,548.471499L590.529211,548.570842L590.509624,548.607586L590.038714,549.690505L589.947497,549.900424L589.797864,550.275014L589.469135,551.022842L589.405409,551.186495L589.331261,551.380429L589.214894,551.683241L589.196231,551.731895L589.133133,551.923110L589.070035,552.114326L589.035576,552.218440L588.961354,552.444703L588.965948,552.466138L588.970371,552.487233L588.978690,552.526702L588.986900,552.566511L589.032005,552.782567L589.075247,553.472595L589.080207,553.551874L589.204436,554.333102L589.137080,554.730867L589.135963,554.803684L589.129285,555.367163L589.128971,555.406293L589.121871,556.007550L589.121687,556.022863L589.121357,556.068119L589.119144,556.338637L589.110699,557.357091L589.110510,557.380230L589.106464,557.862073L589.079342,558.032217L588.855741,558.372506L588.637122,558.610710L587.467663,560.208412L587.442875,560.242102L587.426537,560.264562L587.366948,560.346235L587.353556,560.387412L587.319517,560.491206L587.312285,560.516048L587.306634,560.523875L586.647214,561.439652L586.551942,561.572034L585.817916,562.592311L585.778621,562.626344L585.700032,562.694408L585.336162,563.204897L585.073298,563.579260L585.058716,563.602402L584.900089,563.851525L584.889941,563.870584L584.827711,563.987318L584.772277,564.157826L584.807618,564.309616L584.817751,564.364410L584.929951,564.636681L584.932082,564.693517L584.940045,564.769754L584.951264,564.792556L584.986283,564.861986L585.009286,564.907592L585.033612,564.982126L585.043759,565.013438L585.083761,565.135281L585.089178,565.151617L585.094484,565.168294L585.440363,566.223371L585.508185,566.375168L585.519085,566.400695L585.525854,566.416351L585.605890,566.653918L585.775167,567.152881L585.113231,567.628706L585.043925,567.674314L585.030210,567.683504L585.017675,567.691673L584.928961,567.739664L584.881544,567.774381L584.862009,567.791059L584.856351,567.789357L584.850411,567.787655L584.839520,567.796845L584.798535,567.830881L584.680637,567.929587L584.263761,568.242043L584.146169,568.344154L584.039244,568.412568L583.992601,568.444903L583.882457,568.521486L583.755406,568.611003L583.747364,568.615768L583.539344,568.820672L583.269251,568.956821L583.065454,569.093991L583.016330,569.127008L582.950071,569.197125L582.938577,569.209038L582.887396,569.263158L582.874861,569.271327L582.821515,569.306045L582.207216,569.705648L582.084395,569.909876L582.009975,570.008586L581.545382,570.624341L581.541575,570.629106L581.500448,570.683568L581.494013,570.692078L581.390552,570.828913L581.245619,571.101224L581.133101,571.234657L581.058723,571.322819L581.016100,571.373197L581.406915,573.994636L581.552465,574.921931L581.577066,575.079206L581.619109,575.347118L581.643588,575.526522L581.673029,575.696735L581.691999,575.982694L581.710987,576.119887L581.710076,576.142696L581.712714,576.156313L581.715941,576.173334L581.716098,576.203292L581.716082,576.232910L581.720591,576.326869L581.723284,576.411636L581.596598,576.638364L581.573477,576.690451L581.414837,576.926032L581.381700,576.975055L581.355267,577.006035L581.297009,577.095910L581.273349,577.143571L581.256416,577.207914L581.242774,577.250809L581.167306,577.342388L581.157372,577.366899L581.184279,577.417965L581.192894,577.461882L581.169577,577.533715L581.142579,577.572525L581.107601,577.624613L581.074133,577.674658L581.015323,577.805388L580.898947,577.972546L580.836099,578.083531L580.773633,578.161152L580.741161,578.184643L580.671429,578.233327L580.633873,578.272478L580.479513,578.513175L580.475154,578.519644L580.464755,578.557774L580.471580,578.588074L580.489675,578.614969L580.496942,578.643908L580.489956,578.677612L580.475236,578.703827L580.373572,578.788259L580.329792,578.833539L580.293416,578.895160L580.267560,578.974826L580.241091,579.024192L580.166448,579.120200L580.151433,579.160373L580.150328,579.195100L580.172794,579.279873L580.163390,579.314940L580.131851,579.373839L580.129273,579.392223L580.126069,579.417757L580.178344,579.524661L580.167958,579.556664L580.152416,579.578453L580.073207,579.644161L579.986828,579.741532L579.975178,579.754810L579.973520,579.759917L579.960544,579.800772L579.962681,579.838563L580.059080,579.924359L580.124946,579.958065L580.152779,579.980195L580.161164,579.999601L580.154646,580.019688L580.127502,580.045904L580.091717,580.110932L580.063446,580.191962L580.070594,580.266523L580.095800,580.315890L580.139471,580.372748L580.160563,580.384323L580.215604,580.451395L580.226988,580.518126L580.209349,580.585538L580.359091,580.589624L580.435961,580.652950L580.475248,580.665888L580.570186,580.666569L580.601849,580.671676L580.630725,580.689721L580.655010,580.705382L580.807634,580.841569L580.900366,580.888213L580.971586,580.904555L581.085714,580.903534L581.311866,580.876637L581.352076,580.899789L581.405107,580.985246L581.439424,581.013505L581.502616,581.036317L581.540197,581.047552L581.559755,581.057766L581.561096,581.078875L581.551349,581.089770L581.496596,581.124498L581.487660,581.145948L581.505796,581.170121L581.524042,581.193954L581.507670,581.256601L581.518034,581.276008L581.563093,581.290307L581.584445,581.314140L581.586239,581.327759L581.575844,581.365892L581.607427,581.429560L581.614820,581.444201L581.615166,581.468374L581.598491,581.551109L581.598799,581.562345L581.599550,581.580049L581.625249,581.603542L581.642560,581.607628L581.756452,581.582092L581.771223,581.594009L581.767235,581.612394L581.663037,581.704663L581.648590,581.729177L581.653366,581.733603L581.697972,581.755393L581.726090,581.777524L581.721390,581.798974L581.638563,581.855834L581.636381,581.881710L581.648733,581.894988L581.700557,581.907586L581.714886,581.920865L581.704957,581.945379L581.597083,581.990662L581.571819,582.011091L581.544926,582.055693L581.568062,582.099274L581.681179,582.152730L581.696210,582.176903L581.696623,582.233082L581.697204,582.258278L581.703958,582.270535L581.709742,582.281430L581.740093,582.292326L581.793490,582.311393L581.807537,582.324671L581.798039,582.353953L581.762046,582.382212L581.682776,582.415920L581.602673,582.459161L581.575150,582.479590L581.560252,582.519426L581.560914,582.593991L581.608928,582.656640L581.607763,582.667195L581.644476,582.690688L581.679077,582.711117L581.682196,582.712820L581.694560,582.719970L581.706655,582.728822L581.718455,582.735972L581.739820,582.753678L581.757258,582.774788L581.770423,582.798621L581.793267,582.848332L581.813832,582.849353L581.830785,582.835394L581.837842,582.819731L581.880500,582.783981L581.908541,582.780235L581.918083,582.795217L581.910131,582.819731L581.880710,582.866037L581.860842,582.921195L581.866431,582.936177L581.925203,582.933453L581.958990,582.935496L581.973086,582.939922L581.979669,582.951839L581.966636,582.984185L581.973930,582.993038L582.002784,583.007679L582.016831,583.013126L582.024015,583.022319L582.016504,583.037641L582.001823,583.053304L581.967265,583.069306L581.954142,583.081904L581.947896,583.100291L581.959008,583.106079L581.989261,583.111186L582.023503,583.113570L582.072922,583.121401L582.100511,583.132977L582.137937,583.153406L582.155903,583.177240L582.166599,583.187796L582.175723,583.199713L582.182306,583.211630L582.183535,583.217418L582.183513,583.229675L582.181820,583.237507L582.175598,583.251467L582.167510,583.265086L582.133890,583.308668L582.096882,583.352251L582.075930,583.382895L582.062197,583.412177L582.047571,583.458143L582.020082,583.582081L582.004891,583.628047L581.989747,583.657329L581.978724,583.671289L581.912636,583.738366L581.901331,583.752326L581.892285,583.766286L581.870207,583.812593L581.860720,583.827915L581.849415,583.841875L581.811989,583.882393L581.791639,583.910314L581.748487,583.985903L581.691430,584.090435L581.663582,584.135380L581.650866,584.149340L581.620103,584.174537L581.606699,584.187135L581.597199,584.200755L581.593236,584.214715L581.594863,584.243657L581.599155,584.273961L581.598814,584.288943L581.592265,584.319587L581.568562,584.397902L581.564259,584.426844L581.564925,584.440464L581.567850,584.454083L581.581472,584.478259L581.609117,584.512308L581.622456,584.536484L581.625259,584.548742L581.622933,584.577684L581.614689,584.608329L581.576699,584.701966L581.569730,584.721715L581.560698,584.737378L581.554035,584.752700L581.554701,584.766320L581.564876,584.805477L581.558612,584.843954L581.531767,584.871875L581.526798,584.887197L581.527747,584.900817L581.546046,584.968917L581.546553,584.983899L581.544408,584.999222L581.539722,585.014545L581.531929,585.029867L581.521189,585.043828L581.507798,585.058129L581.465437,585.095584L581.453003,585.109545L581.443393,585.123505L581.428814,585.152788L581.413466,585.200118L581.397095,585.276731L581.391337,585.322359L581.390154,585.353004L581.393464,585.380244L581.398931,585.393865L581.418458,585.414635L581.430259,585.421786L581.447595,585.421445L581.465802,585.416678L581.481871,585.405442L581.494305,585.391481L581.513684,585.362198L581.530522,585.332914L581.543958,585.301929L581.576638,585.193308L581.589239,585.164025L581.599132,585.150064L581.637281,585.108183L581.652065,585.113971L581.664995,585.121122L581.669152,585.148362L581.671786,585.221229L581.666821,585.297502L581.659541,585.343470L581.646599,585.387736L581.619228,585.466052L581.608277,585.512020L581.601323,585.586590L581.595831,585.705427L581.590122,585.750033L581.609206,585.764335L581.758981,585.876362L582.077052,586.114718L582.453434,586.340477L582.517488,586.378955L582.644408,586.455230L582.863009,586.571004L583.030010,586.659538L583.042253,586.665327L583.116498,586.699378L583.190916,586.733770L583.214666,586.745007L583.238526,586.755903L583.251052,586.761692L584.134156,587.370538L584.447696,587.558506L584.868075,587.809811L585.064248,587.930357L585.357634,588.110836L585.745224,588.349205L585.831369,588.402327L585.844536,588.410500L585.857984,588.418672L585.880853,588.432634L586.072242,588.649892L586.101013,588.682242L586.199934,588.743879L586.227111,588.752392L586.249584,588.758862L586.299039,588.777932L586.342096,588.794958L586.391687,588.817093L586.844377,589.021072L586.853515,589.026861L587.454265,589.393617L587.479235,589.408942L587.795392,589.602026L588.538780,590.055967L588.750467,590.185373L588.780377,590.203762L588.806823,590.219768L588.867035,590.256206L588.880485,590.264379L588.915161,590.285493L589.476807,590.630124L589.561428,590.681888L589.695257,590.763960L590.604822,591.319737L590.634734,591.338127L590.664756,591.356176L590.704089,591.380356L590.741322,591.403173L590.815899,591.448466L591.593774,591.925244L591.672837,591.973262L591.913551,592.120384L591.976277,592.159548L592.000686,592.174873L592.082036,592.226298L592.206641,592.304626L592.231333,592.319952L592.281737,592.350943L592.382091,592.412584L592.553624,592.517818L592.561855,592.522926L592.568722,592.527013L592.625540,592.561750L592.999887,592.791631L593.023953,592.806275L593.339950,593.000057L593.597031,593.157739L593.661345,593.197245L593.670313,593.202694L595.197123,594.138925L596.332949,594.823488L596.363714,594.841879L596.368198,594.844604L596.683922,595.034989L596.690336,595.038735L596.835710,595.126265L596.849446,595.134439L596.871869,595.148063L596.942087,595.190295L597.028314,595.242404L597.036092,595.247173L597.268888,595.387494L597.423062,595.480133L597.525866,595.542120L597.806405,596.229771L598.059116,596.903128L598.429344,597.890874L598.441990,597.924254L598.490166,598.053003L598.677089,598.550975L598.887192,599.110944L599.278969,600.155628L599.480568,600.638978L599.930842,601.717083L600.241695,602.462065L601.419404,605.282696L602.891015,608.808760L602.984800,609.033621L603.004848,609.090517L603.017248,609.125610L603.511723,610.680253L605.617292,616.500391L605.629171,616.532764L606.699351,619.461384L606.944397,620.133423L607.135340,620.655180L607.234092,620.924752L607.525013,621.716779L607.530070,621.731775L607.535755,621.747452L607.541393,621.764151L607.787431,621.823111L607.789520,621.828905L607.796302,621.835039L607.803351,621.839470L607.810244,621.845264L607.814545,621.845945L607.871434,621.850035L607.876583,621.850716L607.891700,621.853784L607.912704,621.857873L607.930082,621.860941L607.941243,621.864008L608.028824,621.886842L608.270438,621.949892L608.302934,621.962161L608.343202,621.977497L608.346718,621.978860L608.393060,621.991130L608.457361,622.008170L608.526308,622.026574L608.753681,622.065426L608.758547,622.066108L608.767997,622.067471L608.848293,622.078718L608.898685,622.088942L608.969783,622.107686L609.259437,622.183006L609.308212,622.195616L609.314162,622.197320L609.320959,622.199024L609.353251,622.207544L609.369938,622.209248L609.383109,622.209589L609.420753,622.216405L609.455196,622.225266L609.569905,622.254235L609.574835,622.255598L609.582197,622.257302L609.587409,622.258666L609.595792,622.260711L609.597833,622.261392L609.619811,622.266845L609.621397,622.267186L609.639921,622.271957L609.650062,622.274684L609.658445,622.276729L609.822966,622.314218L609.980642,622.351026L609.988852,622.352730L610.001254,622.355456L610.004033,622.356479L610.023232,622.360909L610.024818,622.361250L610.050249,622.367385L610.066278,622.371134L610.071317,622.372156L610.210564,622.408282L610.289026,622.428731L610.484271,622.476104L610.538682,622.487010L610.660129,622.523136L610.760035,622.546312L610.783253,622.551424L610.874212,622.572554L610.889675,622.576303L610.977572,622.596411L611.038530,622.612429L611.103853,622.629811L611.130086,622.636968L611.139490,622.639354L611.256506,622.655031L611.292533,622.658099L611.847267,622.790335L611.895780,622.816919L612.043010,622.872131L612.150632,622.862588L612.175327,622.868382L612.200021,622.874176L612.216788,622.878266L612.241937,622.884400L612.267652,622.890535L612.453261,622.934500L612.639043,622.978807L612.650315,622.981533L612.704351,622.994484L612.689009,623.033338L612.673841,623.072532L612.669590,623.083097L612.666280,623.091617L612.656288,623.116497L612.640398,623.157055L612.633921,623.177163L612.490903,623.612392L612.416096,623.839380L612.361504,624.005363L612.310282,624.103861L612.306328,624.109996L612.883959,624.246668L613.614130,624.419469L613.695753,624.438896L614.020594,624.515583L615.151638,624.783477L615.895140,624.959688L615.955066,624.973662L616.031934,624.992067L616.046660,624.995476L616.063145,624.999566L616.692796,625.148511L616.745078,625.160781L617.766548,625.403116L618.180272,625.511844L618.186505,625.513548L618.239855,625.525137L618.628639,625.608642L618.860786,625.665222L618.874273,625.668971L618.990035,625.699988L619.049963,625.713962L619.163903,625.743615L619.304391,625.777699L619.450060,625.809739L619.642000,625.857797L619.890902,625.916763L619.934910,625.926648L620.219969,625.990044L620.411987,626.034354L620.487053,626.053101L620.520590,626.061281L620.543984,626.066734L620.655113,626.091957L620.917740,626.155695L620.958923,626.165579L621.165528,626.210230L621.268007,626.235112L621.479875,626.286239L621.508764,626.293055L621.634512,626.322027L621.660230,626.328163L621.680061,626.333275L621.774236,626.358498L622.006560,626.409284L622.144510,626.443369L622.189257,626.453594L622.264370,626.471318L622.315179,626.482907L622.346784,626.490065L622.436845,626.510516L622.441602,626.511538L622.751525,626.585502L622.886237,626.612089L623.065119,626.653331L623.203824,626.689461L623.413554,626.729682L623.525900,626.763426L623.586743,626.778082L623.719477,626.804669L623.725019,626.805010L623.732839,626.807055L623.718851,626.832959L623.603723,627.044969L623.599631,627.054172L623.581008,627.097120L623.573656,627.113821L623.570412,627.123024L623.567325,627.130864L623.561132,627.144839L623.536789,627.203807L623.511286,627.265501L623.507806,627.273682L623.303927,627.764175L623.297907,627.778491L623.270195,627.845299L623.220681,627.964941L622.799420,628.978333L622.797712,628.982764L622.688472,629.245916L622.158079,630.523183L622.152171,630.537159L622.086602,630.695329L621.387653,632.378311L621.248512,632.774096L621.214420,632.880117L621.197774,632.894094L621.191106,632.899889L621.187737,632.907730L621.107863,633.126250L621.068247,633.233635L621.065224,633.242158L621.038265,633.315453L621.030402,633.337271L620.979947,633.473975L620.934834,633.596702L620.911447,633.659770L620.908534,633.667952L620.805342,633.950227L620.744725,634.115911L620.742140,634.123070L619.400781,637.650668L619.398636,637.656464L619.368255,637.736927L618.222853,638.692610L618.061434,638.827287L617.541269,639.263030L617.530789,639.271895L617.209069,639.991667L617.207079,639.996099L616.704247,641.121302L616.466550,641.653569L616.349967,641.914419L616.195983,642.259154L616.127460,642.427602L616.044765,642.630489L615.863128,643.077187L615.845010,643.107195L615.850219,643.129700L615.880721,643.176416L615.891332,643.240182L615.851844,643.324408L615.852409,643.444097L615.845796,643.509569L615.824700,643.530370L615.774678,643.563787L615.763953,643.603343L615.756672,643.648014L615.734584,643.785436L615.545777,644.957809L615.502137,645.260968L615.456554,645.578110L615.490135,645.793973L615.549682,645.855015L615.619179,645.910601L615.799500,646.054170L615.827123,646.127489L615.833584,646.145222L615.852735,646.224680L615.935895,646.568772L616.009665,646.874330L616.022422,646.926166L616.099105,647.244687L616.150239,647.456126L616.154613,647.474201L616.635951,649.425294L616.657230,649.512261L616.523995,650.034072L615.581718,654.445870L615.576496,654.470088L615.107994,656.633030L615.100888,656.665777L614.573772,659.098683L614.594994,659.125974L614.611746,659.147807L614.418014,659.967568L614.362636,660.073323L614.361124,660.079804L614.200058,660.824191L614.177744,660.928242L614.042080,661.554604L614.015826,661.675375L614.010937,661.698573L614.008352,661.710173L613.968181,661.896447L613.957749,661.944892L613.953434,661.963656L613.949511,661.982078L613.849856,662.437874L613.844313,662.463121L613.865304,662.474379L613.887781,662.481885L613.915844,662.478132L613.950336,662.493143L613.929054,662.526919L613.917687,662.562400L613.909271,662.588670L613.896263,662.603682L613.893312,662.612893L613.882972,662.618693L613.821363,662.682151L613.808780,662.689656L613.792827,662.709444L613.782905,662.752773L613.776443,662.781772L613.774861,662.792007L613.762118,662.967710L613.614831,663.835319L613.599926,663.923344L613.573400,663.973497L613.570630,663.978615L613.541764,664.107581L613.528141,664.168653L613.314439,665.126365L612.998016,666.545406L612.978576,666.631731L612.510006,668.839051L611.438742,673.947205L611.432797,673.971094L611.431770,673.975189L611.226596,674.777530L611.181627,674.952607L611.161939,675.030078L611.160803,675.034515L610.685018,676.894551L610.616732,677.222200L610.604892,677.268959L610.498750,677.623916L610.497441,677.628012L610.285877,678.456031L610.275066,678.498695L610.273603,678.504156L610.261154,678.551940L610.260083,678.557060L610.226093,678.740347L610.208532,678.810317L610.199030,678.848886L610.193595,678.867658L610.192241,678.872778L610.171282,678.903838L610.137863,679.082689L610.093250,679.208978L610.022101,679.531528L609.982420,679.644165L609.981110,679.648261L609.472907,681.636536L609.324954,682.219897L609.314985,682.275878L609.309847,682.305235L609.302697,682.346197L609.300249,682.359168L609.288836,682.374529L609.289002,682.383745L609.288800,682.390572L609.288878,682.401837L609.288692,682.414808L609.287226,682.424707L609.284052,682.447919L609.279128,682.481030L609.276503,682.498098L609.276087,682.501170L609.253592,682.678674L609.246438,682.776301L609.243225,682.819994L609.223143,682.924449L609.219148,683.044948L609.209764,683.183198L609.175494,683.345344L608.650329,683.938291L608.626048,683.965600L608.904663,685.761229L608.971112,686.121731L609.062606,686.771394L609.134830,687.407072L611.136920,704.956158L612.370616,704.221116L615.086318,706.918508L619.512937,709.860018L619.939819,709.938589L624.816483,710.841829L622.602679,713.790843L621.310931,716.248772L621.061771,719.443930L621.400973,722.394698L621.881713,723.838223L621.931086,723.999188L621.980353,724.160495L622.337489,725.326921L623.392199,727.025538L624.487921,728.632978L626.379662,730.239810L627.965765,731.339103L630.132480,732.301014L633.214799,732.863337L635.630161,733.019559L639.916094,732.686606L643.636057,731.760577L645.167043,731.379097L648.923071,729.659756L651.882414,728.286738L656.849056,726.721353L658.927472,725.879219L658.987518,725.854953L658.133591,726.794152L656.425138,728.718428L655.170946,731.005141L654.245618,733.860501L653.978127,735.799876L653.730768,738.001934L653.881445,740.464333L654.752888,743.402557L655.768587,746.362582L656.914370,748.569777L657.647590,749.376223L658.444395,750.840734L656.958304,751.558990L655.604182,752.523873L652.715986,754.945950L650.566764,757.581327L648.633464,760.786208L647.538546,763.713226L647.398021,764.589500L647.027330,766.904675L646.813165,769.307278L647.387295,772.492430L648.514640,775.791874L649.025240,776.737617L650.684208,778.785966L654.920996,782.066541L661.192859,783.834828L666.000585,784.487733L672.603282,783.639679L677.629881,781.835113L682.527903,778.548401L684.302154,777.151110L686.394942,775.146334L689.041867,771.587879L691.276054,768.222817L691.998365,766.903306L692.236724,765.804553L692.534550,764.839282L692.645937,763.784394L695.360572,762.457194L697.099992,761.515971L698.940551,760.287392L701.061561,758.438281L702.686569,756.604325L703.968090,755.025309L704.841381,753.586610L705.674927,753.580453L707.803042,753.381722L709.024111,752.937744L709.835769,752.553972L710.407630,752.171915L712.106225,751.976612L714.331123,751.709484L716.884351,751.439964L719.204590,751.149582L720.860540,751.018587L722.692262,750.874252L726.152511,750.565406L728.111920,750.391319L733.261716,750.039725L734.159068,750.005182L737.141159,749.891291L743.195074,749.805788L750.691793,749.950117L754.777823,750.111890L755.509582,750.150196L759.133318,750.340700L759.892311,750.414918L762.146810,754.715057L763.272500,756.687451L767.230451,760.024644L771.167590,761.723988L775.469568,761.635033L780.247037,760.561432L784.944522,758.747542L786.933634,757.604590L789.860589,759.068780L792.536806,759.661317L795.797626,760.285339L797.215075,759.961010L800.922732,759.211782L805.117442,757.997315L807.303538,759.149176L811.880989,763.339251L815.991898,768.141030L818.025652,769.562229L829.501966,774.313586L832.277837,776.298458L834.909198,777.834686L837.675300,779.189216L844.265756,782.505779L848.865258,783.820791L855.393459,785.889109L858.384567,786.651623L862.291900,787.548379L866.229755,787.299449L872.973787,786.921435L878.851226,787.170020L881.945711,788.100005L885.796975,788.473239L889.536762,788.490018L893.360056,788.061312L898.308574,787.000530L901.360226,786.267111L904.337789,785.291984L907.562201,784.169325L911.356833,782.509545L915.128009,780.447608L917.968556,778.634321L920.512446,776.888911L922.704574,774.866011L926.008729,770.907173L927.893352,768.469889L928.739395,766.901253L929.645440,765.533549L930.635062,763.781315L931.831397,761.250476L932.560856,759.647290L932.998406,757.975078L933.320272,756.990196L933.659177,755.432713L933.773422,754.310056L933.829961,753.131000L933.562983,750.862966L933.126564,748.057123L932.798506,746.144402L932.388084,743.934289L931.751867,741.563957L930.749835,738.759234L930.055933,736.572511L929.790872,734.340463L929.263428,732.383054L928.666298,730.128379L928.122126,727.027589L927.396730,724.156053L927.032448,722.605550L926.369597,720.010485L925.500748,717.071196L924.743975,714.454337L923.919897,712.605673L922.560078,710.458189L921.095628,708.402726L919.969982,707.105014L918.972617,705.940906L917.575074,704.073904L912.846031,701.621266L907.940720,700.691624L901.907794,701.072084L897.538338,702.667741L892.361764,705.128649L887.960526,708.866962L884.745089,712.877620L882.275039,717.317209L881.342832,720.381246L881.100017,725.772586L881.714540,727.541633L882.242468,729.424251L883.117962,731.516511L882.035393,731.562316L879.651167,731.513776L876.933691,731.839881L875.342467,732.288024L872.865310,733.175439L870.996762,733.982200L867.827683,734.377041L865.383251,731.975246L861.702470,730.249723L858.314870,729.877147L855.243338,729.656680L852.330090,729.998490L850.641458,729.229422L850.519582,727.615459L850.032071,725.300947L849.453528,724.155711L847.815024,721.585817L847.664836,721.384540L846.905379,720.367577L844.599221,719.108033L844.114149,719.054044L841.763818,718.350826L839.433811,717.900131L834.867395,718.084987L831.609822,718.576688L829.076954,719.198927L827.409961,718.833988L823.303180,718.521674L818.815746,719.566261L813.865895,721.990768L810.480385,724.156394L808.652504,725.417831L807.683660,726.326258L804.034028,725.928434L804.955316,724.156394L806.472604,720.655987L809.305753,711.555487L810.211272,704.134360L809.492704,700.118208L807.048079,696.179684L803.558270,693.651786L799.698590,692.114236L796.476195,691.965368L791.820054,692.428024L788.212374,693.062777L785.303400,693.861100L785.265731,693.869295L783.996681,694.143147L783.999174,694.120952L784.307140,691.400628L784.309781,688.456545L784.028826,686.148700L783.957976,685.520213L783.341996,683.258638L782.535694,681.856703L784.348482,681.286660L785.459899,680.778066L785.864685,680.627878L787.028185,680.714577L788.183248,680.869885L789.890588,680.634363L791.486787,680.307708L793.381231,679.876950L795.239411,679.400801L798.072617,678.315068L801.042443,677.034484L803.902305,675.537568L806.441632,673.973141L809.709995,671.697264L812.232547,669.619101L814.598387,667.598377L816.927156,665.738467L820.056756,662.938369L820.861324,662.146860L823.193888,661.819685L825.514749,661.286796L827.098019,660.931995L830.206313,660.279375L834.156953,658.760278L835.935008,658.144878L837.894175,658.239712L840.055885,658.334205L843.373831,657.976703L846.135733,657.254886L848.950550,659.009988L851.136363,660.469394L854.014448,661.261891L857.155308,661.583603L860.557532,661.319888L862.426371,660.978733L865.005160,660.308713L867.966941,659.119834L870.093460,658.108036L871.992737,656.819961L874.173112,654.972524L876.729123,652.790576L879.845062,651.701866L882.690830,650.626147L884.021343,650.097849L884.584330,649.874117L885.246417,649.585587L888.547449,648.889509L890.827504,648.083288L891.851803,647.599700L895.057463,647.680525L897.959570,647.830922L900.145639,647.522286L901.384413,647.315621L902.157981,647.095316L906.936291,645.478193L911.503582,644.573152L911.639585,644.546213L915.606767,643.392607L916.569873,643.112651L916.603073,643.121176L919.019417,643.737014L918.651062,645.151844L918.332161,646.377458L918.229865,649.693700L918.281127,650.736310L916.271644,652.425623L914.044647,654.987873L911.717906,658.160911L911.113592,658.972463L910.714007,659.509073L908.729168,660.193406L906.020310,661.285772L903.702252,662.273091L901.059620,663.934603L898.325144,666.148588L895.902695,668.591664L893.956800,670.964946L892.796849,673.062296L891.979683,675.464874L891.343663,678.201411L891.064155,680.241148L891.174537,681.464157L891.134045,682.008261L891.229273,683.381186L892.429056,686.936970L895.038193,690.227814L898.988417,692.601137L901.880388,693.445546L906.960842,693.756272L911.437648,693.124580L916.786069,691.080021L917.999986,690.403649L920.151593,689.205261L923.537819,686.448439L925.630359,684.737095L925.693792,684.535344L926.303204,683.756685L927.404056,683.666565L929.210557,683.382211L931.845394,682.675260L934.493144,681.888448L935.385472,681.463816L935.718076,681.463816L938.824098,679.912789L942.897200,677.355650L946.835341,674.016483L950.026709,670.530202L952.601879,666.266984L955.426041,660.250036L956.303697,657.310148L957.135535,656.241434L959.247251,652.743166L960.005619,651.053498L962.955865,648.737745L966.577920,645.305981L969.721534,641.524337L970.948006,639.646270L971.373717,638.821491L971.332625,638.793191L973.161832,637.051973L977.580527,632.032641L979.352087,629.462029L980.637592,628.022206L983.883690,622.445431L985.377333,618.417906L986.610524,615.911559L988.633309,610.940218L990.111547,606.352066L991.775416,600.861750L993.043107,596.226024L993.890026,593.367529L994.082774,590.706066L994.820571,588.252835L995.310341,585.405782L995.837647,582.308328L996.289394,580.723086L997.649328,576.625768L998.392146,573.446235L998.593756,570.172991L998.317803,568.485066L998.559199,567.516386L998.865214,566.081445L998.897920,564.815359L998.896426,564.788132L999.105008,562.568489L999.102007,561.249416L999.455295,558.141790L999.787971,548.344259L1000.000000,542.907974L999.669660,537.671999L999.922862,530.898403L999.386334,525.054442L998.811878,522.159427L998.262815,518.516261L996.519583,513.801132L995.231627,511.162781L994.406605,508.494662L992.411347,501.255213L988.178339,490.913013L987.590665,489.943574L985.357630,486.261035L979.260345,480.058614L973.205760,475.406955L966.279486,471.789667L960.266607,468.690259L960.263554,468.689240L959.304287,468.370988L957.737053,468.069380L956.284506,467.926728L955.551516,467.655012L952.513441,466.528764L947.900340,465.704132L946.685391,465.492881L943.247989,465.723151L939.917296,466.500234L937.032719,465.989083L934.363404,466.080445L930.358332,466.622504L924.169190,468.070399L922.919802,468.689579L914.906341,472.343674L902.588613,471.131049L888.344999,469.896374L878.312522,468.690938L877.368470,468.691278L854.124508,466.775341L824.285048,464.146604L822.045650,458.731616L821.819332,457.780442L819.928751,453.111073L818.934848,450.663306L821.409617,446.339832L823.535180,442.271314L825.028474,437.694250L825.290796,433.625689L823.890133,430.574972L820.724341,428.032494L817.583465,426.250350L816.551662,425.508796L815.735489,424.983096L815.496824,421.714295L816.017251,420.064015L816.396942,418.686612L816.535807,417.730356L816.745587,416.443948L836.346486,383.843736L836.633505,383.435746L840.223477,377.793331L842.743457,373.490468L847.913581,364.663864L861.923623,341.463974L868.505967,330.916937L872.311993,327.753228L877.570444,323.535163L882.859647,320.899333L889.980014,317.736053L895.412034,312.991381L899.217309,309.828431L903.370347,305.611364L908.219264,299.286190L909.437208,295.596737L910.072887,290.326720L911.173460,280.313971L909.720250,271.355520L906.118903,265.559802L895.574660,262.398661L886.338107,260.291294L881.922149,260.291633L876.052843,261.345648L869.106562,263.979895L863.062008,265.560479L860.634256,262.936683L861.199138,259.007057L861.290328,256.779915L861.203325,256.181325L861.000733,255.366056L860.704751,254.562306L860.447108,253.758225L860.596369,252.999178L860.728913,252.059011L860.757951,251.469931L860.828147,250.756268L860.762504,249.488413L860.711098,248.910858L860.811542,248.381719L860.831395,248.276433L860.941496,247.211732L860.876473,246.520783L860.758650,245.603700L860.641711,244.799695L860.510115,243.962182L860.916110,243.315941L861.249732,242.771599L861.548774,242.216427L862.056798,241.377582L862.573839,240.357302L862.910462,239.496132L863.281739,238.646478L863.506993,237.774152L863.796116,236.901495L863.960572,235.904955L864.037371,235.731645L864.061075,235.678163L864.394900,234.748996L864.748666,233.604897L865.137198,232.086785L865.285957,231.599708L865.315676,230.739290L865.432057,230.003099L865.495473,228.847884L865.395784,227.761052L865.264328,227.115931L865.149639,226.459306L864.955231,225.735331L864.840675,225.271300L864.548435,224.841793L864.718752,223.788510L864.986402,222.904803L865.141751,221.704653L865.210574,220.572205L865.243375,219.972141L865.740067,219.631666L866.185671,219.291193L866.620460,218.905707L867.297152,218.293131L868.206279,217.442298L869.279584,216.444253L870.913341,214.606574L867.473474,214.602175L866.847682,214.603529L854.619948,215.078344L850.650482,215.281401L848.529751,215.382930L848.453287,215.386653L848.383110,215.390038L848.296428,215.394099L848.011005,215.408313L847.825401,215.417789L847.543094,215.418466L847.520352,215.421850L847.497216,215.425573L847.428406,215.445879L847.317750,215.451970L847.262001,215.455016L847.187486,215.465507L847.046935,215.485475L846.511730,215.489536L846.243418,215.559253L846.145118,215.588019L845.770881,215.706809L845.584661,215.766034L845.345355,215.842181L845.293789,215.857072L845.091477,215.958602L844.914609,216.027642L844.459607,216.189074L844.014407,216.334600L843.671550,216.451021L843.375811,216.558305L843.216652,216.639867L843.027856,216.745459L842.672977,216.940736L842.658608,216.940059L841.264613,217.752306L841.144536,217.853837L841.085353,217.885650L837.469313,219.258702L837.405963,219.193721L837.286658,219.071882L837.231250,219.046161L837.213807,219.038715L835.694665,217.740461L834.404409,216.511939L834.354715,216.469974L834.289222,216.414809L834.200481,216.339338L834.037700,216.191443L834.024201,216.178921L833.931049,216.093975L833.569136,215.744036L833.513746,215.690564L833.510835,215.687518L833.354076,215.535901L833.230977,215.417112L833.160893,215.358902L832.945765,215.181226L832.920398,215.155506L832.864797,215.097634L832.715967,214.943311L832.640577,214.897623L832.416402,214.703365L832.301479,214.572732L832.211692,214.470188L831.900284,214.232951L831.768860,214.125670L830.285116,212.734746L830.276269,212.725947L830.149739,212.597347L830.121466,212.568581L830.114748,212.561813L830.100192,212.546584L830.021531,212.467055L829.994376,212.439981L829.936989,212.382450L829.931669,212.377373L829.923439,212.369251L829.837387,212.304274L829.526233,211.963147L829.281967,211.890387L829.253081,211.881926L829.162779,211.854853L828.999006,211.804090L826.311535,210.938417L825.922273,210.810834L825.824465,210.779361L825.561199,210.721492L825.305888,210.649071L825.301737,210.648056L825.166767,210.597632L825.002409,210.579696L824.972900,210.573943L824.811607,210.543485L824.429335,210.509982L822.874023,210.565144L822.369480,210.559053L822.049253,210.559053L821.884186,210.574281L821.881547,210.574620L821.874585,210.575297L821.873988,210.567851L821.744067,210.580373L820.474715,210.703556L820.376851,210.713370L818.850741,210.919466L818.368525,210.976658L818.070672,211.003731L817.556414,211.116424L817.295862,211.192230L817.188619,211.223364L817.151366,211.236562L817.080588,211.255175L816.782539,211.390204L816.162787,211.687335L815.405207,212.050798L814.986676,212.251481L814.876227,212.303936L813.857732,212.766896L812.727804,213.289421L812.320973,213.478600L811.358516,213.928367L811.024885,214.095888L810.954449,214.131084L808.947269,215.011335L808.938504,215.014042L808.908221,215.023180L808.877545,215.032656L808.839339,215.044501L808.800853,215.056346L808.727982,215.078682L807.458193,215.634046L806.753374,215.942019L806.737637,215.948787L806.716896,215.957925L806.558282,216.027642L805.813123,216.326139L805.538584,216.436130L805.293830,216.534276L804.400583,216.771180L803.612632,216.913999L802.794974,217.059188L802.733254,217.068326L802.697198,217.073741L802.661423,217.079156L802.440205,217.111984L801.222517,217.293386L800.817311,217.354304L800.358409,217.424699L799.468347,217.561427L799.323729,217.583426L799.308572,217.583426L799.160817,217.583764L799.136387,217.587149L798.660828,217.651113L798.558155,217.669389L798.420997,217.693418L798.283445,217.717785L798.168304,217.738092L798.093995,217.751291L798.053162,217.758398L797.857665,217.786488L797.804388,217.787165L797.660902,217.786488L797.494596,217.814579L797.293130,217.848761L797.112444,217.879559L796.931872,217.910018L796.779156,217.936078L796.626274,217.961799L796.476198,217.987520L796.262262,218.023733L796.185229,218.046747L796.089256,218.076868L796.043799,218.091083L794.561526,218.339158L794.021264,218.429522L793.881857,218.453551L792.699707,218.656953L791.822372,218.807559L791.187621,218.916876L790.902851,218.965950L790.477267,219.039053L790.241214,219.072559L790.152858,219.089143L788.595421,219.377157L788.464059,219.431646L788.432413,219.444846L788.392981,219.451953L788.368491,219.456353L786.806294,219.735907L786.730238,219.750121L786.011238,219.885499L784.657065,220.812164L783.564204,221.577057L783.555142,221.584841L783.550251,221.586872L783.020743,222.044119L783.012074,222.051565L782.876767,222.146331L781.141815,223.368486L779.776934,224.914900L779.755356,224.939946L779.736315,224.961608L779.727242,224.972777L778.853767,226.060933L778.729285,226.215612L778.693163,226.260627L776.777704,228.684740L776.022640,229.768197L776.005274,229.793244L775.384655,230.716611L774.680142,231.764887L774.495178,232.024842L774.465688,232.068507L774.272291,232.412407L774.257665,232.441855L772.904940,234.446722L772.884980,234.476171L772.870881,234.498173L772.856388,234.520513L772.261599,235.444939L772.185694,235.562736L772.055428,235.764141L771.980424,235.880922L770.766619,237.756211L770.716359,237.756211L770.514196,237.756211L770.415954,237.723376L770.410288,237.721007L770.408268,237.720330L770.342620,237.700020L770.283144,237.681402L770.044399,237.606931L769.982623,237.587637L769.976282,237.585606L769.600386,237.476269L768.736602,237.224763L768.701532,237.214608L767.191871,236.774557L766.272630,236.503419L766.205917,236.483786L766.195424,236.480740L765.198906,236.177107L763.938982,235.793929L763.891348,235.779373L763.880408,235.775988L761.745274,235.127093L761.671776,235.105091L761.597831,235.082750L761.151242,234.947353L761.058746,234.931782L760.936445,234.912149L760.890660,234.899625L760.631114,234.824480L759.888670,234.609198L759.754840,234.577042L759.745131,234.575011L759.635372,234.548947L759.603671,234.540484L758.329313,234.114324L758.300312,234.104508L758.290441,234.100446L758.273659,234.097738L758.145071,234.078444L758.075142,234.065920L758.045747,234.056442L757.544053,233.897013L757.485124,233.886858L756.772699,233.762294L756.569288,233.697304L756.542474,233.688503L755.168212,233.246437L753.300060,232.645285L752.396067,232.967862L749.792321,233.897352L748.376197,234.429459L747.801298,234.642032L747.750129,234.664034L746.648580,235.153834L742.567071,236.943130L742.417416,236.995936L742.228858,237.062621L741.903838,237.324621L741.826943,237.383181L739.305884,239.304197L739.293498,239.314353L738.879791,239.650830L738.824952,239.695514L738.770114,239.740197L736.216632,241.818330L736.200190,241.832210L735.479600,242.427663L735.334915,242.541067L735.134041,242.699833L735.076368,242.752980L735.067750,242.761105L735.040487,242.787171L734.768104,243.042077L733.625614,247.305507L732.676473,250.844291L732.501518,251.494645L731.454966,255.288186L731.454282,255.291911L731.445271,255.342357L731.247878,256.410197L731.228770,256.476557L731.133743,256.807678L731.089120,256.963759L731.073302,257.018607L730.987837,257.325353L730.627509,258.621078L730.606186,258.698274L730.584696,258.775131L729.968672,260.989455L729.961925,261.013834L729.916509,261.000967L729.412786,260.856730L729.152590,260.782241L728.843499,260.693532L728.666274,260.643083L728.383793,260.562161L726.885629,260.133515L726.082877,259.931042L725.876917,259.872468L725.529996,259.775972L725.308878,259.714012L725.196155,259.683201L724.717135,259.576886L723.852327,259.290448L723.782338,259.267086L723.393737,259.151630L723.327789,259.129623L723.286088,259.115741L723.273235,259.111339L723.252019,259.104229L723.090658,259.050057L723.076175,259.046332L723.055965,259.041254L723.035923,259.036513L723.011727,259.030758L722.987530,259.025002L722.741697,258.964735L722.674947,258.948483L722.626110,258.934940L722.473263,258.890586L722.440201,258.881106L721.425386,258.590607L721.125979,258.504947L720.978353,258.462625L720.328081,258.273022L719.672202,258.081727L719.163275,257.933093L718.501931,258.029248L718.400324,258.044145L716.429156,258.328548L716.357666,258.340737L715.462562,258.576386L712.635320,259.321258L711.715745,259.874161L711.509950,259.998082L711.504997,260.001129L711.468207,260.018735L711.211344,260.143333L710.552839,260.492751L710.539219,260.501555L709.250335,261.321947L709.245270,261.325333L709.095450,261.420476L708.964895,261.517651L708.151158,262.122709L708.048188,262.199569L705.150495,264.470523L705.058329,264.540274L704.449329,264.976730L703.392232,266.071433L702.581799,266.917610L701.229659,268.349257L700.032998,269.614326L699.875893,269.762303L699.648005,269.968183L698.924449,270.543839L698.916397,270.550273L696.447678,272.513964L696.441090,272.519382L696.219122,272.695808L695.921137,272.933188L695.854911,272.988385L695.849786,272.992787L695.074401,273.657862L694.022775,274.559988L693.787929,274.761477L691.455411,274.747255L688.387664,274.763171L687.367516,274.761477L683.695888,274.693750L683.661503,274.692395L681.915622,274.620265L681.665152,274.609768L681.414962,274.599270L680.572478,274.563713L680.541465,274.562358L680.510619,274.561342L679.811349,274.531881L679.667012,274.525785L679.641953,274.525108L679.622513,274.524431L679.602570,274.522738L679.597345,274.522399L679.268597,274.493954L679.238037,274.491244L679.207196,274.488535L679.118098,274.481085L679.077650,274.477699L679.054168,274.475667L679.030686,274.473635L678.727836,274.447560L677.737436,274.362901L674.461976,274.356467L674.432757,274.356467L674.300822,274.356128L674.205972,274.355790L673.967107,274.355112L673.947440,274.355112L673.851552,274.345292L673.838238,274.343937L673.345712,274.329715L672.869584,274.318540L672.737940,274.314815L672.718500,274.314137L672.693668,274.312783L672.655690,274.310412L672.621083,274.308042L672.552935,274.304317L672.536866,274.303640L672.411182,274.298899L671.439095,274.256908L671.396114,274.255215L668.859324,274.145496L668.733960,274.146512L668.031053,274.152269L667.603841,274.150237L666.441199,274.114342L663.113591,273.989385L662.946051,273.982951L662.687769,273.974824L658.652751,273.846481L658.277503,273.831920L657.768987,273.812618L655.501308,273.745907L655.327399,273.745907L655.288066,273.745907L655.183552,273.745907L655.079319,273.745907L654.992505,273.745907L654.933786,273.745907L654.900131,273.744891L654.894626,273.744552L654.803328,273.741166L653.356949,273.685969L653.337509,273.685291L653.257336,273.682244L653.092889,273.675810L653.043501,273.674794L653.036029,273.674455L651.102743,273.626030L650.732424,273.616887L650.650787,273.614856L650.645168,273.614856L650.578140,273.612824L650.504704,273.611469L649.908867,273.610453L648.253661,273.564738L648.230007,273.564060L647.699536,273.558304L646.383841,273.510556L646.354401,273.509540L646.331871,273.508863L645.495930,273.509202L643.625570,273.434025L642.835987,273.402532L642.719578,273.397792L642.560752,273.391357L641.336828,273.342256L639.865683,273.273852L639.828718,273.271820L639.807258,273.270466L639.768152,273.269788L638.590397,273.243036L638.533538,273.241682L638.470778,273.240327L637.710481,273.191903L636.650938,273.137722L635.425350,273.101149L633.541399,273.061530L632.362802,273.036471L631.827299,273.025635L630.628080,273.000914L627.535331,272.916595L626.284963,272.882732L625.671887,272.866139L625.641491,272.865462L625.630815,272.865462L625.473048,272.847515L625.326117,272.831599L625.281333,272.831938L624.813108,272.831599L624.700729,272.831599L624.669824,272.831599L624.532160,272.831599L623.307081,272.797736L621.835552,272.764889L621.773523,272.763873L617.768239,272.662961L612.594947,272.524800L609.373105,272.459444L608.203161,272.426259L608.052421,272.422534L605.092065,272.323993L604.726555,272.323993L604.586083,272.323993L603.113991,272.256944L603.055341,272.254235L602.957864,272.265071L602.658945,272.290130L602.462284,272.290130L601.833184,272.239336L601.288368,272.188541L600.204068,272.154678L599.822130,272.120816L599.653564,272.120816L599.597375,272.120816L599.288337,272.120816L598.597361,272.086953L597.052117,272.086276L596.967834,272.086276L596.632474,272.053429L596.441120,272.047672L596.294262,272.043270L594.304705,271.985365L594.222229,271.983333L590.604080,271.881067L588.787588,271.849914L588.575324,271.821130L588.531193,271.813681L588.012338,271.816051L587.183331,271.791670L584.590642,271.714463L581.124841,271.614568L581.056747,271.613214L580.920530,271.604748L580.506373,271.579012L573.383335,271.377192L573.215613,271.377192L571.354212,271.342652L570.990956,271.342652L568.079172,271.274588L567.953951,271.270186L567.063072,271.239371L566.765274,271.205170L566.219119,271.206863L561.881803,271.071413L561.387519,271.037551L561.190862,271.037551L561.016416,271.034165L560.657078,271.037551L557.271308,270.905488L555.367496,270.829298L553.793002,270.764621L553.359392,270.766652L551.528028,270.698928L549.881912,270.665066L549.797631,270.665066L549.443826,270.631203L546.409502,270.530971L539.050698,270.292582L538.751168,270.291904L536.430122,270.190995L532.326608,270.090764L529.467274,269.996627L528.820282,269.976649L526.061934,269.891317L525.802513,269.882513L525.595223,269.875740L522.422362,269.766705L519.250640,269.666812L518.867911,269.654622L517.354093,269.603491L517.245787,269.599766L517.233822,269.599427L516.630216,269.579110L515.215946,269.531026L511.910316,269.457546L511.875147,269.456869L511.825932,269.456192L511.414907,269.450435L511.371030,269.449758L511.358221,269.449419L510.655597,269.432827L509.706294,269.410478L509.670844,269.409801L508.308518,269.377632L508.042007,269.371537L507.871169,269.367474L504.987256,269.299750L504.882593,269.297719L504.421179,269.290608L503.454441,269.262503L502.580713,269.240154L502.532684,269.238461L500.217967,269.149066L499.912574,269.134167L499.641487,269.123331L499.615537,269.121977L499.294704,269.105384L498.974037,269.089131L498.876585,269.084052L498.739710,269.075925L498.631198,269.069491L498.627098,269.069152L498.588340,269.067459L497.692226,269.022423L497.640409,269.015312L497.569168,269.005831L497.208703,268.974340L496.725703,268.997027L496.087640,268.990593L495.449692,268.983821L495.262968,268.977726L494.782059,268.961811L494.760937,268.961134L494.585898,268.955377L494.460687,268.950975L494.449845,268.950637L493.810784,268.923886L493.557564,268.913389L493.304624,268.902892L493.281474,268.903231L493.054505,268.881559L491.783587,268.835846L488.341679,268.706156L486.170287,268.624212L486.105913,268.621841L485.171617,268.593398L483.601623,268.523305L483.554105,268.520934L482.852436,268.507390L482.791267,268.504681L482.464458,268.492491L482.305830,268.486396L482.206518,268.482671L482.106925,268.478946L482.095241,268.478607L481.202277,268.445085L480.538360,268.423752L476.050014,268.256816L475.793022,268.248350L475.655516,268.242932L474.839626,268.212457L474.351665,268.194172L474.315603,268.192818L473.985541,268.180289L473.586221,268.182321L473.545498,268.180628L472.706292,268.150152L472.638549,268.147782L470.116559,268.056018L466.597148,267.927346L462.870626,267.769891L462.693564,267.765151L462.507179,267.759733L462.443536,267.757701L462.239287,267.751945L457.065480,267.601940L454.828603,267.536927L449.801784,267.390986L449.787291,267.390647L449.770550,267.390309L448.932778,267.367283L448.846163,267.364236L448.315466,267.345273L446.866209,267.302947L444.680981,267.238950L444.591724,267.236241L441.130544,267.134997L441.108019,267.134320L440.862376,267.127209L438.972348,267.071677L438.963193,267.071339L435.939109,266.982623L435.878724,266.980930L435.693402,266.969079L435.520773,266.957905L435.300989,266.949101L433.565730,266.882057L433.485463,266.879348L432.125216,266.838037L432.115218,266.837699L430.910794,266.800791L430.897144,266.800452L430.887707,266.800113L428.543681,266.729006L428.498824,266.732053L428.098047,266.757449L424.500943,266.620652L424.470387,266.619636L424.453647,266.619297L424.429717,266.618620L424.335571,266.616250L422.391601,266.565797L418.806424,266.445253L417.968307,266.419181L416.301730,266.360940L416.262363,266.358570L415.852315,266.331820L412.743956,266.223466L412.732272,266.223128L408.450738,266.074480L406.825692,266.017256L401.218595,265.813078L398.610083,265.720300L396.710483,265.642760L393.829747,265.540163L393.650233,265.534407L393.404353,265.516461L392.293018,265.472781L392.274708,265.472104L388.936882,265.342419L387.247993,265.285534L386.848927,265.271990L386.818653,265.270974L386.763290,265.266911L386.707481,265.262509L386.651556,265.258446L386.513098,265.247611L386.046430,265.242870L385.442598,265.220184L383.005927,265.129439L380.207797,265.017023L378.267348,264.939145L375.866367,264.842644L375.406985,264.833840L375.333285,264.832486L374.513743,264.800658L374.481619,264.799303L373.569968,264.764089L372.265403,264.712960L372.126114,264.707881L370.865788,264.681132L370.818379,264.680116L370.463719,264.664879L370.329717,264.659123L370.195997,264.653367L370.128773,264.650319L369.157639,264.614089L369.134388,264.613073L369.096646,264.611719L369.066934,264.610703L368.945228,264.605963L368.881707,264.603592L368.815210,264.600884L368.426446,264.585985L368.320687,264.582261L363.228900,264.402465L360.751372,264.314768L358.722941,264.242985L353.934941,264.081135L350.449893,263.954500L340.312997,263.586446L340.276941,263.585091L339.179598,263.543444L339.177351,263.543444L339.093276,263.540397L339.042448,263.538704L338.908221,263.533625L338.294784,263.521097L338.238388,263.520081L337.535600,263.497734L333.450710,263.366698L333.118560,263.355524L333.043243,263.353154L331.254286,263.272907L331.215091,263.270875L331.210034,263.270875L330.399701,263.250898L330.195812,263.245819L329.840383,263.237016L329.669410,263.232614L329.008371,263.216362L327.370242,263.175730L327.142146,263.169974L327.077835,263.168281L326.280988,263.148304L326.241727,263.147288L324.342348,263.047403L324.022558,263.030474L318.861710,262.881831L314.622774,262.748087L313.841600,262.723370L313.697877,262.718968L310.110739,262.605540L309.761909,262.594705L309.739949,262.594028L309.717989,262.593351L309.679968,262.591996L309.589039,262.589288L307.776268,262.532066L307.131402,262.512089L306.950221,262.506333L306.887878,262.504640L306.879566,262.504301L306.750616,262.500238L305.084100,262.447418L302.668379,262.370896L299.420395,262.267964L297.664649,262.212436L297.549233,262.209050L297.448589,262.206002L297.120881,262.195845L297.108191,262.195168L296.585341,262.165033L296.569396,262.164017L296.546147,262.163001L296.518124,262.161986L289.296283,261.897209L286.698487,261.813577L285.764861,261.783781L284.147872,261.731639L281.034092,261.630739L279.155567,261.576227L277.929177,261.537628L277.766636,261.544738L277.748329,261.544061L272.747180,261.355467L272.383526,261.345310L272.322028,261.343617L270.732406,261.298585L264.854575,261.132339L260.142310,260.998597L260.016505,260.995211L259.239882,260.980314L259.109914,260.977605L257.415112,260.930542L257.385850,260.929864L256.597042,260.903793L255.782193,260.880769L255.711542,260.878738L254.543091,260.846572L253.765071,260.825919L252.246887,260.785627L249.748402,260.718249L248.111429,260.670508L242.841331,260.532027L242.738330,260.529319L240.898517,260.480901L240.504355,260.472098L240.366475,260.468712L240.194839,260.464649L240.023484,260.460586L239.988605,260.459909L239.895484,260.457877L239.578946,260.450428L239.488188,260.448058L239.081454,260.438239L239.032927,260.437224L234.095156,260.320074L233.991032,260.317365L229.916229,260.220530L228.741039,260.195814L225.295394,260.123696L219.884622,260.000113L219.766455,259.997404L217.911754,259.952373L216.965108,259.922239L216.627974,259.913436L216.583912,259.910050L214.411091,259.839287L214.153691,259.833869L213.223673,259.814232L212.611174,259.804074L210.493974,259.768523L210.186180,259.763445L206.203192,259.696405L206.070488,259.692681L204.442684,259.644603L202.256134,259.577902L201.171830,259.531517L200.797933,259.515265L200.412705,259.497659L200.390534,259.495966L200.015466,259.469218L199.759958,259.450935L199.692536,259.456690L199.257601,259.492241L197.472339,259.449580L197.432124,259.448903L197.405391,259.448226L197.378940,259.447549L194.850773,259.387620L194.559409,259.380510L192.419566,259.308731L187.164484,259.133008L187.145452,259.131993L186.766227,259.105922L186.670352,259.094749L186.323824,259.078159L186.301635,259.078159L186.275512,259.078159L186.257817,259.078159L184.925832,259.081544L179.920373,258.983018L176.986450,258.916318L174.045066,258.849280L171.194810,258.781903L171.103380,258.779871L169.327766,258.741951L168.945143,258.733148L168.284015,258.718250L167.305361,258.695565L166.980532,258.687778L164.182825,258.624464L161.950440,258.573678L161.857605,258.571646L161.764490,258.569615L160.985088,258.552347L160.215024,258.534064L160.090122,258.531356L160.057773,258.530678L159.868240,258.525600L159.831678,258.524923L159.795513,258.523907L159.762321,258.523230L159.729410,258.522553L154.590571,258.405405L154.024723,258.395248L153.603412,258.385429L153.485135,258.383059L151.286474,258.332273L151.264422,258.330241L150.107835,258.223928L147.014011,258.196842L145.794282,258.186685L145.451849,258.711479L145.170517,259.142827L140.916434,265.664431L140.881221,265.718607L140.797344,265.847277L140.774554,265.882491L140.572287,266.191976L140.543543,266.236333L140.331548,266.565120L139.926454,267.193915L139.503332,267.845740L138.533034,269.341062L138.380567,269.576062L137.567978,270.828620L136.630272,272.273537L136.335213,272.727978L136.228098,272.893230L135.983589,273.270127L128.526394,284.764762L121.938915,294.811920L120.857327,296.461840L120.797148,296.553634L120.001509,297.766963L119.118238,299.116144L118.945097,299.384763L117.507818,301.611324L116.300177,303.474461L116.253612,303.546277L116.202357,303.625208L116.176672,303.664842L116.170093,303.675005L116.120893,303.751225L116.012833,303.917894L115.318830,304.988716L115.302989,305.012768L115.292699,305.028012L114.377415,306.408822L114.371069,306.418308L112.404548,309.412744L112.390995,309.433410L112.344340,309.503876L111.450672,310.922033L111.446148,310.929486L110.065546,313.045589L109.900738,313.298333L109.880493,313.329502L108.502828,315.436524L108.265819,315.799050L108.261761,315.805148L108.257702,315.811247L108.248839,315.824799L108.237575,315.842079L108.214532,315.877315L108.190859,315.913568L108.167186,315.949821L107.700781,316.663360L107.678484,316.697241L100.421318,327.855227L100.235240,328.141568L100.216146,328.171050L99.605110,329.110394L99.598535,329.120560L99.432187,329.376408L99.417266,329.399451L99.329459,329.540083L99.324541,329.547877L99.315101,329.563127L99.307665,329.574987L98.909312,330.212749L98.299675,331.112809L98.251950,331.185669L96.861047,333.311498L94.113561,337.568089L94.012416,337.722294L93.750333,338.107637L91.607044,341.491428L91.452799,341.690718L91.446360,341.698853L91.442767,341.703598L91.172070,342.053375L91.047690,342.253345L90.945843,342.417050L88.052750,347.038567L88.050748,347.041956L87.964474,347.179912L87.629422,347.599542L87.618085,347.613778L87.246550,348.273396L87.244315,348.277464L87.229550,348.302547L87.210135,348.331359L87.206079,348.337460L87.194658,348.354408L87.171933,348.387965L87.129278,348.451013L87.101471,348.492027L86.975164,348.678796L86.870044,348.834042L86.722784,349.051658L86.559651,349.292664L86.556109,349.298087L86.552683,349.303172L86.550515,349.306222L86.528816,349.338424L86.330852,349.682138L86.316766,349.706883L86.307149,349.723493L83.863274,353.425479L83.813641,353.500734L83.811242,353.504463L83.806045,353.512260L83.799077,353.522769L83.741848,353.609550L83.450109,354.051593L83.402727,354.138374L83.312813,354.276344L83.248833,354.374652L82.334058,355.778774L82.296873,355.835726L82.267796,355.880474L82.262997,355.887932L82.257056,355.897085L82.226838,355.943528L80.666993,358.338269L80.651967,358.361661L80.641575,358.377256L80.605303,358.433193L80.346070,358.869165L80.337432,358.883743L80.333031,358.890862L80.330913,358.894591L80.285954,358.970192L80.178645,359.150887L79.502840,360.182862L79.062496,360.863282L79.031421,360.911424L78.946769,361.042288L78.940315,361.052119L78.246262,362.124468L78.238552,362.136334L78.147962,362.276354L77.901675,362.656411L77.745003,362.898482L76.125342,365.400273L76.088679,365.456555L75.810018,365.882063L75.570255,366.247221L75.242251,366.755464L75.182113,366.848365L73.973868,368.719302L73.710370,369.126860L72.284738,371.334906L72.195609,371.471555L71.634575,372.332146L71.558980,372.448113L71.443586,372.625454L71.052597,373.225300L70.469756,374.121858L69.838003,375.093369L69.042309,376.321936L68.646696,376.933007L67.594978,378.545149L67.587271,378.557018L67.582078,378.564818L67.577910,378.571261L67.557187,378.603138L67.548223,378.617042L67.414920,378.822208L67.411893,378.826956L67.406187,378.835434L66.909317,379.597438L66.660022,379.986752L66.648660,380.004387L66.643120,380.013204L66.632271,380.030160L66.616113,380.055256L66.608804,380.066786L66.582425,380.107820L65.968628,381.065857L65.183413,382.276565L65.126342,382.363045L65.120405,382.372201L65.111161,382.386106L65.037139,382.498361L65.028523,382.511248L64.684910,383.031149L64.672011,383.050819L64.656433,383.074220L64.650099,383.083716L64.630867,383.112882L64.144877,383.848145L63.777223,384.413843L63.646338,384.615297L63.632183,384.637003L63.629273,384.641412L62.263904,386.743498L62.236736,386.785214L62.128348,386.952082L62.060307,387.057562L61.832902,387.409274L61.810299,387.444208L61.673309,387.656187L59.019080,391.766677L58.995339,391.803310L58.779221,392.136055L58.772145,392.146909L58.675166,392.298527L58.671628,392.303954L58.653194,392.332447L58.611417,392.397232L58.601712,392.412496L58.573061,392.456930L58.515991,392.545120L58.501095,392.568185L58.489969,392.585145L58.484034,392.594303L58.480496,392.599730L58.477586,392.604140L58.468278,392.619064L58.438372,392.665534L58.387121,392.744905L58.378161,392.758812L58.372738,392.767292L58.362521,392.783234L58.348254,392.805282L58.240678,392.971487L58.231205,392.986072L58.197644,393.038309L58.186056,393.056625L57.859612,393.562029L57.817324,393.627494L57.758255,393.719078L57.221122,394.550461L57.209137,394.569117L56.988624,394.910697L56.941824,394.983626L55.711014,396.889656L55.689442,396.923239L55.431568,397.322499L55.418328,397.343191L55.412906,397.351672L55.409368,397.357099L55.268763,397.574878L55.110470,397.819796L54.530999,398.717045L54.499560,398.765555L54.336132,399.018958L54.060240,399.446388L54.057728,399.450459L47.862220,409.039255L46.836689,410.626793L46.653355,410.910783L46.599106,410.994929L45.136431,413.259439L43.728090,415.439884L43.261382,416.162306L43.251518,416.177236L43.221746,416.223385L41.193842,419.371068L39.804635,421.527648L37.136738,425.649979L37.073906,425.747042L36.745265,426.255101L36.032571,427.358117L36.019572,427.378141L36.014155,427.386626L35.591454,428.040639L35.583873,428.052179L35.142419,428.735728L33.521566,431.258212L33.496315,431.296906L33.470602,431.336957L33.453264,431.364789L33.113881,431.892245L33.102536,431.909895L33.093585,431.923811L33.088681,431.931618L33.076311,431.950625L33.062572,431.972009L32.524570,432.809026L32.474517,432.886754L32.457244,432.913569L32.439113,432.942081L32.235420,433.259106L31.820524,433.903684L30.041154,436.666729L29.655489,437.265181L29.628923,437.306933L27.950865,439.924855L27.690680,440.328824L27.679965,440.345459L26.207288,442.628451L23.658643,446.574093L23.650324,446.586995L23.403935,446.967926L20.835684,450.966851L20.310441,451.779031L20.133938,452.052024L19.853753,452.484605L19.834212,452.514825L19.726139,452.681543L19.523547,452.994947L19.138026,453.591200L19.080543,453.680164L18.946611,453.886613L18.466763,454.628208L18.181099,455.073714L18.161841,455.103935L17.791177,455.682215L16.464916,457.750220L15.921539,458.583896L15.830297,458.723466L15.448671,459.320123L14.174985,461.310840L12.579943,463.822266L12.496725,463.952341L12.071702,464.616642L12.065779,464.625812L11.714128,465.174988L10.126512,467.648559L10.015813,467.819061L10.010915,467.826873L9.472216,468.693995L9.053126,469.374320L7.588692,471.685388L7.564838,471.721733L7.557266,471.733282L7.483543,471.845373L7.465495,471.872887L7.453255,471.891569L7.450467,471.895645L7.375208,472.009775L7.368775,472.019625L7.156494,472.341297L7.146019,472.357261L7.143627,472.360998L6.864060,472.784914L6.167860,473.822980L1.259668,481.512323L1.023056,481.885354L0.929403,482.310029L0.620557,486.599445L0.587569,487.056777L0.550696,487.180115L0.530533,487.481836L0.529075,487.499504L0.527014,487.523968L0.515854,487.657160L0.190432,491.507666L0.194945,491.911014L0.000000,494.315202L0.000000,494.315202Z " data-aland="-2147483648" data-awater="-2147483648" data-division="1" data-funcstat="A" data-geoid="25" data-intptlat="+42.1565196" data-intptlon="-071.4895915" data-lsad="00" data-mtfcc="G4000" data-name="Massachusetts" data-region="1" data-statefp="25" data-statens="00606926" data-stusps="MA"/></g><g fill="#000" font-family="Arial" font-size="12px" id="mylayer-label" stroke="none"><text text-anchor="middle" y="451.621813205"><tspan dy="0" x="575.38223516"><![CDATA[Massachusetts]]></tspan></text></g></svg>