<?xml version="1.0" encoding="utf-8"?><!DOCTYPE svg  PUBLIC '-//W3C//DTD SVG 1.1//EN'  'http://www.w3.org/Graphics/SVG/1.1/DTD/svg11.dtd'><svg enable_background="new 0 0 1000 1001" height="1001px" pretty_print="False" style="stroke-linejoin: round; stroke:#000; fill: none;" version="1.1" viewBox="0 0 1000 1001" width="1000px" xmlns="http://www.w3.org/2000/svg" xmlns:xlink="http://www.w3.org/1999/xlink"><defs><style type="text/css"><![CDATA[path { fill-rule: evenodd; }]]></style></defs><metadata><views><view h="1001" padding="0" w="1000"><proj flip="auto" id="robinson" lon0="-71.4630341517"/><bbox h="15.08" w="12.36" x="-974.95" y="-705.02"/></view></views></metadata><g class="" id="mylayer"><path d="M300.399165,999.000000L309.049522,998.447665L322.632130,997.534361L326.427402,996.873309L338.138178,994.384617L346.833060,993.582247L354.253536,992.661379L361.649861,991.084942L372.567145,986.776506L382.616225,981.843183L389.543172,977.575374L392.362418,975.454583L398.306339,970.345742L402.225057,967.180568L406.931678,961.271137L413.730506,951.825696L420.777506,942.237717L425.670782,933.977343L427.697907,927.986230L430.056186,920.396264L431.173325,912.101847L431.399154,906.131594L431.075207,900.738465L429.977315,898.033863L427.575604,891.565921L434.586386,880.673991L436.855847,875.525466L440.149058,866.818849L441.681694,856.567970L441.984539,847.617611L441.369045,841.424253L439.122681,836.054082L437.545135,831.408192L430.252715,808.131938L417.674613,792.255269L400.991949,783.750936L389.238691,783.750936L368.809081,788.851501L350.410859,796.791990L333.994018,805.332105L320.982327,816.669722L311.009429,831.410363L308.310990,836.607695L305.086040,844.618047L302.572574,851.795217L294.320955,859.761148L288.745514,866.472468L286.721950,869.013351L275.390530,878.634532L269.651729,885.127714L265.172754,891.777711L259.685974,902.479660L256.792234,908.779927L251.141632,919.628173L245.425546,930.440652L242.430855,941.315155L241.867595,949.358792L242.484148,957.194413L244.268637,963.761163L246.032377,966.401246L251.016274,972.864259L256.042298,979.095067L262.623986,985.302353L269.941909,990.714211L274.305571,993.406118L278.727637,995.458802L284.613808,997.283204L293.160350,998.146491L300.399165,999.000000Z M802.071046,0.000000L799.972807,0.036658L799.914304,0.037737L798.621850,0.056066L798.603063,0.056066L795.600088,0.109975L792.802307,0.157415L792.782626,0.157415L785.933967,0.270625L784.398386,0.296502L782.696596,0.324534L782.647039,0.325613L781.475992,0.325613L781.400844,0.325613L781.227289,0.325613L780.920837,0.335316L779.082850,0.396773L779.036871,0.397851L778.216273,0.425884L777.970466,0.433432L777.647933,0.448526L777.309838,0.464699L776.972638,0.480872L775.707013,0.540172L775.270983,0.541251L775.007260,0.543407L774.828526,0.545563L773.827146,0.557423L773.512077,0.560658L773.334778,0.563893L770.651262,0.598395L768.567821,0.625349L760.483812,0.729934L760.388629,0.731012L760.293447,0.732090L760.269292,0.732090L760.195580,0.733169L760.121869,0.734247L758.366372,0.756889L758.173699,0.763358L753.373883,0.971449L753.037508,0.971449L750.508076,0.972527L750.303938,0.975762L747.962156,1.010264L743.225454,1.080347L736.606585,1.177384L729.725753,1.271187L721.507194,1.387632L721.094443,1.394102L720.373237,1.402727L720.137953,1.402727L718.959388,1.403805L718.736007,1.427526L718.603480,1.441542L717.944426,1.511625L717.597191,1.525642L716.852810,1.555831L716.674095,1.563378L715.314677,1.619445L715.026610,1.619445L713.614548,1.620523L713.285393,1.636696L713.211514,1.641009L713.137095,1.644243L713.104182,1.646400L713.012411,1.650712L712.861429,1.658260L712.775026,1.662573L712.688623,1.666885L712.394357,1.683058L711.521921,1.727265L711.307212,1.727265L710.716764,1.727265L710.555732,1.727265L710.214882,1.727265L710.001068,1.727265L709.729999,1.727265L708.970322,1.735890L708.374651,1.727265L707.862034,1.727265L707.580229,1.727265L707.317211,1.727265L707.090873,1.727265L706.378756,1.727265L706.356391,1.727265L706.206095,1.727265L705.695267,1.727265L705.615105,1.726186L704.687454,1.835084L703.670694,1.942904L703.622759,1.947217L703.255738,1.980641L702.632939,2.035630L701.448342,2.142372L700.664927,2.212455L700.236197,2.251270L700.181647,2.256661L700.072898,2.266365L699.711118,2.267443L699.571973,2.282538L699.387224,2.303024L699.202122,2.324588L698.924374,2.355856L696.493860,2.630798L695.904742,2.697646L694.687268,2.910053L694.659014,2.914366L694.611974,2.918679L692.274239,3.128929L692.193764,3.139711L689.842107,3.452392L689.807403,3.454549L689.058601,3.500912L688.204793,3.553744L688.106946,3.560213L687.391244,3.560213L687.318467,3.572074L686.729635,3.668034L686.435302,3.668034L686.371784,3.668034L685.566618,3.668034L685.519390,3.670191L683.563065,3.775856L682.811991,3.883677L682.778536,3.884755L681.063467,3.961308L680.629467,3.980716L680.361119,3.991498L680.057357,4.099320L680.027834,4.099320L679.110298,4.098242L679.033006,4.099320L678.910088,4.100398L678.806852,4.101476L678.703969,4.101476L678.625949,4.099320L675.513532,4.099320L675.460749,4.099320L674.681172,4.100398L674.642537,4.103633L673.311361,4.207141L673.238002,4.207141L673.020607,4.207141L673.000925,4.207141L672.238700,4.207141L671.542677,4.207141L671.159772,4.253505L670.724477,4.309572L670.686382,4.313885L670.246805,4.325745L669.156352,4.352701L666.399028,4.429254L666.235665,4.428176L666.034185,4.426020L665.832706,4.423863L665.627295,4.422785L665.548567,4.422785L664.880091,4.420628L664.750556,4.422785L664.473220,4.422785L663.780776,4.422785L662.103342,4.422785L661.968253,4.422785L660.828860,4.473461L657.155936,4.638429L656.991864,4.639507L656.933713,4.639507L656.831558,4.642741L656.766437,4.644898L656.687542,4.648132L656.609001,4.650289L650.847181,4.836821L649.749172,4.854072L648.492104,4.873480L648.033364,4.881028L647.729975,4.900436L647.486114,4.904749L645.897156,4.929548L645.184399,4.953269L644.644601,4.959738L643.449842,4.991007L642.780606,5.026588L641.810232,5.061091L641.529150,5.064326L640.921339,5.065404L640.488395,5.081577L640.112501,5.090203L639.668428,5.096672L639.069209,5.098829L638.757916,5.109611L637.529159,5.140879L636.512951,5.167835L635.843212,5.213120L635.673566,5.206651L635.605387,5.204495L635.179381,5.259484L632.419798,5.212042L631.504174,5.196947L630.315855,5.178617L630.202628,5.188321L628.606914,5.326334L628.030588,5.375932L627.831682,5.393184L626.546875,5.412592L626.502684,5.413670L626.160058,5.419061L623.089839,5.467581L622.797332,5.478364L620.140940,5.568934L619.996028,5.574326L619.872046,5.578638L619.628557,5.587264L617.254232,5.649801L613.284732,5.753311L610.650623,5.822318L610.133932,5.837413L609.391961,5.849273L609.362438,5.849273L609.119469,5.853586L609.073675,5.856821L607.658862,5.898872L607.560284,5.902107L601.662286,6.056293L598.871495,6.144708L598.772022,6.147943L594.844084,6.271939L594.459966,6.283800L593.702112,6.308599L593.570078,6.312912L592.628300,6.342024L591.284528,6.388388L591.214038,6.390545L591.143548,6.392701L589.488291,6.447691L584.579438,6.619130L581.667200,6.725875L581.637323,6.726953L578.634688,6.822916L573.900421,6.985730L573.808105,6.988964L569.995677,7.098944L567.517035,7.171186L567.206443,7.179812L565.729527,7.222942L565.589440,7.227254L559.242533,7.410555L559.206393,7.411633L559.072214,7.417024L557.334500,7.486032L556.384508,7.523770L556.025621,7.537787L554.609350,7.578760L554.267090,7.588464L552.246984,7.645611L551.339005,7.672567L547.794202,7.773922L547.312748,7.787939L547.191448,7.792252L546.866185,7.801956L545.939062,7.829990L544.247607,7.875276L543.988363,7.882824L542.002111,7.896841L541.694538,7.898998L540.573191,7.900076L540.460296,7.903311L540.377280,7.905467L540.076881,7.913015L538.135311,7.968005L525.731544,8.311965L525.652106,8.314122L524.528427,8.314122L523.046887,8.314122L522.578479,8.323826L522.500830,8.325982L520.042329,8.383129L519.992229,8.383129L519.801314,8.384208L519.670341,8.385286L519.559404,8.385286L519.462782,8.385286L519.192429,8.388521L516.238476,8.447824L515.792618,8.459685L515.437830,8.469389L515.296644,8.466154L514.928741,8.458606L514.584639,8.452137L514.521490,8.456450L512.208986,8.630048L512.188949,8.631126L512.074466,8.641908L510.334298,8.677491L508.830302,8.707682L505.600450,8.773455L501.965520,8.846776L501.857453,8.848932L487.545571,9.295328L487.493867,9.297484L479.756808,9.452753L479.206596,9.452753L479.098343,9.452753L478.955198,9.452753L477.786532,9.491570L477.613524,9.498039L477.463778,9.504509L474.687710,9.520682L474.673395,9.520682L474.551907,9.522839L466.992603,9.711533L465.123617,9.757898L464.909810,9.763290L464.725216,9.785933L464.625229,9.798872L464.548319,9.809655L464.371777,9.832298L463.429099,9.872194L462.486776,9.911011L462.257234,9.920715L462.027692,9.930419L461.073383,9.970315L460.119074,10.010210L459.976838,10.015602L459.814565,10.022071L453.995588,10.302418L451.102106,10.441514L449.501411,10.518070L449.023906,10.541792L445.774031,10.698140L445.487599,10.712157L445.440366,10.714314L445.187036,10.728331L442.894171,10.850175L434.582187,11.574769L433.258624,15.722923L433.234501,15.801638L433.202029,15.902998L431.873760,20.166651L430.478446,24.710797L428.232489,32.028732L426.877650,36.288525L426.868781,36.315486L426.857784,36.348918L426.136273,38.615825L425.226420,41.501813L424.081515,45.108298L424.061299,45.169772L424.045339,45.218305L422.343800,50.575350L421.848313,52.164058L421.837861,52.198572L421.794803,52.337706L419.591475,59.407831L419.348009,60.232970L419.185814,60.780908L419.046817,61.250109L418.942528,61.602820L418.936687,61.623313L418.931370,61.639493L418.801575,62.075259L418.793962,62.101146L418.732164,62.308243L418.716229,62.362175L418.578163,62.784999L418.565047,62.824909L417.928960,64.768622L417.532501,65.977794L417.183956,67.166480L416.972433,67.889189L416.817739,68.419896L416.303575,70.017425L416.317575,70.029290L416.361605,70.083225L416.359577,70.173835L415.565805,72.617086L414.660223,75.381837L414.581089,75.429301L413.975659,77.373181L413.808184,77.921183L413.794905,77.964333L413.320788,79.505869L413.316182,79.519893L412.150205,83.132697L412.132323,83.189872L412.119214,83.229787L412.092643,83.310696L411.906553,83.901872L410.314660,88.937750L410.302803,88.976587L410.292530,89.007873L410.083447,89.669196L410.034584,89.823469L409.993868,89.952929L409.551220,91.333844L409.232797,92.303729L409.203399,92.393273L409.032273,92.949962L408.945349,93.222913L408.893825,93.382584L408.869219,93.460262L408.806008,93.655536L408.597269,94.305012L408.475994,94.682616L407.703041,97.334502L407.400309,98.371318L407.353976,98.528837L407.343539,98.563362L406.073687,102.917860L405.216440,105.761950L404.144955,109.319298L404.006557,109.891157L403.998956,109.917053L403.854302,110.442519L403.830790,110.522364L403.804093,110.611920L403.799678,110.628105L402.582954,114.743424L402.523029,114.945201L402.514180,114.972177L401.850825,117.215478L400.818661,120.700812L400.015730,123.345622L399.198713,126.033644L398.694437,127.694395L398.530929,128.228559L398.498586,128.335392L398.351877,128.815601L397.678341,131.170271L397.665149,131.229624L397.648815,131.309481L397.606628,131.416316L397.049328,133.228211L397.038383,133.267061L395.865910,137.078700L394.110492,143.098536L392.368774,149.056029L391.414586,152.222669L390.605041,155.019170L388.597545,162.012287L388.464871,162.472103L388.439114,162.561692L388.134633,163.622728L388.118939,163.678857L387.930544,164.336207L387.885561,164.492720L387.715692,165.085310L387.709353,165.110136L387.697878,165.147915L385.955451,171.344901L385.802206,171.881389L385.759543,172.033592L385.646515,172.430832L385.629412,172.491282L385.596786,172.604625L384.245848,177.350011L382.979060,181.647554L382.619266,182.867428L382.598283,182.939757L382.575535,183.017484L382.553140,183.094132L382.487532,183.316517L380.623894,189.630908L380.557947,189.854384L380.183492,191.135868L380.159501,191.214679L380.110107,191.376620L380.046129,191.714537L380.003118,191.862443L379.880847,192.219795L379.647773,192.896713L379.623089,193.018710L379.466440,193.607104L377.417184,200.642109L377.375951,200.784627L376.754621,202.961278L376.294853,204.570036L375.800808,206.308379L375.455206,207.513355L375.195187,208.412775L374.330771,211.322705L373.957244,212.555799L373.942531,212.587113L373.882171,212.807387L373.821896,213.008225L373.788877,213.142117L373.588126,213.808341L372.456277,217.556317L372.452938,217.569275L372.193772,218.406132L372.183022,218.441766L371.702955,220.025870L371.652548,220.191084L371.612268,220.267752L371.581217,220.327143L371.055239,222.575376L370.536399,224.237278L370.430006,224.595794L370.000488,226.061182L369.966917,226.152972L368.324249,231.759827L367.131483,236.039638L367.112140,236.109835L365.774561,240.822862L365.704713,241.066942L365.631465,241.414702L365.628510,241.431982L365.578871,241.600463L365.479593,241.937425L365.049049,243.398681L364.236970,246.124675L364.161274,246.378485L363.887832,247.147477L363.829950,247.313805L363.734407,247.642140L363.678431,247.830070L361.221999,256.310922L360.642853,258.349129L360.007663,260.583955L359.998177,260.618520L359.115622,263.641915L357.770497,268.281377L357.762745,268.305141L352.391032,285.929021L352.214804,286.508097L351.154082,289.979368L350.570798,292.392997L350.542339,292.491315L350.465894,292.750616L349.465871,296.146420L349.029347,297.739010L348.357503,299.839444L348.336540,299.901031L348.226641,300.227336L348.081088,300.737325L347.963061,301.143588L347.678369,302.124676L346.667493,305.541254L346.352093,306.594771L346.251591,306.930818L345.324121,310.034158L343.918698,314.456978L343.861282,314.682824L343.665317,315.290124L342.921569,317.590756L342.664123,318.458502L341.891989,321.058532L341.634029,321.925220L341.616120,321.985737L341.563096,322.165127L341.350461,322.881610L341.278986,323.120438L340.795598,324.745780L339.346294,329.619765L338.881969,331.181425L338.863362,331.244108L338.609902,332.100057L337.847230,334.666859L337.593255,335.521750L337.512156,335.793025L337.535591,335.900022L337.505405,335.973516L337.472916,336.051332L337.409482,336.138875L336.947527,337.690887L336.613224,338.820322L335.608601,342.208689L335.273453,343.338164L334.503016,345.935455L333.651320,348.791130L333.620262,348.894896L333.608152,348.934889L333.410629,349.602880L333.343787,349.827707L333.137834,350.521645L332.519107,352.603482L332.334034,353.225013L332.312629,353.296354L332.297902,353.347157L331.972527,354.444303L330.949962,357.887133L330.608471,359.034043L330.464675,359.520483L330.122500,360.669570L330.031666,360.976571L329.887334,361.461937L328.978634,364.522275L326.251848,373.704814L325.342977,376.764367L325.335796,376.789233L325.128456,377.515753L324.484730,379.767775L324.280185,380.480257L324.274409,380.500799L324.269686,380.518097L324.011369,381.415463L323.234673,384.107599L322.975843,385.003909L322.593407,386.330547L322.493948,386.675453L321.441529,390.308381L321.071533,391.583174L321.048213,391.632912L320.162427,394.195514L317.504546,401.883637L316.731619,404.118796L316.618465,404.445368L316.426977,405.002273L315.849647,406.670841L315.657625,407.226675L315.555202,407.522977L315.308368,408.236699L315.247937,408.411885L315.145517,408.708190L315.124425,408.767667L315.118460,408.786051L315.039238,409.016390L315.012532,409.093170L314.862278,409.520327L314.410436,410.799643L314.259643,411.225724L314.195514,411.409567L314.001686,411.960015L313.936116,412.142777L313.875145,412.316888L313.691146,412.837059L313.629631,413.010090L313.489061,413.410224L313.452690,413.514043L313.065722,414.607390L312.973805,414.865858L312.925508,415.006447L312.672566,415.736434L312.543115,416.110622L311.863178,418.071340L311.394563,419.422124L311.011671,420.525257L310.986026,420.598799L310.960731,420.671260L310.931929,420.754536L310.902582,420.836731L310.848485,420.992469L310.316149,422.526062L309.326716,425.378076L309.074353,426.103799L308.836413,426.790589L308.123321,428.848820L307.884853,429.534544L307.867786,429.578889L307.186179,431.473844L306.429371,433.573255L305.065421,437.288684L304.354141,439.225944L304.197929,439.655369L304.181216,439.698636L303.730002,440.941489L303.574147,441.369838L303.413386,441.813332L303.290216,442.151903L303.059539,442.789025L302.646650,443.924819L302.625382,443.982150L302.463557,444.354261L301.510408,447.041277L301.006089,448.459449L300.502344,449.903600L298.989438,454.236154L298.485227,455.679292L298.269171,456.224530L297.659687,457.757483L297.620474,457.859176L297.409810,458.404423L297.238104,458.884763L297.050747,459.405132L296.721907,460.323628L296.549664,460.802893L296.364614,461.318943L296.116886,462.009178L295.809480,462.867108L295.623895,463.382085L295.334212,464.188094L295.182150,464.607870L295.167395,464.647900L294.461966,466.605071L294.171761,467.410020L293.954435,468.014816L293.766576,468.534143L293.657740,468.837085L293.427069,469.477593L293.301732,469.825979L293.143738,470.264168L293.083873,470.429706L293.014705,470.621212L292.808800,471.193566L292.739087,471.383990L292.719081,471.440252L292.658714,471.610120L292.638161,471.665300L292.591999,471.794054L292.212315,472.847890L291.529143,474.742439L290.935207,476.394648L290.650527,477.185596L290.579971,477.381440L290.509765,477.576203L290.156836,478.558676L289.927625,479.194908L289.346408,480.813635L289.098106,481.506146L289.053357,481.630582L288.759963,482.448615L288.745565,482.487569L288.739613,482.505964L288.721210,482.560067L288.714711,482.577380L288.705608,482.605514L288.676855,482.688833L288.666308,482.715884L288.656308,482.744018L288.591604,482.930133L288.474800,483.263409L288.368543,483.569634L288.293294,483.782802L288.218088,484.001380L287.990833,484.653872L287.934184,484.815102L287.913638,484.870288L287.627995,485.645060L286.769656,487.968326L286.483488,488.742036L286.471520,488.792895L286.447036,488.893532L286.435768,488.942228L286.424150,488.992005L286.275096,489.394554L285.824709,490.601126L285.674218,491.002598L285.635145,491.140029L285.467898,491.598856L285.357138,491.899692L284.959194,492.933145L284.766952,493.383321L284.694064,493.553220L284.572131,493.869211L284.542512,493.977428L284.163400,495.119116L283.022552,498.544245L282.642047,499.684894L282.494107,500.109124L282.048857,501.380738L281.900377,501.803891L281.809222,502.063628L281.654950,502.501934L281.535212,502.841758L281.443512,503.100415L281.352359,503.360155L281.076215,504.139376L280.984518,504.398036L280.937894,504.531154L280.875830,504.706480L280.797475,504.929426L280.750304,505.061462L280.569912,505.572292L280.025512,507.103712L279.844583,507.613469L279.606497,508.283407L278.891715,510.292161L278.653099,510.961032L278.607183,511.091992L278.467793,511.481628L278.421331,511.611507L277.007218,515.590198L276.328145,517.497333L273.832256,524.436664L272.730410,527.522747L271.308632,531.499810L270.953868,532.481649L269.922687,535.327618L269.889432,535.425047L269.545819,536.405836L269.073351,537.757952L268.607542,539.089514L268.077381,540.551003L267.621021,541.808980L267.130483,543.158994L266.369927,545.253873L266.321060,545.391368L264.352532,550.870717L264.308564,550.993061L263.907977,552.089829L263.109980,554.273652L263.085985,554.320209L262.937782,554.607130L262.919917,554.656935L262.534976,555.733166L261.702058,558.058898L261.198353,559.458907L261.005160,559.993795L260.490708,561.413318L260.236906,562.113883L259.474435,564.213435L259.220104,564.912934L258.910104,565.768363L258.291672,567.471661L257.979049,568.332524L257.668529,569.186896L256.787637,571.612524L256.426915,572.608779L256.337435,572.855679L256.068099,573.596380L252.642233,582.870707L251.649026,585.559796L251.379333,586.290832L250.945212,587.468081L249.641831,590.997732L249.207215,592.173946L248.661944,593.649104L247.026255,598.074693L246.481067,599.549928L246.163823,600.406699L245.211234,602.977052L244.893470,603.832766L243.839139,606.568927L241.357483,613.005558L240.726824,614.777808L240.486436,615.454867L239.750353,617.518567L239.421508,618.442641L238.434126,621.214906L238.104766,622.137927L238.059687,622.266847L237.922456,622.651441L237.876829,622.779279L237.868959,622.800946L237.854465,622.843197L237.787171,623.032787L237.764257,623.095622L237.731233,623.189876L237.631762,623.468303L237.598190,623.561473L237.589474,623.588557L237.560634,623.669810L237.551370,623.695811L237.502606,623.833400L237.356814,624.241834L237.307503,624.378341L237.303668,624.390258L237.291266,624.426010L237.286882,624.436843L237.238469,624.573350L237.094623,624.978537L237.045661,625.113960L237.029424,625.161629L236.979068,625.301387L236.962632,625.346889L236.853754,625.654573L236.525331,626.577630L236.415908,626.884234L235.984002,628.095490L235.874687,628.412932L235.572596,629.290507L235.449343,629.651290L235.076697,630.731479L234.952002,631.091183L234.629867,632.028369L234.534157,632.303568L233.631899,634.837808L233.298479,635.773942L232.980950,636.663494L232.028558,639.328939L231.735505,640.148089L231.712306,640.217435L231.704291,640.242357L231.634538,640.434143L231.399588,641.081017L231.320375,641.296643L231.220404,641.574031L231.131087,641.821080L231.121827,641.847086L230.970975,642.263170L230.920642,642.402949L230.821022,642.679257L230.295303,644.135571L228.717372,648.504627L228.226825,649.860239L228.191186,649.959933L228.163412,650.037955L228.039175,650.382550L228.009807,650.462739L227.996168,650.499583L227.967001,650.581939L227.931524,650.697888L227.576476,650.755321L227.254163,651.001307L226.301189,651.517122L226.034956,651.661247L225.701073,651.753357L225.322967,651.857387L224.828296,651.991759L224.204179,651.978756L224.011032,651.870391L223.985941,651.856303L223.784430,651.536627L223.820527,651.374080L223.574345,650.983969L223.374606,650.460572L223.189813,650.069380L222.845119,649.938261L222.207684,650.067213L221.402641,650.256849L220.742861,650.541845L220.668682,650.574354L220.654375,650.579772L220.449607,650.622034L220.375966,650.636121L219.774525,650.756405L219.661195,650.695721L219.449152,650.581939L219.108444,650.198332L218.910303,649.982690L218.493289,649.816894L218.113377,649.571994L218.020694,649.511311L217.610411,649.171053L217.108188,648.753859L216.932402,648.638995L216.401401,648.288987L215.868346,648.003997L215.261737,647.797027L214.460966,647.780773L214.277465,647.776439L213.528076,647.709255L213.505436,647.707088L213.452523,647.693001L213.229498,647.630152L213.189352,647.618232L213.154094,647.610647L212.480702,647.457858L212.246697,647.373337L211.850205,647.230301L210.761375,647.311571L209.507941,647.578139L209.187261,647.662660L208.585289,647.820867L208.139432,648.157870L208.059781,648.218552L207.820829,648.400600L207.740629,648.460199L206.902127,649.049687L205.867568,649.470133L205.208757,649.838567L205.147353,649.892748L204.800904,650.096471L204.632330,650.224340L204.488001,650.371714L204.247907,650.657794L203.957244,651.207199L203.781671,651.666665L203.580239,652.069782L203.331848,652.314688L202.924915,652.611609L202.412966,652.908531L201.885798,653.007145L201.702662,653.040738L200.698871,653.119845L200.029875,653.291064L198.593488,653.889248L197.180962,654.541618L196.342406,654.961001L195.895265,655.148478L194.248506,655.878882L193.501436,656.273345L193.099011,656.260340L193.012093,656.257089L192.788772,656.036016L192.613108,655.878882L192.301466,655.639387L192.211021,655.568947L191.683940,655.566780L191.234852,655.573282L190.419850,655.296942L189.159549,655.397725L189.015069,655.456244L188.706963,655.579784L187.863002,656.275512L187.799600,656.327529L187.682797,656.389300L187.127493,656.678646L186.942093,656.775095L186.513613,656.999421L186.363409,657.078531L186.085482,657.222663L185.573714,657.705995L185.218013,658.251101L185.182996,658.415825L185.129627,658.668330L184.989661,659.318562L184.988172,659.331566L184.981361,659.369497L184.979323,659.381417L184.881867,660.064165L184.708985,660.339432L184.033458,661.075289L183.431571,662.126521L183.198227,662.441892L182.810466,663.047711L182.870563,663.226532L182.808040,663.990585L183.103075,664.346062L183.418451,664.688534L183.481837,664.854351L183.753737,665.284611L183.756348,665.312790L183.843700,665.524127L183.755242,665.930546L183.439140,667.265779L183.223101,668.387518L183.098772,669.196043L182.876073,669.659919L181.597317,671.387546L181.505463,671.539284L181.075109,672.208016L180.813695,672.985138L180.718798,673.408927L180.584405,673.832717L180.588358,673.851142L180.758603,674.651037L180.975876,674.835296L181.005567,674.860225L181.136590,675.145284L181.182336,675.231994L181.186731,675.240665L181.205479,675.302446L181.219160,675.324124L181.409279,675.738166L181.640756,676.752685L181.787114,677.314143L182.183744,678.521613L182.543666,679.019129L182.576068,679.063569L183.686982,679.523150L184.215186,679.720424L184.495052,679.824481L184.720093,680.029342L184.745098,680.052105L184.820112,680.120392L184.845117,680.143154L185.294654,680.551795L185.426997,680.768582L185.813096,681.402684L186.108409,682.006439L186.297021,682.746776L186.118352,683.456767L186.086046,683.582506L185.897214,683.960809L185.525332,684.542899L185.506607,684.573250L185.450927,684.659968L185.431652,684.689235L185.370145,684.785709L185.366572,684.805220L185.347884,684.821480L184.994034,685.375391L184.474793,686.352059L184.265832,686.851779L184.223619,686.938498L184.181406,687.025218L184.150644,687.090257L184.057955,687.281041L184.026643,687.344996L183.996578,687.407868L183.990404,687.418708L183.940495,687.596484L183.922100,687.659356L183.902514,687.728732L183.843757,687.936860L183.823622,688.005153L183.811145,688.049597L183.813160,688.071277L183.831535,688.254474L183.837178,688.315178L183.846539,688.406235L183.874772,688.676153L183.908904,688.748782L183.943586,688.822495L184.045837,689.043633L184.079970,689.116262L184.130446,689.224664L184.138342,689.242008L184.210203,689.599734L184.234462,689.725480L184.264530,689.875075L184.275450,689.924940L184.368678,690.353130L184.442223,690.487550L184.530408,690.649070L184.537554,690.663162L184.560035,690.702187L184.567529,690.715196L184.646572,690.860456L184.730360,691.013305L184.941943,691.232280L185.051179,691.345019L185.142991,691.439331L185.167478,691.639878L185.190114,691.835005L185.097602,692.042057L184.898902,692.294640L184.514027,692.654544L184.257908,692.893035L184.189627,692.940733L184.058562,693.046971L183.249985,693.691984L182.771086,694.339170L182.360586,695.002621L182.264729,695.250874L182.133702,695.589106L182.146945,695.760391L182.164113,695.964198L182.160400,696.040084L182.152809,696.175594L182.135580,696.492148L182.026659,698.495560L182.025726,698.509654L182.013386,698.724307L182.000789,698.931373L181.951870,699.080980L181.808248,699.520047L181.733928,699.748796L181.656770,699.980798L181.642538,700.011154L181.601032,700.095715L181.173542,700.971691L180.993016,701.226462L180.922399,701.326202L180.804174,701.493160L180.270942,701.951751L180.219317,701.995116L179.927960,702.245554L179.470813,702.542610L178.688498,703.049992L178.158031,703.393669L178.114521,703.422941L177.390024,703.895635L176.576104,704.420370L175.666386,705.005822L175.173200,705.325653L175.102025,705.371189L174.421693,706.086747L174.290419,706.224439L174.274358,706.268890L174.038615,706.913982L173.985361,707.060348L173.931210,707.206714L173.901727,707.290197L173.810933,707.539562L173.780901,707.621962L173.708255,707.820370L173.632625,708.025284L173.566792,708.205262L173.490321,708.415598L173.475103,708.454629L173.418024,708.612924L173.408429,708.640029L173.396892,708.670387L173.379093,708.720260L173.368948,708.746281L173.355178,708.786397L173.310972,708.904576L173.296653,708.943608L173.230126,709.125755L172.212315,712.029318L171.871191,713.277288L171.775505,714.003742L171.572779,715.536899L171.543821,715.755924L171.450678,717.496207L171.712946,718.705205L173.213496,720.025902L175.033258,721.625289L175.002003,722.050351L174.995791,722.142520L174.854571,724.125803L174.740982,725.712239L174.671296,726.677341L174.640241,727.118688L174.613121,727.236887L173.812668,730.711344L173.780744,730.850151L173.692014,731.236209L173.668349,731.256814L173.552804,731.351160L173.482852,731.409719L173.271546,731.584314L173.201044,731.641789L172.990984,731.815299L172.360805,732.335832L172.150745,732.509344L170.740867,733.675132L168.731054,735.334368L166.510492,737.169317L165.311375,738.159466L165.205998,738.247311L165.100071,738.334071L164.025218,739.222286L162.350907,740.196185L160.974653,740.996568L159.880756,741.633191L159.597498,741.796957L155.934545,743.927018L155.597405,744.057165L152.761268,745.148243L151.299206,746.572300L147.260347,750.506180L144.687527,752.218824L143.968185,752.698239L142.324215,753.790490L140.943285,754.709203L139.468849,755.003150L139.295737,755.038944L138.777443,755.143073L138.604128,755.176698L137.480258,755.402311L134.108232,756.074815L132.984152,756.298260L132.555829,756.385035L132.231790,756.449032L131.478681,756.097593L131.142918,755.940314L130.032935,755.421835L126.701596,753.865331L126.002487,753.538848L125.641822,753.268768L124.609836,752.498664L123.269153,751.495367L121.515364,750.184045L120.484137,749.411794L119.163546,748.516987L115.201707,745.830443L113.880656,744.934582L113.809201,744.885776L113.593937,744.739359L113.521584,744.690553L113.217556,744.420495L113.092328,744.637409L111.617217,747.098327L111.220596,747.567958L110.422723,748.510480L109.457748,749.649326L102.979190,757.303771L100.820200,759.853929L99.077713,762.516962L98.432499,763.501921L92.908082,769.739486L90.807499,772.110941L90.756748,772.168438L90.604495,772.340930L90.553194,772.397342L105.366544,803.034778L108.228473,809.068488L116.709315,827.507107L116.760983,827.592856L119.101685,831.411448L143.377877,882.294294L153.211089,902.880475L153.309764,903.075995L153.405052,902.770767L175.682646,831.411448L183.242703,807.727151L183.326921,807.463444L188.924197,806.059186L196.070108,804.266451L201.031592,804.641925L207.104127,805.206222L213.085982,804.830747L218.313948,804.571388L222.009496,804.387992L224.214117,804.415121L228.796361,803.986475L231.102020,803.899661L237.636948,802.351124L241.228428,801.249691L241.486353,801.170475L247.029656,799.376739L250.651028,797.714332L252.168630,797.937866L257.946101,798.308976L263.308654,798.159230L268.070372,797.223862L273.581100,796.088845L277.233709,794.905012L277.691277,794.757440L282.185108,793.304524L282.778123,793.112468L289.636694,790.990100L295.970683,789.109736L302.787500,785.412037L310.296008,780.892081L312.705778,780.627356L317.962383,779.085671L318.110540,779.037935L324.006066,777.126321L329.010546,775.285260L332.019563,774.341416L333.596319,773.835867L335.264020,773.186033L337.719110,772.007880L345.070505,770.596501L345.019962,770.754887L366.670503,764.784117L370.970693,763.598465L374.916575,762.242520L384.168000,759.063167L384.810980,758.778972L394.428100,754.529148L394.471748,754.544333L409.253347,759.628306L419.737026,763.594126L433.923113,767.709796L446.725599,768.495198L448.956507,768.872713L451.369938,769.280605L457.894221,769.281690L461.971553,769.281690L467.365263,767.711966L473.827595,765.355795L477.191104,763.593041L580.947796,734.946126L697.766075,695.839529L706.124440,692.983011L830.313125,656.390384L835.682416,654.388820L852.432359,645.030606L869.491163,634.890899L863.140315,579.223264L862.911212,577.206824L862.620981,575.146020L862.410197,574.002468L861.526401,568.306536L861.603422,568.219908L863.269306,566.339014L863.378014,565.824670L863.407778,565.386126L863.420452,565.003890L863.484154,564.672548L863.494347,564.533948L863.517039,564.224263L863.588396,563.661203L863.589716,563.651457L863.598044,563.597317L863.613662,563.492285L863.623732,563.418654L863.628383,563.387253L863.628970,563.346106L863.628725,563.310374L863.629365,563.288718L863.628838,563.259482L863.665043,563.210756L863.672807,563.169610L863.695487,563.039673L863.711785,562.946553L863.743409,562.768974L864.212732,560.918486L865.824809,554.611460L865.828962,554.598468L865.954836,554.241170L866.180528,553.218006L866.322046,552.817404L866.428053,552.250068L866.494537,552.151543L866.498832,552.135302L866.516074,552.075754L866.546215,551.953409L866.601919,551.731456L866.709741,551.150050L866.713139,551.133810L866.752626,550.982234L866.757267,550.964911L866.791563,550.829575L867.462665,548.203007L867.466819,548.190015L867.803512,547.064052L867.841070,546.915729L868.057681,545.876389L869.566922,539.976149L869.570526,539.962075L869.632979,539.716328L869.775625,539.160964L870.426460,536.615851L870.429718,536.602860L870.448577,536.527082L873.846743,520.323456L875.333100,513.321592L875.394767,513.047760L876.398494,508.546404L877.076380,505.508438L877.119594,505.314712L877.211161,504.905616L877.219949,504.889382L877.304091,504.730289L877.351372,504.451066L877.818580,501.698914L877.859002,501.141565L877.864022,501.109098L877.884521,501.017109L877.915995,500.879666L877.966597,500.816897L878.006512,500.793088L878.201943,500.591794L878.234743,500.573397L878.244104,500.544176L878.285368,500.496559L878.312064,500.413228L878.348121,500.300677L878.415628,500.193537L878.306216,500.145919L878.217198,500.157823L878.145900,500.134015L878.079312,500.098301L878.096896,500.018217L878.413012,498.572382L878.425457,498.513943L878.439145,498.454422L878.472236,498.300749L878.599663,497.709868L878.607864,497.673073L878.623370,497.599484L878.706650,497.216387L879.136993,495.229497L879.207777,494.899434L879.718695,492.538159L879.723491,492.517598L879.899155,492.182132L880.513694,489.581761L880.460556,489.512505L880.393237,489.425935L882.065308,481.708489L882.087849,481.604612L883.573988,474.743521L883.590553,474.666700L886.579559,460.671988L887.002195,459.016748L886.934696,458.740877L885.407839,452.551794L885.393963,452.494460L885.231762,451.823751L884.988516,450.813369L884.948048,450.648939L884.714041,449.679674L884.450250,448.588178L884.389500,448.336129L884.369004,448.279878L884.281381,448.047301L883.709383,447.591885L883.488932,447.415561L883.300041,447.221928L883.193521,446.537187L883.338113,445.531175L883.476545,444.569523L884.075462,440.850627L884.145528,440.414708L884.168622,440.273008L884.202645,440.147533L884.361320,440.041528L884.428239,439.975545L884.449214,439.767863L884.447422,439.388195L884.572684,439.121022L884.539024,438.918750L884.442267,438.770561L884.425746,438.699171L884.483217,438.603984L885.059390,437.187009L885.321706,436.543426L885.539070,436.009093L886.027524,434.915556L886.397337,434.088109L887.151340,432.399701L888.746378,428.830433L888.752688,428.816372L889.773222,426.533177L889.806465,426.505057L891.456486,425.122831L891.968525,424.695620L895.601866,421.664089L895.698237,421.408851L895.705042,421.390466L899.959982,410.200536L899.968180,410.177827L900.160464,409.652259L900.487801,408.756853L900.497042,408.730899L900.571228,408.530840L900.714330,408.141535L900.874380,407.707895L900.899323,407.638686L900.984838,407.406186L900.994428,407.379151L901.120094,407.038513L901.373463,406.345344L901.384150,406.320473L901.405301,406.302089L901.458106,406.257752L901.566248,405.921443L902.007619,404.665967L904.224761,399.327364L904.432753,398.825632L904.451495,398.781298L906.133959,394.729666L906.480482,393.894919L906.485900,393.880862L907.822185,390.666273L907.979251,390.286756L908.067157,390.074832L908.086250,390.029420L908.732979,388.473523L908.744018,388.447573L908.824916,388.251871L908.902135,388.064819L908.921777,388.020489L908.931572,387.995621L908.941862,387.966428L908.965184,387.913448L909.024259,387.777214L909.037238,387.748021L909.402437,387.075502L909.446806,386.993330L909.422002,386.986843L909.404423,386.985761L908.983373,386.901427L908.790375,386.854934L908.434001,386.747894L907.768714,386.620311L907.328725,386.505703L906.761292,386.374876L906.333971,386.290542L905.350862,386.055920L905.335771,386.052676L905.050090,385.987804L904.949832,385.965098L904.788663,385.928337L904.550395,385.872114L904.408451,385.839678L903.970861,385.731558L903.233904,385.570458L902.935168,385.490449L902.872264,385.474231L902.790683,385.454770L902.391797,385.362868L902.300157,385.341243L901.628089,385.179063L901.303013,385.100136L900.647641,384.958499L900.517004,384.927144L899.683921,384.724960L899.331407,384.644952L899.257199,384.627653L899.150817,384.601704L898.912700,384.542238L898.303596,384.401683L897.399359,384.200581L897.259759,384.169227L896.470216,383.982181L895.861359,383.829733L895.399284,383.728102L894.953638,383.619983L894.592209,383.525920L894.402109,383.481591L894.034901,383.383203L893.992119,383.371310L893.255722,383.191834L892.022455,382.926944L891.853226,382.890184L891.833453,382.884778L890.521075,382.539882L887.280858,381.771168L887.115016,381.732246L885.117694,381.259775L885.065401,381.246801L885.018687,381.235990L884.774856,381.177607L884.584761,381.133279L882.226293,380.574318L878.638497,379.724529L877.608063,379.481270L877.349148,379.419644L875.032964,378.871502L873.200655,378.437963L873.213198,378.418503L873.375680,378.106053L873.548850,377.579540L873.786149,376.859506L874.239815,375.478913L874.260362,375.415127L874.310767,375.286475L874.342463,375.207553L874.352962,375.180525L874.366447,375.147011L874.414562,375.022683L874.463226,374.899436L874.291818,374.858354L874.256063,374.849705L873.666742,374.709161L873.077971,374.569698L872.996401,374.550238L872.916623,374.530778L872.863438,374.517804L872.785105,374.499426L872.706771,374.481047L872.365382,374.511318L871.898353,374.336178L871.744462,374.251852L869.984785,373.832384L869.870503,373.822654L869.499316,373.772923L869.469487,373.765355L869.386273,373.742652L869.179062,373.687516L868.985694,373.636704L868.706875,373.572920L868.657824,373.561027L868.369294,373.493999L868.295643,373.477783L867.978729,373.404268L867.593487,373.289672L867.420889,373.255077L866.801552,373.104804L866.552662,373.039938L866.110954,372.925342L866.094969,372.922099L866.044125,372.910207L865.963453,372.890747L865.958424,372.889666L865.897521,372.875612L865.888707,372.872369L865.849367,372.863720L865.823323,372.858314L865.323156,372.741556L864.801279,372.622636L864.774687,372.616150L864.742518,372.607501L864.683757,372.592366L864.678727,372.591285L864.609010,372.573987L864.602537,372.571825L864.575945,372.565338L864.559412,372.561014L864.536057,372.555609L864.520420,372.551284L864.156550,372.459391L864.047294,372.431283L863.927881,372.409661L863.886103,372.408580L863.833170,372.403175L863.730736,372.376148L863.709174,372.370742L863.690301,372.365337L863.535580,372.325336L862.616767,372.086416L862.391235,372.026956L862.231387,371.994523L861.976680,371.958848L861.946703,371.954523L861.931266,371.952361L861.210016,371.829117L860.991306,371.770739L860.787337,371.716685L860.640336,371.677766L860.629181,371.673441L860.501449,371.624792L860.398367,371.585873L859.631942,371.385873L859.354126,371.313441L859.318720,371.303711L859.263596,371.293981L859.196969,371.281008L859.149015,371.271279L859.132682,371.269117L858.952224,371.256144L858.938580,371.253981L858.916717,371.235603L858.894357,371.221549L858.872842,371.202090L858.866217,371.183711L858.085756,370.996685L858.067871,370.943712L858.049838,370.893982L858.033797,370.846415L857.110963,368.334018L856.797713,367.478906L856.192018,365.823833L855.414706,363.692053L852.019977,354.402147L851.982294,354.299458L845.303200,335.837337L843.734668,330.905837L843.695337,330.794521L843.631740,330.614038L843.334243,329.900755L838.666132,318.715693L834.930310,309.768340L833.944249,307.405174L832.515931,303.985306L831.876436,302.452067L830.633678,299.138215L829.967206,297.361930L829.374268,295.782310L829.221448,295.373902L829.181331,295.268019L828.006928,292.134778L827.205300,289.998815L826.315399,287.817511L825.989294,287.620882L825.500237,287.327019L824.761783,286.881905L824.737112,286.866780L824.463589,286.701483L824.240850,286.567518L824.169722,286.524303L824.126149,286.498374L823.665007,286.220720L823.644663,286.208836L822.643151,285.604912L822.628925,285.596269L822.531336,285.537930L818.928372,283.366423L814.085161,280.396594L814.056713,280.379309L813.852703,280.253992L813.037215,279.753806L812.034836,279.139109L811.958495,279.092656L810.771025,278.363450L810.590794,278.253259L810.569011,278.240295L810.542901,278.224091L809.998781,277.890278L809.680447,277.694745L809.520559,277.596438L809.442232,277.547824L809.046972,277.299357L808.788922,277.136233L808.711491,277.087619L808.512519,276.963386L807.748946,276.496701L807.498152,276.344381L805.030644,274.831990L804.794080,274.688314L804.675973,274.615936L804.551203,274.539236L804.455970,274.481982L804.361087,274.423648L801.475847,272.660659L801.051324,272.400318L800.782897,272.236120L799.001294,271.142909L798.891299,271.075934L798.848634,271.050008L798.657634,270.934423L798.573746,270.883651L798.478869,270.825318L797.807372,270.414828L795.449265,268.974879L794.446380,268.362393L794.367171,268.313783L792.461527,267.150392L792.432540,267.132028L790.996558,266.484984L790.839248,266.414770L790.702667,266.360760L790.545791,266.300269L790.474504,266.279745L790.388297,266.252740L790.074509,266.057223L789.983242,265.954604L789.376137,265.265438L789.303594,265.221150L789.260933,265.195225L789.219168,265.169300L788.945905,265.000790L787.716426,264.244657L786.785776,263.672160L786.163491,263.289776L784.830003,262.492606L783.835420,261.896352L781.034117,259.965026L780.994384,259.946664L780.918696,259.912099L780.843359,259.876454L780.607298,259.767359L780.371783,259.659344L780.332946,259.640981L779.803202,259.360143L779.109774,258.992893L778.707173,258.750941L778.503984,258.628885L777.310061,257.912753L776.301102,257.156661L775.826001,256.801299L775.765464,256.755933L775.783574,256.614437L775.800995,256.237474L775.823052,256.000927L775.857792,255.855111L775.944616,255.606684L775.985667,255.466269L776.008763,255.320453L776.024512,255.078508L776.016156,254.847364L776.002970,254.760955L775.961953,254.738273L775.915056,254.719911L775.794044,254.852765L775.762665,254.897049L775.722690,254.989939L775.619026,255.334495L775.576405,255.432785L775.522994,255.525675L775.461522,255.618565L775.422081,255.662850L775.371109,255.698494L775.313354,255.713616L775.258362,255.714696L775.220928,255.692013L775.158985,255.626126L775.141642,255.582921L775.131142,255.496512L775.134895,255.399302L775.153162,255.254566L775.205093,255.011541L775.253777,254.861406L775.300022,254.768516L775.330506,254.724232L775.369948,254.679947L775.504323,254.561135L775.546802,254.515771L775.580870,254.471486L775.605589,254.422881L775.620454,254.374277L775.627257,254.325672L775.625649,254.278147L775.567604,254.062126L775.564594,254.018922L775.580356,253.970317L775.665510,253.881749L775.685382,253.759697L775.653104,253.635486L775.650991,253.592282L775.672127,253.543677L775.700780,253.493992L775.722886,253.431347L775.843394,253.134320L775.869543,253.037111L775.876921,252.945303L775.868032,252.906419L775.825719,252.829733L775.738025,252.721723L775.694816,252.645037L775.685537,252.601833L775.683424,252.558629L775.697074,252.466822L775.772262,252.218401L775.793037,252.121193L775.794117,252.073669L775.780504,251.977541L775.775343,251.885734L775.787912,251.841450L775.818047,251.798247L775.860568,251.758284L775.958149,251.678357L775.998488,251.634074L776.086826,251.491503L776.267815,251.159917L776.404698,250.920140L776.469252,250.831573L776.587971,250.703044L776.623831,250.658761L776.653926,250.610157L776.723959,250.463267L776.752653,250.418984L776.788513,250.374701L776.998154,250.161926L777.033118,250.117643L777.081158,250.024757L777.129344,249.878948L777.216543,249.485803L777.262938,249.339994L777.306500,249.247108L777.372961,249.149902L777.490356,249.011654L777.597001,248.873406L777.622658,248.830203L777.642395,248.785921L777.647765,248.761079L777.647835,248.722197L777.643937,248.703836L777.623055,248.666034L777.594112,248.628232L777.560184,248.594750L777.503192,248.519146L777.384475,248.454342L777.296957,248.417620L777.140197,248.392779L777.031577,248.385219L776.935613,248.369018L776.900364,248.350657L776.920176,248.292334L776.961802,248.252371L777.071424,248.201609L777.117994,248.151926L777.141820,248.103324L777.119032,248.074162L777.074475,248.056881L776.982945,248.010439L776.959807,247.982357L777.001149,247.879752L776.980267,247.841950L776.935556,247.827910L776.828377,247.821429L776.641947,247.830070L776.624219,247.782547L776.687241,247.607579L776.780568,247.460692L776.805792,247.382928L776.775523,247.335406L776.686574,247.347286L776.551258,247.460692L776.528873,247.510374L776.475097,247.554656L776.409863,247.551416L776.337399,247.393729L776.295637,247.318125L776.240324,247.251162L776.172550,247.194999L776.135120,247.172318L776.096754,247.144237L776.057533,247.121556L776.047640,247.116156L775.937882,247.051353L775.821424,246.976830L775.825119,246.943348L775.672812,246.744620L775.670712,246.508090L775.717973,246.381725L775.805278,246.316923L776.059374,246.179757L776.310826,246.072833L776.424999,245.983190L776.455129,245.890307L776.410570,245.848185L776.241189,245.787703L776.144912,245.753142L776.126564,245.718581L776.105139,245.679699L776.103297,245.599777L776.101987,245.421571L776.054308,245.344888L775.695486,245.175323L775.622096,245.037079L775.707405,244.895595L775.787545,244.830793L776.129734,244.687149L776.161230,244.609387L776.115776,244.567266L775.951386,244.527305L775.912202,244.485184L775.919124,244.403102L776.181861,244.222738L776.196768,244.154696L776.107577,244.084495L775.966082,244.015373L775.950931,244.001333L775.996760,243.923571L776.327286,243.630885L776.339937,243.572564L776.293082,243.534764L775.931803,243.615765L775.876890,243.602805L775.795370,243.528284L775.792989,243.472123L775.792011,243.436482L775.844907,243.174038L775.843809,243.097357L775.820359,243.050916L775.720173,242.848953L775.753146,242.727992L775.747456,242.684791L775.679724,242.609190L775.536794,242.563830L775.503919,242.502269L775.555851,242.303547L775.497972,242.227947L775.440445,242.151266L775.468790,242.083225L775.642470,241.973065L775.673389,241.938505L775.669138,241.871544L775.607097,241.839144L775.487886,241.803504L775.287434,241.731143L775.178577,241.641503L775.010355,241.370422L774.882807,241.296982L774.165425,241.382302L773.803401,241.385542L773.577483,241.333702L773.283327,241.185742L772.799186,240.753743L772.722152,240.704063L772.630552,240.646823L772.530115,240.630623L772.228961,240.628463L772.104338,240.587423L771.860499,240.386544L771.385500,240.373584L771.441452,240.159745L771.405341,239.948067L771.230747,239.735309L771.163840,239.698590L771.025310,239.518232L770.945353,239.361633L770.922679,239.125117L771.012359,238.868081L771.125873,238.661804L771.211975,238.578646L771.232652,238.514927L771.206052,238.453368L771.117766,238.383170L770.908831,238.276252L770.603042,238.004098L770.596264,237.884221L770.637426,237.754624L770.642683,237.738424L770.679639,237.696306L770.953641,237.387434L771.204901,237.179000L771.254202,237.109882L771.287148,237.008365L771.121326,236.669256L771.131490,236.588258L771.139668,236.529940L771.239713,236.343107L771.269543,236.231871L771.198279,235.962961L771.201784,235.852805L771.249413,235.725370L771.486189,235.420823L771.570152,235.264229L771.652169,235.011520L771.767560,234.816049L771.906432,234.672416L772.228922,234.404589L772.275616,234.321434L772.297777,234.214519L772.274725,234.122724L772.217326,234.037408L772.195676,233.941293L772.228664,233.820340L772.242489,233.799821L772.732138,233.036304L772.851267,232.912112L773.072466,232.757681L773.175471,232.683166L773.373619,232.436942L773.572980,232.084885L773.942137,231.554641L774.128690,231.139951L774.234855,230.981203L774.345810,230.815976L774.431450,230.692865L774.505414,230.465003L774.478085,230.325694L774.392735,230.163707L774.424244,230.085954L774.663638,229.795458L774.706912,229.659389L774.760627,229.455287L774.835678,229.304100L775.020477,229.019005L775.104326,228.920734L775.209442,228.765228L775.712665,228.017938L775.786006,227.852715L776.187867,227.133507L776.179326,226.864615L776.165025,226.566567L776.165073,226.472617L776.164577,226.377588L776.154341,226.323593L776.145973,226.280398L776.148862,226.208046L776.088628,225.772855L776.028454,224.865761L775.935065,224.325827L775.857415,223.756739L775.724049,222.906891L775.646011,222.407999L775.184311,219.466518L773.944604,211.151023L774.079807,210.991218L774.315742,210.711560L774.672663,210.288296L775.132405,209.424495L775.460597,208.990437L775.481009,208.963444L775.611468,208.790685L775.623544,208.775568L777.097285,206.822328L777.333353,206.509207L777.722953,205.861374L779.671578,204.593789L779.840798,204.483659L779.880562,204.457746L780.042912,204.286072L780.079371,204.248283L780.289555,204.025863L780.445378,203.921132L781.091847,203.486012L781.948611,203.054132L782.608475,202.404156L782.633984,202.389040L783.037003,202.105081L783.386392,201.862151L783.534350,201.759581L783.873528,201.542564L784.246542,201.218659L785.568918,200.227513L785.942902,199.914408L786.072912,199.806440L786.107460,199.777289L786.126303,199.782688L786.144250,199.788086L786.206218,199.735182L786.356631,199.625056L786.638040,199.472822L786.677804,199.446910L786.721307,199.417759L786.941156,199.273084L789.040889,197.763716L788.503923,196.180950L788.250040,195.427361L788.228569,195.377697L788.193991,195.296725L787.978854,194.815208L786.881687,191.468386L786.864855,191.415486L786.847672,191.363665L786.720782,190.977166L786.688594,190.877843L786.611429,190.641410L786.538462,190.496744L786.427378,190.276506L786.391790,190.204173L786.366529,189.962343L786.359770,189.782051L786.003860,188.918379L785.971715,188.744566L785.859610,188.263072L786.035453,187.722202L786.232853,187.351908L786.265045,187.291452L786.768226,186.501206L786.814481,186.427795L787.648315,185.240276L788.802551,183.620949L789.051846,183.405040L789.176493,183.297086L791.504904,180.060654L791.807118,179.640722L793.898871,176.735779L793.916795,176.710951L793.939737,176.632148L794.047711,176.302904L794.090192,176.172286L794.279216,175.913209L794.331040,175.841963L794.409673,175.735094L798.119325,170.667008L798.812809,169.911399L799.522097,168.831964L799.608129,168.292250L799.620963,166.763790L799.621562,166.690390L799.648351,163.459741L799.655371,162.601629L799.656419,162.458071L799.657003,162.409499L799.679524,160.502245L799.680521,160.378118L799.701704,158.590700L799.705247,158.359719L799.918906,157.097965L799.524840,154.619821L799.509105,154.368339L799.371937,152.179497L799.228858,151.494141L799.202818,151.367863L799.176426,151.242665L799.162398,151.175749L799.147825,151.107753L799.383266,150.390024L799.492573,150.059762L799.692725,149.453204L799.892881,148.846649L799.952080,148.692313L800.321210,147.731760L800.556417,147.116579L800.758562,146.597454L801.801326,144.225260L802.275978,143.037020L802.565328,142.371135L804.059108,138.935994L804.121238,138.819441L804.290115,138.504314L804.394966,138.259337L804.413853,138.215089L804.447216,138.137387L804.492052,138.032705L804.498764,138.017597L804.659925,137.640958L805.206380,136.238016L805.221945,136.206720L805.241409,136.168948L805.264932,136.121464L805.285604,136.047001L805.299279,135.999517L805.323763,135.962825L805.382321,135.876491L805.701774,135.266756L805.772074,135.050922L805.886302,134.815662L806.023096,134.170320L806.031274,134.131470L806.050251,134.042978L806.072335,133.994416L806.105224,133.926429L806.578167,133.205549L807.996539,129.870989L807.439577,129.995090L807.021719,130.087895L806.956401,130.093291L806.884466,130.099766L806.161338,130.162356L803.255204,130.410557L803.219972,130.417032L801.448835,130.734298L801.262794,130.761277L800.697509,130.842212L800.461144,130.867033L799.677619,130.950126L799.472238,131.006242L798.891133,131.165955L798.624304,131.245811L798.328465,131.205883L798.174964,131.165955L797.208538,131.381784L797.099195,131.390417L796.220792,131.297610L795.540055,131.383942L795.078516,131.478907L794.716982,131.530706L794.361044,131.590059L793.188744,131.781067L792.783984,131.850133L792.719498,131.874953L792.236084,131.905169L791.778379,131.982868L791.156977,132.051934L790.303721,132.241864L789.372638,132.351938L789.300063,132.371362L789.100720,132.419924L788.504131,132.566689L786.545629,132.785757L786.496425,132.791153L785.754133,132.885040L785.706175,132.889356L783.827724,133.052309L783.706100,133.013459L783.383913,132.908781L783.002298,133.016697L782.736132,133.089000L782.372644,133.174254L782.281588,133.187203L781.669006,133.325336L781.625364,133.332890L777.744080,133.971753L777.572996,133.985783L775.213794,134.118520L774.116954,134.358095L772.939701,134.624649L772.786265,134.655945L772.503534,134.713141L772.319245,134.734724L771.627714,134.845879L770.765001,134.985092L768.309928,135.378990L768.004398,135.426474L767.971307,135.431870L767.897962,135.442662L767.671883,135.482591L767.862668,135.045526L767.965655,134.809187L768.053455,134.608462L768.098858,134.504861L768.371788,133.878945L768.378503,133.863837L768.819753,132.784678L768.879900,132.600143L768.960448,132.353017L769.011622,131.921357L769.120181,131.626749L769.400873,130.856241L769.839827,129.655163L769.888190,129.353007L770.012557,128.576036L770.064620,128.416326L770.153269,128.144387L771.224687,124.583336L771.242982,124.527223L771.672399,123.212894L771.685609,123.175126L771.753321,122.964706L771.801331,122.814713L771.847421,122.673354L772.108838,121.871601L772.243948,121.457238L772.452947,120.816272L772.809734,119.722104L773.617295,117.245691L773.851091,116.929534L773.937081,116.814077L774.217096,115.812736L774.386254,115.211719L774.437319,115.030444L774.442758,115.011021L774.447494,114.993757L774.480994,114.871828L774.551377,114.656024L774.753488,114.244918L774.816850,114.116516L775.082325,113.577010L775.300521,112.908025L775.399063,112.605904L775.468051,112.237964L775.480216,112.173224L775.521065,111.957424L775.605884,111.697386L775.696686,111.419005L775.813836,110.892457L775.833202,110.802901L775.851321,110.714424L775.888736,110.555812L776.819835,107.885343L776.992681,107.391176L777.164634,106.897011L777.188952,106.827958L777.219605,106.739483L777.280561,106.563613L777.328785,106.415796L777.350287,106.355374L777.372141,106.293874L777.656499,105.411291L777.666707,105.380001L777.697684,105.285054L777.713525,105.236501L777.736053,105.167448L777.800310,104.973238L777.890338,104.488792L777.930268,104.297819L777.944360,104.224451L778.051973,103.650456L778.211887,103.434669L778.261302,103.274987L778.316511,103.094805L778.356261,102.967491L779.527649,99.171862L779.566860,99.043472L779.586737,98.979817L779.694735,98.632411L779.777927,98.363766L780.180170,97.128434L780.446002,96.313876L780.474361,96.229723L783.137481,88.180415L783.548922,86.936539L783.847482,86.035734L784.086144,85.312936L785.820409,80.075454L785.939150,79.717306L786.980717,76.571678L787.012452,76.479986L787.025001,76.449781L787.498542,75.076558L787.645055,74.652620L788.189007,73.083088L788.422992,72.407817L788.439742,72.359275L788.458253,72.305340L788.549946,72.041057L788.761352,71.393837L788.855429,71.105825L788.961134,70.782216L789.536540,69.020720L789.557520,68.959236L790.996298,64.686645L792.509286,60.193061L792.511563,60.183354L792.932005,58.535237L793.044296,58.479150L793.078409,58.465128L793.128603,58.445713L793.132805,58.427377L793.310346,57.897783L793.346651,57.786688L793.354053,57.764037L793.435199,57.354170L793.490347,57.111486L793.589828,56.752315L793.709107,56.414716L793.773317,56.264793L793.792297,56.195763L793.801570,56.153698L793.798937,56.057704L793.786435,55.991910L795.466096,51.115703L795.687469,50.468574L795.768584,50.225902L795.899003,49.821448L795.913621,49.773992L795.926123,49.733008L796.906921,46.538405L796.930518,46.460752L797.123853,45.820114L797.284669,45.298115L797.523736,44.857006L797.715801,44.537768L799.110014,40.547360L799.549522,38.929657L799.586904,38.815340L800.171642,37.027261L800.360683,36.449213L802.770408,28.871171L803.481136,26.635683L805.046635,21.637498L805.177815,21.220182L805.201783,21.141463L805.474308,20.259387L805.508584,20.165572L805.725427,19.505637L805.984781,18.713070L806.111813,18.324876L807.831993,13.066021L807.936811,12.745773L809.072932,9.274841L809.085778,9.227398L812.198232,0.002156L810.463040,0.001078L810.118615,0.001078L809.952217,0.001078L809.774189,0.001078L809.187513,0.003235L809.128115,0.004313L808.961529,0.002156L808.796921,0.002156L808.526042,0.004313L806.920027,0.002156L806.820937,0.009704L804.874240,0.004313L804.055482,0.002156L803.836302,0.002156L802.071046,0.000000L802.071046,0.000000Z " data-aland="-2147483648" data-awater="1323482672" data-division="1" data-funcstat="A" data-geoid="44" data-intptlat="+41.5974187" data-intptlon="-071.5272723" data-lsad="00" data-mtfcc="G4000" data-name="Rhode Island" data-region="1" data-statefp="44" data-statens="01219835" data-stusps="RI"/></g><g fill="#000" font-family="Arial" font-size="12px" id="mylayer-label" stroke="none"><text text-anchor="middle" y="453.089227381"><tspan dy="0" x="534.919539418"><![CDATA[Rhode Island]]></tspan></text></g></svg>