<?xml version="1.0" encoding="utf-8"?><!DOCTYPE svg  PUBLIC '-//W3C//DTD SVG 1.1//EN'  'http://www.w3.org/Graphics/SVG/1.1/DTD/svg11.dtd'><svg enable_background="new 0 0 1000 1001" height="1001px" pretty_print="False" style="stroke-linejoin: round; stroke:#000; fill: none;" version="1.1" viewBox="0 0 1000 1001" width="1000px" xmlns="http://www.w3.org/2000/svg" xmlns:xlink="http://www.w3.org/1999/xlink"><defs><style type="text/css"><![CDATA[path { fill-rule: evenodd; }]]></style></defs><metadata><views><view h="1001" padding="0" w="1000"><proj flip="auto" id="robinson" lon0="-170.684700052"/><bbox h="60.44" w="54.45" x="-2521.05" y="184.41"/></view></views></metadata><g class="" id="mylayer"><path d="M64.344127,0.000000L61.866732,0.083696L59.437354,0.166006L55.646904,1.826068L52.606416,5.097691L50.322958,9.114541L50.046982,13.585345L50.057328,13.692043L50.431492,17.615220L51.125552,21.233268L51.126808,21.233545L51.130412,21.234930L51.131464,21.235485L51.616989,22.161406L53.073372,24.939445L53.558864,25.865643L53.556916,25.865643L53.551073,25.865643L53.549125,25.865643L53.550703,25.866474L53.554785,25.869523L53.556198,25.870909L57.177885,28.742067L60.949627,30.018014L62.876062,30.669844L68.790838,31.296455L74.977610,31.064767L78.876831,29.899121L81.521122,27.001081L81.943211,25.588781L82.887495,22.431616L82.243104,17.465565L82.088220,17.040434L81.435191,13.833384L80.115279,7.343624L78.574344,4.486046L78.403551,4.169831L76.083366,2.582934L74.606063,1.908932L73.888654,1.581908L70.058817,0.813125L68.535604,0.507718L64.344127,0.000000Z M939.028146,999.000000L944.260261,998.408545L945.755146,997.737823L945.822888,997.673245L946.025928,997.479789L946.093483,997.415488L947.265550,996.112569L948.348945,994.908319L949.318882,992.723207L949.497688,991.192742L949.727183,989.227695L949.953018,985.757683L949.913320,985.508242L949.241349,981.296004L947.793001,977.660534L945.981878,974.254273L945.332749,973.033674L943.753297,970.844135L942.025623,969.032915L941.506942,968.489410L938.323299,966.506354L935.911897,965.572336L933.780172,964.746963L933.776371,964.725899L933.765024,964.662985L933.761034,964.642198L933.747884,964.641921L933.708486,964.641367L933.695147,964.641367L933.453814,964.643861L932.729733,964.652176L932.488210,964.654947L929.045673,965.113919L928.748411,965.153552L925.668057,966.139398L922.942824,968.045128L920.984732,970.794246L920.976732,970.805610L919.504760,974.062481L919.507288,974.065529L919.514385,974.074676L919.516723,974.078002L919.507985,974.110706L919.481286,974.208820L919.472305,974.241524L918.898592,976.761990L918.713591,977.574892L919.142466,980.733375L919.561901,983.818413L919.982690,985.029591L920.939587,987.783427L923.011348,991.604599L926.538372,995.751433L929.737047,997.685717L933.227073,998.441527L935.198797,998.868627L939.028146,999.000000Z M279.224370,900.628435L278.107225,900.471288L275.192802,900.842675L273.744858,901.492879L273.778965,901.483456L273.781845,901.484564L273.813760,901.492879L273.619869,901.681898L273.069077,902.482874L272.664172,903.551859L272.637082,903.623365L271.991294,903.477581L270.041971,903.715103L267.926276,905.570375L266.991676,906.693405L265.543898,908.433935L265.517894,908.475508L265.075354,909.184747L264.709848,909.770375L263.665970,911.237909L263.185980,911.913058L263.189699,911.932458L262.104168,914.930441L261.517097,917.595285L261.269772,918.946970L261.051256,920.116010L261.365520,921.822176L262.034136,923.915251L262.505295,924.694334L264.010839,927.183465L266.505683,929.180369L266.492592,929.112466L267.398222,929.944486L268.061320,930.553951L269.166532,931.585246L270.226236,932.199423L271.244783,932.790041L272.072333,933.269520L272.883628,933.740130L274.631882,934.252867L275.497458,934.507019L276.015814,934.658900L276.543492,934.813830L277.560515,934.895037L278.073715,934.936056L278.301574,934.954071L278.623055,934.979569L278.984287,935.008671L279.211957,935.026963L279.326466,935.035832L279.669668,935.063270L279.755179,935.070199L279.775086,935.097915L280.266171,935.246747L280.788441,936.137248L281.093958,936.707911L281.140873,936.820159L281.824847,937.522749L281.974109,937.676293L283.699216,939.825358L283.803136,939.955067L284.425697,940.458659L284.634692,940.627447L285.261796,941.134365L285.470609,941.303430L285.517144,941.340846L285.656021,941.453094L285.702368,941.490787L285.891821,941.643777L286.192929,941.887397L286.492283,941.996596L286.704318,942.074477L286.918050,942.152358L287.559221,942.387109L287.772766,942.465267L287.787315,942.470255L287.831177,942.486330L287.845591,942.491874L287.999836,942.548136L288.461898,942.717201L288.615954,942.773741L289.180884,942.980499L289.718579,943.055331L290.836925,943.211370L291.359570,944.064179L292.355269,945.133723L292.445741,945.206338L293.429933,945.999558L293.449730,946.015356L293.509230,946.063304L293.528838,946.079379L294.309781,946.708523L294.367685,946.728201L296.227276,947.365937L297.164149,947.730674L298.093213,948.092640L300.392009,948.318245L300.529208,948.331549L302.114604,948.485647L302.340546,948.507543L303.017887,948.573229L303.243641,948.595401L303.243883,948.595401L306.245869,947.484560L308.685547,945.263155L308.816575,945.148135L308.869278,945.102127L309.208104,944.802522L309.338598,944.687225L310.047591,944.060576L312.174750,942.180628L312.883916,941.554256L313.616934,940.906820L313.940012,940.603057L316.547658,938.152724L317.074079,937.707057L317.927168,936.984513L318.132679,936.761125L318.247058,936.636128L318.507135,936.352321L318.590121,936.261968L318.704315,936.137248L318.906221,935.936587L319.511471,935.334605L319.713199,935.134222L319.714387,935.132836L319.783428,935.002850L319.993045,934.608181L320.062794,934.476809L320.395171,933.850715L320.762592,933.158380L320.897081,931.695277L320.968079,930.923122L320.970390,930.897346L321.128024,930.014329L321.397896,928.501893L321.890020,927.452860L322.259074,926.666571L322.325140,926.525776L322.955744,925.989203L323.434794,925.581508L324.702410,925.188502L325.717841,925.127805L326.363523,925.089558L326.724240,925.044104L327.133462,924.992276L328.360939,924.837069L328.388439,924.833743L328.782012,924.836792L329.332992,924.840949L330.985312,924.853976L331.536103,924.858410L331.805555,924.860627L331.918460,924.827092L332.997891,924.506146L333.357461,924.399164L333.678705,924.303546L334.085829,924.182706L334.666776,924.086533L335.002105,924.031379L335.483878,923.951836L335.936272,924.503374L336.918555,925.002254L337.381981,925.115056L339.103906,925.534392L342.397691,925.895248L344.938584,925.696250L345.039368,925.682947L347.499228,925.363941L349.215436,925.141386L349.580239,925.056576L351.808096,924.539959L354.057358,923.322416L354.600440,922.323827L355.322981,920.994591L355.754236,920.232969L356.971512,915.819277L356.232329,910.493471L354.295701,905.917372L351.386403,903.381409L351.222764,903.234517L351.099714,903.061296L350.831361,902.684643L350.823630,902.280275L350.669888,901.896416L350.508036,901.492879L348.655972,896.540133L347.951451,895.845584L345.305813,893.239227L340.839862,888.838022L335.082000,887.187571L333.322084,887.012964L329.533031,886.637420L328.090990,886.969173L327.979612,886.994672L327.645532,887.071443L327.534207,887.097219L327.074339,887.202814L325.694309,887.519878L325.234256,887.625751L325.166841,887.641272L324.963976,887.688388L324.896371,887.704185L324.751099,887.737721L323.611651,887.007698L319.748936,884.533546L318.461386,883.709014L317.555239,882.877830L315.267743,881.742885L313.951315,881.242900L313.915830,881.238743L310.565331,880.857379L308.188017,880.968795L305.537868,881.631192L303.207016,882.712923L301.624509,884.911861L301.618028,884.919898L300.166289,886.765743L300.235787,888.568074L299.798200,889.015400L299.766705,889.047550L298.225019,890.069417L297.846650,890.524226L296.854296,891.716543L296.136932,893.232575L295.827573,893.921858L294.460260,894.183491L293.338281,894.794339L292.667915,895.529074L292.462167,895.754401L291.634933,896.992171L291.415901,897.773746L291.343746,898.031499L291.126737,898.805591L291.054409,899.063622L291.053775,899.060296L291.051871,899.050318L291.051237,899.046992L287.254967,899.820807L280.598721,900.490966L279.899505,900.560809L279.224370,900.628435Z M562.208648,895.815374L562.911947,896.598058L563.205005,896.790126L563.614504,897.058965L563.637757,897.181744L564.233174,897.526524L566.083284,898.089702L567.787645,898.143470L569.446363,897.907611L572.498553,896.994665L574.086362,895.891869L576.064437,894.368630L576.423157,894.164090L576.454255,894.136098L576.547464,894.052951L576.578372,894.025236L576.676081,893.937655L576.969074,893.675468L577.066595,893.588164L577.568516,895.910438L578.479742,899.059741L578.525336,899.217165L579.522165,901.492879L579.299206,901.492879L580.109283,902.692957L580.966922,903.964265L582.562778,905.348651L583.100097,905.555408L584.318020,906.024631L586.272941,906.759367L587.610394,907.796480L588.061416,908.146526L589.731536,910.282557L591.806484,913.925201L592.927402,915.850041L594.574377,917.508259L594.687319,917.548446L596.352969,918.144329L597.478549,918.704182L598.100613,918.957779L602.489588,920.118504L602.523070,920.131253L602.523555,920.131253L604.768274,919.884585L606.821931,918.975240L609.130500,917.988845L610.658227,916.789596L610.762288,916.700352L610.775081,916.689820L611.878780,916.970855L614.677455,918.013512L614.863674,918.083078L617.545189,918.514331L620.024519,918.129917L622.682892,917.340303L624.680639,915.595336L624.997402,915.243072L626.192874,913.913838L627.131057,912.159448L627.316237,911.363183L627.708751,909.675865L627.713285,908.916461L627.718181,908.053956L627.526059,906.639914L627.516230,904.625555L626.771516,900.079392L626.059273,896.831422L625.330311,892.777211L624.957502,890.254556L624.672608,888.775108L624.563671,888.210268L623.571185,885.910446L622.630802,884.661314L621.694566,883.418279L620.975457,882.440204L618.581340,880.597132L616.027134,879.322503L611.849862,878.942802L610.922503,878.931162L607.535679,879.673656L607.130025,879.668668L606.024517,879.327769L601.739339,878.685327L600.627301,878.566428L600.164440,879.182263L599.917943,879.153993L599.177880,879.070016L598.931192,879.042023L594.936942,878.588046L591.844738,878.236892L590.388395,878.226360L588.961355,878.454181L587.902295,878.874900L586.792874,879.365739L585.557591,880.207454L585.066113,880.628173L584.040343,880.833544L583.666513,880.908653L582.405811,881.259252L580.779670,882.030848L580.621056,882.251462L580.023745,883.140294L579.947984,883.273882L579.945751,883.277485L579.938725,883.289126L579.936302,883.293006L579.933122,883.283860L579.923394,883.256699L579.920024,883.247830L579.387907,881.773095L579.303434,881.539732L578.706589,877.542346L578.580120,877.287919L578.112829,876.350031L577.784783,875.929312L576.507097,874.291336L576.471676,874.246160L575.889725,871.721292L574.791344,869.477182L574.234094,868.611079L573.302310,867.162953L573.119399,866.848662L571.614550,865.628079L571.284904,865.360626L570.296038,864.558545L569.966216,864.291370L569.305908,863.701588L569.288286,863.685236L565.504219,862.004857L563.153487,861.414244L560.597933,861.566401L559.385007,861.808079L557.166211,862.819133L556.889779,862.966578L556.003450,863.720989L554.448039,863.442450L553.281858,863.236525L552.058726,863.020623L549.730373,862.599073L548.231188,862.386220L547.222174,862.516759L544.355569,863.113192L541.034554,864.524178L538.918683,865.558514L538.736813,865.833450L538.131351,866.848662L536.882995,868.083933L535.951601,869.150973L535.421313,870.372665L535.216998,872.021727L535.185827,875.335927L535.583155,878.253522L535.957463,879.995709L536.381127,882.361492L537.546431,884.689029L540.230353,887.838328L543.279535,890.588803L546.504814,893.622808L550.006496,896.115255L551.990191,896.749661L554.965780,897.010463L558.268291,896.663466L560.654112,896.071188L560.831425,895.959495L561.470330,895.563996L561.756902,895.386063L562.124287,895.735000L562.208648,895.815374Z " data-aland="198019968" data-awater="1306931137" data-division="0" data-funcstat="A" data-geoid="60" data-intptlat="-14.2661172" data-intptlon="-170.6646022" data-lsad="00" data-mtfcc="G4000" data-name="American Samoa" data-region="9" data-statefp="60" data-statens="01802701" data-stusps="AS"/></g><g fill="#000" font-family="Arial" font-size="12px" id="mylayer-label" stroke="none"><text text-anchor="middle" y="816.50351853"><tspan dy="0" x="441.289852472"><![CDATA[American Samoa]]></tspan></text></g></svg>