<?xml version="1.0" encoding="utf-8"?><!DOCTYPE svg  PUBLIC '-//W3C//DTD SVG 1.1//EN'  'http://www.w3.org/Graphics/SVG/1.1/DTD/svg11.dtd'><svg enable_background="new 0 0 1000 1001" height="1001px" pretty_print="False" style="stroke-linejoin: round; stroke:#000; fill: none;" version="1.1" viewBox="0 0 1000 1001" width="1000px" xmlns="http://www.w3.org/2000/svg" xmlns:xlink="http://www.w3.org/1999/xlink"><defs><style type="text/css"><![CDATA[path { fill-rule: evenodd; }]]></style></defs><metadata><views><view h="1001" padding="0" w="1000"><proj flip="auto" id="robinson" lon0="144.733626446"/><bbox h="8.78" w="6.19" x="2124.14" y="-229.83"/></view></views></metadata><g class="" id="mylayer"><path d="M558.439084,0.000000L556.158034,0.352808L544.944589,2.082520L536.069706,5.871868L534.256142,6.646138L526.075417,11.440511L517.031820,17.663279L510.951778,23.399743L501.455690,33.234498L495.262063,41.486384L491.360672,49.004049L491.250586,49.244339L487.882136,56.645671L485.218157,65.439162L483.779980,70.576803L483.138111,72.871006L480.752917,76.248423L476.064273,83.516257L471.276045,91.237973L470.853739,92.199135L467.073311,100.820985L464.634458,109.610656L463.771974,119.283298L462.859555,125.414516L462.386291,132.506895L461.811077,143.981710L461.156663,154.813843L461.859358,162.932220L463.677318,171.672299L463.347805,173.442055L461.772627,181.924679L461.723307,190.184176L462.091476,196.485117L462.414969,201.224171L462.680235,205.122210L460.362739,208.814286L458.378111,216.204158L456.827378,218.219924L452.371041,224.007862L448.834019,230.392711L446.078169,235.589458L443.981355,242.658941L440.657046,252.030248L439.428831,260.510955L438.355389,269.123249L438.274861,269.769743L434.443824,279.217328L433.062889,286.792178L432.532142,288.281593L430.944515,292.747932L430.415078,294.235440L427.289858,295.947981L425.366356,297.002586L419.053855,301.726377L418.580780,302.176444L415.971414,304.668973L411.695094,308.751991L410.744551,309.921019L404.666269,317.394791L397.782386,328.564446L395.252798,332.668441L392.468853,332.777143L389.616979,332.889660L388.073291,333.133763L380.127494,334.386702L375.329426,335.858953L371.198868,337.127148L368.971638,337.811783L368.955506,337.815597L365.110055,336.751457L361.679220,336.505446L359.251581,336.329997L357.031396,336.410093L350.763956,336.631312L350.379381,336.684710L348.206862,336.980304L345.358411,337.369345L341.800897,337.853738L337.228789,339.726471L334.618436,340.794425L333.114298,341.410406L325.975032,344.272903L316.349192,349.740444L310.212983,353.812017L307.072548,355.740055L301.121922,359.393982L295.846631,364.155910L294.176666,363.421692L286.291427,361.497468L274.635476,360.328441L262.887763,359.292907L252.245399,359.721996L241.716958,361.512725L231.955911,362.908693L226.351452,365.273447L218.674775,368.256088L215.307611,370.466370L210.440121,373.662601L205.902541,378.590443L200.805988,383.270366L196.401662,388.652087L193.117295,393.196608L190.778738,394.619274L188.445108,396.085802L185.612952,398.013839L184.689519,398.660332L183.713351,399.344966L180.579197,402.251323L177.824197,405.024186L174.852990,408.967983L173.012192,411.399483L170.325097,416.054612L168.191846,419.529272L167.148705,421.234182L165.869966,423.127891L163.913776,426.026619L161.237999,429.318201L160.125882,431.808819L158.203148,436.118769L155.280799,441.815151L154.517316,443.726022L153.481419,446.325342L151.898519,450.764971L150.131758,456.571961L148.942863,462.434254L148.395318,468.740892L148.195787,475.819886L148.152830,481.729855L148.035310,484.685792L147.958550,486.667224L148.547895,492.239643L149.561485,497.611820L149.907267,499.236632L150.866498,503.758261L152.085241,509.710183L153.773370,515.395116L154.238635,516.859735L155.564894,521.013302L157.895497,527.531617L160.776727,535.016809L163.836943,541.456934L166.553882,546.800501L169.463447,551.556696L172.999579,557.407540L176.603341,562.606170L179.350788,565.377120L181.609579,567.652236L186.076597,572.904263L189.916582,577.059734L191.562120,578.755105L194.195448,581.468843L195.523042,582.647402L198.296637,585.103688L203.339687,589.304927L207.456815,592.678505L208.122509,593.263971L212.266317,596.895001L213.926172,598.351990L213.645568,600.836880L212.660099,609.603604L211.114915,612.485162L210.492829,613.747631L209.859674,615.036799L208.738759,617.716208L207.335074,619.688101L207.138957,620.031371L206.663628,620.866660L205.897896,622.891950L205.380137,624.327961L204.910432,626.803315L204.479774,628.498685L204.380988,628.889631L204.173671,631.578575L205.747941,631.578575L204.984740,635.774091L204.210676,640.200360L203.682675,642.095970L203.551052,644.947013L203.556776,647.923922L203.572594,648.377800L203.730345,652.510382L204.527334,659.017244L203.721338,662.280210L202.660418,667.042118L201.919471,671.338706L201.600776,676.396206L201.362067,680.610790L201.509447,686.040165L201.852988,690.620902L202.810336,696.408802L203.631534,700.123738L204.188879,702.637231L205.190649,708.682582L206.523113,714.975849L207.265570,717.781120L207.879517,720.103908L209.591351,724.959258L211.984521,731.084703L214.265378,736.567472L214.592434,737.194892L218.661143,744.952771L222.721021,750.759737L226.237413,755.100182L230.664590,760.376988L235.465621,766.159162L240.360771,771.483643L244.983377,775.589520L251.272118,780.349514L254.949731,782.227957L258.146049,783.858484L258.207957,786.185084L258.667855,792.444018L260.088002,798.281493L260.609214,800.110353L260.655199,800.274359L260.793977,800.760656L260.841351,800.922755L261.713236,803.981661L262.603014,806.958563L263.779944,810.894711L266.342203,816.367939L268.814237,821.650462L270.215687,824.314608L270.788540,825.397811L273.488537,829.736345L274.058294,830.651728L273.070218,832.562589L270.637763,836.079185L270.432436,836.420547L267.697815,840.970762L264.908042,845.080449L262.839121,849.035665L261.072857,854.726294L260.186045,857.598307L259.456134,859.959231L258.064427,865.506831L257.819906,866.387887L257.394618,867.924966L257.145396,869.057752L256.947399,869.959785L256.527867,869.959785L255.274284,869.959785L254.856423,869.959785L254.738149,871.765758L254.690903,872.499971L254.455846,874.942898L254.219037,877.136002L254.179395,877.513597L254.172832,878.955324L254.172202,879.121237L253.886120,881.627096L253.792920,884.262635L253.710989,886.577789L253.694139,888.120589L253.595001,890.307971L253.727438,893.330640L254.014086,897.060822L253.941195,899.438908L254.269048,903.041318L254.707243,907.030858L254.765632,907.734558L254.970369,910.183205L255.475293,913.400391L256.265968,916.617577L257.048987,919.771831L258.404701,924.150407L259.651790,927.756630L261.383460,931.942595L263.118593,935.743336L264.766582,939.736688L267.006473,943.026341L269.122058,947.086440L271.397631,950.631636L274.129138,953.730584L276.555440,956.697946L279.512996,961.019309L282.488379,964.631251L285.605379,967.602426L288.504558,970.251311L291.788546,973.609616L295.664022,976.647538L299.147855,979.363169L301.345082,980.930759L302.595577,981.821349L305.524521,984.275714L308.402267,986.346764L311.826780,988.225202L313.931577,988.877411L317.548911,990.885529L319.778540,991.602577L321.834324,992.319626L325.856788,993.875773L327.710763,995.691279L330.692339,996.486516L334.171710,997.153982L340.064162,998.227647L344.619422,998.776876L348.727406,999.000000L352.353849,998.902741L354.276695,998.849344L361.470022,998.134202L367.628909,997.409526L374.617446,996.049803L379.013131,995.441456L383.972835,993.936799L388.273938,993.071001L391.676589,991.104839L394.125027,989.710790L396.563512,987.416616L400.262634,988.408279L405.693110,988.644752L408.681879,988.667637L413.174104,987.931518L417.762925,987.067627L422.020034,985.879538L425.367829,984.748661L427.706801,983.577736L430.039354,982.408718L434.930056,982.896921L439.123400,983.314564L443.350960,983.156279L448.768247,983.713136L454.044528,983.240189L456.237940,983.322192L459.929407,983.030414L460.606061,982.948412L465.351269,982.364856L470.201496,981.312168L476.390192,979.561501L479.441324,978.653748L481.851526,977.934793L485.919690,979.059949L486.151520,979.124788L492.182765,979.559594L495.708260,979.412752L498.635632,979.290701L504.830129,977.990097L510.424108,976.493067L516.175113,974.483043L522.499900,970.802447L522.924852,970.554531L530.753160,966.277031L534.996513,963.563306L537.545723,961.583794L540.541059,959.091287L542.468664,956.783763L545.172820,954.676478L545.355962,954.478146L547.728442,951.922706L550.325395,949.041161L552.885821,945.900258L555.209216,942.307385L557.334499,939.357186L560.866315,935.321879L563.573954,930.764041L565.835405,926.719198L568.775341,922.163266L570.883426,917.021871L572.726648,913.295504L574.350315,909.633976L575.510032,905.966727L575.654312,904.597468L576.007264,901.263952L576.180174,898.365242L579.767376,896.393356L581.502495,893.956151L584.146725,891.846958L586.255250,889.766370L586.933787,889.096997L588.932903,887.306281L589.458273,886.482437L591.061590,883.968949L593.544632,880.700272L595.198630,877.681417L596.591814,874.855174L596.916489,874.382226L598.219059,872.482808L598.789398,869.959785L600.347183,869.959785L601.221851,869.374322L602.651335,867.089680L604.384180,867.709470L604.903803,864.526609L605.554952,860.016443L605.417270,856.854559L605.376263,852.729616L605.108273,850.542233L609.185091,846.369613L611.747258,842.082571L614.554100,836.048672L616.733703,829.312980L616.954933,828.277453L618.202649,822.453329L619.755345,816.884749L621.629004,811.894004L622.547773,807.431511L622.972708,802.389276L623.087741,796.835950L622.955997,791.931021L622.953599,786.377696L622.724803,781.215314L622.569824,776.890127L622.171665,772.503914L621.572639,767.925089L621.203821,763.344357L619.964224,757.998897L618.896971,753.748084L617.117865,749.375219L617.504924,745.791873L617.566232,745.236921L617.267137,741.108158L616.543931,735.756976L614.962718,727.119946L613.655971,720.613090L613.068061,717.300544L612.682318,715.134134L611.312801,710.433254L612.287946,704.227711L612.583565,702.351173L612.652252,697.636943L611.520315,690.416848L611.052873,685.965790L610.794523,682.481608L610.211413,679.129011L610.009637,676.743290L609.339182,673.198081L608.223020,670.497696L609.160299,666.550099L609.149983,664.452342L609.148297,663.903111L609.176312,661.513575L609.154539,658.801747L608.815320,654.802659L608.534988,651.053395L608.501821,650.607144L608.197192,646.091245L608.192033,645.004225L608.190064,644.218519L608.506560,641.827076L608.705046,639.048500L609.075342,635.171463L608.814474,631.578575L608.987982,627.224774L608.988514,627.217146L607.745867,621.148904L607.362655,619.278085L607.596154,619.140777L609.241441,618.162459L611.845611,616.589140L612.376027,616.291640L613.995355,615.385790L614.783473,614.945260L618.167062,612.527117L620.579192,610.139486L622.110548,608.623379L626.303087,604.139897L629.884569,598.700980L631.478409,595.470432L632.963035,589.802668L634.863343,588.866305L640.590627,586.043865L642.144764,584.748976L650.182034,578.047588L651.929042,576.590599L658.691174,568.542830L665.093679,560.050717L668.701738,551.838940L669.857459,549.205298L676.993082,546.264619L677.095409,546.222664L677.368647,546.573562L681.802722,542.635494L684.638202,540.127716L687.646020,536.797998L687.922448,536.490962L691.196557,532.787461L694.088052,529.263223L696.500690,526.612416L699.369423,521.425226L702.263701,517.454736L704.464675,514.475915L706.997953,510.873487L709.187450,505.341118L710.660247,502.589236L714.077577,501.311509L716.991603,500.220672L720.748204,498.643537L724.125077,496.286416L726.603561,494.211539L727.765364,493.237033L731.317055,490.887540L734.833226,487.769503L738.508277,484.020230L741.383765,480.366309L743.861559,476.313814L746.655703,472.465374L749.875408,467.804527L750.330402,467.186640L752.972786,463.586117L754.701554,459.567947L757.347432,455.460146L758.807484,451.623147L764.935029,450.969026L768.460800,449.384262L773.054384,447.522974L777.719057,445.280274L781.518615,442.110745L785.675511,438.508313L789.000142,436.212215L792.437255,433.410747L795.549304,429.320108L798.063166,426.547246L801.124750,421.051105L803.646628,416.872740L805.649976,414.206673L808.184144,409.646896L808.831158,407.758908L810.791505,405.218706L812.615765,401.524734L814.582155,397.069845L816.414140,393.196608L818.460053,387.248491L818.978973,385.741915L820.775639,380.224793L821.481948,371.801311L822.253596,363.051722L822.786377,355.728613L824.732240,351.182182L825.796760,348.516112L826.391338,347.026698L827.988014,342.493616L828.151364,342.028293L829.161537,337.033702L829.870773,330.486763L830.981490,323.548877L831.011741,322.713584L831.265482,315.878678L831.291542,315.192136L831.785491,309.490023L831.840434,306.486402L831.900069,303.206257L834.644315,298.978302L837.284437,293.714812L838.683425,289.366711L839.850015,285.018611L840.541923,281.669810L840.803518,280.413056L841.658183,276.652330L842.325201,272.691362L842.465106,271.854162L842.589242,270.046267L842.816771,266.733700L842.525099,262.656400L842.330478,261.905018L841.939772,260.392717L842.924196,260.043725L846.981434,252.796887L848.747895,246.385342L850.089720,241.760714L850.908893,238.936354L851.869444,228.735473L852.041450,219.383233L850.030212,210.322773L847.241236,202.179610L845.200878,195.440045L842.733246,188.322881L838.934776,178.535825L838.804636,178.198275L834.050351,167.890589L827.553651,159.367915L826.801928,158.353356L825.232366,156.230792L824.355782,155.557598L823.391542,154.813843L823.067425,154.813843L822.095077,154.813843L821.770961,154.813843L818.753585,150.164417L817.252261,148.608252L802.568223,133.368889L801.315669,132.314281L795.590067,127.483683L791.342226,123.902212L780.495223,118.043704L766.947482,112.496048L756.063209,109.479068L744.548516,107.253521L743.322447,107.015138L731.761522,106.786290L720.000249,106.046348L712.379672,95.544130L700.490959,84.221872L692.619587,77.339265L687.028188,72.413310L679.273209,61.138724L672.670864,52.617943L663.783031,44.142931L653.270488,35.892952L642.833376,29.448966L631.458580,21.538443L620.231412,15.174553L611.955595,11.335622L608.337545,9.960625L603.251277,8.023042L595.087305,5.431335L592.852126,5.225371L583.506116,3.137130L570.011695,0.579749L558.439084,0.000000Z " data-aland="543397709" data-awater="934511639" data-division="0" data-funcstat="A" data-geoid="66" data-intptlat="+13.4382961" data-intptlon="+144.7729496" data-lsad="00" data-mtfcc="G4000" data-name="Guam" data-region="9" data-statefp="66" data-statens="01802705" data-stusps="GU"/></g><g fill="#000" font-family="Arial" font-size="12px" id="mylayer-label" stroke="none"><text text-anchor="middle" y="496.393858602"><tspan dy="0" x="494.096085645"><![CDATA[Guam]]></tspan></text></g></svg>