<?xml version="1.0" encoding="utf-8"?><!DOCTYPE svg  PUBLIC '-//W3C//DTD SVG 1.1//EN'  'http://www.w3.org/Graphics/SVG/1.1/DTD/svg11.dtd'><svg enable_background="new 0 0 1000 1001" height="1001px" pretty_print="False" style="stroke-linejoin: round; stroke:#000; fill: none;" version="1.1" viewBox="0 0 1000 1001" width="1000px" xmlns="http://www.w3.org/2000/svg" xmlns:xlink="http://www.w3.org/1999/xlink"><defs><style type="text/css"><![CDATA[path { fill-rule: evenodd; }]]></style></defs><metadata><views><view h="1001" padding="0" w="1000"><proj flip="auto" id="robinson" lon0="145.213452483"/><bbox h="110.33" w="35.27" x="2104.89" y="-345.71"/></view></views></metadata><g class="" id="mylayer"><path d="M574.696101,654.444834L576.121499,655.275703L578.982228,656.942754L582.048023,658.281831L585.546335,659.311306L585.730566,659.313432L589.220639,659.352606L591.276480,659.276383L592.409213,658.884484L593.050766,658.405428L594.959594,657.109778L595.510215,656.695406L595.977523,656.343593L597.814518,654.110179L599.043550,652.521174L599.686904,651.688939L600.039014,650.169933L600.641695,646.847068L600.648367,646.297408L600.649167,646.229991L600.016727,643.939791L599.601191,642.648393L599.205873,641.813426L597.532784,638.279203L596.429578,636.746532L595.649806,635.995229L594.022035,634.426725L590.568741,633.095395L589.834660,632.812366L583.747035,632.195289L580.988115,632.385392L580.372644,632.604497L577.317254,633.690758L574.238224,636.574498L573.258309,637.699479L571.392525,639.841179L570.551686,644.068551L571.677545,649.064538L574.696101,654.444834Z M580.576217,596.390515L582.214955,599.803855L583.963746,601.903637L584.518422,602.270176L586.468008,603.558075L588.068184,603.820453L589.991923,604.881049L592.465386,605.149349L593.670009,605.024841L595.249335,604.861614L597.656913,604.147970L600.005840,602.499301L601.346375,600.646562L601.834345,598.690875L602.122502,596.031264L601.551573,592.762933L601.205607,590.783866L600.628299,588.251956L599.106811,587.000046L599.031438,586.796886L596.682366,584.589759L596.302554,584.295496L593.499574,582.122990L589.125304,580.627229L586.677100,581.175063L586.257134,581.268899L583.899292,582.590501L583.102069,583.077751L581.622542,583.981190L580.835026,584.717152L580.665851,584.874912L580.544552,585.668725L580.286687,585.937783L580.050731,586.183609L579.505874,586.735391L579.244600,587.000046L578.859660,589.170124L579.073110,590.930846L579.316327,592.937396L580.576217,596.390515Z M559.523244,462.233674L559.586694,462.465827L559.694251,462.858163L559.840535,463.146191L559.952252,463.366045L561.503080,465.235263L563.128575,466.613757L564.364583,467.661710L568.072027,470.008903L570.462967,470.927799L572.437290,471.161623L574.268851,470.754102L574.426379,470.719028L576.957944,470.432822L577.843933,470.014217L580.259536,468.066498L580.304169,468.030513L581.561712,465.840925L582.124486,462.913431L581.942291,458.072694L581.902552,457.910992L580.977509,454.143569L580.037229,451.588533L579.321645,449.644473L578.008523,447.666252L575.378281,445.746792L575.039077,445.647646L572.714267,444.967894L570.157642,444.191578L568.732651,444.176243L566.346640,444.150431L562.852431,445.172108L561.397180,447.535525L560.560492,450.219614L560.284317,451.105707L559.461038,454.143569L559.284127,454.642947L558.753635,456.140775L558.576761,456.640001L558.456003,457.716646L558.420400,458.035191L558.819133,459.723876L559.076908,461.131367L559.137230,461.460085L559.523244,462.233674Z M569.696763,502.600615L570.129122,503.758360L570.518066,504.914434L571.417782,506.271995L572.135498,507.577325L572.318415,507.750569L573.390448,508.765590L574.151831,509.615870L574.342259,509.714259L574.973881,510.331471L575.410333,511.081388L576.448511,511.757968L577.252776,512.432270L577.664111,512.627379L578.519054,513.032629L579.867611,513.865904L580.531987,514.319134L581.866101,514.554935L583.208096,514.837046L584.397451,514.470211L584.645579,514.369088L585.527975,514.009237L586.636996,513.344652L587.081547,513.132233L587.172148,513.047357L587.517223,512.723643L588.465328,512.096865L588.460999,511.813084L588.450031,511.081388L588.715012,510.109487L589.648213,509.437766L590.458964,507.929583L590.565183,507.658253L590.997355,506.553650L591.373478,505.220079L591.458853,503.925530L591.385061,502.904893L591.118263,501.555381L590.903489,500.253546L590.373026,498.434409L591.550252,497.359873L590.493269,495.898309L589.919800,494.913660L589.782049,494.676797L588.752402,493.354771L587.866895,492.545796L586.246956,492.101983L585.607455,491.073758L585.471450,490.854812L584.759439,490.069220L584.243846,489.881552L582.822455,489.612198L582.476097,489.546453L581.828970,489.586689L580.968876,489.210140L580.411679,489.011085L579.715374,488.762228L579.269322,488.472679L579.123141,488.377631L578.296267,488.125585L577.496286,488.243713L575.992431,488.759798L575.540359,488.886884L574.975805,489.334492L574.141123,489.498170L573.220012,489.890511L572.372042,490.234568L572.255304,490.281940L571.517859,491.187178L571.118960,491.823821L570.824496,492.101983L570.101334,493.287812L569.494327,494.406835L569.025642,495.446904L569.008559,495.484711L568.644108,496.749800L568.487539,497.976930L569.144634,498.972665L568.988154,499.743228L569.394355,501.447882L569.696763,502.600615Z M533.156922,393.457875L533.507046,394.342882L533.518965,394.357002L534.189001,395.144383L534.668281,395.802406L535.504963,396.285372L536.789549,397.207122L539.355152,398.709313L539.425381,398.750307L543.011904,399.326648L545.983751,399.326648L546.957498,398.631729L548.953699,397.207122L549.898265,396.686047L550.509813,395.745319L551.415211,394.815219L551.434410,394.795026L552.420130,393.751207L553.223900,392.725760L554.529215,391.933825L555.930014,390.975943L556.798455,390.503151L557.342205,390.293628L558.322208,388.449832L558.809589,387.580467L559.253945,386.787775L559.611116,385.608986L560.109981,384.059587L560.222657,382.913291L560.241173,382.725026L560.510207,380.607492L560.383279,379.437969L560.319625,378.851462L560.237286,378.228668L560.017941,377.161477L560.167995,376.219544L560.128142,376.064681L559.936669,375.319516L559.845123,374.751836L560.010027,373.663848L559.679544,372.951326L559.120031,371.621935L558.430844,370.290722L558.053254,369.625724L557.647568,368.911079L556.691051,367.677037L555.864977,366.671494L554.861017,365.425156L553.986975,364.416730L553.728582,364.022135L553.268074,363.318879L552.187179,362.586321L550.820872,361.705278L548.677858,361.037853L547.736053,360.824842L546.147098,360.828941L544.452713,360.301956L543.640923,360.327007L542.342999,360.462283L542.207855,360.476251L540.912571,360.441635L539.954495,360.603633L538.865420,361.412255L537.676138,362.253064L536.898832,363.171304L536.113185,363.912061L535.834023,364.175175L535.151088,364.908189L534.054212,366.193698L533.405806,366.880558L532.941459,367.620102L532.592407,368.504488L532.424868,369.205925L532.319610,370.003316L532.297318,371.227035L532.800105,373.361409L532.945349,373.883692L532.437260,374.622025L532.423616,374.640244L531.954472,375.266984L531.214277,376.375015L530.881590,378.228668L530.708888,379.109416L530.794270,380.632696L530.627561,382.292014L530.618833,382.379619L530.865654,383.400050L530.694767,384.732183L530.641190,386.063254L530.562553,386.983025L530.453878,388.408990L530.873392,389.203505L531.085155,390.269184L531.866580,391.349895L532.518658,392.657590L533.156922,393.457875Z M500.226632,286.428990L503.127384,290.553586L505.881518,293.562782L505.934901,293.621080L508.407322,295.080666L510.230778,295.817899L512.397400,296.808821L512.686765,296.941056L513.619369,297.128856L515.062040,297.130678L516.510958,297.377536L516.755063,297.331231L518.616129,296.353820L521.832919,293.652051L522.335620,293.110210L522.654137,292.766796L523.704501,289.382004L523.914084,288.802514L524.542646,287.063589L524.629864,286.822199L524.762430,286.490780L524.907143,286.128239L525.028815,283.552650L525.038981,283.339650L524.806853,281.712166L524.017984,279.068876L522.927449,276.421947L522.421725,275.616103L521.705280,274.466092L519.941986,271.635322L518.536219,269.995555L515.682147,266.666080L514.074679,265.430604L513.198396,264.756847L512.351525,264.362582L510.775663,264.021453L508.463057,263.520462L506.613825,263.451842L506.114547,263.504673L504.621990,263.662561L504.068247,263.779004L503.726225,263.850812L502.439686,264.211374L501.899651,264.362582L499.930116,265.750480L499.147758,266.825335L498.934081,267.118947L497.110339,272.647330L496.517644,276.902447L496.831262,278.963818L496.834447,278.984465L498.588939,283.104940L498.754523,283.339650L500.103675,286.171051L500.226632,286.428990Z M437.213427,148.956764L437.975808,150.107108L438.386442,150.506343L439.053067,152.024199L439.257749,152.142755L440.969086,153.132649L442.899022,153.922166L443.999779,154.440870L444.764702,154.801095L445.599517,155.092553L448.514214,155.895582L449.104140,156.058009L452.644502,155.673800L455.813746,153.560728L455.874189,153.342286L456.659736,150.506343L456.759521,150.204716L457.504825,148.537795L457.973749,147.004006L458.130586,146.617675L458.522874,145.651924L458.360223,143.568776L458.726502,142.169792L458.285728,140.853085L457.900225,139.808556L457.192531,138.577770L455.346959,136.749507L454.180564,135.063785L453.242973,134.406499L451.955285,133.503451L450.325152,132.311078L449.384897,131.531445L449.273613,131.439759L448.305680,130.679101L447.589206,130.368826L446.715473,129.990243L444.747271,129.529993L442.954393,129.298805L441.896101,129.359828L441.398586,129.388518L440.173003,129.799130L439.554977,129.993886L439.204634,130.104091L438.317908,130.557966L437.967864,131.012752L437.568405,131.531445L436.391023,132.939370L435.357649,134.575298L435.241185,134.759733L433.928102,136.990563L433.175826,139.363481L433.434460,141.470301L434.668055,143.811048L435.505466,146.151497L435.742699,146.541168L437.213427,148.956764Z M404.166239,96.987280L405.908610,98.561672L407.076988,99.783755L408.681258,100.882281L411.031003,101.425852L412.653763,101.576582L414.081334,101.495069L415.098114,101.436781L417.367203,101.467291L417.601699,101.393064L418.852488,100.341594L419.082765,100.172952L420.105622,99.423247L421.188795,98.321688L422.203051,96.724375L422.656720,95.598988L423.029572,94.673815L423.257916,93.584159L422.939221,93.040443L423.299698,91.080667L423.351699,89.843571L423.404880,88.580824L422.110421,86.255394L420.323253,83.590872L417.934248,81.147210L416.216696,80.028067L414.806399,79.108983L412.691456,78.551765L410.414096,78.000467L407.624128,78.092299L406.437501,78.131157L403.376595,78.934425L401.380835,80.506051L399.754214,81.989035L399.111370,85.085699L399.073939,87.579158L399.196682,87.921294L400.415576,91.315336L401.423757,93.584159L402.223879,95.669116L403.869102,96.785700L404.166239,96.987280Z M349.581162,0.000000L346.473624,0.316311L344.981077,0.540491L343.062008,1.679151L342.976259,1.729997L341.636890,3.250387L340.567421,5.836584L340.327373,8.155649L340.641297,10.896973L341.480558,13.483180L341.698815,14.155270L343.016087,16.533844L343.788536,17.691030L344.141038,18.940804L344.976100,19.983699L346.090147,20.898643L347.035621,21.562539L347.127401,21.626895L348.298490,21.899648L349.648116,22.685426L351.236978,22.881681L351.344742,22.907787L351.878408,23.235030L353.028039,23.320029L354.509716,23.137131L356.162516,22.727621L357.247633,22.438628L357.968428,22.230382L358.795839,21.421078L359.258709,20.928544L359.897158,20.249167L360.811249,19.210369L361.385218,18.392718L361.915062,17.691030L362.567916,16.092613L363.081782,13.765494L362.805636,12.433610L362.404783,10.500216L361.671414,8.241861L360.209696,5.368643L358.222070,3.362401L355.414770,1.249763L352.798213,0.332248L351.550265,0.203386L349.581162,0.000000Z M582.641436,999.000000L585.052808,998.061988L586.932484,996.639939L587.698398,996.051745L588.202378,996.276759L589.571920,996.575866L590.920076,996.163341L591.730154,995.958825L592.061288,995.869548L592.348351,995.859831L593.108321,995.645445L594.731382,994.835275L595.973152,993.755148L597.138338,991.733516L597.405168,990.591897L599.066277,990.253010L600.747023,989.535759L602.391221,988.112037L603.438828,986.141873L603.558363,985.572809L603.070835,984.129347L602.973344,983.840564L604.402678,980.395658L604.912867,979.165215L605.049003,978.858059L605.103624,978.721259L605.064469,977.602563L604.758078,974.060177L603.706546,971.887160L602.863288,970.145344L600.657808,967.442583L597.619104,966.689040L597.401615,966.593841L596.830478,966.331931L596.102795,965.998204L595.091664,965.817676L594.505949,965.713064L594.094750,965.639577L591.683135,965.759676L591.343662,965.808566L590.429894,965.940053L589.497837,964.723574L588.438046,964.133554L587.139641,964.073580L586.445323,964.026057L584.682671,964.073884L582.381687,964.758951L582.294975,964.784762L580.450010,966.024319L579.945333,966.593841L578.818603,967.692498L577.845894,968.868133L575.006175,968.847940L573.253346,969.429456L571.479192,970.490306L571.207342,970.727316L569.782366,971.618417L568.526386,973.146149L567.380614,975.153214L567.387770,976.155607L567.381562,976.430271L567.395396,977.367680L567.822104,978.627579L567.925231,978.932001L566.004868,980.393532L564.952860,983.455823L564.898506,983.614031L564.673650,985.572809L564.810173,987.181766L565.388063,989.510251L566.420273,991.942284L566.456556,992.145282L566.580292,992.433913L566.657523,992.613681L567.104399,993.207797L567.292517,993.457711L568.557475,995.139544L568.738285,995.379741L571.609003,997.407748L573.609920,997.632306L575.411437,997.834394L575.723721,997.854435L576.638967,998.577910L577.454805,998.605239L578.951560,998.046350L580.058344,998.019020L582.641436,999.000000Z M640.081206,700.005824L640.278629,700.879816L642.111081,705.333288L642.292160,705.455671L647.233618,708.791750L652.886005,708.023136L654.034984,707.061076L657.105683,704.489512L657.344641,704.281339L657.757873,703.977051L658.050339,703.761590L658.915839,701.820466L658.973572,701.690035L659.331958,700.879816L659.647575,699.920642L659.665482,698.133483L659.672627,697.422719L658.505346,693.003412L656.248173,689.851817L656.028319,689.544645L653.969233,687.900975L649.696024,686.178045L649.523843,686.108350L643.901889,686.702804L641.660833,689.152593L640.136088,692.077035L640.093972,692.157814L639.291307,696.509249L639.488771,697.383545L640.081206,700.005824Z M607.383273,833.736395L603.355590,839.162911L603.349090,839.172781L603.260283,839.470382L602.020713,844.121610L602.006957,844.173538L602.162059,848.645137L602.786693,852.515913L602.820460,852.718182L603.360508,854.010918L603.378215,854.041741L605.106691,857.052353L606.801440,859.109431L607.840108,860.373012L608.440388,860.795117L610.418057,862.185176L611.147340,862.696257L609.774072,862.933577L608.410283,863.863117L606.817437,864.948593L606.816478,864.949959L603.825050,866.787174L603.824415,866.775027L603.535668,866.977121L602.315201,868.099188L601.081607,871.175078L601.025097,871.395391L600.949620,871.697696L600.655357,873.234729L600.693990,874.985697L601.067898,877.454542L602.159795,880.178470L604.022269,883.205762L605.749656,884.568786L606.622844,884.964317L606.712767,885.056936L606.982429,885.334187L607.072456,885.426655L607.145035,885.499384L607.862768,886.216957L611.342937,887.232126L615.224112,887.063893L618.964823,885.904784L621.748524,882.957511L622.603601,881.333633L622.764487,881.030721L623.429610,880.190465L624.236439,878.176064L624.812111,875.547792L625.144789,874.375166L625.645960,874.239121L627.478463,873.975687L629.031363,873.333118L630.250424,871.981629L630.353963,871.697696L630.931870,870.605694L631.682160,869.002763L631.845610,868.726422L633.885421,865.275647L634.415308,860.100011L634.536642,858.904908L634.720922,857.088794L634.429288,855.538545L634.325905,855.245045L634.250991,855.032778L634.026410,854.395520L633.951585,854.183101L633.974080,853.972959L633.359690,852.718182L633.338977,852.718182L633.194580,852.017889L633.158641,851.842973L632.912109,850.560407L632.851304,849.916771L632.847071,849.871979L632.828821,849.479177L632.876954,849.240793L632.878259,849.226217L632.963507,848.990566L632.510091,842.709373L632.501233,842.605820L632.658888,842.502419L632.868502,842.517451L634.473892,842.235034L635.896895,842.043719L637.349954,841.767224L638.415414,841.545693L639.245982,841.237008L639.955723,840.728657L640.667392,839.963853L641.299913,839.255229L641.867955,838.689179L642.231158,837.950491L642.687313,837.240955L642.782073,837.013654L642.903973,836.416326L642.903104,835.875178L642.952524,835.106425L642.670118,834.487535L643.372604,834.469163L644.025603,834.414805L644.912613,834.162148L645.537874,833.927862L645.909309,833.227588L646.052106,832.951092L647.379096,832.154248L647.542212,830.687801L646.851651,829.907052L646.857119,829.225908L646.872579,827.309261L646.852207,827.179136L646.743453,826.482960L646.727756,826.383051L646.680925,826.083323L646.665358,825.983414L646.776066,825.700085L646.664782,825.193250L646.339175,823.374992L646.374055,823.097888L646.372589,823.085134L646.409414,823.012859L646.639456,822.753216L647.218413,819.328663L647.763319,814.759400L647.802567,814.473185L648.003888,813.578858L648.072872,811.102528L647.538441,809.611628L646.432753,807.956286L645.404419,805.841785L644.487531,804.957326L641.999866,801.929210L641.851656,801.826567L640.698552,800.949699L640.548822,800.835669L638.451810,799.288585L637.084370,799.022716L635.802157,798.773245L633.877138,798.752291L631.659312,798.386056L630.439868,798.862070L629.125779,799.826094L627.170437,801.908408L625.757983,803.065418L625.530858,803.325214L624.815238,804.190086L623.941532,805.245970L623.085888,807.151998L622.604776,808.223218L622.580532,808.276969L622.508169,808.438069L622.484162,808.491668L621.382314,810.923055L620.225526,814.451016L620.107858,814.759400L619.915340,815.212637L619.818092,816.580243L619.772827,816.843074L619.750060,817.455893L619.874142,818.299353L620.098798,819.826540L620.620494,822.723152L620.625630,822.751394L620.405129,823.287078L620.251240,824.019240L620.237420,824.085138L620.195876,824.282375L620.182132,824.347969L620.123710,824.625377L619.948764,825.457448L619.935485,825.520461L619.907181,825.741688L619.900358,825.794680L619.879994,825.953502L619.873276,826.006342L619.701630,826.572393L619.230413,828.126907L619.153497,828.246100L618.850000,828.716493L618.836231,828.737750L618.795054,828.801522L618.781390,828.822628L618.698427,828.951234L618.449527,829.337054L618.366556,829.465660L618.307552,829.557066L618.130637,829.831133L618.071735,829.922388L618.045143,829.963536L617.993469,830.043099L617.964809,830.086069L617.937685,830.126457L617.912044,830.164721L617.835120,830.279510L617.809584,830.317621L617.637956,830.573619L617.123344,831.341158L617.079522,831.406600L617.069103,831.663813L615.131895,832.078330L609.320477,833.321879L607.383273,833.736395Z " data-aland="472233661" data-awater="-2147483648" data-division="0" data-funcstat="A" data-geoid="69" data-intptlat="+14.9367835" data-intptlon="+145.6010210" data-lsad="00" data-mtfcc="G4000" data-name="Commonwealth of the Northern Mariana Islands" data-region="9" data-statefp="69" data-statens="01779809" data-stusps="MP"/></g><g fill="#000" font-family="Arial" font-size="12px" id="mylayer-label" stroke="none"><text text-anchor="middle" y="571.773224904"><tspan dy="0" x="559.734757719"><![CDATA[Commonwealth of the Northern Mariana Islands]]></tspan></text></g></svg>