<?xml version="1.0" encoding="utf-8"?><!DOCTYPE svg  PUBLIC '-//W3C//DTD SVG 1.1//EN'  'http://www.w3.org/Graphics/SVG/1.1/DTD/svg11.dtd'><svg enable_background="new 0 0 1000 1001" height="1001px" pretty_print="False" style="stroke-linejoin: round; stroke:#000; fill: none;" version="1.1" viewBox="0 0 1000 1001" width="1000px" xmlns="http://www.w3.org/2000/svg" xmlns:xlink="http://www.w3.org/1999/xlink"><defs><style type="text/css"><![CDATA[path { fill-rule: evenodd; }]]></style></defs><metadata><views><view h="1001" padding="0" w="1000"><proj flip="auto" id="robinson" lon0="-66.3856199843"/><bbox h="12.35" w="41.66" x="-992.49" y="-311.36"/></view></views></metadata><g class="" id="mylayer"><path d="M0.000000,546.183226L0.294855,550.799711L0.873260,554.777862L1.224432,555.874228L2.372739,558.884005L3.931369,561.457088L6.038883,563.960140L7.792813,565.499645L9.606328,566.930881L10.808014,568.446640L13.288466,570.784676L15.795551,572.837754L19.258745,574.682346L21.303485,575.352484L21.957271,576.395325L23.374583,577.448630L26.138772,578.726523L29.187742,579.596295L30.840693,580.105037L34.074620,579.656668L35.916552,580.124356L38.308177,580.114294L39.956147,579.605552L40.093027,579.563291L40.051940,579.988316L41.207600,579.769766L44.407742,578.597727L48.911126,576.459320L53.266262,574.320913L56.441462,572.007024L59.374953,569.257647L62.233359,565.502060L62.766203,564.843192L64.534155,562.658102L67.189487,559.474047L69.425081,556.290397L71.077081,552.889005L72.089508,549.841398L72.751260,546.848531L73.296528,543.528849L73.404271,540.263908L73.200923,536.645589L72.616577,533.258297L71.759954,530.386185L71.387717,528.354054L69.677982,524.794909L68.333180,522.704018L67.870544,521.984381L65.420393,519.037012L63.337010,516.390298L60.532527,514.028139L57.563194,512.469734L54.469369,511.428920L51.562933,511.138329L48.903532,511.488487L46.645646,511.963816L44.708488,512.692708L43.235382,513.487205L42.622426,513.951667L40.247336,512.767570L39.451348,512.812245L38.875383,509.080850L37.834819,505.813115L35.642012,502.170674L33.321384,499.357343L29.694598,496.876461L26.409033,495.629581L23.687351,495.357908L19.796286,495.282644L16.786185,496.234909L13.320627,497.950275L9.970436,500.411838L7.613189,502.841607L5.291916,505.419892L4.132252,507.490249L3.267195,511.161270L3.266568,511.167710L2.785890,515.889209L2.490174,521.933669L2.573166,525.531450L2.883377,527.892407L4.478239,530.386588L4.941352,531.233410L5.641169,531.922861L5.360726,533.200742L5.088126,534.790950L4.983720,535.905021L3.609956,537.799506L2.464292,539.625168L1.271435,541.695137L0.382802,543.940589L0.000000,546.183226Z M171.280495,429.770824L171.484536,431.474492L172.030939,433.201102L172.662687,435.696035L173.821261,437.584844L174.989501,439.378267L176.498333,441.213145L178.147530,442.872546L179.705290,444.208358L181.773392,445.611786L183.400704,446.610728L184.294991,447.015617L186.086611,447.924002L188.020176,448.402142L190.690905,448.689107L193.763982,448.651677L198.002414,447.586729L200.317595,446.568468L203.591430,444.483651L206.156330,442.562641L208.799126,440.102317L211.162175,437.212153L212.723579,434.297842L213.636060,432.314856L214.539308,429.770824L214.982738,426.899583L214.997956,422.943681L214.396212,419.504154L213.416447,416.147137L210.646009,411.996046L207.875953,409.146149L205.027981,406.594483L201.591731,404.519345L197.840064,403.555831L194.917798,403.362645L191.211115,403.889881L188.411091,404.692005L185.766069,405.833009L182.598053,407.813970L179.371906,410.147094L176.336057,413.075072L174.018178,416.353605L172.359946,420.334052L171.288801,424.489175L171.162531,427.898923L171.280495,429.770824Z M1000.000000,453.779610L999.833744,449.325017L999.662674,445.692684L998.864778,442.864094L997.793499,439.897056L997.692281,438.758859L997.031962,435.917798L996.702244,435.114058L995.932898,433.237728L994.420804,430.828926L993.888837,429.766799L993.101583,427.888459L991.637457,425.921172L988.870852,423.181945L986.854931,421.837687L984.731489,420.806956L981.814147,420.094178L979.611542,419.816473L976.671063,419.912261L974.738285,420.365847L973.373591,420.873767L970.676425,421.986200L968.020659,422.345607L965.414921,422.705418L964.091779,423.057983L963.027923,423.341726L962.022320,423.780421L961.519905,423.999366L955.732331,423.934166L954.954373,423.058788L954.554473,422.608824L953.125785,420.719620L951.527215,419.143942L949.431263,417.577924L947.370777,416.505739L945.444679,415.694759L943.699661,415.295909L941.681371,413.936361L939.738508,412.687090L938.148557,411.865646L936.059613,411.067143L933.788226,410.595849L931.911748,410.362818L931.201769,410.257774L928.406544,410.440495L925.417127,411.278843L922.600265,412.626316L919.754635,414.371432L917.502881,416.301686L915.743826,418.417078L914.579905,420.348138L913.346678,422.579846L913.312856,422.574614L911.242747,422.251429L907.958873,421.606668L906.244606,421.379272L902.391879,421.152680L899.563975,421.528186L898.594321,420.872157L897.870554,420.348943L896.896330,419.645019L894.478850,419.203910L893.365951,418.244417L893.004583,418.118444L891.857408,417.718789L889.963211,417.420960L887.609144,416.019553L884.711664,414.410875L878.508842,411.065131L871.271554,407.372057L865.345120,404.533834L858.497234,401.463790L851.124195,399.457074L845.520569,398.273410L844.990175,398.354306L843.557656,398.747922L841.713192,399.524286L839.810165,400.519595L837.656308,401.911739L836.931720,402.567766L834.915861,404.576496L833.574103,406.436312L833.005940,407.270634L831.519526,407.582147L829.948450,408.373404L827.116742,410.079076L825.363758,411.445063L824.490448,409.963567L823.169569,408.357708L821.360110,406.532100L821.119167,406.381174L821.095992,406.367087L818.806483,404.937512L816.264700,403.850036L815.198185,403.436699L814.013463,401.201782L814.006937,401.185683L813.433625,399.898986L812.453655,398.747117L810.960089,396.989933L807.991578,394.929691L806.330989,394.132801L804.440433,393.224830L803.640531,393.264272L802.268568,392.864620L802.450158,390.952086L802.452412,390.928340L801.853826,390.392654L801.157094,389.924582L799.934169,389.441619L798.516491,389.155061L796.911045,388.799681L794.898789,388.495817L793.021406,388.073225L791.152617,387.810815L790.377604,387.765336L789.373834,387.706576L787.698906,387.692087L785.977950,387.671963L784.799496,387.671963L783.283626,387.409554L782.014344,386.972875L780.314043,386.308399L778.492023,385.561820L776.477849,384.914248L774.772302,384.404723L774.000653,384.209928L772.699217,384.060209L771.933065,383.973276L771.612707,383.936652L770.253792,383.794983L768.984150,383.675450L768.245275,383.541025L767.793407,383.458922L766.681983,383.578857L766.303120,383.619909L765.280500,383.788946L764.755056,383.306386L763.175001,382.034183L762.291787,381.323425L760.775007,380.199733L759.779865,379.462412L759.003624,378.838184L757.530053,378.191418L755.695663,377.624341L754.547656,377.334564L751.356003,376.752595L748.387316,376.494614L747.888109,376.509102L745.526731,376.575510L742.644905,377.228312L740.231730,377.915325L739.598190,378.237299L737.440171,377.763997L734.215799,377.591741L733.557163,377.152246L732.134790,376.178676L730.488812,375.358447L728.443054,374.571221L725.946136,373.695049L723.921248,373.111471L722.123701,372.783460L720.879943,372.290840L718.904972,371.976916L718.237705,372.032054L717.451292,372.150781L716.699205,372.317000L715.143739,372.438546L713.596937,372.682038L712.245040,373.076859L711.002422,373.485766L710.051219,373.951823L709.786435,373.949408L708.864728,373.941359L707.369506,373.805727L706.415550,373.336048L705.177032,373.107849L704.612974,372.914262L702.202466,371.955585L700.537238,371.547483L698.647710,371.394948L696.914486,371.284672L694.557182,371.345444L692.939307,371.317674L691.778506,371.415876L690.426774,371.566801L688.704796,371.104367L687.124194,370.833104L685.325271,370.641127L683.593085,370.761867L681.647866,370.785613L680.181204,370.732487L679.010582,370.926074L678.454769,370.554999L677.368424,370.288163L676.287976,369.966994L674.855316,370.063587L674.558583,369.816874L673.219854,369.374160L671.739409,368.835660L671.617265,368.791388L668.361846,368.630804L664.742597,368.522540L661.905949,368.514893L660.156054,368.542664L658.806768,368.532602L657.260180,368.385702L655.495684,368.562384L654.815623,368.421924L652.960842,368.137379L651.454530,368.085461L651.407073,368.083851L649.036186,367.986857L646.402133,368.550713L644.217231,369.213174L642.540899,369.865573L640.285057,369.374965L637.941708,369.019587L635.780303,368.950363L634.412691,369.116984L632.141160,368.165552L630.777268,367.803734L629.636642,367.523215L629.503248,367.505104L628.925129,367.426220L628.003954,367.274088L626.043813,366.807226L624.146770,366.679242L622.185044,366.700170L619.932291,366.923137L617.951651,367.134030L616.816274,367.631479L615.544588,367.410927L613.452115,367.269258L611.836402,367.274088L611.159590,367.275295L610.438378,367.097003L609.168804,366.668375L608.377400,366.400735L607.475498,366.303338L605.848834,365.458963L604.384665,364.953465L602.608823,364.000424L600.838416,363.114998L598.902366,362.405450L597.455560,362.211863L596.200478,362.198180L595.917270,362.194557L594.976335,362.150286L593.783110,362.093941L591.792233,362.156323L590.389107,362.382912L589.258169,362.596621L587.486999,362.321334L586.393701,362.139420L585.658547,362.186911L585.010113,362.330189L584.966230,362.316907L583.323056,361.813422L580.911933,361.330865L577.734559,361.044711L573.865600,361.077714L572.720539,361.092202L572.011114,361.101459L570.728894,361.239103L569.262847,361.592065L568.186337,361.785652L567.103145,361.924905L565.927710,362.470247L564.821133,362.229974L564.742524,362.231987L564.631670,362.234402L563.463621,362.258550L561.964530,362.448916L560.394460,362.733057L558.889519,362.976952L557.994169,363.310597L557.041106,363.665572L554.988470,364.650408L554.409888,364.980833L553.284141,365.624377L551.800856,366.749674L550.198596,368.063728L549.361518,368.828818L548.335254,368.535822L546.933740,368.144221L546.089088,367.917632L545.578882,367.780794L543.720319,367.602501L543.012874,367.230622L542.172673,366.939638L540.577031,366.342780L539.513289,365.944740L536.913147,365.072998L533.694741,364.427441L531.581025,364.372706L530.899593,364.378340L530.687995,364.379950L528.322778,363.632167L526.214639,363.279607L525.316247,362.975342L522.654951,362.456161L520.464166,362.184093L519.228104,362.271026L516.946981,362.039205L515.369623,361.947846L515.055078,361.982458L513.615102,362.140224L511.971782,362.577303L510.396063,361.862120L508.634540,361.389625L506.815243,361.120777L504.967367,361.014124L503.262274,361.329255L502.463589,361.378356L500.479281,361.027405L498.993723,360.906263L498.503121,360.889762L495.438613,360.951742L492.770290,361.138084L490.457429,361.475350L487.952453,362.000569L486.315195,362.639283L485.359550,362.660613L484.440443,362.560802L483.153813,362.917789L481.982160,362.870298L479.346251,362.854602L476.584693,363.230506L474.456382,363.704611L472.454688,364.274101L471.008223,364.981235L470.259230,365.531005L468.342803,365.993036L466.538937,366.442189L464.688654,367.107467L463.075983,367.189570L463.008458,367.192790L461.115587,367.697081L460.972566,367.735315L459.787616,368.188090L457.682137,367.217340L456.150627,366.803202L454.766951,365.753569L454.045638,365.247668L452.672788,364.506727L450.152123,363.377406L449.733976,363.230506L447.786389,362.547118L445.285948,362.067781L442.425688,361.598907L439.258277,361.222199L436.108921,361.035455L434.130576,361.058395L432.602923,361.076104L431.569678,361.154182L429.522208,361.309132L426.534784,361.840790L424.601596,362.475479L422.123847,361.888683L420.960271,361.728904L419.621860,361.545379L418.553918,361.576772L417.428798,361.609371L415.851511,361.597297L414.763004,361.508352L412.944202,361.575564L412.151644,361.619031L411.522063,361.653240L411.452010,361.657265L408.141779,361.888683L403.971154,362.665443L402.016893,363.065092L401.632459,363.195894L401.516018,364.474932L400.858283,364.676970L399.334377,365.256120L397.578484,364.759879L395.834205,364.425831L394.926056,364.097419L393.732728,363.724332L392.969966,363.485267L391.263232,362.987819L389.245131,362.539069L387.129620,362.376875L386.366623,362.389754L385.638750,362.401425L384.408457,362.554765L383.577243,362.184093L382.209318,361.908001L381.131343,361.735746L380.314667,361.605347L378.514099,361.354208L377.827430,361.020161L376.399162,360.124271L376.378861,360.117027L374.668194,359.465837L374.271645,359.205039L373.243547,358.529298L371.038318,357.343232L369.575502,356.569692L368.567882,356.184935L368.188815,356.040047L368.272729,355.174746L368.276242,355.138524L367.956829,355.035493L366.449714,354.470029L364.297407,353.926701L362.324706,353.444547L360.071069,353.184554L359.320895,353.098024L355.624557,352.680668L352.330603,352.351854L349.996646,352.237956L347.674742,351.963877L346.052756,351.861249L344.069326,351.580328L342.688069,351.550948L340.814793,351.440672L338.900655,351.379900L337.620284,351.288540L336.089695,351.373058L334.626327,351.590792L332.837605,351.723605L331.764273,351.857626L331.718021,351.868895L330.693558,352.119631L329.106466,352.544232L329.025517,352.559526L327.446888,352.857350L325.872099,353.317368L324.648870,353.794290L323.611238,353.989485L322.476280,354.202792L319.449525,354.932060L317.156792,355.802190L316.735528,355.922527L314.873308,356.454587L311.740925,357.510255L308.734414,359.150706L306.130071,361.065237L304.450637,362.550740L302.724848,364.008876L301.120571,365.603449L300.421619,365.980157L299.802287,366.502962L298.629311,367.492225L296.748040,369.289240L294.505471,371.763608L292.841487,374.213829L291.075951,377.194103L289.993893,379.463619L289.875211,379.463619L288.357556,379.463619L288.197213,379.463619L288.053370,380.075773L287.785341,381.047331L287.494516,382.754602L287.457200,383.513657L287.457149,383.950336L287.358952,384.727100L287.306223,385.608909L287.379352,386.553905L287.392515,386.778885L287.388681,387.434909L287.391386,387.475559L287.442973,388.253129L287.470573,388.473681L287.545698,389.081007L287.576273,389.263728L287.650458,389.711274L287.754589,390.550019L287.831834,391.041837L287.977649,391.945380L288.117823,392.770040L288.192714,393.430492L288.341212,394.187537L288.510734,394.810962L288.749315,395.729398L288.863707,396.188616L289.061401,397.034205L289.423671,398.273007L289.687683,398.976525L289.980608,399.782672L290.265565,400.472506L290.374960,400.698292L290.539519,401.156705L290.564899,401.227137L290.679001,401.458558L290.813152,401.887591L290.659661,401.946754L289.958412,402.372165L289.312330,402.788320L288.596345,403.300664L288.171498,403.616201L287.698082,403.981242L287.336486,404.189722L286.961941,404.380090L286.594886,404.626804L286.084042,404.995065L285.351687,405.466761L284.552661,405.907466L283.963818,406.260433L283.394040,406.608167L282.910643,406.902776L282.387454,407.181688L281.773972,407.445709L281.429819,407.597038L281.103563,407.740720L280.631037,407.980995L280.137988,408.281239L279.670099,408.610862L278.762531,409.253608L278.238779,409.570755L277.768438,409.900379L277.381290,410.177279L277.189176,410.313315L276.822228,410.443313L276.476781,410.611546L276.179074,410.767704L276.065962,410.818416L275.889430,410.891263L275.653921,411.073985L275.482360,411.171383L275.389497,411.287697L275.293403,411.408438L275.291023,411.429367L274.389382,411.642677L264.229441,414.049053L262.648780,414.920001L260.694468,415.791352L258.136768,417.096568L256.037288,418.276615L254.202479,419.994768L251.536055,423.409342L249.641528,426.537358L248.393672,429.771227L247.906850,431.527216L247.375100,433.443391L247.078692,435.930275L247.311317,438.458212L247.738761,441.769767L248.743860,445.380363L249.952887,448.058027L250.093647,448.423474L251.419013,451.871878L252.469440,453.736948L253.240219,455.104961L253.594627,455.524743L253.697090,456.362294L255.059264,460.595533L255.786242,462.624011L256.057605,463.381471L257.250130,466.329610L258.443552,468.899824L260.202361,472.132920L262.127394,474.690661L264.860653,476.844316L267.226675,478.213544L267.460536,478.348777L268.753125,478.999583L268.805118,479.016084L268.839674,479.010047L269.059603,479.133608L269.183789,479.175063L269.483109,479.317943L270.213233,479.526023L270.918674,479.663268L271.367620,479.769120L271.826960,479.894290L272.470536,480.077418L272.991104,480.272217L274.724489,480.551134L275.303456,480.659803L275.346031,481.245810L275.675765,482.554668L275.899146,483.463060L276.041470,484.525602L276.048797,484.903529L276.060613,485.500001L276.194940,486.565764L276.500688,487.869793L276.964306,489.338436L277.551680,490.860610L278.178454,492.225013L278.740063,493.462635L279.049058,494.166973L279.310493,494.605272L279.621091,494.831465L279.310466,495.118030L278.712035,495.734225L277.984236,496.682466L277.372675,497.711203L276.988611,498.334643L276.353133,498.953656L275.028971,500.947539L273.271241,503.308081L272.703574,504.372237L272.108060,505.580079L271.494523,507.062413L271.004794,508.139449L270.652209,509.178250L270.498480,510.047205L270.349545,510.455320L270.135905,511.462728L269.865154,512.419424L269.774362,513.519001L269.737321,514.515140L269.732420,515.646916L269.832968,516.360112L269.947772,516.750518L269.634485,518.630104L269.517259,518.967383L269.216882,519.573519L268.778891,520.601456L268.514235,521.571838L268.248777,522.794576L268.157054,524.119545L268.237760,525.644145L268.427325,526.973139L268.899116,528.332722L268.945184,528.582261L268.924381,529.866178L268.886766,530.384978L268.797169,531.072819L268.683666,531.539296L268.530598,531.772333L268.292947,532.134567L267.895808,532.599836L267.466915,533.012783L267.421795,533.066716L265.903684,533.524338L264.585284,534.309581L263.303169,535.577400L263.306419,535.543592L261.778219,537.775357L260.024484,541.359064L258.629885,545.763436L258.107444,549.623654L258.382774,553.061268L258.554758,553.769639L259.265151,556.683624L257.545689,560.078579L256.444128,564.319157L255.902422,569.635581L255.926086,572.034796L255.951749,574.611106L254.669561,577.585475L253.626543,580.693472L253.424358,581.344694L253.200265,582.085671L252.742990,583.783358L252.137275,586.709435L252.011897,588.194611L251.992573,589.856881L252.064094,591.357352L252.039307,592.586547L251.954996,594.031476L251.825997,595.800810L251.407670,597.972229L251.156271,600.091326L251.162744,602.361357L251.340354,603.673869L251.532397,605.337755L252.003841,607.180345L252.425445,608.657477L253.010742,609.987701L253.768060,611.333220L254.815223,612.884008L255.056460,613.319098L255.745254,614.461764L255.743640,614.478668L255.742141,614.494365L256.372664,615.043762L257.135791,615.514674L257.973700,615.907101L258.515032,615.900661L258.532447,615.909113L258.610513,615.968681L258.745638,616.256461L258.936639,616.759170L259.206529,617.261476L259.418895,617.720313L259.619218,618.228254L259.874257,618.831183L260.036029,619.151967L260.238424,619.480398L260.406340,619.733161L260.841055,620.340919L261.165884,620.704770L261.468675,621.038836L261.845872,621.397454L262.245068,621.753254L262.728631,622.157756L263.205913,622.521606L263.822402,623.002179L264.768888,623.792668L265.295586,624.208037L265.685375,624.534053L266.167520,624.854435L266.859816,625.286306L267.490957,625.587771L268.319382,626.014410L269.066369,626.258721L269.866181,626.573870L271.440252,627.027476L273.156362,627.358725L273.651181,627.458140L273.818277,627.491949L275.699389,627.614306L276.773849,627.603439L277.315297,627.551920L278.221097,627.475850L279.035897,627.372812L280.211099,627.180020L281.324321,626.968310L282.343202,626.735269L283.592507,626.360551L285.084387,625.738704L286.475962,624.959485L287.559449,624.283705L290.430271,622.187540L291.546974,621.166827L292.663267,619.915086L293.047063,620.123978L293.923721,620.485816L294.967996,620.839201L297.046841,621.291196L298.883688,621.447362L299.266330,621.473524L300.110266,621.682416L301.247443,621.759694L302.125727,621.865549L303.238946,621.907408L304.051448,621.923910L304.434545,621.993138L305.110507,621.993540L305.821186,621.879636L306.125362,621.979051L306.797766,622.175063L308.342437,622.484980L309.010659,622.566685L309.561958,622.551390L310.574898,622.479747L311.733804,622.299432L312.102170,622.181100L312.209844,622.213299L313.420202,622.725668L315.027132,623.000166L316.542524,623.150295L318.475819,623.287543L320.090333,623.401448L322.028823,623.373676L322.109182,623.416743L322.669264,623.806352L323.198308,624.190730L324.333872,624.657215L325.649175,625.046825L326.768811,625.312468L328.157642,625.441265L329.536105,625.491173L331.258924,625.317700L331.694449,625.672294L333.854092,626.212032L335.105064,626.441854L336.098443,626.498605L337.647899,626.412472L338.923782,626.240206L340.026859,625.861866L340.739945,626.234974L341.410955,626.523559L341.852356,626.680128L342.197920,626.624584L342.725570,626.459966L343.185090,626.554953L344.114755,626.832269L345.652364,627.331758L347.004578,627.731833L348.596987,628.274389L349.953744,628.704248L350.622824,628.766232L351.847183,628.811713L353.145016,628.677684L353.591103,628.965867L355.011133,629.297921L356.476234,629.461734L357.895968,629.601398L359.306222,629.556722L360.718199,629.409008L362.153430,629.223058L363.249036,628.930448L363.469681,628.810103L364.106261,629.007726L364.983463,629.321265L365.957287,629.576846L367.118827,629.826390L368.254647,630.062652L369.417505,630.135905L370.551228,630.013950L372.325731,629.406593L374.187381,628.549290L374.871215,628.141970L376.075904,627.423526L378.034419,626.099335L379.466077,624.617771L380.279811,623.532257L380.791576,622.678175L381.559991,623.133390L382.681613,623.437672L383.891143,623.646564L385.096414,623.741552L385.818802,623.703315L386.291356,623.598265L387.209250,623.601083L388.209016,623.428012L389.531606,623.228378L390.956699,622.934560L392.494469,622.553805L393.684659,622.205652L394.696073,621.872793L396.179638,621.328226L397.121270,620.807404L397.566034,620.566716L398.256933,620.561081L398.737052,620.549811L399.008202,620.543372L400.123781,620.468106L401.408548,620.375131L402.586290,620.228223L403.915705,619.963787L405.393623,619.430489L406.083068,619.048527L406.613525,618.683872L407.297310,618.646038L408.393814,618.660930L409.326556,618.392470L410.319355,617.948927L411.258012,617.536778L412.209986,617.043327L413.204001,616.483465L414.142352,615.871279L415.313409,615.125870L416.435253,614.300768L417.174315,613.849981L417.532559,613.678923L418.246747,613.830259L419.485226,614.088254L420.655719,614.180021L421.871658,614.213830L422.401033,614.189279L422.794920,614.170764L423.810038,614.090266L424.811223,613.931283L425.708678,613.569044L426.372170,613.272007L426.803821,612.947601L427.606677,613.061908L428.474079,613.271605L429.331678,613.444272L430.195354,613.637869L431.020061,613.854408L431.395528,613.874935L432.165260,613.932088L432.700418,613.938931L433.310494,613.828246L433.858738,613.796852L434.145520,613.684558L434.425817,613.640687L434.945663,613.383899L435.134980,613.527185L435.692115,613.801280L435.727620,613.818587L436.697163,614.244822L437.435542,614.533004L438.273718,614.840505L438.544988,614.917783L439.134355,615.084816L439.940844,615.275596L440.604156,615.287268L441.598361,615.205563L442.480904,615.089243L442.953381,615.040140L443.606759,614.971717L443.870297,615.541238L444.191424,615.857997L444.647321,616.313212L445.431306,616.826788L445.959706,617.145559L446.499233,617.554085L447.048771,617.886541L447.753259,618.322034L448.308875,618.616254L448.868535,619.019548L449.572381,619.384203L450.188148,619.746443L451.147232,620.202463L452.266335,620.593280L453.257190,621.006234L453.986584,621.308504L454.816990,621.428445L455.725956,621.447765L456.821035,621.426030L457.441047,621.391819L458.501048,621.114906L459.398289,620.784060L460.868667,620.147725L462.109178,619.596315L463.386457,618.941465L464.547686,618.316802L465.899074,617.504579L467.295900,616.545448L468.192231,615.772267L468.707942,615.325504L469.305588,615.346031L470.104936,615.279218L470.479326,615.248227L471.363341,615.134725L473.103090,614.902891L474.035668,614.794622L474.744732,614.696817L475.146996,614.700842L475.700073,614.673875L476.649104,614.539846L477.246088,614.396963L478.016341,614.182034L478.436781,613.982802L479.172134,614.362751L479.718307,614.656971L480.237118,614.936700L481.635465,615.698611L482.547746,616.034690L483.546962,616.292685L484.660133,616.453681L486.107079,616.635203L487.164904,616.592137L488.130571,616.463743L489.319335,616.188440L490.024427,615.932457L490.783132,615.587525L491.672251,615.178998L492.443618,614.855800L491.973335,615.578670L491.349400,616.403369L490.693758,617.415227L490.194817,618.222619L489.581062,619.262249L489.063811,620.289401L488.671170,621.214321L488.264975,622.152926L487.706116,623.750406L487.417210,624.771925L487.184192,626.103360L487.008136,627.392132L486.992526,627.598207L486.653021,628.921995L486.548463,629.628365L486.523825,630.290058L486.570602,631.000856L486.798255,632.895376L487.344844,635.376728L487.972920,636.958113L488.163470,637.438284L489.227960,639.524392L490.842895,642.088258L493.124401,644.255671L495.572437,645.802444L498.347252,647.009917L501.927882,647.644243L504.458305,647.711460L507.412142,647.182989L510.782848,646.139329L514.091801,644.679494L515.817238,643.666827L516.807280,642.949186L517.448805,642.326130L517.905872,641.812149L519.774188,641.325135L520.887532,640.738304L522.067474,640.110419L523.299759,639.455164L524.445848,638.639718L525.650434,637.582778L527.127626,636.120933L528.103242,635.139661L528.661896,634.577785L529.611861,633.429883L530.155709,632.352015L531.709780,632.458272L533.142280,632.378176L535.405076,631.955159L537.262063,631.602578L538.654022,631.000453L543.646255,627.414269L543.679844,627.392534L543.693387,627.405011L544.280529,627.939115L544.750676,628.569414L545.403332,629.137327L545.598571,629.274576L545.963695,629.531767L546.673843,629.980544L547.533991,630.399536L548.058539,630.672021L548.897709,631.001258L549.856496,631.448424L551.861111,631.980516L553.837654,632.405143L555.940142,632.534343L558.430851,632.511803L559.989078,632.283591L560.708931,632.156807L561.387859,632.237707L562.261607,632.069467L563.121371,631.781686L565.010880,631.004881L563.696281,631.001661L564.284870,630.847104L565.236627,630.434552L566.109426,630.026830L566.568758,629.689141L566.586091,629.676261L567.841725,629.780909L569.636226,629.704436L570.623880,629.573224L571.325510,629.479846L572.623638,629.207361L573.007111,629.046365L573.297233,629.188444L574.360027,629.171137L576.025677,629.212593L579.004260,629.133303L579.036615,629.132095L581.388031,628.902273L583.603235,628.469999L585.099212,628.001501L585.819800,627.605854L586.226045,627.344236L587.491972,627.615111L589.229055,628.040945L589.827542,628.183427L590.973787,628.456315L591.784434,628.619726L592.636341,628.791589L593.191490,628.847132L596.553071,631.001661L595.943632,631.001661L596.792990,631.681869L598.411956,632.403131L600.073781,633.350995L601.625578,633.992967L602.957759,634.342731L604.285865,634.612802L604.278607,634.690080L606.437164,635.211707L609.001499,635.342114L612.025617,635.342114L614.294746,635.104242L614.513834,635.081300L617.038067,634.429266L617.206872,634.348366L624.194446,631.001258L624.236366,630.995221L626.223434,629.654929L626.599011,629.387274L627.900026,628.459937L629.482204,627.161908L630.965082,627.817563L631.946009,628.067510L633.759865,628.393124L635.768801,628.540838L637.910080,628.764622L639.223301,628.913141L640.245943,629.028655L642.334726,629.061257L644.397869,629.060854L646.315188,629.008531L648.242429,628.809298L648.649450,628.688149L649.483010,628.409626L652.463827,627.136551L656.375878,624.479717L659.756576,621.801150L660.556520,621.167230L663.972602,618.223424L666.355300,616.190453L666.635041,615.849545L667.892607,616.575635L669.767788,617.692541L670.696620,618.202495L671.870774,618.846880L672.859922,619.588265L673.450948,620.031003L675.581904,621.052118L678.319436,621.845827L681.446084,622.133607L684.230277,622.343706L686.277353,622.506714L690.019304,621.774184L692.063083,620.913662L693.260238,620.105061L694.979479,618.792141L696.387878,617.733595L697.562294,616.748705L697.817865,616.553095L698.961847,615.676072L700.335185,614.497987L700.529510,614.290303L701.502148,613.252285L701.634672,613.105779L702.014900,612.686789L702.449421,612.208230L703.498469,610.788653L704.248239,610.909802L705.482138,611.171017L706.032393,611.263589L706.665467,611.369846L708.041280,611.575115L708.391009,611.627439L710.064904,611.763077L711.461240,611.827878L713.304870,611.864907L714.898404,611.747380L715.996666,611.578738L717.395128,611.448734L718.345236,611.406473L718.591217,611.387958L719.746340,611.300618L721.393407,611.045440L723.281899,610.659454L725.382703,610.172845L727.434756,609.574345L729.455434,608.880455L731.276917,608.038450L733.441924,607.034242L735.694780,605.911300L737.312737,604.997250L738.486996,604.888578L738.491963,604.857989L738.949015,604.868051L740.061079,604.892200L740.376929,604.819753L746.359490,603.446866L748.835107,601.923852L753.132221,598.255178L755.796690,595.029242L757.661890,594.617497L759.907897,593.779921L760.344729,593.616512L761.896982,592.995474L764.111522,591.483330L766.931441,589.160176L768.299206,587.276136L770.562411,584.159281L772.335437,580.691057L773.316526,578.697544L773.826979,576.076958L773.998338,574.061713L773.861656,572.249321L776.831628,571.245120L779.841712,569.820322L781.650114,568.816926L783.515958,567.208193L785.098708,565.599461L786.092323,564.284140L786.535418,563.418396L787.326319,561.156432L787.726077,559.512686L788.365816,558.619975L789.374520,556.807991L790.334953,554.722721L790.976287,551.408669L791.984652,550.937361L793.682213,549.572941L795.628763,547.522690L796.926708,545.668047L797.773377,544.134989L798.131362,543.486186L799.259206,540.798002L800.046942,538.713947L800.379696,537.125348L801.191390,536.778408L802.833664,535.879665L804.873821,534.690732L806.624285,533.162104L807.921325,531.731682L809.515462,530.382965L810.044878,529.759118L810.486670,529.020161L811.319705,529.090998L812.346696,529.204096L813.431182,529.234684L814.636959,529.156200L815.910510,528.885733L817.067242,528.807249L818.556001,528.483251L820.004094,527.816338L820.056947,527.786957L821.910829,526.752982L822.901508,526.230561L825.402136,524.703143L827.902440,523.175324L830.999516,521.283259L831.830093,520.775730L834.095872,519.391195L834.560948,519.224568L835.121131,518.884472L835.732204,518.397872L836.512920,517.850498L836.537647,517.840839L835.514617,519.980025L834.229040,521.621343L833.814595,522.464944L833.805538,522.483056L832.085763,525.932322L831.262123,527.989406L830.841349,530.382563L830.833292,530.382563L830.539618,532.997086L830.336091,536.637942L830.017596,540.183411L830.134597,543.972386L830.558154,546.323290L831.345533,548.714041L832.592330,551.687590L833.826450,553.858588L833.973845,554.117788L835.545159,556.519813L837.298518,558.403841L838.746209,560.058052L840.565521,561.751304L842.580115,563.361243L845.069755,564.383957L847.250403,565.211868L847.408101,565.271436L849.296384,565.861479L850.944130,566.629822L853.526784,567.734241L855.742245,568.445432L859.041728,568.770640L861.919222,568.471191L864.678495,567.940716L868.188893,566.821808L870.716178,565.638904L872.706694,564.594859L873.762639,563.432483L874.511121,563.044890L875.114269,562.982907L876.010673,563.415981L878.206355,564.417765L881.070937,565.047654L881.100467,565.054094L883.720767,565.099575L886.088597,564.989696L886.808608,564.869353L888.846738,565.412708L891.668277,565.438064L892.235467,565.333418L894.399098,564.933751L897.295714,564.191971L899.958274,562.639185L902.016298,562.499926L904.869111,561.663965L908.400776,560.190872L912.394942,557.200011L913.912055,557.503082L917.168037,557.568687L918.108875,557.521998L919.903367,557.116294L922.788950,556.427644L924.938719,555.627103L926.794651,554.926781L927.596656,555.147744L927.884327,555.169881L929.534934,555.296261L932.611886,554.865603L935.931475,553.869053L935.954135,553.858991L938.221776,552.860831L940.545744,551.262165L943.252855,551.427184L946.230415,550.998538L949.790144,549.958118L952.682162,548.721689L954.850049,547.537582L955.915245,547.577026L957.003251,547.439376L958.248681,547.281603L961.001379,546.720139L962.979379,545.964275L965.268038,544.524995L967.953008,542.716236L970.615149,540.220037L972.996208,537.544735L975.289276,533.040152L976.136071,530.382965L976.642003,527.880333L977.018773,525.054107L976.884219,522.118408L976.364855,518.539948L975.186118,515.343043L973.873666,513.128997L972.390241,511.133499L970.735305,509.493392L969.017749,508.235239L968.203786,507.278544L966.752928,505.528562L965.724925,504.565025L965.025398,504.130750L964.058397,503.530250L961.890977,502.095008L959.343884,500.910913L957.189716,500.237162L954.179325,500.025861L950.738821,500.229918L948.563582,499.665642L946.430633,499.495393L943.903282,499.916386L942.361892,499.492173L939.587896,499.427374L938.733890,498.937959L936.162327,497.904795L933.131450,497.015316L930.334775,496.490081L930.063870,496.439369L926.442853,495.953576L926.417413,495.944722L923.897042,495.614689L916.930704,494.673291L914.827756,494.822611L912.653638,494.976358L907.335421,495.744287L903.939262,495.908901L901.833658,493.719416L900.286685,492.833560L898.291297,491.691326L892.919591,490.458534L889.051781,490.931849L887.635408,491.244575L885.065535,491.812069L883.092662,492.791703L880.335723,493.243686L876.422825,493.801119L871.655628,495.883545L871.452177,495.972493L871.040794,496.261473L867.315148,498.877990L865.879745,500.574843L865.857690,500.593357L862.431379,503.434862L859.904229,505.530172L861.137903,502.915663L861.374967,502.412966L862.359414,500.326513L864.398875,497.304296L865.393422,495.226297L868.460978,492.009686L873.246942,491.352841L876.299210,490.128502L880.682100,489.556177L880.594750,490.482280L884.295647,489.216888L887.289570,487.617439L889.837952,485.958424L893.400620,481.820146L894.302889,480.075003L895.660727,477.592924L895.726513,477.399735L896.542563,475.003386L897.244053,471.974344L897.675100,469.147750L897.572454,465.919084L896.618933,461.848440L900.981729,462.356365L904.838323,463.037354L908.367867,462.894878L909.772664,462.621999L910.121783,462.883206L912.051745,464.325680L912.128324,464.382832L913.157858,466.034594L916.164097,468.636605L919.057126,469.924530L922.940045,471.796852L924.873987,472.322889L925.989914,473.302920L926.018725,473.335521L926.047573,473.367719L927.212323,474.667317L927.268156,474.732921L928.536873,476.223696L930.533530,477.892367L932.719773,479.149707L934.329919,480.074600L935.848957,480.749958L936.938990,481.234541L939.507757,481.696585L941.245599,481.532777L942.270271,481.448257L943.794233,483.790275L945.516695,485.517308L948.476310,487.292639L951.677848,488.370476L955.317667,488.938775L960.054772,488.048896L963.805891,486.915920L966.223421,485.395760L967.593373,484.096158L968.714941,484.555386L970.965209,485.105975L973.426079,485.258917L976.387584,485.002539L979.136679,483.995539L981.988155,482.878663L982.229216,482.784080L984.479437,481.407606L985.904933,480.075003L986.281439,480.075003L986.732901,479.663268L988.502835,477.730169L990.021314,475.699671L991.486714,472.668616L992.715907,470.402672L994.532667,467.535831L996.577853,464.511222L998.168309,461.480980L999.516489,457.736345L1000.000000,453.779610Z " data-aland="-2147483648" data-awater="-2147483648" data-division="0" data-funcstat="A" data-geoid="72" data-intptlat="+18.2176480" data-intptlon="-066.4107992" data-lsad="00" data-mtfcc="G4000" data-name="Puerto Rico" data-region="9" data-statefp="72" data-statens="01779808" data-stusps="PR"/></g><g fill="#000" font-family="Arial" font-size="12px" id="mylayer-label" stroke="none"><text text-anchor="middle" y="487.102696337"><tspan dy="0" x="559.852310567"><![CDATA[Puerto Rico]]></tspan></text></g></svg>