<?xml version="1.0" encoding="utf-8"?><!DOCTYPE svg  PUBLIC '-//W3C//DTD SVG 1.1//EN'  'http://www.w3.org/Graphics/SVG/1.1/DTD/svg11.dtd'><svg enable_background="new 0 0 1000 1001" height="1001px" pretty_print="False" style="stroke-linejoin: round; stroke:#000; fill: none;" version="1.1" viewBox="0 0 1000 1001" width="1000px" xmlns="http://www.w3.org/2000/svg" xmlns:xlink="http://www.w3.org/1999/xlink"><defs><style type="text/css"><![CDATA[path { fill-rule: evenodd; }]]></style></defs><metadata><views><view h="1001" padding="0" w="1000"><proj flip="auto" id="robinson" lon0="-64.8887845062"/><bbox h="14.11" w="8.56" x="-950.68" y="-309.63"/></view></views></metadata><g class="" id="mylayer"><path d="M387.588940,999.000000L395.774602,998.095368L403.317548,996.051043L412.597299,991.981387L415.027598,990.334768L419.456932,987.382251L420.822960,986.316163L424.857119,984.918852L427.921417,985.142042L430.112342,986.506112L430.545869,986.775602L439.147342,989.861083L446.752898,991.121869L455.119604,991.088628L461.075463,990.458235L465.669026,989.412329L466.883116,989.831404L469.375443,991.747513L473.649109,993.872566L476.369874,994.995639L479.690684,996.365646L484.814400,996.992477L489.760976,997.543329L492.140124,997.410365L497.130425,997.129003L502.753904,996.242179L503.147417,996.179258L511.250961,993.869005L516.565154,992.051431L520.259320,991.263143L525.611078,991.327251L532.423033,991.004338L534.377363,990.789458L537.196666,990.478417L540.995798,988.809241L543.722919,987.238602L544.606584,986.857517L548.278083,985.851975L554.448390,983.716238L557.629886,981.584063L560.108742,981.377494L561.045611,981.297953L567.621474,979.523119L570.847354,978.516391L579.821658,975.213657L585.816445,971.392127L588.965198,970.425763L598.662872,968.808825L601.611464,968.041908L607.156752,967.090977L610.313441,966.548437L617.655894,963.972259L622.854428,961.876888L624.541946,961.195448L629.283661,959.142816L638.787955,956.444360L645.475709,956.278155L653.726153,955.347407L667.799355,950.117889L674.011176,946.339102L677.713667,944.580892L680.161386,943.567043L684.567765,940.299931L684.864044,940.157470L686.927009,939.167364L696.921934,935.323285L703.501227,930.561519L705.472836,929.472878L708.328544,927.895121L711.490942,925.514833L715.637486,923.534623L720.843425,920.706770L727.133206,916.751100L729.651553,914.653361L735.596782,913.757044L746.592695,910.556419L758.873692,904.947018L759.771318,904.536255L769.661037,897.797852L779.496036,889.251387L786.737174,881.190479L792.085942,872.690321L796.592739,862.219462L800.359248,852.273339L800.973618,851.124157L802.336957,845.986081L802.916484,840.305470L802.748575,836.429359L801.020027,823.326568L797.698705,813.672511L795.194814,807.210754L791.795943,801.314092L789.070924,797.732407L784.907386,793.839686L780.433870,789.708345L772.831398,783.638362L766.611155,779.358628L763.711843,776.897633L761.442529,772.316361L756.894162,766.147850L753.746419,762.369104L747.045258,757.295162L741.325022,752.732890L737.886677,750.156744L729.277592,745.094677L722.254383,742.100651L719.486627,740.919424L709.531051,737.787687L706.354718,737.208352L696.697308,736.591027L688.785395,736.057991L681.957542,736.149402L681.956508,736.149402L673.338827,737.509891L667.766230,739.110187L655.819638,744.807384L650.690327,747.605529L644.947137,752.015842L640.456564,756.327623L638.463058,758.240145L634.962008,762.459328L630.874899,768.371410L629.837734,771.513837L625.673345,773.697034L617.409510,779.025035L614.354611,778.506243L610.975321,773.299334L606.743988,767.825314L602.054048,762.597039L597.580792,758.649717L591.860276,754.799742L586.422566,752.309072L582.791130,750.435727L577.932765,749.260435L573.030620,748.168244L569.061940,747.662512L566.464366,747.660138L566.463332,747.660138L557.171177,749.146467L552.731251,750.172177L550.844561,750.105696L550.153205,750.080765L547.507384,750.671973L546.110699,750.425043L540.169593,748.995697L531.772817,748.440105L524.953452,748.854425L516.111822,750.184048L510.081001,751.805714L506.774009,753.157894L503.908915,754.470898L502.497567,754.023337L500.728527,754.218032L497.325268,755.087036L493.509903,756.075944L490.454403,757.469675L485.072075,760.258325L481.753988,762.091307L476.655597,765.322770L472.030257,769.279592L469.546470,771.517398L468.558903,771.915099L467.211295,771.910350L465.932571,770.862083L463.836122,769.971709L460.688341,769.036223L458.927794,768.428394L454.544827,766.365101L449.158518,764.500065L445.079721,764.123733L441.328414,763.749776L437.928781,763.857808L435.718690,764.250760L433.529128,764.217519L427.209318,765.280032L418.974929,767.670983L413.545644,769.628618L409.549139,771.068650L402.384193,774.938810L397.202848,778.721120L390.746076,784.031315L386.385344,788.052248L382.599292,791.770454L381.994804,792.364038L381.390316,792.957621L378.896233,795.406747L373.333881,802.516693L370.115950,807.614392L366.147495,816.080089L361.089166,826.431016L357.990757,833.811650L355.430133,840.909740L353.082092,851.125344L353.181195,855.073876L353.296595,864.428789L354.214251,873.516593L356.305727,881.655851L357.904876,887.326978L357.166419,888.323017L352.657909,893.082397L347.394372,900.611456L342.622274,908.996471L339.047772,917.843302L336.184660,927.550840L335.335752,933.100890L334.846607,940.993242L335.398343,945.216032L335.732504,947.781523L337.039969,954.416660L339.784414,963.614918L345.128776,974.512034L352.861664,985.088619L361.847153,992.381467L371.696570,996.907000L379.718754,998.418281L387.588940,999.000000Z M472.555126,0.000000L465.370625,0.597111L458.621316,1.387720L458.528407,1.398404L451.515389,3.602848L450.881974,3.904372L445.677809,6.377101L439.754280,9.671305L435.106339,12.852735L431.271479,16.239535L428.868730,19.033972L426.214472,22.186914L417.091286,18.885584L407.393006,16.663330L401.498167,16.269212L393.727584,16.947047L388.334404,18.118716L381.461088,20.768327L375.387060,23.098608L372.272843,24.657273L366.403430,28.824002L357.521872,18.591183L344.685601,11.405659L333.596792,6.982523L313.900093,6.216843L292.573646,14.455322L280.346406,21.227736L270.599511,30.199854L262.268835,43.180829L256.101310,54.793085L253.173527,68.981373L252.660851,82.178442L250.290356,87.298438L248.318499,93.046418L247.497414,96.315715L246.418195,100.608303L240.003644,109.181610L239.563771,110.061259L238.240359,112.696644L237.798535,113.575106L233.035540,120.034177L230.992180,122.802520L224.854629,135.483252L218.286312,152.772374L218.285279,152.772374L217.949944,161.982011L217.942776,162.157704L218.848772,171.449258L210.641125,180.556816L203.440595,192.476663L199.319506,203.998835L197.743747,218.237150L197.083516,222.653238L198.444353,232.760389L201.652501,244.425052L206.000956,254.273426L216.777376,264.995531L230.416791,273.287599L247.158636,275.831609L254.943645,274.661103L262.945510,272.916029L264.514635,272.574137L268.121059,271.257615L272.601247,269.224070L277.847489,265.978470L282.602278,262.442026L285.327353,259.843411L287.597807,257.533268L289.233379,255.738337L291.324976,253.385457L294.053041,250.268071L295.392219,248.184670L300.080442,240.538412L302.481984,235.774491L303.516010,232.501596L304.921415,235.293707L312.208898,240.441068L321.335204,247.758493L333.032508,252.414390L339.179832,252.915357L344.565491,253.353405L353.967098,252.014330L355.733239,252.250567L360.269056,250.758353L364.934001,249.066703L369.621590,247.896199L374.245953,247.004670L375.954555,247.470022L376.655713,247.661149L380.844520,247.928252L385.223180,247.356058L387.670391,247.212416L394.244003,248.016099L397.592382,247.979298L401.117518,247.941310L407.337131,247.102014L409.343383,246.635475L410.135966,249.801532L411.496278,253.493486L412.880593,257.571256L412.880483,257.572443L415.038684,261.671583L417.824015,265.737484L420.392640,269.491173L426.833157,275.874346L432.482667,280.326067L438.604831,283.131246L440.216899,283.869639L447.167738,285.797532L447.343996,285.846204L447.347279,286.088378L447.364453,287.446451L447.363463,287.490374L447.386621,287.896372L447.657589,292.587897L449.099321,297.998823L449.403297,299.139653L451.979079,306.820371L455.729908,313.988254L460.977173,321.408999L462.907128,323.463920L464.125435,324.761453L470.176625,329.117034L470.994900,329.705850L475.574120,332.937219L477.579298,334.173022L480.722029,335.419510L485.094638,337.228697L492.129167,338.799271L495.347184,338.757722L500.904039,338.685307L509.186733,337.207329L518.056144,334.206262L527.337403,328.839245L534.332641,323.991006L541.989134,316.094221L547.788532,308.437240L552.948261,298.692106L556.866844,287.740858L557.970649,281.744683L558.336157,279.757434L558.865524,271.251679L558.438026,265.794466L557.983285,261.019851L567.365055,257.568882L572.902402,254.777954L573.359872,254.546464L577.826774,252.013143L582.401726,248.717688L585.132571,246.068030L588.038010,243.173824L588.473143,242.738150L591.215435,243.008814L593.705923,242.943523L597.637909,242.840243L598.113280,242.827185L604.679477,242.323845L608.525447,241.312416L609.430202,241.080927L612.147080,240.380525L613.347369,240.081370L614.254002,239.707427L616.015152,240.564529L619.704875,242.478171L622.110827,243.966822L626.348153,245.035233L628.762681,246.843221L630.990271,248.595415L633.165957,250.306059L638.378141,252.879743L642.394683,254.390951L647.782915,255.726465L654.850297,256.723649L662.114478,256.680913L663.069008,256.680913L668.715279,256.684474L675.503016,255.331153L682.272443,253.340347L685.904658,252.460688L689.518657,250.308434L693.549596,247.904509L701.323066,241.830002L705.049799,234.602802L704.397189,213.214444L704.398222,213.214444L719.158715,194.767801L733.103457,175.286018L735.172345,172.397764L734.438269,171.527608L734.035613,170.214657L733.735251,166.768460L732.188881,148.989041L731.710605,143.493892L732.516846,141.700163L737.629234,130.337120L737.266831,119.882226L732.396053,119.337342L727.779456,119.268490L718.519102,119.012074L715.201025,118.330672L712.744699,117.878383L708.476420,118.006591L704.825420,116.929881L701.694684,115.767699L696.057317,110.403146L693.951009,109.708687L693.741307,109.698003L689.604630,109.478387L685.811125,110.519483L680.062966,111.278047L678.204724,111.523779L674.825236,112.000997L674.582283,111.405068L670.395513,109.185171L670.367700,109.173300L670.327936,109.156681L669.590898,108.842096L668.359429,108.313832L667.146299,108.309084L666.288351,108.305523L665.574999,108.301961L664.862570,108.299587L663.926238,108.294839L657.396186,108.145263L657.310424,108.101340L656.218510,107.538649L649.022151,107.146903L648.032997,105.659454L646.481508,103.324409L641.316729,104.605301L638.213546,105.375735L637.018645,105.330625L637.017612,105.330625L634.856306,103.997500L634.096125,103.754143L632.894789,103.368332L632.385396,103.204511L632.069469,103.103607L631.879503,103.124975L629.717280,103.374268L628.381974,103.649677L626.531633,104.364317L626.011624,104.081785L624.058678,103.947642L623.568200,103.913216L622.805970,104.046172L618.359877,104.818980L607.311366,98.790838L603.669212,96.803617L597.640981,93.514138L592.365559,72.629351L576.955821,68.126656L559.555050,73.692999L552.617513,77.852622L544.674565,82.614111L544.300386,82.838474L533.044533,84.612013L530.592203,84.606077L530.140983,84.604890L528.780094,84.601329L528.326920,84.598955L525.380427,84.476683L516.541066,84.108679L513.897109,83.998278L513.619391,83.886690L509.424540,82.192687L508.895184,81.977821L501.850109,71.291482L501.326409,70.497308L500.812741,69.717379L500.950944,69.034793L500.502473,65.581500L500.608409,64.449001L500.608520,64.447814L489.344117,3.352370L485.356633,1.923102L482.013731,1.020906L480.490821,0.610169L472.555126,0.000000Z " data-aland="348078633" data-awater="1550282944" data-division="0" data-funcstat="A" data-geoid="78" data-intptlat="+18.3267485" data-intptlon="-064.9712501" data-lsad="00" data-mtfcc="G4000" data-name="United States Virgin Islands" data-region="9" data-statefp="78" data-statens="01802710" data-stusps="VI"/></g><g fill="#000" font-family="Arial" font-size="12px" id="mylayer-label" stroke="none"><text text-anchor="middle" y="475.170399148"><tspan dy="0" x="498.805375391"><![CDATA[United States Virgin Islands]]></tspan></text></g></svg>